<svg width="32" height="32" viewBox="0 0 32 32" fill="none" xmlns="http://www.w3.org/2000/svg">
<circle cx="16" cy="16" r="16" fill="#1E1E1E"/>
<circle cx="16" cy="16" r="15" fill="#F4BA44"/>
<path d="M25.3113 18.0071C25.5066 18.1243 25.5847 18.3586 25.5457 18.554C25.0769 19.9602 24.3738 21.2102 23.3972 22.2649C23.241 22.4211 23.0066 22.4602 22.8113 22.343L21.1316 21.4055C20.4285 21.9915 19.6472 22.4602 18.7879 22.7727V24.6868C18.7879 24.8821 18.6316 25.0774 18.3972 25.1555C17.0301 25.429 15.5847 25.468 14.1394 25.1555C13.9441 25.0774 13.7879 24.8821 13.7879 24.6868V22.7727C12.8894 22.4602 12.1082 21.9915 11.4051 21.4055L9.72537 22.343C9.53006 22.4602 9.29568 22.4211 9.13943 22.2649C8.20193 21.2102 7.45975 19.9602 7.03006 18.554C6.95193 18.3586 7.03006 18.1243 7.22537 18.0071L8.90506 17.0696C8.74881 16.1321 8.74881 15.2336 8.90506 14.2961L7.22537 13.3586C7.03006 13.2415 6.95193 13.0071 7.03006 12.8118C7.45975 11.4055 8.20193 10.1555 9.13943 9.10083C9.29568 8.94458 9.53006 8.90552 9.72537 9.02271L11.4051 9.99927C12.1082 9.37427 12.8894 8.90552 13.7879 8.59302V6.67896C13.7879 6.48364 13.9051 6.28833 14.1394 6.24927C15.5066 5.93677 16.9519 5.89771 18.3972 6.24927C18.6316 6.28833 18.7879 6.48364 18.7879 6.67896V8.59302C19.6472 8.90552 20.4285 9.37427 21.1316 9.96021L22.8113 9.02271C23.0066 8.90552 23.241 8.94458 23.3972 9.10083C24.3347 10.1555 25.0769 11.4055 25.5066 12.8118C25.5847 13.0071 25.5066 13.2415 25.3113 13.3586L23.6316 14.2961C23.8269 15.2336 23.8269 16.1321 23.6316 17.0696L25.3113 18.0071ZM16.2879 18.7883C18.0066 18.7883 19.4129 17.4211 19.4129 15.6633C19.4129 13.9446 18.0066 12.5383 16.2879 12.5383C14.5301 12.5383 13.1629 13.9446 13.1629 15.6633C13.1629 17.4211 14.5301 18.7883 16.2879 18.7883Z" fill="black" fill-opacity="0.870588"/>
</svg>
