<!--
Copyright 2025 Specter Ops, Inc.

Licensed under the Apache License, Version 2.0
you may not use this file except in compliance with the License.
You may obtain a copy of the License at

    http://www.apache.org/licenses/LICENSE-2.0

Unless required by applicable law or agreed to in writing, software
distributed under the License is distributed on an "AS IS" BASIS,
WITHOUT WARRANTIES OR CONDITIONS OF ANY KIND, either express or implied.
See the License for the specific language governing permissions and
limitations under the License.

SPDX-License-Identifier: Apache-2.0
-->
<svg width="32" height="32" viewBox="0 0 32 32" fill="none" xmlns="http://www.w3.org/2000/svg">
<circle cx="16" cy="16" r="16" fill="#1E1E1E"/>
<circle cx="16" cy="16" r="15" fill="#EEEEEE"/>
<path d="M13.9344 17.54C13.9344 17.1 13.9944 16.7067 14.1144 16.36C14.2344 16.0134 14.4278 15.6867 14.6944 15.38C14.9744 15.0734 15.3411 14.76 15.7944 14.44C16.1944 14.1467 16.5144 13.8867 16.7544 13.66C17.0078 13.4334 17.1878 13.2067 17.2944 12.98C17.4144 12.7534 17.4744 12.5 17.4744 12.22C17.4744 11.7934 17.3144 11.4734 16.9944 11.26C16.6878 11.0334 16.2544 10.92 15.6944 10.92C15.1344 10.92 14.5811 11.0067 14.0344 11.18C13.4878 11.3534 12.9278 11.5867 12.3544 11.88L11.2944 9.74002C11.9478 9.38002 12.6544 9.08669 13.4144 8.86002C14.1744 8.63335 15.0078 8.52002 15.9144 8.52002C17.3011 8.52002 18.3744 8.85335 19.1344 9.52002C19.9078 10.1867 20.2944 11.0334 20.2944 12.06C20.2944 12.6067 20.2078 13.08 20.0344 13.48C19.8611 13.88 19.6011 14.2534 19.2544 14.6C18.9078 14.9334 18.4744 15.2934 17.9544 15.68C17.5678 15.96 17.2678 16.2 17.0544 16.4C16.8411 16.6 16.6944 16.7934 16.6144 16.98C16.5478 17.1667 16.5144 17.4 16.5144 17.68V18.26H13.9344V17.54ZM13.6144 21.6C13.6144 20.9867 13.7811 20.56 14.1144 20.32C14.4478 20.0667 14.8544 19.94 15.3344 19.94C15.8011 19.94 16.2011 20.0667 16.5344 20.32C16.8678 20.56 17.0344 20.9867 17.0344 21.6C17.0344 22.1867 16.8678 22.6134 16.5344 22.88C16.2011 23.1334 15.8011 23.26 15.3344 23.26C14.8544 23.26 14.4478 23.1334 14.1144 22.88C13.7811 22.6134 13.6144 22.1867 13.6144 21.6Z" fill="black" fill-opacity="0.870588"/>
</svg>
