<svg width="32" height="32" viewBox="0 0 32 32" fill="none" xmlns="http://www.w3.org/2000/svg">
<circle cx="16" cy="16" r="16" fill="#1E1E1E"/>
<circle cx="16" cy="16" r="15" fill="#B18FCF"/>
<path d="M25.375 6.5C26.3906 6.5 27.25 7.35938 27.25 8.375V20.875C27.25 21.9297 26.3906 22.75 25.375 22.75H17.875L18.5 24.625H21.3125C21.8203 24.625 22.25 25.0547 22.25 25.5625C22.25 26.1094 21.8203 26.5 21.3125 26.5H10.6875C10.1406 26.5 9.75 26.1094 9.75 25.5625C9.75 25.0547 10.1406 24.625 10.6875 24.625H13.5L14.125 22.75H6.625C5.57031 22.75 4.75 21.9297 4.75 20.875V8.375C4.75 7.35938 5.57031 6.5 6.625 6.5H25.375ZM24.75 20.25V9H7.25V20.25H24.75Z" fill="black" fill-opacity="0.870588"/>
</svg>
