<svg xmlns="http://www.w3.org/2000/svg" width="1052" height="1102" viewBox="0 0 1052 1102"><defs><style type="text/css"/></defs><g transform="translate(-532.8760040156066 714.7327620269882) scale(1)"><g class="relationship"><g transform="translate(1062.3030028262576 -218.37018627328507) rotate(-170.12523177031707)" stroke-width="5" stroke="#aea1ff"><path d="M 59 0 L 398.71424434841674 0"/><polygon points="-24.8621506177483,0 -27.62461179749811,9.20820393249937 0,0 -27.62461179749811,-9.20820393249937" fill="#aea1ff" transform="translate(423.576394966165 0) rotate(0)" stroke="none"/></g><g transform="translate(836.8364116570915 -257.6180987835908) rotate(9.874768229682912) translate(0 -13)"><g transform="translate(0 0)"><g transform="translate(-46.79999923706055 0)" fill="#ffffff" stroke="#000000" stroke-width="0"><rect x="0" y="0" width="93.5999984741211" height="26" rx="5" ry="5" stroke="none"/><text xml:space="preserve" x="5" y="17.45703125" stroke="none" text-anchor="left" font-family="sans-serif" font-size="16" font-weight="normal" fill="#000000">AZContains</text></g></g></g></g><g class="relationship"><g transform="translate(586.8760040156066 -301.1297523695212) rotate(-57.83483602713582)" stroke-width="5" stroke="#aea1ff"><path d="M 59 0 L 149.10708590934996 0"/><polygon points="-24.8621506177483,0 -27.62461179749811,9.20820393249937 0,0 -27.62461179749811,-9.20820393249937" fill="#aea1ff" transform="translate(173.96923652709827 0) rotate(0)" stroke="none"/></g><g transform="translate(642.2701239217024 -389.21284541949007) rotate(-57.83483602713582) translate(0 -13)"><g transform="translate(0 0)"><g transform="translate(-45.91666793823242 0)" fill="#ffffff" stroke="#000000" stroke-width="0"><rect x="0" y="0" width="91.83333587646484" height="26" rx="5" ry="5" stroke="none"/><text xml:space="preserve" x="5" y="17.45703125" stroke="none" text-anchor="left" font-family="sans-serif" font-size="16" font-weight="normal" fill="#000000">AZHasRole</text></g></g></g></g><g class="relationship"><g transform="translate(710.8999003305553 -498.34217163077847) rotate(38.5452432105148)" stroke-width="5" stroke="#aea1ff"><path d="M 58.695178092152055 -5.989663490593891 L 95.96898050729243 -9.793341079425122 A 40 40 0 0 1 100.02976931447472 -10 L 224.6488665832868 -10 L 349.2679638520989 -10 A 40 40 0 0 1 353.32875265928124 -9.79334107942512 L 365.8688540869191 -8.51366206436971 L 365.8688540869191 -8.51366206436971"/><polygon points="-24.8621506177483,0 -27.62461179749811,9.20820393249937 0,0 -27.62461179749811,-9.20820393249937" fill="#aea1ff" transform="translate(449.2977331665736 0) rotate(5.826689442008371) translate(-59 0)" stroke="none"/></g><g transform="translate(892.8327758137704 -366.1773424379695) rotate(38.5452432105148) translate(0 -13)"><g transform="translate(0 0)"><g transform="translate(-50.79999923706055 0)" fill="#ffffff" stroke="#000000" stroke-width="0"><rect x="0" y="0" width="101.5999984741211" height="26" rx="5" ry="5" stroke="none"/><text xml:space="preserve" x="5" y="17.45703125" stroke="none" text-anchor="left" font-family="sans-serif" font-size="16" font-weight="normal" fill="#000000">AZScopedTo</text></g></g></g></g><g class="relationship"><g transform="translate(1062.3030028262576 -218.37018627328507) rotate(-141.4547567894852)" stroke-width="5" stroke="#aea1ff"><path d="M 58.695178092152055 -5.989663490593891 L 95.96898050729243 -9.793341079425122 A 40 40 0 0 1 100.02976931447472 -10 L 224.6488665832868 -10 L 349.2679638520989 -10 A 40 40 0 0 1 353.32875265928124 -9.79334107942512 L 365.8688540869191 -8.51366206436971 L 365.8688540869191 -8.51366206436971"/><polygon points="-24.8621506177483,0 -27.62461179749811,9.20820393249937 0,0 -27.62461179749811,-9.20820393249937" fill="#aea1ff" transform="translate(449.2977331665736 0) rotate(5.826689442008371) translate(-59 0)" stroke="none"/></g><g transform="translate(880.3701273430426 -350.535015466094) rotate(38.5452432105148) translate(0 -13)"><g transform="translate(0 0)"><g transform="translate(-46.79999923706055 0)" fill="#ffffff" stroke="#000000" stroke-width="0"><rect x="0" y="0" width="93.5999984741211" height="26" rx="5" ry="5" stroke="none"/><text xml:space="preserve" x="5" y="17.45703125" stroke="none" text-anchor="left" font-family="sans-serif" font-size="16" font-weight="normal" fill="#000000">AZContains</text></g></g></g></g><g class="relationship"><g transform="translate(1062.3030028262576 -218.37018627328507) rotate(-102.94180737377972)" stroke-width="5" stroke="#aea1ff"><path d="M 59 0 L 363.7855417264733 0"/><polygon points="-24.8621506177483,0 -27.62461179749811,9.20820393249937 0,0 -27.62461179749811,-9.20820393249937" fill="#aea1ff" transform="translate(388.6476923442216 0) rotate(0)" stroke="none"/></g><g transform="translate(1014.9591995269657 -424.39316524018295) rotate(77.05819262622028) translate(0 -13)"><g transform="translate(0 0)"><g transform="translate(-46.79999923706055 0)" fill="#ffffff" stroke="#000000" stroke-width="0"><rect x="0" y="0" width="93.5999984741211" height="26" rx="5" ry="5" stroke="none"/><text xml:space="preserve" x="5" y="17.45703125" stroke="none" text-anchor="left" font-family="sans-serif" font-size="16" font-weight="normal" fill="#000000">AZContains</text></g></g></g></g><g class="relationship"><g transform="translate(710.8999003305553 -498.34217163077847) rotate(-31.896567737697538)" stroke-width="5" stroke="#fda1ff"><path d="M 59 0 L 211.9521572153208 0"/><polygon points="-24.8621506177483,0 -27.62461179749811,9.20820393249937 0,0 -27.62461179749811,-9.20820393249937" fill="#fda1ff" transform="translate(236.8143078330691 0) rotate(0)" stroke="none"/></g><g transform="translate(825.919543805499 -569.9260349646738) rotate(-31.896567737697538) translate(0 -13)"><g transform="translate(0 0)"><g transform="translate(-52.56666564941406 0)" fill="#ffffff" stroke="#000000" stroke-width="0"><rect x="0" y="0" width="105.13333129882812" height="26" rx="5" ry="5" stroke="none"/><text xml:space="preserve" x="5" y="17.45703125" stroke="none" text-anchor="left" font-family="sans-serif" font-size="16" font-weight="normal" fill="#000000">AZAddSecret</text></g></g></g></g><g class="relationship"><g transform="translate(1062.3030028262576 -218.37018627328507) rotate(-81.18697589708479)" stroke-width="5" stroke="#aea1ff"><path d="M 59 0 L 363.7855417264734 0"/><polygon points="-24.8621506177483,0 -27.62461179749811,9.20820393249937 0,0 -27.62461179749811,-9.20820393249937" fill="#aea1ff" transform="translate(388.6476923442217 0) rotate(0)" stroke="none"/></g><g transform="translate(1094.6905885963693 -427.26716533526326) rotate(-81.18697589708479) translate(0 -13)"><g transform="translate(0 0)"><g transform="translate(-46.79999923706055 0)" fill="#ffffff" stroke="#000000" stroke-width="0"><rect x="0" y="0" width="93.5999984741211" height="26" rx="5" ry="5" stroke="none"/><text xml:space="preserve" x="5" y="17.45703125" stroke="none" text-anchor="left" font-family="sans-serif" font-size="16" font-weight="normal" fill="#000000">AZContains</text></g></g></g></g><g class="relationship"><g transform="translate(1130.8873161468432 -660.7327620269882) rotate(27.72791956928825)" stroke-width="5" stroke="#aea1ff"><path d="M 59 0 L 211.37276026938375 0"/><polygon points="-24.8621506177483,0 -27.62461179749811,9.20820393249937 0,0 -27.62461179749811,-9.20820393249937" fill="#aea1ff" transform="translate(236.23491088713206 0) rotate(0)" stroke="none"/></g><g transform="translate(1250.549839841119 -597.8341309048541) rotate(27.72791956928825) translate(0 -13)"><g transform="translate(0 0)"><g transform="translate(-45.91666793823242 0)" fill="#ffffff" stroke="#000000" stroke-width="0"><rect x="0" y="0" width="91.83333587646484" height="26" rx="5" ry="5" stroke="none"/><text xml:space="preserve" x="5" y="17.45703125" stroke="none" text-anchor="left" font-family="sans-serif" font-size="16" font-weight="normal" fill="#000000">AZHasRole</text></g></g></g></g><g class="relationship"><g transform="translate(1392.2195190226766 -523.3678016236996) rotate(137.2475723302167)" stroke-width="5" stroke="#aea1ff"><path d="M 58.695178092152055 -5.989663490593891 L 95.96898050729243 -9.793341079425122 A 40 40 0 0 1 100.02976931447472 -10 L 224.64886658328672 -10 L 349.2679638520987 -10 A 40 40 0 0 1 353.32875265928107 -9.79334107942512 L 365.86885408691893 -8.51366206436971 L 365.86885408691893 -8.51366206436971"/><polygon points="-24.8621506177483,0 -27.62461179749811,9.20820393249937 0,0 -27.62461179749811,-9.20820393249937" fill="#aea1ff" transform="translate(449.29773316657344 0) rotate(5.826689442008371) translate(-59 0)" stroke="none"/></g><g transform="translate(1234.0495795122517 -363.5260564742428) rotate(317.2475723302167) translate(0 -13)"><g transform="translate(0 0)"><g transform="translate(-50.79999923706055 0)" fill="#ffffff" stroke="#000000" stroke-width="0"><rect x="0" y="0" width="101.5999984741211" height="26" rx="5" ry="5" stroke="none"/><text xml:space="preserve" x="5" y="17.45703125" stroke="none" text-anchor="left" font-family="sans-serif" font-size="16" font-weight="normal" fill="#000000">AZScopedTo</text></g></g></g></g><g class="relationship"><g transform="translate(1062.3030028262576 -218.37018627328507) rotate(-42.75242766978328)" stroke-width="5" stroke="#aea1ff"><path d="M 58.695178092152055 -5.989663490593891 L 95.96898050729243 -9.793341079425122 A 40 40 0 0 1 100.02976931447472 -10 L 224.64886658328672 -10 L 349.2679638520987 -10 A 40 40 0 0 1 353.32875265928107 -9.79334107942512 L 365.86885408691893 -8.51366206436971 L 365.86885408691893 -8.51366206436971"/><polygon points="-24.8621506177483,0 -27.62461179749811,9.20820393249937 0,0 -27.62461179749811,-9.20820393249937" fill="#aea1ff" transform="translate(449.29773316657344 0) rotate(5.826689442008371) translate(-59 0)" stroke="none"/></g><g transform="translate(1220.4729423366825 -378.2119314227418) rotate(-42.75242766978328) translate(0 -13)"><g transform="translate(0 0)"><g transform="translate(-46.79999923706055 0)" fill="#ffffff" stroke="#000000" stroke-width="0"><rect x="0" y="0" width="93.5999984741211" height="26" rx="5" ry="5" stroke="none"/><text xml:space="preserve" x="5" y="17.45703125" stroke="none" text-anchor="left" font-family="sans-serif" font-size="16" font-weight="normal" fill="#000000">AZContains</text></g></g></g></g><g class="relationship"><g transform="translate(1392.2195190226766 -523.3678016236996) rotate(59.99999999999999)" stroke-width="5" stroke="#fda1ff"><path d="M 59 0 L 184.91133956060634 0"/><polygon points="-24.8621506177483,0 -27.62461179749811,9.20820393249937 0,0 -27.62461179749811,-9.20820393249937" fill="#fda1ff" transform="translate(209.77349017835462 0) rotate(0)" stroke="none"/></g><g transform="translate(1453.1973539128282 -417.7510934584109) rotate(59.99999999999999) translate(0 -13)"><g transform="translate(0 0)"><g transform="translate(-52.56666564941406 0)" fill="#ffffff" stroke="#000000" stroke-width="0"><rect x="0" y="0" width="105.13333129882812" height="26" rx="5" ry="5" stroke="none"/><text xml:space="preserve" x="5" y="17.45703125" stroke="none" text-anchor="left" font-family="sans-serif" font-size="16" font-weight="normal" fill="#000000">AZAddSecret</text></g></g></g></g><g class="relationship"><g transform="translate(1062.3030028262576 -218.37018627328507) rotate(170.12523177031713)" stroke-width="5" stroke="#aea1ff"><path d="M 59 0 L 398.71424434841674 0"/><polygon points="-24.8621506177483,0 -27.62461179749811,9.20820393249937 0,0 -27.62461179749811,-9.20820393249937" fill="#aea1ff" transform="translate(423.576394966165 0) rotate(0)" stroke="none"/></g><g transform="translate(836.8364116570915 -179.1222737629794) rotate(350.1252317703171) translate(0 -13)"><g transform="translate(0 0)"><g transform="translate(-46.79999923706055 0)" fill="#ffffff" stroke="#000000" stroke-width="0"><rect x="0" y="0" width="93.5999984741211" height="26" rx="5" ry="5" stroke="none"/><text xml:space="preserve" x="5" y="17.45703125" stroke="none" text-anchor="left" font-family="sans-serif" font-size="16" font-weight="normal" fill="#000000">AZContains</text></g></g></g></g><g class="relationship"><g transform="translate(586.8760040156066 -135.610620177049) rotate(59.15712045382268)" stroke-width="5" stroke="#aea1ff"><path d="M 59 0 L 222.00611653649204 0"/><polygon points="-24.8621506177483,0 -27.62461179749811,9.20820393249937 0,0 -27.62461179749811,-9.20820393249937" fill="#aea1ff" transform="translate(246.86826715424036 0) rotate(0)" stroke="none"/></g><g transform="translate(658.9098928136939 -14.978003330049702) rotate(59.15712045382268) translate(0 -13)"><g transform="translate(0 0)"><g transform="translate(-45.91666793823242 0)" fill="#ffffff" stroke="#000000" stroke-width="0"><rect x="0" y="0" width="91.83333587646484" height="26" rx="5" ry="5" stroke="none"/><text xml:space="preserve" x="5" y="17.45703125" stroke="none" text-anchor="left" font-family="sans-serif" font-size="16" font-weight="normal" fill="#000000">AZHasRole</text></g></g></g></g><g class="relationship"><g transform="translate(1062.3030028262576 -218.37018627328507) rotate(-8.842777632082369)" stroke-width="5" stroke="#aea1ff"><path d="M 59 0 L 386.026258244058 0"/><polygon points="-24.8621506177483,0 -27.62461179749811,9.20820393249937 0,0 -27.62461179749811,-9.20820393249937" fill="#aea1ff" transform="translate(410.8884088618063 0) rotate(0)" stroke="none"/></g><g transform="translate(1282.1713153485302 -252.5757089309639) rotate(-8.842777632082369) translate(0 -13)"><g transform="translate(0 0)"><g transform="translate(-46.79999923706055 0)" fill="#ffffff" stroke="#000000" stroke-width="0"><rect x="0" y="0" width="93.5999984741211" height="26" rx="5" ry="5" stroke="none"/><text xml:space="preserve" x="5" y="17.45703125" stroke="none" text-anchor="left" font-family="sans-serif" font-size="16" font-weight="normal" fill="#000000">AZContains</text></g></g></g></g><g class="relationship"><g transform="translate(743.6902471688581 127.00067050979612) rotate(19.656052991551338)" stroke-width="5" stroke="#fda1ff"><path d="M 58.695178092152055 -5.989663490593891 L 95.96898050729243 -9.793341079425122 A 40 40 0 0 1 100.02976931447472 -10 L 152.93413357712024 -10 L 205.83849783976578 -10 A 40 40 0 0 1 209.89928664694807 -9.79334107942512 L 222.43938807458596 -8.51366206436971 L 222.43938807458596 -8.51366206436971"/><polygon points="-24.8621506177483,0 -27.62461179749811,9.20820393249937 0,0 -27.62461179749811,-9.20820393249937" fill="#fda1ff" transform="translate(305.86826715424047 0) rotate(5.826689442008371) translate(-59 0)" stroke="none"/></g><g transform="translate(891.0764596627274 169.02630054310399) rotate(19.656052991551338) translate(0 -13)"><g transform="translate(0 0)"><g transform="translate(-52.56666564941406 0)" fill="#ffffff" stroke="#000000" stroke-width="0"><rect x="0" y="0" width="105.13333129882812" height="26" rx="5" ry="5" stroke="none"/><text xml:space="preserve" x="5" y="17.45703125" stroke="none" text-anchor="left" font-family="sans-serif" font-size="16" font-weight="normal" fill="#000000">AZAddSecret</text></g></g></g></g><g class="relationship"><g transform="translate(743.6902471688581 127.00067050979612) rotate(19.656052991551338)" stroke-width="5" stroke="#aea1ff"><path d="M 58.695178092152055 5.989663490593891 L 95.96898050729243 9.793341079425122 A 40 40 0 0 0 100.02976931447472 10 L 152.93413357712024 10 L 205.83849783976578 10 A 40 40 0 0 0 209.89928664694807 9.79334107942512 L 222.43938807458596 8.51366206436971 L 222.43938807458596 8.51366206436971"/><polygon points="-24.8621506177483,0 -27.62461179749811,9.20820393249937 0,0 -27.62461179749811,-9.20820393249937" fill="#aea1ff" transform="translate(305.86826715424047 0) rotate(-5.826689442008371) translate(-59 0)" stroke="none"/></g><g transform="translate(884.3489990106767 187.86087707604227) rotate(19.656052991551338) translate(0 -13)"><g transform="translate(0 0)"><g transform="translate(-50.79999923706055 0)" fill="#ffffff" stroke="#000000" stroke-width="0"><rect x="0" y="0" width="101.5999984741211" height="26" rx="5" ry="5" stroke="none"/><text xml:space="preserve" x="5" y="17.45703125" stroke="none" text-anchor="left" font-family="sans-serif" font-size="16" font-weight="normal" fill="#000000">AZScopedTo</text></g></g></g></g><g class="relationship"><g transform="translate(1392.2195190226766 86.62742907712959) rotate(158.32676827588497)" stroke-width="5" stroke="#fda1ff"><path d="M 58.695178092152055 -5.989663490593891 L 95.96898050729243 -9.793341079425122 A 40 40 0 0 1 100.02976931447472 -10 L 193.9536667644286 -10 L 287.87756421438246 -10 A 40 40 0 0 1 291.9383530215648 -9.79334107942512 L 304.4784544492027 -8.51366206436971 L 304.4784544492027 -8.51366206436971"/><polygon points="-24.8621506177483,0 -27.62461179749811,9.20820393249937 0,0 -27.62461179749811,-9.20820393249937" fill="#fda1ff" transform="translate(387.9073335288572 0) rotate(5.826689442008371) translate(-59 0)" stroke="none"/></g><g transform="translate(1215.6704915762532 167.55002023120142) rotate(338.326768275885) translate(0 -13)"><g transform="translate(0 0)"><g transform="translate(-52.56666564941406 0)" fill="#ffffff" stroke="#000000" stroke-width="0"><rect x="0" y="0" width="105.13333129882812" height="26" rx="5" ry="5" stroke="none"/><text xml:space="preserve" x="5" y="17.45703125" stroke="none" text-anchor="left" font-family="sans-serif" font-size="16" font-weight="normal" fill="#000000">AZAddSecret</text></g></g></g></g><g class="relationship"><g transform="translate(1392.2195190226766 86.62742907712959) rotate(158.32676827588497)" stroke-width="5" stroke="#aea1ff"><path d="M 58.695178092152055 5.989663490593891 L 95.96898050729243 9.793341079425122 A 40 40 0 0 0 100.02976931447472 10 L 193.9536667644286 10 L 287.87756421438246 10 A 40 40 0 0 0 291.9383530215648 9.79334107942512 L 304.4784544492027 8.51366206436971 L 304.4784544492027 8.51366206436971"/><polygon points="-24.8621506177483,0 -27.62461179749811,9.20820393249937 0,0 -27.62461179749811,-9.20820393249937" fill="#aea1ff" transform="translate(387.9073335288572 0) rotate(-5.826689442008371) translate(-59 0)" stroke="none"/></g><g transform="translate(1208.2842389509694 148.9639159552783) rotate(338.326768275885) translate(0 -13)"><g transform="translate(0 0)"><g transform="translate(-50.79999923706055 0)" fill="#ffffff" stroke="#000000" stroke-width="0"><rect x="0" y="0" width="101.5999984741211" height="26" rx="5" ry="5" stroke="none"/><text xml:space="preserve" x="5" y="17.45703125" stroke="none" text-anchor="left" font-family="sans-serif" font-size="16" font-weight="normal" fill="#000000">AZScopedTo</text></g></g></g></g><g class="relationship"><g transform="translate(1319.7801758402338 332.7723437089044) rotate(-160.34394700844862)" stroke-width="5" stroke="#aea1ff"><path d="M 59 0 L 222.00611653649221 0"/><polygon points="-24.8621506177483,0 -27.62461179749811,9.20820393249937 0,0 -27.62461179749811,-9.20820393249937" fill="#aea1ff" transform="translate(246.86826715424053 0) rotate(0)" stroke="none"/></g><g transform="translate(1187.4643956369755 285.51090390928374) rotate(19.656052991551366) translate(0 -13)"><g transform="translate(0 0)"><g transform="translate(-35.66666603088379 0)" fill="#ffffff" stroke="#000000" stroke-width="0"><rect x="0" y="0" width="71.33333206176758" height="26" rx="5" ry="5" stroke="none"/><text xml:space="preserve" x="5" y="17.45703125" stroke="none" text-anchor="left" font-family="sans-serif" font-size="16" font-weight="normal" fill="#000000">AZOwns</text></g></g></g></g><g class="relationship"><g transform="translate(1062.3030028262576 -218.37018627328507) rotate(93.90110888198667)" stroke-width="5" stroke="#aea1ff"><path d="M 59 0 L 365.43558254882527 0"/><polygon points="-24.8621506177483,0 -27.62461179749811,9.20820393249937 0,0 -27.62461179749811,-9.20820393249937" fill="#aea1ff" transform="translate(390.29773316657355 0) rotate(0)" stroke="none"/></g><g transform="translate(1047.864850395104 -6.644111620763965) rotate(273.90110888198666) translate(0 -13)"><g transform="translate(0 0)"><g transform="translate(-46.79999923706055 0)" fill="#ffffff" stroke="#000000" stroke-width="0"><rect x="0" y="0" width="93.5999984741211" height="26" rx="5" ry="5" stroke="none"/><text xml:space="preserve" x="5" y="17.45703125" stroke="none" text-anchor="left" font-family="sans-serif" font-size="16" font-weight="normal" fill="#000000">AZContains</text></g></g></g></g><g class="relationship"><g transform="translate(1062.3030028262576 -218.37018627328507) rotate(132.69226666107764)" stroke-width="5" stroke="#aea1ff"><path d="M 59 0 L 386.02625824405936 0"/><polygon points="-24.8621506177483,0 -27.62461179749811,9.20820393249937 0,0 -27.62461179749811,-9.20820393249937" fill="#aea1ff" transform="translate(410.88840886180765 0) rotate(0)" stroke="none"/></g><g transform="translate(911.4256457719559 -54.82167432656689) rotate(312.6922666610776) translate(0 -13)"><g transform="translate(0 0)"><g transform="translate(-46.79999923706055 0)" fill="#ffffff" stroke="#000000" stroke-width="0"><rect x="0" y="0" width="93.5999984741211" height="26" rx="5" ry="5" stroke="none"/><text xml:space="preserve" x="5" y="17.45703125" stroke="none" text-anchor="left" font-family="sans-serif" font-size="16" font-weight="normal" fill="#000000">AZContains</text></g></g></g></g><g class="relationship"><g transform="translate(1062.3030028262576 -218.37018627328507) rotate(42.75242766978329)" stroke-width="5" stroke="#aea1ff"><path d="M 59 0 L 365.43558254882527 0"/><polygon points="-24.8621506177483,0 -27.62461179749811,9.20820393249937 0,0 -27.62461179749811,-9.20820393249937" fill="#aea1ff" transform="translate(390.29773316657355 0) rotate(0)" stroke="none"/></g><g transform="translate(1218.1332000513921 -74.30998855661582) rotate(42.75242766978329) translate(0 -13)"><g transform="translate(0 0)"><g transform="translate(-46.79999923706055 0)" fill="#ffffff" stroke="#000000" stroke-width="0"><rect x="0" y="0" width="93.5999984741211" height="26" rx="5" ry="5" stroke="none"/><text xml:space="preserve" x="5" y="17.45703125" stroke="none" text-anchor="left" font-family="sans-serif" font-size="16" font-weight="normal" fill="#000000">AZContains</text></g></g></g></g><g class="relationship"><g transform="translate(1062.3030028262576 -218.37018627328507) rotate(5.108794665055683)" stroke-width="5" stroke="#aea1ff"><path d="M 59 0 L 386.02625824405925 0"/><polygon points="-24.8621506177483,0 -27.62461179749811,9.20820393249937 0,0 -27.62461179749811,-9.20820393249937" fill="#aea1ff" transform="translate(410.88840886180753 0) rotate(0)" stroke="none"/></g><g transform="translate(1283.9321782430357 -198.55601872185588) rotate(5.108794665055683) translate(0 -13)"><g transform="translate(0 0)"><g transform="translate(-46.79999923706055 0)" fill="#ffffff" stroke="#000000" stroke-width="0"><rect x="0" y="0" width="93.5999984741211" height="26" rx="5" ry="5" stroke="none"/><text xml:space="preserve" x="5" y="17.45703125" stroke="none" text-anchor="left" font-family="sans-serif" font-size="16" font-weight="normal" fill="#000000">AZContains</text></g></g></g></g><g class="relationship"><g transform="translate(1530.3247371160653 -176.52794666972292) rotate(117.69070687825182)" stroke-width="5" stroke="#aea1ff"><path d="M 59 0 L 213.33105766448952 0"/><polygon points="-24.8621506177483,0 -27.62461179749811,9.20820393249937 0,0 -27.62461179749811,-9.20820393249937" fill="#aea1ff" transform="translate(238.19320828223783 0) rotate(0)" stroke="none"/></g><g transform="translate(1467.0488292819941 -55.95759073618913) rotate(297.69070687825183) translate(0 -13)"><g transform="translate(0 0)"><g transform="translate(-45.91666793823242 0)" fill="#ffffff" stroke="#000000" stroke-width="0"><rect x="0" y="0" width="91.83333587646484" height="26" rx="5" ry="5" stroke="none"/><text xml:space="preserve" x="5" y="17.45703125" stroke="none" text-anchor="left" font-family="sans-serif" font-size="16" font-weight="normal" fill="#000000">AZHasRole</text></g></g></g></g><g class="relationship"><g transform="translate(710.8999003305553 -498.34217163077847) rotate(66.22317604625073)" stroke-width="5" stroke="#fda1ff"><path d="M 59 0 L 711.9093652306797 0"/><polygon points="-24.8621506177483,0 -27.62461179749811,9.20820393249937 0,0 -27.62461179749811,-9.20820393249937" fill="#fda1ff" transform="translate(736.771515848428 0) rotate(0)" stroke="none"/></g><g transform="translate(866.3056550948658 -145.6037930323796) rotate(66.22317604625073) translate(0 -13)"><g transform="translate(0 0)"><g transform="translate(-52.56666564941406 0)" fill="#ffffff" stroke="#000000" stroke-width="0"><rect x="0" y="0" width="105.13333129882812" height="26" rx="5" ry="5" stroke="none"/><text xml:space="preserve" x="5" y="17.45703125" stroke="none" text-anchor="left" font-family="sans-serif" font-size="16" font-weight="normal" fill="#000000">AZAddSecret</text></g></g></g></g><g class="relationship"><g transform="translate(710.8999003305553 -498.34217163077847) rotate(14.288001769312041)" stroke-width="5" stroke="#fda1ff"><path d="M 59 0 L 757.8815044252947 0"/><polygon points="-24.8621506177483,0 -27.62461179749811,9.20820393249937 0,0 -27.62461179749811,-9.20820393249937" fill="#fda1ff" transform="translate(782.743655043043 0) rotate(0)" stroke="none"/></g><g transform="translate(1106.7065319712065 -397.5405921921848) rotate(14.288001769312041) translate(0 -13)"><g transform="translate(0 0)"><g transform="translate(-52.56666564941406 0)" fill="#ffffff" stroke="#000000" stroke-width="0"><rect x="0" y="0" width="105.13333129882812" height="26" rx="5" ry="5" stroke="none"/><text xml:space="preserve" x="5" y="17.45703125" stroke="none" text-anchor="left" font-family="sans-serif" font-size="16" font-weight="normal" fill="#000000">AZAddSecret</text></g></g></g></g><g class="relationship"><g transform="translate(1392.2195190226766 -523.3678016236996) rotate(-163.02898477415042)" stroke-width="5" stroke="#fda1ff"><path d="M 59 0 L 365.89595599103563 0"/><polygon points="-24.8621506177483,0 -27.62461179749811,9.20820393249937 0,0 -27.62461179749811,-9.20820393249937" fill="#fda1ff" transform="translate(390.7581066087839 0) rotate(0)" stroke="none"/></g><g transform="translate(1189.0231111668654 -585.3787941079268) rotate(16.97101522584959) translate(0 -13)"><g transform="translate(0 0)"><g transform="translate(-52.56666564941406 0)" fill="#ffffff" stroke="#000000" stroke-width="0"><rect x="0" y="0" width="105.13333129882812" height="26" rx="5" ry="5" stroke="none"/><text xml:space="preserve" x="5" y="17.45703125" stroke="none" text-anchor="left" font-family="sans-serif" font-size="16" font-weight="normal" fill="#000000">AZAddSecret</text></g></g></g></g><g class="relationship"><g transform="translate(1392.2195190226766 -523.3678016236996) rotate(115.57434060610169)" stroke-width="5" stroke="#fda1ff"><path d="M 59 0 L 751.2073013392317 0"/><polygon points="-24.8621506177483,0 -27.62461179749811,9.20820393249937 0,0 -27.62461179749811,-9.20820393249937" fill="#fda1ff" transform="translate(776.06945195698 0) rotate(0)" stroke="none"/></g><g transform="translate(1217.3436345768087 -157.9537996682114) rotate(295.5743406061017) translate(0 -13)"><g transform="translate(0 0)"><g transform="translate(-52.56666564941406 0)" fill="#ffffff" stroke="#000000" stroke-width="0"><rect x="0" y="0" width="105.13333129882812" height="26" rx="5" ry="5" stroke="none"/><text xml:space="preserve" x="5" y="17.45703125" stroke="none" text-anchor="left" font-family="sans-serif" font-size="16" font-weight="normal" fill="#000000">AZAddSecret</text></g></g></g></g><g class="node"><g fill="#ffffff" stroke="#68bc00" stroke-width="4"><circle cx="1062.3030028262576" cy="-218.37018627328507" r="52"/></g><g transform="translate(1062.3030028262576 -218.37018627328507)"><g transform="scale(0.40234434765624993) translate(0 0)"><g transform="translate(0 0)"><g font-family="sans-serif" font-size="50" font-weight="normal" fill="#000000" text-anchor="middle"><text xml:space="preserve" x="0" y="13.92822265625" stroke="none">AZTenant</text></g></g></g></g></g><g class="node"><g fill="#ffffff" stroke="#68bc00" stroke-width="4"><circle cx="586.8760040156066" cy="-301.1297523695212" r="52"/></g><g transform="translate(586.8760040156066 -301.1297523695212)"><g transform="scale(0.43359431640625) translate(0 0)"><g transform="translate(0 0)"><g font-family="sans-serif" font-size="50" font-weight="normal" fill="#000000" text-anchor="middle"><text xml:space="preserve" x="0" y="13.92822265625" stroke="none">AZUser1</text></g></g></g></g></g><g class="node"><g fill="#ffffff" stroke="#68bc00" stroke-width="4"><circle cx="710.8999003305553" cy="-498.34217163077847" r="52"/></g><g transform="translate(710.8999003305553 -498.34217163077847)"><g transform="scale(0.24414138085937498) translate(0 0)"><g transform="translate(0 0)"><g font-family="sans-serif" font-size="50" font-weight="normal" fill="#000000" text-anchor="middle"><text xml:space="preserve" x="0" y="13.92822265625" stroke="none">AppAdminRole1</text></g></g></g></g></g><g class="node"><g fill="#ffffff" stroke="#68bc00" stroke-width="4"><circle cx="962.0472362398114" cy="-654.6467473297678" r="52"/></g><g transform="translate(962.0472362398114 -654.6467473297678)"><g transform="scale(0.47265677734375) translate(0 0)"><g transform="translate(0 0)"><g font-family="sans-serif" font-size="50" font-weight="normal" fill="#000000" text-anchor="middle"><text xml:space="preserve" x="0" y="13.92822265625" stroke="none">AZApp1</text></g></g></g></g></g><g class="node"><g fill="#ffffff" stroke="#68bc00" stroke-width="4"><circle cx="1392.2195190226766" cy="-523.3678016236996" r="52"/></g><g transform="translate(1392.2195190226766 -523.3678016236996)"><g transform="scale(0.181641443359375) translate(0 0)"><g transform="translate(0 0)"><g font-family="sans-serif" font-size="50" font-weight="normal" fill="#000000" text-anchor="middle"><text xml:space="preserve" x="0" y="13.92822265625" stroke="none">CloudAppAdminRole1</text><text xml:space="preserve" x="0" y="73.92822265625" stroke="none" text-anchor="middle"></text></g></g></g></g></g><g class="node"><g fill="#ffffff" stroke="#68bc00" stroke-width="4"><circle cx="1130.8873161468432" cy="-660.7327620269882" r="52"/></g><g transform="translate(1130.8873161468432 -660.7327620269882)"><g transform="scale(0.376953748046875) translate(0 0)"><g transform="translate(0 0)"><g font-family="sans-serif" font-size="50" font-weight="normal" fill="#000000" text-anchor="middle"><text xml:space="preserve" x="0" y="13.92822265625" stroke="none">AZGroup1</text></g></g></g></g></g><g class="node"><g fill="#ffffff" stroke="#68bc00" stroke-width="4"><circle cx="1526.606264111854" cy="-290.60313126543724" r="52"/></g><g transform="translate(1526.606264111854 -290.60313126543724)"><g transform="scale(0.47265677734375) translate(0 0)"><g transform="translate(0 0)"><g font-family="sans-serif" font-size="50" font-weight="normal" fill="#000000" text-anchor="middle"><text xml:space="preserve" x="0" y="13.92822265625" stroke="none">AZApp2</text></g></g></g></g></g><g class="node"><g fill="#ffffff" stroke="#68bc00" stroke-width="4"><circle cx="586.8760040156066" cy="-135.610620177049" r="52"/></g><g transform="translate(586.8760040156066 -135.610620177049)"><g transform="scale(0.2109382890625) translate(0 0)"><g transform="translate(0 0)"><g font-family="sans-serif" font-size="50" font-weight="normal" fill="#000000" text-anchor="middle"><text xml:space="preserve" x="0" y="13.92822265625" stroke="none">AZServicePrincipal</text></g></g></g></g></g><g class="node"><g fill="#ffffff" stroke="#68bc00" stroke-width="4"><circle cx="743.6902471688581" cy="127.00067050979612" r="52"/></g><g transform="translate(743.6902471688581 127.00067050979612)"><g transform="scale(0.24414138085937498) translate(0 0)"><g transform="translate(0 0)"><g font-family="sans-serif" font-size="50" font-weight="normal" fill="#000000" text-anchor="middle"><text xml:space="preserve" x="0" y="13.92822265625" stroke="none">AppAdminRole2</text><text xml:space="preserve" x="0" y="73.92822265625" stroke="none" text-anchor="middle"></text></g></g></g></g></g><g class="node"><g fill="#ffffff" stroke="#68bc00" stroke-width="4"><circle cx="1031.735211504546" cy="229.88650710935013" r="52"/></g><g transform="translate(1031.735211504546 229.88650710935013)"><g transform="scale(0.47265677734375) translate(0 0)"><g transform="translate(0 0)"><g font-family="sans-serif" font-size="50" font-weight="normal" fill="#000000" text-anchor="middle"><text xml:space="preserve" x="0" y="13.92822265625" stroke="none">AZApp3</text></g></g></g></g></g><g class="node"><g fill="#ffffff" stroke="#68bc00" stroke-width="4"><circle cx="1392.2195190226766" cy="86.62742907712959" r="52"/></g><g transform="translate(1392.2195190226766 86.62742907712959)"><g transform="scale(0.181641443359375) translate(0 0)"><g transform="translate(0 0)"><g font-family="sans-serif" font-size="50" font-weight="normal" fill="#000000" text-anchor="middle"><text xml:space="preserve" x="0" y="13.92822265625" stroke="none">CloudAppAdminRole2</text><text xml:space="preserve" x="0" y="73.92822265625" stroke="none" text-anchor="middle"></text></g></g></g></g></g><g class="node"><g fill="#ffffff" stroke="#68bc00" stroke-width="4"><circle cx="1319.7801758402338" cy="332.7723437089044" r="52"/></g><g transform="translate(1319.7801758402338 332.7723437089044)"><g transform="scale(0.43359431640625) translate(0 0)"><g transform="translate(0 0)"><g font-family="sans-serif" font-size="50" font-weight="normal" fill="#000000" text-anchor="middle"><text xml:space="preserve" x="0" y="13.92822265625" stroke="none">AZUser2</text></g></g></g></g></g><g class="node"><g fill="#ffffff" stroke="#68bc00" stroke-width="4"><circle cx="1530.3247371160653" cy="-176.52794666972292" r="52"/></g><g transform="translate(1530.3247371160653 -176.52794666972292)"><g transform="scale(0.376953748046875) translate(0 0)"><g transform="translate(0 0)"><g font-family="sans-serif" font-size="50" font-weight="normal" fill="#000000" text-anchor="middle"><text xml:space="preserve" x="0" y="13.92822265625" stroke="none">AZGroup2</text></g></g></g></g></g></g></svg>