<svg xmlns="http://www.w3.org/2000/svg" width="3183" height="1030" viewBox="0 0 3183 1030"><defs><style type="text/css"/></defs><g transform="translate(1125.9355607600196 177.539077830755) scale(1)"><g class="relationship"><g transform="translate(1536.5193934251588 50) rotate(180)" stroke-width="5" stroke="#000000"><path d="M 59 0 L 830.6449616636933 0"/><polygon points="-24.8621506177483,0 -27.62461179749811,9.20820393249937 0,0 -27.62461179749811,-9.20820393249937" fill="#000000" transform="translate(855.5071122814416 0) rotate(0)" stroke="none"/></g><g transform="translate(1091.6969125933122 50.00000000000006) rotate(360) translate(0 -13)"><g transform="translate(0 0)"><g transform="translate(-45.01171875 0)" fill="#ffffff" stroke="#000000" stroke-width="0"><rect x="0" y="0" width="90.0234375" height="26" rx="5" ry="5" stroke="none"/><text xml:space="preserve" x="5" y="17.5" stroke="none" text-anchor="left" font-family="sans-serif" font-size="16" font-weight="normal" fill="#000000">RootCAFor</text></g></g></g></g><g class="relationship"><g transform="translate(1536.5193934251588 726.5211685473259) rotate(-90)" stroke-width="5" stroke="#000000"><path d="M 59 0 L 592.6590179295777 0"/><polygon points="-24.8621506177483,0 -27.62461179749811,9.20820393249937 0,0 -27.62461179749811,-9.20820393249937" fill="#000000" transform="translate(617.5211685473259 0) rotate(0)" stroke="none"/></g><g transform="translate(1536.5193934251588 400.6916595825371) rotate(90) translate(0 -13)"><g transform="translate(0 0)"><g transform="translate(-62.81640625 0)" fill="#ffffff" stroke="#000000" stroke-width="0"><rect x="0" y="0" width="125.6328125" height="26" rx="5" ry="5" stroke="none"/><text xml:space="preserve" x="5" y="17.5" stroke="none" text-anchor="left" font-family="sans-serif" font-size="16" font-weight="normal" fill="#000000">IssuedSignedBy</text></g></g></g></g><g class="relationship"><g transform="translate(1425.6412200143534 166.4191218540966) rotate(-171.75708971419493)" stroke-width="5" stroke="#000000"><path d="M 59 0 L 728.1556344852775 0"/><polygon points="-24.8621506177483,0 -27.62461179749811,9.20820393249937 0,0 -27.62461179749811,-9.20820393249937" fill="#000000" transform="translate(753.0177851030257 0) rotate(0)" stroke="none"/></g><g transform="translate(1036.1294021252993 109.99180621491189) rotate(8.242910285805078) translate(0 -13)"><g transform="translate(0 0)"><g transform="translate(-62.6484375 0)" fill="#ffffff" stroke="#000000" stroke-width="0"><rect x="0" y="0" width="125.296875" height="26" rx="5" ry="5" stroke="none"/><text xml:space="preserve" x="5" y="17.5" stroke="none" text-anchor="left" font-family="sans-serif" font-size="16" font-weight="normal" fill="#000000">NTAuthStoreFor</text></g></g></g></g><g class="relationship"><g transform="translate(1536.5193934251588 726.5211685473259) rotate(-101.1975372783613)" stroke-width="5" stroke="#000000"><path d="M 59 0 L 487.109190211948 0"/><polygon points="-24.8621506177483,0 -27.62461179749811,9.20820393249937 0,0 -27.62461179749811,-9.20820393249937" fill="#000000" transform="translate(511.97134082969626 0) rotate(0)" stroke="none"/></g><g transform="translate(1483.4943244212002 458.66457638351) rotate(78.80246272163872) translate(0 -13)"><g transform="translate(0 0)"><g transform="translate(-70.3515625 0)" fill="#ffffff" stroke="#000000" stroke-width="0"><rect x="0" y="0" width="140.703125" height="26" rx="5" ry="5" stroke="none"/><text xml:space="preserve" x="5" y="17.5" stroke="none" text-anchor="left" font-family="sans-serif" font-size="16" font-weight="normal" fill="#000000">TrustedForNTAuth</text></g></g></g></g><g class="relationship"><g transform="translate(1079.265837284438 462.52570482156716) rotate(29.999999999999996)" stroke-width="5" stroke="#000000"><path d="M 59 0 L 444.1287768337693 0"/><polygon points="-24.8621506177483,0 -27.62461179749811,9.20820393249937 0,0 -27.62461179749811,-9.20820393249937" fill="#000000" transform="translate(468.99092745151756 0) rotate(0)" stroke="none"/></g><g transform="translate(1297.126988340956 588.3078990300095) rotate(29.999999999999996) translate(0 -13)"><g transform="translate(0 0)"><g transform="translate(-48.5859375 0)" fill="#ffffff" stroke="#000000" stroke-width="0"><rect x="0" y="0" width="97.171875" height="26" rx="5" ry="5" stroke="none"/><text xml:space="preserve" x="5" y="17.5" stroke="none" text-anchor="left" font-family="sans-serif" font-size="16" font-weight="normal" fill="#000000">PublishedTo</text></g></g></g></g><g class="relationship"><g transform="translate(622.0122811437172 726.5211685473259) rotate(0)" stroke-width="5" stroke="#000000"><path d="M 59 0 L 830.6449616636933 0"/><polygon points="-24.8621506177483,0 -27.62461179749811,9.20820393249937 0,0 -27.62461179749811,-9.20820393249937" fill="#000000" transform="translate(855.5071122814416 0) rotate(0)" stroke="none"/></g><g transform="translate(1066.8347619755639 726.5211685473259) rotate(0) translate(0 -13)"><g transform="translate(0 0)"><g transform="translate(-25.453125 0)" fill="#ffffff" stroke="#000000" stroke-width="0"><rect x="0" y="0" width="50.90625" height="26" rx="5" ry="5" stroke="none"/><text xml:space="preserve" x="5" y="17.5" stroke="none" text-anchor="left" font-family="sans-serif" font-size="16" font-weight="normal" fill="#000000">Enroll</text></g></g></g></g><g class="relationship"><g transform="translate(1844.596360453194 726.5211685473259) rotate(180)" stroke-width="5" stroke="#000000"><path d="M 59 0 L 224.21481641028683 0"/><polygon points="-24.8621506177483,0 -27.62461179749811,9.20820393249937 0,0 -27.62461179749811,-9.20820393249937" fill="#000000" transform="translate(249.07696702803514 0) rotate(0)" stroke="none"/></g><g transform="translate(1702.9889522480505 726.5211685473259) rotate(360) translate(0 -13)"><g transform="translate(0 0)"><g transform="translate(-63.23828125 0)" fill="#ffffff" stroke="#000000" stroke-width="0"><rect x="0" y="0" width="126.4765625" height="26" rx="5" ry="5" stroke="none"/><text xml:space="preserve" x="5" y="17.5" stroke="none" text-anchor="left" font-family="sans-serif" font-size="16" font-weight="normal" fill="#000000">HostsCAService</text></g></g></g></g><g class="relationship"><g transform="translate(-65.32235753083677 88.03581277572192) rotate(62.505532173491254)" stroke-width="5" stroke="#000000"><path d="M 59 0 L 220.0876305952053 0"/><polygon points="-24.8621506177483,0 -27.62461179749811,9.20820393249937 0,0 -27.62461179749811,-9.20820393249937" fill="#000000" transform="translate(244.9497812129536 0) rotate(0)" stroke="none"/></g><g transform="translate(-0.900145863942015 211.8189094883072) rotate(62.505532173491254) translate(0 -13)"><g transform="translate(0 0)"><g transform="translate(-36.57421875 0)" fill="#ffffff" stroke="#000000" stroke-width="0"><rect x="0" y="0" width="73.1484375" height="26" rx="5" ry="5" stroke="none"/><text xml:space="preserve" x="5" y="17.5" stroke="none" text-anchor="left" font-family="sans-serif" font-size="16" font-weight="normal" fill="#000000">Contains</text></g></g></g></g><g class="relationship"><g transform="translate(622.0122811437172 726.5211685473259) rotate(-146.00715538647177)" stroke-width="5" stroke="#7b64ff"><path d="M 59 0 L 575.8983104916016 0"/><polygon points="-24.8621506177483,0 -27.62461179749811,9.20820393249937 0,0 -27.62461179749811,-9.20820393249937" fill="#7b64ff" transform="translate(600.7604611093499 0) rotate(0)" stroke="none"/></g><g transform="translate(358.8128371119072 549.0387220135387) rotate(33.99284461352823) translate(0 -13)"><g transform="translate(0 0)"><g transform="translate(-117.9296875 0)" fill="#ffffff" stroke="#000000" stroke-width="0"><rect x="0" y="0" width="235.859375" height="26" rx="5" ry="5" stroke="none"/><text xml:space="preserve" x="5" y="17.5" stroke="none" text-anchor="left" font-family="sans-serif" font-size="16" font-weight="normal" fill="#000000">CoerceAndRelayNTLMToADCS</text></g></g></g></g><g class="relationship"><g transform="translate(75 357.65611148557497) rotate(129.89937626574883)" stroke-width="5" stroke="#000000"><path d="M 59 0 L 433.6534594078894 0"/><polygon points="-24.8621506177483,0 -27.62461179749811,9.20820393249937 0,0 -27.62461179749811,-9.20820393249937" fill="#000000" transform="translate(458.51561002563767 0) rotate(0)" stroke="none"/></g><g transform="translate(-83.00413280082702 546.631114553438) rotate(309.8993762657488) translate(0 -13)"><g transform="translate(0 0)"><g transform="translate(-42.78515625 0)" fill="#ffffff" stroke="#000000" stroke-width="0"><rect x="0" y="0" width="85.5703125" height="26" rx="5" ry="5" stroke="none"/><text xml:space="preserve" x="5" y="17.5" stroke="none" text-anchor="left" font-family="sans-serif" font-size="16" font-weight="normal" fill="#000000">MemberOf</text></g></g></g></g><g class="relationship"><g transform="translate(-351.9633386889645 357.65611148557497) rotate(135)" stroke-width="5" stroke="#000000"><path d="M 59 0 L 383.9321077961624 0"/><polygon points="-24.8621506177483,0 -27.62461179749811,9.20820393249937 0,0 -27.62461179749811,-9.20820393249937" fill="#000000" transform="translate(408.7942584139107 0) rotate(0)" stroke="none"/></g><g transform="translate(-508.5634872029231 514.2562599995337) rotate(315) translate(0 -13)"><g transform="translate(0 0)"><g transform="translate(-42.78515625 0)" fill="#ffffff" stroke="#000000" stroke-width="0"><rect x="0" y="0" width="85.5703125" height="26" rx="5" ry="5" stroke="none"/><text xml:space="preserve" x="5" y="17.5" stroke="none" text-anchor="left" font-family="sans-serif" font-size="16" font-weight="normal" fill="#000000">MemberOf</text></g></g></g></g><g class="relationship"><g transform="translate(622.0122811437172 50) rotate(-164.96217865268298)" stroke-width="5" stroke="#000000"><path d="M 58.695178092152055 -5.989663490593891 L 95.96898050729243 -9.793341079425122 A 40 40 0 0 1 100.02976931447472 -10 L 219.5725151487347 -10 L 339.1152609829947 -10 A 40 40 0 0 1 343.17604979017705 -9.79334107942512 L 355.7161512178149 -8.51366206436971 L 355.7161512178149 -8.51366206436971"/><polygon points="-24.8621506177483,0 -27.62461179749811,9.20820393249937 0,0 -27.62461179749811,-9.20820393249937" fill="#000000" transform="translate(439.1450302974694 0) rotate(5.826689442008371) translate(-59 0)" stroke="none"/></g><g transform="translate(407.3645117779754 2.68800876043543) rotate(15.03782134731702) translate(0 -13)"><g transform="translate(0 0)"><g transform="translate(-66.48828125 0)" fill="#ffffff" stroke="#000000" stroke-width="0"><rect x="0" y="0" width="132.9765625" height="26" rx="5" ry="5" stroke="none"/><text xml:space="preserve" x="5" y="17.5" stroke="none" text-anchor="left" font-family="sans-serif" font-size="16" font-weight="normal" fill="#000000">CrossForestTrust</text></g></g></g></g><g class="relationship"><g transform="translate(197.9058744743031 -63.939077830755) rotate(15.037821347317017)" stroke-width="5" stroke="#000000"><path d="M 58.695178092152055 -5.989663490593891 L 95.96898050729243 -9.793341079425122 A 40 40 0 0 1 100.02976931447472 -10 L 219.5725151487347 -10 L 339.1152609829947 -10 A 40 40 0 0 1 343.17604979017705 -9.79334107942512 L 355.7161512178149 -8.51366206436971 L 355.7161512178149 -8.51366206436971"/><polygon points="-24.8621506177483,0 -27.62461179749811,9.20820393249937 0,0 -27.62461179749811,-9.20820393249937" fill="#000000" transform="translate(439.1450302974694 0) rotate(5.826689442008371) translate(-59 0)" stroke="none"/></g><g transform="translate(412.5536438400449 -16.627086591190462) rotate(15.037821347317017) translate(0 -13)"><g transform="translate(0 0)"><g transform="translate(-66.48828125 0)" fill="#ffffff" stroke="#000000" stroke-width="0"><rect x="0" y="0" width="132.9765625" height="26" rx="5" ry="5" stroke="none"/><text xml:space="preserve" x="5" y="17.5" stroke="none" text-anchor="left" font-family="sans-serif" font-size="16" font-weight="normal" fill="#000000">CrossForestTrust</text></g></g></g></g><g class="relationship"><g transform="translate(-65.32235753083677 88.03581277572192) rotate(-30.00000000000003)" stroke-width="5" stroke="#000000"><path d="M 58.695178092152055 -5.989663490593891 L 95.96898050729243 -9.793341079425122 A 40 40 0 0 1 100.02976931447472 -10 L 151.97489060647678 -10 L 203.92001189847886 -10 A 40 40 0 0 1 207.98080070566115 -9.79334107942512 L 220.52090213329905 -8.51366206436971 L 220.52090213329905 -8.51366206436971"/><polygon points="-24.8621506177483,0 -27.62461179749811,9.20820393249937 0,0 -27.62461179749811,-9.20820393249937" fill="#000000" transform="translate(303.94978121295355 0) rotate(5.826689442008371) translate(-59 0)" stroke="none"/></g><g transform="translate(61.29175847173315 3.388113434639081) rotate(-30.00000000000003) translate(0 -13)"><g transform="translate(0 0)"><g transform="translate(-66.49609375 0)" fill="#ffffff" stroke="#000000" stroke-width="0"><rect x="0" y="0" width="132.9921875" height="26" rx="5" ry="5" stroke="none"/><text xml:space="preserve" x="5" y="17.5" stroke="none" text-anchor="left" font-family="sans-serif" font-size="16" font-weight="normal" fill="#000000">SameForestTrust</text></g></g></g></g><g class="relationship"><g transform="translate(197.9058744743031 -63.939077830755) rotate(149.99999999999997)" stroke-width="5" stroke="#000000"><path d="M 58.695178092152055 -5.989663490593891 L 95.96898050729243 -9.793341079425122 A 40 40 0 0 1 100.02976931447472 -10 L 151.97489060647678 -10 L 203.92001189847886 -10 A 40 40 0 0 1 207.98080070566115 -9.79334107942512 L 220.52090213329905 -8.51366206436971 L 220.52090213329905 -8.51366206436971"/><polygon points="-24.8621506177483,0 -27.62461179749811,9.20820393249937 0,0 -27.62461179749811,-9.20820393249937" fill="#000000" transform="translate(303.94978121295355 0) rotate(5.826689442008371) translate(-59 0)" stroke="none"/></g><g transform="translate(71.29175847173317 20.70862151032783) rotate(329.99999999999994) translate(0 -13)"><g transform="translate(0 0)"><g transform="translate(-66.49609375 0)" fill="#ffffff" stroke="#000000" stroke-width="0"><rect x="0" y="0" width="132.9921875" height="26" rx="5" ry="5" stroke="none"/><text xml:space="preserve" x="5" y="17.5" stroke="none" text-anchor="left" font-family="sans-serif" font-size="16" font-weight="normal" fill="#000000">SameForestTrust</text></g></g></g></g><g class="relationship"><g transform="translate(75 357.65611148557497) rotate(5.961456276774956)" stroke-width="5" stroke="#000000"><path d="M 59 0 L 925.8642992403653 0"/><polygon points="-24.8621506177483,0 -27.62461179749811,9.20820393249937 0,0 -27.62461179749811,-9.20820393249937" fill="#000000" transform="translate(950.7264498581136 0) rotate(0)" stroke="none"/></g><g transform="translate(564.7690707355243 408.7998240064202) rotate(5.961456276774956) translate(0 -13)"><g transform="translate(0 0)"><g transform="translate(-25.453125 0)" fill="#ffffff" stroke="#000000" stroke-width="0"><rect x="0" y="0" width="50.90625" height="26" rx="5" ry="5" stroke="none"/><text xml:space="preserve" x="5" y="17.5" stroke="none" text-anchor="left" font-family="sans-serif" font-size="16" font-weight="normal" fill="#000000">Enroll</text></g></g></g></g><g class="node"><g fill="#68ccca" stroke="#000000" stroke-width="4"><circle cx="622.0122811437172" cy="50" r="52"/></g><g transform="translate(622.0122811437172 50)"><g transform="scale(0.33772813633338705) translate(0 -88)"><g transform="translate(0 0)"><g fill="#000000" font-family="sans-serif" font-size="50" font-weight="normal" text-anchor="middle"><text xml:space="preserve" x="0" y="43" stroke="none">Domain1</text></g></g><g transform="translate(0 64)"><g transform="translate(-72.5859375 0)"><g fill="#ffffff" stroke="#000000" stroke-width="4"><rect x="0" y="0" width="145.171875" height="54" rx="27" ry="27"/><text xml:space="preserve" x="27" y="37.5" stroke="none" font-family="sans-serif" font-size="40" font-weight="normal" fill="#000000">Base</text></g></g><g transform="translate(-95.916015625 62)"><g fill="#ffffff" stroke="#000000" stroke-width="4"><rect x="0" y="0" width="191.83203125" height="54" rx="27" ry="27"/><text xml:space="preserve" x="27" y="37.5" stroke="none" font-family="sans-serif" font-size="40" font-weight="normal" fill="#000000">Domain</text></g></g></g></g><g transform="translate(3.429011037612589e-15 56)"><g transform="translate(0 0)"><g transform="translate(-85.9609375 0)" fill="white"><rect x="0" y="0" width="171.921875" height="57.599999999999994" rx="0" ry="0" stroke="none"/><g font-family="sans-serif" font-size="16" font-weight="normal" fill="#000000" text-anchor="end"><text xml:space="preserve" x="81.8203125" y="14.1" stroke="none">collected:</text><text xml:space="preserve" x="86.265625" y="14.1" stroke="none" text-anchor="start">BOOL:True</text><text xml:space="preserve" x="81.8203125" y="33.3" stroke="none" text-anchor="end">domainsid:</text><text xml:space="preserve" x="86.265625" y="33.3" stroke="none" text-anchor="start">S1</text><text xml:space="preserve" x="81.8203125" y="52.5" stroke="none" text-anchor="end">objectid:</text><text xml:space="preserve" x="86.265625" y="52.5" stroke="none" text-anchor="start">S1</text></g></g></g></g></g></g><g class="node"><g fill="#653294" stroke="#000000" stroke-width="4"><circle cx="1425.6412200143534" cy="166.4191218540966" r="52"/></g><g transform="translate(1425.6412200143534 166.4191218540966)"><g transform="scale(0.2505670349905986) translate(0 -88)"><g transform="translate(0 0)"><g fill="#ffffff" font-family="sans-serif" font-size="50" font-weight="normal" text-anchor="middle"><text xml:space="preserve" x="0" y="43" stroke="none">NTAuthStore1</text></g></g><g transform="translate(0 64)"><g transform="translate(-72.5859375 0)"><g fill="#ffffff" stroke="#000000" stroke-width="4"><rect x="0" y="0" width="145.171875" height="54" rx="27" ry="27"/><text xml:space="preserve" x="27" y="37.5" stroke="none" font-family="sans-serif" font-size="40" font-weight="normal" fill="#000000">Base</text></g></g><g transform="translate(-141.12109375 62)"><g fill="#ffffff" stroke="#000000" stroke-width="4"><rect x="0" y="0" width="282.2421875" height="54" rx="27" ry="27"/><text xml:space="preserve" x="27" y="37.5" stroke="none" font-family="sans-serif" font-size="40" font-weight="normal" fill="#000000">NTAuthStore</text></g></g></g></g></g></g><g class="node"><g fill="#653294" stroke="#000000" stroke-width="4"><circle cx="1536.5193934251588" cy="50" r="52"/></g><g transform="translate(1536.5193934251588 50)"><g transform="scale(0.33509237469914477) translate(0 -88)"><g transform="translate(0 0)"><g fill="#ffffff" font-family="sans-serif" font-size="50" font-weight="normal" text-anchor="middle"><text xml:space="preserve" x="0" y="43" stroke="none">RootCA1</text></g></g><g transform="translate(0 64)"><g transform="translate(-72.5859375 0)"><g fill="#ffffff" stroke="#000000" stroke-width="4"><rect x="0" y="0" width="145.171875" height="54" rx="27" ry="27"/><text xml:space="preserve" x="27" y="37.5" stroke="none" font-family="sans-serif" font-size="40" font-weight="normal" fill="#000000">Base</text></g></g><g transform="translate(-97.029296875 62)"><g fill="#ffffff" stroke="#000000" stroke-width="4"><rect x="0" y="0" width="194.05859375" height="54" rx="27" ry="27"/><text xml:space="preserve" x="27" y="37.5" stroke="none" font-family="sans-serif" font-size="40" font-weight="normal" fill="#000000">RootCA</text></g></g></g></g></g></g><g class="node"><g fill="#194d33" stroke="#000000" stroke-width="4"><circle cx="1536.5193934251588" cy="726.5211685473259" r="52"/></g><g transform="translate(1536.5193934251588 726.5211685473259)"><g transform="scale(0.2434244687382707) translate(0 -88)"><g transform="translate(0 0)"><g fill="#ffffff" font-family="sans-serif" font-size="50" font-weight="normal" text-anchor="middle"><text xml:space="preserve" x="0" y="43" stroke="none">EnterpriseCA1</text></g></g><g transform="translate(0 64)"><g transform="translate(-72.5859375 0)"><g fill="#ffffff" stroke="#000000" stroke-width="4"><rect x="0" y="0" width="145.171875" height="54" rx="27" ry="27"/><text xml:space="preserve" x="27" y="37.5" stroke="none" font-family="sans-serif" font-size="40" font-weight="normal" fill="#000000">Base</text></g></g><g transform="translate(-145.935546875 62)"><g fill="#ffffff" stroke="#000000" stroke-width="4"><rect x="0" y="0" width="291.87109375" height="54" rx="27" ry="27"/><text xml:space="preserve" x="27" y="37.5" stroke="none" font-family="sans-serif" font-size="40" font-weight="normal" fill="#000000">EnterpriseCA</text></g></g></g></g><g transform="translate(3.429011037612589e-15 56)"><g transform="translate(0 0)"><g transform="translate(-130.00390625 0)" fill="white"><rect x="0" y="0" width="260.0078125" height="19.2" rx="0" ry="0" stroke="none"/><g font-family="sans-serif" font-size="16" font-weight="normal" fill="#000000" text-anchor="end"><text xml:space="preserve" x="169.90625" y="14.1" stroke="none">hasvulnerableendpoint:</text><text xml:space="preserve" x="174.3515625" y="14.1" stroke="none" text-anchor="start">BOOL:True</text></g></g></g></g></g></g><g class="node"><g fill="#fda1ff" stroke="#000000" stroke-width="4"><circle cx="1079.265837284438" cy="462.52570482156716" r="52"/></g><g transform="translate(1079.265837284438 462.52570482156716)"><g transform="scale(0.2434244687382707) translate(0 -88)"><g transform="translate(0 0)"><g fill="#000000" font-family="sans-serif" font-size="50" font-weight="normal" text-anchor="middle"><text xml:space="preserve" x="0" y="43" stroke="none">CertTemplate1</text></g></g><g transform="translate(0 64)"><g transform="translate(-72.5859375 0)"><g fill="#ffffff" stroke="#000000" stroke-width="4"><rect x="0" y="0" width="145.171875" height="54" rx="27" ry="27"/><text xml:space="preserve" x="27" y="37.5" stroke="none" font-family="sans-serif" font-size="40" font-weight="normal" fill="#000000">Base</text></g></g><g transform="translate(-145.935546875 62)"><g fill="#ffffff" stroke="#000000" stroke-width="4"><rect x="0" y="0" width="291.87109375" height="54" rx="27" ry="27"/><text xml:space="preserve" x="27" y="37.5" stroke="none" font-family="sans-serif" font-size="40" font-weight="normal" fill="#000000">CertTemplate</text></g></g></g></g><g transform="translate(-104 -47.999999999999986)"><g transform="translate(0 0)"><g transform="translate(-288.140625 0)" fill="white"><rect x="0" y="0" width="288.140625" height="96" rx="0" ry="0" stroke="none"/><g font-family="sans-serif" font-size="16" font-weight="normal" fill="#000000" text-anchor="end"><text xml:space="preserve" x="191.21875" y="14.1" stroke="none">authenticationenabled:</text><text xml:space="preserve" x="195.6640625" y="14.1" stroke="none" text-anchor="start">BOOL:True</text><text xml:space="preserve" x="191.21875" y="33.3" stroke="none" text-anchor="end">requiresmanagerapproval:</text><text xml:space="preserve" x="195.6640625" y="33.3" stroke="none" text-anchor="start">BOOL:False</text><text xml:space="preserve" x="191.21875" y="52.5" stroke="none" text-anchor="end">schemaversion:</text><text xml:space="preserve" x="195.6640625" y="52.5" stroke="none" text-anchor="start">1</text><text xml:space="preserve" x="191.21875" y="71.7" stroke="none" text-anchor="end">authorizedsignatures:</text><text xml:space="preserve" x="195.6640625" y="71.7" stroke="none" text-anchor="start">0</text><text xml:space="preserve" x="191.21875" y="90.89999999999999" stroke="none" text-anchor="end">subjectaltrequiredns:</text><text xml:space="preserve" x="195.6640625" y="90.89999999999999" stroke="none" text-anchor="start">BOOL:True</text></g></g></g></g></g></g><g class="node"><g fill="#fcc400" stroke="#000000" stroke-width="4"><circle cx="622.0122811437172" cy="726.5211685473259" r="52"/></g><g transform="translate(622.0122811437172 726.5211685473259)"><g transform="scale(0.3711882964985089) translate(0 -88)"><g transform="translate(0 0)"><g fill="#000000" font-family="sans-serif" font-size="50" font-weight="normal" text-anchor="middle"><text xml:space="preserve" x="0" y="43" stroke="none">Group1</text></g></g><g transform="translate(0 64)"><g transform="translate(-72.5859375 0)"><g fill="#ffffff" stroke="#000000" stroke-width="4"><rect x="0" y="0" width="145.171875" height="54" rx="27" ry="27"/><text xml:space="preserve" x="27" y="37.5" stroke="none" font-family="sans-serif" font-size="40" font-weight="normal" fill="#000000">Base</text></g></g><g transform="translate(-82.5859375 62)"><g fill="#ffffff" stroke="#000000" stroke-width="4"><rect x="0" y="0" width="165.171875" height="54" rx="27" ry="27"/><text xml:space="preserve" x="27" y="37.5" stroke="none" font-family="sans-serif" font-size="40" font-weight="normal" fill="#000000">Group</text></g></g></g></g><g transform="translate(3.429011037612589e-15 56)"><g transform="translate(0 0)"><g transform="translate(-197.796875 0)" fill="white"><rect x="0" y="0" width="395.59375" height="57.599999999999994" rx="0" ry="0" stroke="none"/><g font-family="sans-serif" font-size="16" font-weight="normal" fill="#000000" text-anchor="end"><text xml:space="preserve" x="81.8203125" y="14.1" stroke="none">objectid:</text><text xml:space="preserve" x="86.265625" y="14.1" stroke="none" text-anchor="start">TEST.LOCAL-S-1-5-11</text><text xml:space="preserve" x="81.8203125" y="33.3" stroke="none" text-anchor="end">domainsid:</text><text xml:space="preserve" x="86.265625" y="33.3" stroke="none" text-anchor="start">S1</text><text xml:space="preserve" x="81.8203125" y="52.5" stroke="none" text-anchor="end">name:</text><text xml:space="preserve" x="86.265625" y="52.5" stroke="none" text-anchor="start">AUTHENTICATED USERS@TEST.LOCAL</text></g></g></g></g></g></g><g class="node"><g fill="#f44e3b" stroke="#000000" stroke-width="4"><circle cx="1844.596360453194" cy="726.5211685473259" r="52"/></g><g transform="translate(1844.596360453194 726.5211685473259)"><g transform="scale(0.29647557002338576) translate(0 -88)"><g transform="translate(0 0)"><g fill="#000000" font-family="sans-serif" font-size="50" font-weight="normal" text-anchor="middle"><text xml:space="preserve" x="0" y="43" stroke="none">Computer1</text></g></g><g transform="translate(0 64)"><g transform="translate(-72.5859375 0)"><g fill="#ffffff" stroke="#000000" stroke-width="4"><rect x="0" y="0" width="145.171875" height="54" rx="27" ry="27"/><text xml:space="preserve" x="27" y="37.5" stroke="none" font-family="sans-serif" font-size="40" font-weight="normal" fill="#000000">Base</text></g></g><g transform="translate(-114.8125 62)"><g fill="#ffffff" stroke="#000000" stroke-width="4"><rect x="0" y="0" width="229.625" height="54" rx="27" ry="27"/><text xml:space="preserve" x="27" y="37.5" stroke="none" font-family="sans-serif" font-size="40" font-weight="normal" fill="#000000">Computer</text></g></g></g></g><g transform="translate(56 -9.6)"><g transform="translate(0 0)"><g transform="translate(0 0)" fill="white"><rect x="0" y="0" width="155.9375" height="19.2" rx="0" ry="0" stroke="none"/><g font-family="sans-serif" font-size="16" font-weight="normal" fill="#000000" text-anchor="end"><text xml:space="preserve" x="65.8359375" y="14.1" stroke="none">enabled:</text><text xml:space="preserve" x="70.28125" y="14.1" stroke="none" text-anchor="start">BOOL:True</text></g></g></g></g></g></g><g class="node"><g fill="#f44e3b" stroke="#000000" stroke-width="4"><circle cx="-351.9633386889645" cy="357.65611148557497" r="52"/></g><g transform="translate(-351.9633386889645 357.65611148557497)"><g transform="scale(0.29647557002338576) translate(0 -88)"><g transform="translate(0 0)"><g fill="#000000" font-family="sans-serif" font-size="50" font-weight="normal" text-anchor="middle"><text xml:space="preserve" x="0" y="43" stroke="none">Computer3</text></g></g><g transform="translate(0 64)"><g transform="translate(-72.5859375 0)"><g fill="#ffffff" stroke="#000000" stroke-width="4"><rect x="0" y="0" width="145.171875" height="54" rx="27" ry="27"/><text xml:space="preserve" x="27" y="37.5" stroke="none" font-family="sans-serif" font-size="40" font-weight="normal" fill="#000000">Base</text></g></g><g transform="translate(-114.8125 62)"><g fill="#ffffff" stroke="#000000" stroke-width="4"><rect x="0" y="0" width="229.625" height="54" rx="27" ry="27"/><text xml:space="preserve" x="27" y="37.5" stroke="none" font-family="sans-serif" font-size="40" font-weight="normal" fill="#000000">Computer</text></g></g></g></g><g transform="translate(39.59797974644666 -116.39797974644665)"><g transform="translate(0 0)"><g transform="translate(0 0)" fill="white"><rect x="0" y="0" width="250.7734375" height="76.8" rx="0" ry="0" stroke="none"/><g font-family="sans-serif" font-size="16" font-weight="normal" fill="#000000" text-anchor="end"><text xml:space="preserve" x="153.8515625" y="14.1" stroke="none">enabled:</text><text xml:space="preserve" x="158.296875" y="14.1" stroke="none" text-anchor="start">BOOL:True</text><text xml:space="preserve" x="153.8515625" y="33.3" stroke="none" text-anchor="end">webclientrunning:</text><text xml:space="preserve" x="158.296875" y="33.3" stroke="none" text-anchor="start">BOOL:True</text><text xml:space="preserve" x="153.8515625" y="52.5" stroke="none" text-anchor="end">restrictoutboundntlm:</text><text xml:space="preserve" x="158.296875" y="52.5" stroke="none" text-anchor="start">BOOL:False</text><text xml:space="preserve" x="153.8515625" y="71.7" stroke="none" text-anchor="end">domainsid:</text><text xml:space="preserve" x="158.296875" y="71.7" stroke="none" text-anchor="start">S2</text></g></g></g></g></g></g><g class="node"><g fill="#f44e3b" stroke="#000000" stroke-width="4"><circle cx="75" cy="357.65611148557497" r="52"/></g><g transform="translate(75 357.65611148557497)"><g transform="scale(0.29647557002338576) translate(0 -88)"><g transform="translate(0 0)"><g fill="#000000" font-family="sans-serif" font-size="50" font-weight="normal" text-anchor="middle"><text xml:space="preserve" x="0" y="43" stroke="none">Computer4</text></g></g><g transform="translate(0 64)"><g transform="translate(-72.5859375 0)"><g fill="#ffffff" stroke="#000000" stroke-width="4"><rect x="0" y="0" width="145.171875" height="54" rx="27" ry="27"/><text xml:space="preserve" x="27" y="37.5" stroke="none" font-family="sans-serif" font-size="40" font-weight="normal" fill="#000000">Base</text></g></g><g transform="translate(-114.8125 62)"><g fill="#ffffff" stroke="#000000" stroke-width="4"><rect x="0" y="0" width="229.625" height="54" rx="27" ry="27"/><text xml:space="preserve" x="27" y="37.5" stroke="none" font-family="sans-serif" font-size="40" font-weight="normal" fill="#000000">Computer</text></g></g></g></g><g transform="translate(39.59797974644666 -116.39797974644665)"><g transform="translate(0 0)"><g transform="translate(0 0)" fill="white"><rect x="0" y="0" width="250.7734375" height="76.8" rx="0" ry="0" stroke="none"/><g font-family="sans-serif" font-size="16" font-weight="normal" fill="#000000" text-anchor="end"><text xml:space="preserve" x="153.8515625" y="14.1" stroke="none">enabled:</text><text xml:space="preserve" x="158.296875" y="14.1" stroke="none" text-anchor="start">BOOL:True</text><text xml:space="preserve" x="153.8515625" y="33.3" stroke="none" text-anchor="end">webclientrunning:</text><text xml:space="preserve" x="158.296875" y="33.3" stroke="none" text-anchor="start">BOOL:True</text><text xml:space="preserve" x="153.8515625" y="52.5" stroke="none" text-anchor="end">restrictoutboundntlm:</text><text xml:space="preserve" x="158.296875" y="52.5" stroke="none" text-anchor="start">BOOL:False</text><text xml:space="preserve" x="153.8515625" y="71.7" stroke="none" text-anchor="end">domainsid:</text><text xml:space="preserve" x="158.296875" y="71.7" stroke="none" text-anchor="start">S3</text></g></g></g></g></g></g><g class="node"><g fill="#68ccca" stroke="#000000" stroke-width="4"><circle cx="-65.32235753083677" cy="88.03581277572192" r="52"/></g><g transform="translate(-65.32235753083677 88.03581277572192)"><g transform="scale(0.33772813633338705) translate(0 -88)"><g transform="translate(0 0)"><g fill="#000000" font-family="sans-serif" font-size="50" font-weight="normal" text-anchor="middle"><text xml:space="preserve" x="0" y="43" stroke="none">Domain2</text></g></g><g transform="translate(0 64)"><g transform="translate(-72.5859375 0)"><g fill="#ffffff" stroke="#000000" stroke-width="4"><rect x="0" y="0" width="145.171875" height="54" rx="27" ry="27"/><text xml:space="preserve" x="27" y="37.5" stroke="none" font-family="sans-serif" font-size="40" font-weight="normal" fill="#000000">Base</text></g></g><g transform="translate(-95.916015625 62)"><g fill="#ffffff" stroke="#000000" stroke-width="4"><rect x="0" y="0" width="191.83203125" height="54" rx="27" ry="27"/><text xml:space="preserve" x="27" y="37.5" stroke="none" font-family="sans-serif" font-size="40" font-weight="normal" fill="#000000">Domain</text></g></g></g></g><g transform="translate(-56 -28.79999999999999)"><g transform="translate(0 0)"><g transform="translate(-171.921875 0)" fill="white"><rect x="0" y="0" width="171.921875" height="57.599999999999994" rx="0" ry="0" stroke="none"/><g font-family="sans-serif" font-size="16" font-weight="normal" fill="#000000" text-anchor="end"><text xml:space="preserve" x="81.8203125" y="14.1" stroke="none">collected:</text><text xml:space="preserve" x="86.265625" y="14.1" stroke="none" text-anchor="start">BOOL:True</text><text xml:space="preserve" x="81.8203125" y="33.3" stroke="none" text-anchor="end">domainsid:</text><text xml:space="preserve" x="86.265625" y="33.3" stroke="none" text-anchor="start">S3</text><text xml:space="preserve" x="81.8203125" y="52.5" stroke="none" text-anchor="end">objectid:</text><text xml:space="preserve" x="86.265625" y="52.5" stroke="none" text-anchor="start">S3</text></g></g></g></g></g></g><g class="node"><g fill="#fcdc00" stroke="#000000" stroke-width="4"><circle cx="-256.95587531758804" cy="754.6796667846804" r="52"/></g><g transform="translate(-256.95587531758804 754.6796667846804)"><g transform="scale(0.3711882964985089) translate(0 -88)"><g transform="translate(0 0)"><g fill="#000000" font-family="sans-serif" font-size="50" font-weight="normal" text-anchor="middle"><text xml:space="preserve" x="0" y="43" stroke="none">Group2</text></g></g><g transform="translate(0 64)"><g transform="translate(-72.5859375 0)"><g fill="#ffffff" stroke="#000000" stroke-width="4"><rect x="0" y="0" width="145.171875" height="54" rx="27" ry="27"/><text xml:space="preserve" x="27" y="37.5" stroke="none" font-family="sans-serif" font-size="40" font-weight="normal" fill="#000000">Base</text></g></g><g transform="translate(-82.5859375 62)"><g fill="#ffffff" stroke="#000000" stroke-width="4"><rect x="0" y="0" width="165.171875" height="54" rx="27" ry="27"/><text xml:space="preserve" x="27" y="37.5" stroke="none" font-family="sans-serif" font-size="40" font-weight="normal" fill="#000000">Group</text></g></g></g></g><g transform="translate(-39.597979746446654 39.59797974644666)"><g transform="translate(0 0)"><g transform="translate(-432.03125 0)" fill="white"><rect x="0" y="0" width="432.03125" height="57.599999999999994" rx="0" ry="0" stroke="none"/><g font-family="sans-serif" font-size="16" font-weight="normal" fill="#000000" text-anchor="end"><text xml:space="preserve" x="81.8203125" y="14.1" stroke="none">objectid:</text><text xml:space="preserve" x="86.265625" y="14.1" stroke="none" text-anchor="start">TRUSTED.LOCAL-S-1-5-11</text><text xml:space="preserve" x="81.8203125" y="33.3" stroke="none" text-anchor="end">domainsid:</text><text xml:space="preserve" x="86.265625" y="33.3" stroke="none" text-anchor="start">S3</text><text xml:space="preserve" x="81.8203125" y="52.5" stroke="none" text-anchor="end">name:</text><text xml:space="preserve" x="86.265625" y="52.5" stroke="none" text-anchor="start">AUTHENTICATED USERS@TRUSTED.LOCAL</text></g></g></g></g></g></g><g class="node"><g fill="#fcdc00" stroke="#000000" stroke-width="4"><circle cx="-682.7438310135728" cy="688.4366038101834" r="52"/></g><g transform="translate(-682.7438310135728 688.4366038101834)"><g transform="scale(0.3711882964985089) translate(0 -88)"><g transform="translate(0 0)"><g fill="#000000" font-family="sans-serif" font-size="50" font-weight="normal" text-anchor="middle"><text xml:space="preserve" x="0" y="43" stroke="none">Group3</text></g></g><g transform="translate(0 64)"><g transform="translate(-72.5859375 0)"><g fill="#ffffff" stroke="#000000" stroke-width="4"><rect x="0" y="0" width="145.171875" height="54" rx="27" ry="27"/><text xml:space="preserve" x="27" y="37.5" stroke="none" font-family="sans-serif" font-size="40" font-weight="normal" fill="#000000">Base</text></g></g><g transform="translate(-82.5859375 62)"><g fill="#ffffff" stroke="#000000" stroke-width="4"><rect x="0" y="0" width="165.171875" height="54" rx="27" ry="27"/><text xml:space="preserve" x="27" y="37.5" stroke="none" font-family="sans-serif" font-size="40" font-weight="normal" fill="#000000">Group</text></g></g></g></g><g transform="translate(-39.597979746446654 39.59797974644666)"><g transform="translate(0 0)"><g transform="translate(-403.59375 0)" fill="white"><rect x="0" y="0" width="403.59375" height="57.599999999999994" rx="0" ry="0" stroke="none"/><g font-family="sans-serif" font-size="16" font-weight="normal" fill="#000000" text-anchor="end"><text xml:space="preserve" x="81.8203125" y="14.1" stroke="none">objectid:</text><text xml:space="preserve" x="86.265625" y="14.1" stroke="none" text-anchor="start">SOME.LOCAL-S-1-5-11</text><text xml:space="preserve" x="81.8203125" y="33.3" stroke="none" text-anchor="end">domainsid:</text><text xml:space="preserve" x="86.265625" y="33.3" stroke="none" text-anchor="start">S2</text><text xml:space="preserve" x="81.8203125" y="52.5" stroke="none" text-anchor="end">name:</text><text xml:space="preserve" x="86.265625" y="52.5" stroke="none" text-anchor="start">AUTHENTICATED USERS@SOME.LOCAL</text></g></g></g></g></g></g><g class="node"><g fill="#68ccca" stroke="#000000" stroke-width="4"><circle cx="197.9058744743031" cy="-63.939077830755" r="52"/></g><g transform="translate(197.9058744743031 -63.939077830755)"><g transform="scale(0.33772813633338705) translate(0 -88)"><g transform="translate(0 0)"><g fill="#000000" font-family="sans-serif" font-size="50" font-weight="normal" text-anchor="middle"><text xml:space="preserve" x="0" y="43" stroke="none">Domain3</text></g></g><g transform="translate(0 64)"><g transform="translate(-72.5859375 0)"><g fill="#ffffff" stroke="#000000" stroke-width="4"><rect x="0" y="0" width="145.171875" height="54" rx="27" ry="27"/><text xml:space="preserve" x="27" y="37.5" stroke="none" font-family="sans-serif" font-size="40" font-weight="normal" fill="#000000">Base</text></g></g><g transform="translate(-95.916015625 62)"><g fill="#ffffff" stroke="#000000" stroke-width="4"><rect x="0" y="0" width="191.83203125" height="54" rx="27" ry="27"/><text xml:space="preserve" x="27" y="37.5" stroke="none" font-family="sans-serif" font-size="40" font-weight="normal" fill="#000000">Domain</text></g></g></g></g><g transform="translate(3.429011037612589e-15 -113.6)"><g transform="translate(0 0)"><g transform="translate(-85.9609375 0)" fill="white"><rect x="0" y="0" width="171.921875" height="57.599999999999994" rx="0" ry="0" stroke="none"/><g font-family="sans-serif" font-size="16" font-weight="normal" fill="#000000" text-anchor="end"><text xml:space="preserve" x="81.8203125" y="14.1" stroke="none">collected:</text><text xml:space="preserve" x="86.265625" y="14.1" stroke="none" text-anchor="start">BOOL:True</text><text xml:space="preserve" x="81.8203125" y="33.3" stroke="none" text-anchor="end">domainsid:</text><text xml:space="preserve" x="86.265625" y="33.3" stroke="none" text-anchor="start">S4</text><text xml:space="preserve" x="81.8203125" y="52.5" stroke="none" text-anchor="end">objectid:</text><text xml:space="preserve" x="86.265625" y="52.5" stroke="none" text-anchor="start">S4</text></g></g></g></g></g></g></g></svg>