<svg width="500" height="500" viewBox="0 0 500 500" fill="none" xmlns="http://www.w3.org/2000/svg">
<rect width="500" height="500" rx="10" fill="#E02F35"/>
<path d="M72.3256 438.227C70.1717 438.227 68.3311 437.796 66.7907 436.922C65.2503 436.047 64.0754 434.82 63.253 433.227C62.4306 431.635 62.0259 429.755 62.0259 427.575C62.0259 425.395 62.4306 423.528 63.253 421.935C64.0754 420.356 65.2503 419.129 66.7907 418.254C68.3311 417.38 70.1717 416.949 72.3256 416.949C73.7094 416.949 75.0279 417.158 76.268 417.588C77.5082 418.019 78.5394 418.633 79.3357 419.442L78.1086 422.431C77.234 421.687 76.3333 421.139 75.4064 420.8C74.4796 420.46 73.5005 420.291 72.4431 420.291C70.3545 420.291 68.7488 420.917 67.6653 422.183C66.5687 423.45 66.0205 425.238 66.0205 427.575C66.0205 429.912 66.5687 431.7 67.6653 432.979C68.7618 434.259 70.3545 434.885 72.4431 434.885C73.5005 434.885 74.4926 434.715 75.4064 434.376C76.3202 434.037 77.221 433.488 78.1086 432.744L79.3357 435.734C78.5394 436.517 77.5082 437.13 76.268 437.574C75.0279 438.018 73.7094 438.24 72.3256 438.24V438.227Z" fill="white"/>
<path d="M95.6276 438.227C93.6303 438.227 91.8811 437.783 90.3929 436.909C88.8916 436.034 87.7298 434.794 86.9205 433.201C86.098 431.609 85.6934 429.729 85.6934 427.575C85.6934 425.421 86.098 423.528 86.9205 421.935C87.7429 420.356 88.8916 419.129 90.3798 418.254C91.868 417.38 93.6173 416.949 95.6276 416.949C97.6379 416.949 99.4003 417.38 100.875 418.254C102.364 419.129 103.512 420.356 104.335 421.935C105.157 423.515 105.562 425.395 105.562 427.536C105.562 429.677 105.157 431.596 104.335 433.188C103.512 434.781 102.364 436.021 100.875 436.896C99.3872 437.77 97.6379 438.214 95.6276 438.214V438.227ZM95.6276 435.003C97.5205 435.003 99.0086 434.35 100.053 433.031C101.11 431.726 101.633 429.898 101.633 427.575C101.633 425.251 101.11 423.411 100.066 422.118C99.0217 420.826 97.5335 420.186 95.6146 420.186C93.6956 420.186 92.2335 420.826 91.1892 422.118C90.1318 423.411 89.6096 425.225 89.6096 427.575C89.6096 429.925 90.1318 431.726 91.1892 433.031C92.2466 434.337 93.7217 435.003 95.6146 435.003H95.6276Z" fill="white"/>
<path d="M113.852 437.94V417.249H116.998L124.334 430.773L131.644 417.249H134.725V437.94H131.318V423.998L125.391 434.794H123.185L117.259 424.05V437.927H113.852V437.94Z" fill="white"/>
<path d="M143.732 437.94V417.249H146.878L154.214 430.773L161.525 417.249H164.606V437.94H161.198V423.998L155.272 434.794H153.066L147.139 424.05V437.927H143.732V437.94Z" fill="white"/>
<path d="M182.151 438.227C179.318 438.227 177.151 437.483 175.65 436.008C174.148 434.533 173.404 432.339 173.404 429.454V417.249H177.164V429.428C177.164 431.282 177.595 432.679 178.443 433.606C179.292 434.533 180.532 435.002 182.151 435.002C185.453 435.002 187.111 433.149 187.111 429.428V417.249H190.845V429.454C190.845 432.352 190.114 434.533 188.639 436.008C187.163 437.483 185.009 438.227 182.151 438.227Z" fill="white"/>
<path d="M199.617 437.94V417.249H202.437L213.559 431.687V417.249H217.058V437.94H214.264L203.116 423.436V437.94H199.617Z" fill="white"/>
<path d="M225.973 437.94V417.249H229.733V437.94H225.973Z" fill="white"/>
<path d="M243.61 437.94V420.395H236.509V417.249H254.471V420.395H247.37V437.94H243.61Z" fill="white"/>
<path d="M266.559 437.94V428.436L258.609 417.249H262.983L268.504 425.081L274.052 417.249H278.243L270.319 428.462V437.94H266.559Z" fill="white"/>
<path d="M296.492 437.94V417.249H310.251V420.238H300.095V425.93H309.599V428.919H300.095V434.937H310.251V437.927H296.492V437.94Z" fill="white"/>
<path d="M318.424 437.94V417.249H326.113C329.572 417.249 332.248 418.136 334.141 419.925C336.034 421.7 336.974 424.259 336.974 427.588C336.974 430.917 336.034 433.449 334.141 435.251C332.248 437.052 329.572 437.953 326.113 437.953H318.424V437.94ZM322.17 434.82H325.865C330.643 434.82 333.031 432.405 333.031 427.575C333.031 422.745 330.643 420.356 325.865 420.356H322.17V434.82Z" fill="white"/>
<path d="M345.185 437.94V417.249H348.945V437.94H345.185Z" fill="white"/>
<path d="M362.821 437.94V420.395H355.719V417.249H373.682V420.395H366.58V437.94H362.821Z" fill="white"/>
<path d="M380.457 437.94V417.249H384.217V437.94H380.457Z" fill="white"/>
<path d="M402.388 438.227C400.391 438.227 398.642 437.783 397.154 436.909C395.652 436.034 394.491 434.794 393.681 433.201C392.859 431.609 392.454 429.729 392.454 427.575C392.454 425.421 392.859 423.528 393.681 421.935C394.504 420.356 395.652 419.129 397.141 418.254C398.629 417.38 400.378 416.949 402.388 416.949C404.399 416.949 406.161 417.38 407.636 418.254C409.124 419.129 410.273 420.356 411.095 421.935C411.918 423.515 412.323 425.395 412.323 427.536C412.323 429.677 411.918 431.596 411.095 433.188C410.273 434.781 409.124 436.021 407.636 436.896C406.148 437.77 404.399 438.214 402.388 438.214V438.227ZM402.388 435.003C404.281 435.003 405.769 434.35 406.814 433.031C407.871 431.726 408.393 429.898 408.393 427.575C408.393 425.251 407.871 423.411 406.827 422.118C405.782 420.826 404.294 420.186 402.375 420.186C400.456 420.186 398.994 420.826 397.95 422.118C396.893 423.411 396.37 425.225 396.37 427.575C396.37 429.925 396.906 431.726 397.95 433.031C399.007 434.337 400.482 435.003 402.375 435.003H402.388Z" fill="white"/>
<path d="M420.547 437.94V417.249H423.367L434.489 431.687V417.249H437.987V437.94H435.194L424.045 423.436V437.94H420.547Z" fill="white"/>
<path d="M432.687 307.816C432.687 307.816 432.648 307.816 432.622 307.816L425.455 288.313C426.63 287.347 427.387 285.898 427.387 284.253C427.387 282.321 426.342 280.65 424.789 279.723L425.664 275.363C428.288 275.05 430.324 272.83 430.324 270.128C430.324 267.204 427.948 264.828 425.024 264.828C424.698 264.828 424.371 264.867 424.058 264.92L402.14 232.219C402.78 231.344 403.184 230.261 403.184 229.099C403.184 226.175 400.808 223.799 397.884 223.799C397.101 223.799 396.37 223.982 395.704 224.282L375.066 202.808C375.431 202.09 375.64 201.293 375.64 200.445C375.64 197.521 373.264 195.145 370.34 195.145C369.465 195.145 368.643 195.38 367.912 195.758L350.85 179.793C351.137 179.14 351.294 178.422 351.294 177.678C351.294 174.754 348.918 172.378 345.994 172.378C345.119 172.378 344.297 172.613 343.566 172.992L330.029 160.329C330.316 159.677 330.473 158.959 330.473 158.215C330.473 155.29 328.097 152.915 325.172 152.915C323.619 152.915 322.248 153.593 321.269 154.651L276.285 135.618C276.285 132.694 273.909 130.331 270.985 130.331C269.092 130.331 267.447 131.323 266.507 132.811L224.982 126.467C224.525 124 222.371 122.12 219.773 122.12C217.462 122.12 215.517 123.608 214.786 125.67H189.814C189.083 123.595 187.137 122.12 184.84 122.12C182.112 122.12 179.892 124.182 179.605 126.832L157.256 132.041C156.317 130.566 154.672 129.587 152.805 129.587C150.338 129.587 148.275 131.284 147.688 133.581L131.696 135.03C130.861 133.216 129.033 131.936 126.892 131.936C125.326 131.936 123.929 132.628 122.95 133.725L104.452 126.167C104.465 125.997 104.504 125.827 104.504 125.657C104.504 122.733 102.129 120.357 99.2044 120.357C98.2906 120.357 97.4291 120.618 96.6719 121.023L82.8084 107.16L76.9209 94.001C78.0958 93.035 78.866 91.5729 78.866 89.9281C78.866 87.3956 77.0776 85.2808 74.7017 84.7586L74.0621 62.201L71.0466 61L65.9424 66.1042L65.4594 67.0441L62.1175 85.5027V86.1032L64.6239 101.285C63.0574 102.212 62 103.896 62 105.841C62 108.765 64.3759 111.141 67.3 111.141C67.5872 111.141 67.8613 111.102 68.1224 111.063L73.7357 120.527C72.9655 121.441 72.4956 122.616 72.4956 123.895C72.4956 126.819 74.8714 129.195 77.7956 129.195C78.8269 129.195 79.7798 128.882 80.6022 128.373L106.384 148.829C106.188 149.377 106.058 149.964 106.058 150.591C106.058 153.515 108.434 155.891 111.358 155.891C113.094 155.891 114.608 155.042 115.587 153.763L131.109 158.711C131.174 160.682 132.31 162.366 133.955 163.227L130.613 187.221C128.198 187.717 126.37 189.845 126.37 192.417C126.37 194.988 128.093 196.986 130.417 197.547L131.775 210.901C129.986 211.75 128.733 213.564 128.733 215.679C128.733 217.128 129.307 218.434 130.247 219.387L122.075 236.057C121.906 236.044 121.736 236.005 121.566 236.005C118.642 236.005 116.266 238.38 116.266 241.304C116.266 242.101 116.449 242.845 116.762 243.524L101.45 258.862C100.758 258.536 100.001 258.34 99.1783 258.34C96.2542 258.34 93.8783 260.716 93.8783 263.64C93.8783 265.389 94.7399 266.93 96.0453 267.896L89.4921 289.409C86.6855 289.54 84.4271 291.837 84.4271 294.683C84.4271 297.529 86.803 299.983 89.7271 299.983C90.0404 299.983 90.3276 299.944 90.6278 299.892L103.695 323.167C102.847 324.107 102.311 325.347 102.311 326.705C102.311 329.629 104.687 332.005 107.611 332.005C109.896 332.005 111.815 330.556 112.572 328.533L141.552 328.911L143.249 326.601L140.325 317.658C141.487 316.692 142.257 315.243 142.257 313.599C142.257 310.674 139.881 308.299 136.957 308.299C135.769 308.299 134.673 308.703 133.785 309.369L119.217 301.798C119.256 301.563 119.295 301.328 119.295 301.08C119.295 299.135 118.237 297.451 116.684 296.537L120.078 279.07C122.637 278.692 124.595 276.512 124.595 273.849C124.595 273.196 124.464 272.569 124.242 271.982L141.944 257.048C142.727 257.505 143.628 257.792 144.607 257.792C147.531 257.792 149.907 255.416 149.907 252.492C149.907 251.5 149.62 250.586 149.15 249.79L161.016 235.652C161.59 235.874 162.217 236.005 162.857 236.005C163.105 236.005 163.34 235.965 163.575 235.939L172.843 253.889C171.955 254.842 171.394 256.108 171.394 257.505C171.394 259.137 172.151 260.572 173.3 261.552L167.347 277.543C167.347 277.543 167.295 277.543 167.269 277.543C164.345 277.543 161.969 279.919 161.969 282.843C161.969 285.767 164.319 288.117 167.243 288.143L178.235 319.825C177.295 320.778 176.707 322.097 176.707 323.546C176.707 326.47 179.083 328.846 182.007 328.846C182.699 328.846 183.365 328.702 183.965 328.454L196.915 340.882C196.615 341.548 196.432 342.279 196.432 343.062C196.432 345.986 198.808 348.362 201.732 348.362C204.043 348.362 205.975 346.887 206.706 344.824H227.057L228.663 342.331L224.916 333.989C225.869 333.036 226.47 331.705 226.47 330.243C226.47 327.319 224.094 324.943 221.17 324.943C219.825 324.943 218.598 325.465 217.671 326.287L208.742 321.979C208.768 321.784 208.794 321.601 208.794 321.405C208.794 318.533 206.497 316.196 203.638 316.118L193.743 285.545C195.009 284.579 195.832 283.065 195.832 281.355C195.832 279.958 195.283 278.705 194.409 277.765L205.988 255.664C206.236 255.703 206.471 255.742 206.732 255.742C209.656 255.742 212.032 253.367 212.032 250.442C212.032 248.445 210.922 246.735 209.29 245.834L212.959 223.851C214.055 223.655 215.034 223.146 215.778 222.389L246.39 237.01C246.377 237.166 246.338 237.323 246.338 237.493C246.338 239.072 247.043 240.469 248.14 241.448L238.323 267.831C238.323 267.831 238.271 267.831 238.245 267.831C235.321 267.831 232.945 270.206 232.945 273.131C232.945 275.193 234.133 276.956 235.856 277.83L231.809 308.886C229.433 309.408 227.645 311.523 227.645 314.056C227.645 316.98 230.02 319.356 232.945 319.356C233.31 319.356 233.663 319.316 234.002 319.251L246.038 340.19C245.503 341.025 245.176 342.005 245.176 343.075C245.176 345.999 247.552 348.375 250.476 348.375C252.787 348.375 254.719 346.9 255.45 344.837H285.945L287.485 342.187L281.284 331.339C282.081 330.412 282.59 329.224 282.59 327.893C282.59 324.969 280.214 322.593 277.29 322.593C275.828 322.593 274.496 323.18 273.543 324.146L260.371 317.841C260.385 317.658 260.424 317.476 260.424 317.293C260.424 315.126 259.118 313.259 257.252 312.437L259.184 285.976C261.651 285.519 263.518 283.365 263.518 280.767C263.518 279.553 263.087 278.444 262.395 277.543L275.802 259.032C276.271 259.176 276.768 259.267 277.29 259.267C279.94 259.267 282.12 257.322 282.511 254.776L286.702 253.98C287.524 255.377 288.947 256.356 290.631 256.552L292.681 265.624C291.127 266.551 290.083 268.222 290.083 270.167C290.083 273.091 292.459 275.467 295.383 275.467C295.487 275.467 295.592 275.441 295.696 275.441L309.338 312.032C308.163 312.998 307.393 314.46 307.393 316.105C307.393 319.029 309.769 321.405 312.693 321.405C313.463 321.405 314.207 321.235 314.86 320.935L328.658 335.947C328.449 336.509 328.319 337.122 328.319 337.762C328.319 340.686 330.694 343.062 333.619 343.062C335.759 343.062 337.587 341.796 338.422 339.968H367.546L368.995 337.188L358.539 322.306C358.996 321.523 359.27 320.622 359.27 319.656C359.27 316.732 356.894 314.356 353.97 314.356C352.469 314.356 351.124 314.982 350.158 315.974L338.579 311.157C338.592 311.001 338.631 310.857 338.631 310.701C338.631 307.946 336.517 305.701 333.827 305.453L324.716 268.079C326.06 267.191 326.961 265.716 327.078 264.006L336.321 261.408C337.287 262.753 338.853 263.64 340.629 263.64C342.091 263.64 343.409 263.053 344.362 262.1L354.022 266.682C354.022 266.825 353.983 266.969 353.983 267.126C353.983 268.692 354.675 270.089 355.758 271.055L349.571 285.806C349.466 285.806 349.375 285.78 349.271 285.78C346.346 285.78 343.971 288.156 343.971 291.08C343.971 294.004 346.346 296.38 349.271 296.38C349.884 296.38 350.458 296.25 351.007 296.067L367.455 316.575C366.959 317.384 366.646 318.337 366.646 319.356C366.646 322.28 369.022 324.656 371.946 324.656C374.87 324.656 377.246 322.28 377.246 319.356C377.246 318.037 376.75 316.836 375.94 315.909L382.794 303.886C383.055 303.952 383.342 303.978 383.616 304.004L387.023 318.155C385.574 319.094 384.608 320.726 384.608 322.593C384.608 325.517 386.984 327.893 389.908 327.893C391.736 327.893 393.341 326.966 394.294 325.569L416.317 331.339C416.93 333.598 418.967 335.269 421.408 335.269C424.332 335.269 426.708 332.893 426.708 329.969C426.708 328.911 426.395 327.945 425.859 327.123L431.421 318.35C431.799 318.442 432.191 318.494 432.595 318.494C435.52 318.494 437.895 316.118 437.895 313.194C437.895 310.27 435.52 307.894 432.595 307.894L432.687 307.816ZM372.024 313.99C372.024 313.99 371.972 313.99 371.946 313.99L361.698 271.799C363.447 270.938 364.661 269.149 364.661 267.06C364.661 266.068 364.374 265.141 363.891 264.345L395.078 233.55C395.3 233.694 395.522 233.811 395.756 233.916L388.825 268.496C385.979 268.588 383.694 270.911 383.694 273.783C383.694 275.924 384.974 277.752 386.801 278.6L383.838 293.404C381.031 293.547 378.799 295.845 378.799 298.678C378.799 299.892 379.217 300.988 379.909 301.889L372.964 314.095C372.664 314.042 372.35 314.003 372.037 314.003L372.024 313.99ZM335.446 257.949L326.217 260.533C325.251 259.176 323.684 258.275 321.896 258.275C320.107 258.275 318.502 259.176 317.549 260.559L296.558 252.1C296.597 251.826 296.636 251.552 296.636 251.265C296.636 250.26 296.336 249.333 295.853 248.523L315.186 229.791C316.021 230.326 317.001 230.652 318.071 230.652C318.815 230.652 319.52 230.496 320.16 230.221L336.83 254.698C336.034 255.56 335.524 256.695 335.446 257.949ZM318.045 315.831L328.788 313.194C329.506 314.486 330.721 315.452 332.209 315.805L332.091 332.697C331.726 332.814 331.373 332.971 331.034 333.167L317.497 318.442C317.862 317.724 318.084 316.927 318.084 316.066C318.084 315.988 318.058 315.909 318.058 315.831H318.045ZM300.03 272.765C300.487 271.982 300.761 271.094 300.761 270.128C300.761 267.465 298.79 265.272 296.231 264.906L294.169 255.755C294.769 255.377 295.291 254.881 295.696 254.306L316.687 262.766C316.648 263.04 316.609 263.314 316.609 263.601C316.609 266.342 318.698 268.575 321.374 268.849L330.381 305.779L300.043 272.778L300.03 272.765ZM272.29 329.29L254.262 339.211C253.309 338.284 252.004 337.697 250.568 337.697C250.006 337.697 249.471 337.814 248.962 337.971L237.096 317.345C237.487 316.875 237.788 316.34 237.997 315.766L249.928 317.619C250.124 320.374 252.395 322.541 255.189 322.541C256.651 322.541 257.983 321.953 258.936 320.987L272.107 327.292C272.094 327.475 272.055 327.658 272.055 327.841C272.055 328.35 272.146 328.82 272.277 329.29H272.29ZM242.683 276.068L253.035 280.206C253.022 280.376 252.983 280.532 252.983 280.715C252.983 281.916 253.401 283.013 254.079 283.9L235.49 308.573L239.433 278.235C240.777 277.948 241.926 277.151 242.683 276.068ZM250.281 315.283L238.271 313.416C238.153 312.306 237.696 311.301 236.991 310.505L255.737 285.637L253.805 312.15C252.2 312.593 250.894 313.755 250.294 315.283H250.281ZM258.283 275.415C258.283 275.415 258.257 275.415 258.244 275.415L253.479 242.401C255.541 241.67 257.017 239.725 257.017 237.427C257.017 236.435 256.729 235.508 256.246 234.712L265.776 225.94C266.468 226.436 267.277 226.762 268.152 226.893L274.77 249.307C273.152 250.221 272.055 251.918 272.055 253.902C272.055 255.024 272.407 256.056 272.995 256.904L259.497 275.546C259.105 275.454 258.701 275.389 258.283 275.389V275.415ZM176.772 252.153C176.524 252.153 176.289 252.192 176.054 252.231L166.786 234.281C166.917 234.151 167.034 233.994 167.138 233.851L201.615 249.346C201.549 249.685 201.51 250.038 201.51 250.39C201.51 250.39 201.51 250.416 201.51 250.429L181.511 255.129C180.65 253.38 178.861 252.153 176.772 252.153ZM144.672 247.153C144.568 247.153 144.476 247.179 144.385 247.179L136.631 220.261C138.263 219.36 139.372 217.637 139.372 215.64C139.372 213.147 137.649 211.071 135.325 210.51L133.968 197.155C133.968 197.155 134.02 197.129 134.046 197.116L158.758 227.428C158.053 228.329 157.622 229.438 157.622 230.665C157.622 231.644 157.909 232.558 158.379 233.341L146.513 247.505C145.938 247.296 145.325 247.153 144.672 247.153ZM82.8475 125.501L94.0219 126.532C94.4527 129.025 96.6197 130.918 99.2305 130.918C99.57 130.918 99.9094 130.879 100.236 130.814L107.402 145.056L82.8214 125.566C82.8214 125.566 82.8214 125.527 82.8345 125.501H82.8475ZM116.084 148.137L123.785 141.479C124.66 142.119 125.744 142.523 126.905 142.523C127.258 142.523 127.597 142.484 127.937 142.419L133.25 154.298C132.858 154.586 132.519 154.938 132.218 155.33L116.671 150.369C116.645 149.573 116.423 148.816 116.084 148.15V148.137ZM323.123 163.058C323.763 163.319 324.454 163.475 325.186 163.475C326.06 163.475 326.883 163.24 327.614 162.862L341.151 175.524C340.864 176.177 340.707 176.895 340.707 177.639C340.707 179.937 342.182 181.882 344.232 182.613L341.895 202.39C340.211 202.573 338.762 203.526 337.939 204.909L304.429 193.957C304.429 193.839 304.469 193.722 304.469 193.604C304.469 192.43 304.077 191.346 303.424 190.471L323.136 163.058H323.123ZM294.6 190.968L261.142 181.386C261.142 181.294 261.168 181.203 261.168 181.099C261.168 179.18 260.137 177.509 258.596 176.582L270.41 140.826C270.606 140.852 270.802 140.892 271.011 140.892C271.481 140.892 271.924 140.813 272.368 140.696L296.127 189.284C295.5 189.727 294.991 190.302 294.6 190.968ZM224.929 157.875C225.19 157.249 225.334 156.57 225.334 155.865C225.334 155.578 225.295 155.303 225.256 155.029L266.507 138.346C266.925 139.038 267.499 139.625 268.191 140.069L256.364 175.877C256.194 175.864 256.038 175.825 255.868 175.825C254.51 175.825 253.283 176.347 252.343 177.195L224.942 157.888L224.929 157.875ZM224.381 152.823C223.624 151.74 222.475 150.943 221.131 150.669L220.843 132.589C222.41 132.276 223.702 131.271 224.446 129.926L265.528 136.205L224.381 152.849V152.823ZM218.481 132.498L218.781 150.721C216.47 151.296 214.747 153.358 214.747 155.852C214.747 156.139 214.786 156.413 214.825 156.687L200.113 162.64C199.226 161.23 197.685 160.277 195.91 160.186L187.49 131.989C188.586 131.362 189.435 130.37 189.866 129.169H214.838C215.426 130.814 216.784 132.067 218.494 132.511L218.481 132.498ZM164.149 225.509L164.384 183.997C164.919 183.879 165.428 183.657 165.885 183.396L207.345 216.306C207.019 216.998 206.81 217.768 206.81 218.59C206.81 218.616 206.81 218.642 206.81 218.682L167.634 228.303C166.943 226.919 165.663 225.887 164.123 225.522L164.149 225.509ZM208.82 214.465L167.634 181.777C168.196 180.929 168.535 179.924 168.535 178.827C168.535 178.54 168.496 178.266 168.457 177.992L191.458 168.697C192.424 169.95 193.926 170.773 195.636 170.773C195.962 170.773 196.275 170.734 196.589 170.681L209.525 214.008C209.277 214.152 209.055 214.308 208.834 214.478L208.82 214.465ZM184.879 132.694C184.997 132.694 185.101 132.668 185.218 132.654L193.56 160.577C191.654 161.387 190.323 163.267 190.323 165.46C190.323 165.838 190.362 166.204 190.44 166.556L167.569 175.799C166.616 174.428 165.024 173.527 163.222 173.527C161.695 173.527 160.324 174.18 159.358 175.211L141.187 160.786C141.513 160.094 141.722 159.324 141.722 158.502C141.722 157.131 141.187 155.878 140.325 154.938L150.847 139.756C151.46 140.004 152.126 140.148 152.818 140.148C155.546 140.148 157.766 138.072 158.066 135.422L180.415 130.226C181.354 131.701 182.999 132.681 184.866 132.681L184.879 132.694ZM148.928 138.411L138.406 153.593C137.793 153.345 137.127 153.202 136.435 153.202C136.083 153.202 135.743 153.241 135.404 153.306L130.091 141.427C131.031 140.709 131.735 139.704 132.036 138.516L148.027 137.067C148.262 137.563 148.562 138.02 148.928 138.424V138.411ZM139.725 162.627L158.183 177.274C158.027 177.77 157.922 178.279 157.922 178.827C157.922 181.334 159.671 183.435 162.021 183.984L161.786 225.496C161.368 225.587 160.977 225.744 160.598 225.927L135.887 195.615C136.592 194.714 137.022 193.604 137.022 192.377C137.022 190.328 135.848 188.579 134.164 187.691L137.505 163.697C138.341 163.528 139.098 163.136 139.738 162.627H139.725ZM202.607 247.205L168.131 231.71C168.196 231.37 168.235 231.018 168.235 230.665C168.235 230.639 168.235 230.613 168.235 230.574L207.411 220.953C207.894 221.906 208.638 222.676 209.565 223.198L205.896 245.182C204.552 245.417 203.403 246.161 202.607 247.205ZM215.256 214.335C214.369 213.682 213.298 213.277 212.11 213.277C211.993 213.277 211.888 213.303 211.771 213.316L198.743 169.715C200.061 168.749 200.923 167.209 200.923 165.447C200.923 165.251 200.884 165.055 200.87 164.872L215.7 158.88C216.653 160.251 218.246 161.152 220.047 161.152C221.405 161.152 222.632 160.63 223.572 159.781L250.972 179.088C250.711 179.715 250.568 180.394 250.568 181.099C250.568 181.986 250.803 182.809 251.194 183.553L215.269 214.335H215.256ZM260.489 183.657L293.908 193.226C293.908 193.356 293.869 193.487 293.869 193.618C293.869 194.57 294.143 195.458 294.587 196.241L271.781 217.246C270.945 216.71 269.966 216.384 268.896 216.384C268.439 216.384 267.995 216.462 267.564 216.567L258.452 185.707C259.314 185.224 260.006 184.519 260.489 183.657ZM277.368 248.615C277.251 248.615 277.146 248.641 277.042 248.654L270.554 226.684C272.669 225.979 274.196 224.021 274.196 221.671C274.196 220.666 273.896 219.726 273.413 218.93L296.166 197.978C297.015 198.565 298.046 198.918 299.169 198.918C299.847 198.918 300.5 198.774 301.101 198.539L314.572 221.41C313.476 222.376 312.771 223.786 312.771 225.365C312.771 226.371 313.071 227.31 313.554 228.107L294.221 246.839C293.386 246.291 292.406 245.978 291.336 245.978C288.686 245.978 286.506 247.923 286.114 250.469L281.924 251.265C281.01 249.698 279.313 248.628 277.368 248.628V248.615ZM321.543 221.384C320.617 220.574 319.403 220.052 318.071 220.052C317.575 220.052 317.092 220.144 316.635 220.274L303.033 197.207C303.307 196.907 303.542 196.581 303.751 196.228L337.208 207.168C337.195 207.324 337.156 207.481 337.156 207.651C337.156 208.395 337.313 209.1 337.587 209.739L321.53 221.384H321.543ZM344.245 202.677L346.581 182.9C347.247 182.835 347.874 182.639 348.435 182.339L365.497 198.304C365.21 198.957 365.053 199.675 365.053 200.432C365.053 202.651 366.411 204.544 368.343 205.327L364.348 229.151C363.604 229.19 362.912 229.386 362.286 229.712L346.66 210.875C347.339 209.987 347.769 208.878 347.769 207.664C347.769 205.366 346.294 203.421 344.245 202.69V202.677ZM365.001 239.673C367.768 239.49 369.961 237.219 369.961 234.412C369.961 232.193 368.604 230.3 366.672 229.517L370.666 205.693C371.332 205.654 371.959 205.51 372.533 205.236L393.172 226.697C392.806 227.415 392.584 228.224 392.584 229.086C392.584 230.117 392.898 231.083 393.407 231.892L362.259 262.648C361.972 262.465 361.672 262.296 361.359 262.178L365.001 239.686V239.673ZM416.787 284.253C416.787 284.383 416.813 284.514 416.826 284.631L410.364 286.616C409.45 285.036 407.753 283.953 405.795 283.953C404.79 283.953 403.863 284.253 403.054 284.736L393.668 276.251C393.994 275.624 394.203 274.945 394.255 274.201L419.868 271.29C420.181 272.674 421.042 273.849 422.204 274.58L421.317 279.018C418.745 279.384 416.774 281.577 416.774 284.24L416.787 284.253ZM419.868 268.927L393.929 271.877C393.42 270.572 392.415 269.515 391.135 268.953L398.067 234.36C398.472 234.347 398.85 234.281 399.216 234.19L421.003 266.695C420.468 267.335 420.063 268.079 419.868 268.927ZM386.162 293.795L389.112 279.083C390.248 279.057 391.292 278.679 392.14 278.052L401.357 286.381C400.822 287.216 400.495 288.195 400.495 289.266C400.495 290.95 401.291 292.438 402.532 293.404L391.148 317.371C390.953 317.332 390.757 317.319 390.548 317.293L387.115 303.038C388.498 302.085 389.412 300.492 389.412 298.678C389.412 296.485 388.081 294.592 386.175 293.795H386.162ZM393.25 318.39L404.633 294.422C404.999 294.5 405.39 294.553 405.782 294.553C406.03 294.553 406.265 294.513 406.5 294.474L418.301 325.674C417.609 326.196 417.048 326.888 416.682 327.684L395.234 322.071C395.104 320.57 394.36 319.264 393.25 318.376V318.39ZM421.499 324.603C421.147 324.603 420.794 324.642 420.455 324.708L408.719 293.678C408.85 293.587 408.967 293.482 409.098 293.378L428.092 310.544C427.661 311.314 427.4 312.176 427.4 313.116C427.4 314.356 427.844 315.465 428.549 316.366L423.157 324.877C422.635 324.708 422.087 324.59 421.512 324.59L421.499 324.603ZM428.992 308.194L410.56 291.537C410.886 290.845 411.082 290.088 411.082 289.266C411.082 289.135 411.056 289.005 411.043 288.887L417.505 286.903C418.419 288.482 420.116 289.566 422.074 289.566C422.1 289.566 422.113 289.566 422.139 289.566L428.992 308.207V308.194ZM321.23 161.661L301.623 188.931C300.892 188.539 300.056 188.304 299.169 188.304C298.881 188.304 298.594 188.344 298.32 188.396L274.457 139.586C274.705 139.377 274.927 139.142 275.123 138.894L319.925 157.862C319.925 157.967 319.899 158.071 319.899 158.175C319.899 159.52 320.421 160.734 321.243 161.661H321.23ZM121.632 136.962C121.632 137.041 121.605 137.119 121.605 137.21C121.605 138.111 121.853 138.947 122.245 139.691L114.569 146.335C113.682 145.669 112.598 145.265 111.397 145.265C110.992 145.265 110.588 145.317 110.209 145.408L102.377 129.861C102.585 129.704 102.794 129.535 102.99 129.352L121.632 136.962ZM94.3222 123.608C94.2438 123.791 94.2047 123.986 94.1394 124.182L83.0434 123.151C82.7039 120.553 80.4978 118.543 77.8086 118.543C77.4562 118.543 77.1168 118.582 76.7773 118.647L71.2293 109.314C71.5948 108.909 71.9081 108.439 72.1431 107.93L79.8973 109.118L80.0931 109.392L94.3091 123.608H94.3222ZM70.3025 94.0141L68.0571 100.215L66.0337 87.97L68.3965 88.9751C68.3443 89.2754 68.3052 89.5756 68.3052 89.902C68.3052 91.5729 69.0884 93.048 70.3025 94.0141ZM78.7094 106.559L72.6 105.632C72.5347 103.831 71.5818 102.251 70.1589 101.337L72.4303 95.0584C72.8089 95.1498 73.2005 95.202 73.6052 95.202C73.6052 95.202 73.6182 95.202 73.6313 95.202L78.7094 106.572V106.559ZM68.8665 68.1798L70.681 66.3653L71.2163 85.1894C70.4591 85.568 69.8064 86.1293 69.3103 86.8081L65.7596 85.2939L68.8535 68.1798H68.8665ZM133.472 220.875C133.668 220.901 133.863 220.94 134.072 220.94C134.177 220.94 134.268 220.914 134.359 220.914L142.114 247.832C140.482 248.732 139.372 250.455 139.372 252.453C139.372 253.105 139.503 253.732 139.725 254.32L122.023 269.254C121.671 269.045 121.279 268.875 120.874 268.757L122.35 246.5C124.921 246.135 126.918 243.955 126.918 241.278C126.918 239.803 126.318 238.472 125.339 237.506L133.485 220.901L133.472 220.875ZM131.775 314.121L111.854 323.441C111.384 322.841 110.797 322.345 110.118 321.992L113.969 306.34C113.969 306.34 114.021 306.34 114.06 306.34C115.457 306.34 116.723 305.792 117.663 304.905L131.879 312.293C131.775 312.698 131.709 313.116 131.709 313.559C131.709 313.755 131.749 313.938 131.762 314.121H131.775ZM94.4527 297.098C101.424 298.952 105.901 300.14 108.773 300.897C108.773 300.949 108.76 300.988 108.76 301.04C108.76 303.116 109.961 304.891 111.684 305.753L107.846 321.379C107.846 321.379 107.729 321.366 107.664 321.366C107.389 321.366 107.115 321.405 106.854 321.444L93.7478 298.103C94.0219 297.79 94.2439 297.464 94.4397 297.098H94.4527ZM109.374 298.612C105.562 297.607 100.105 296.158 95.0663 294.814C95.0663 294.748 95.0793 294.683 95.0793 294.618C95.0793 292.869 94.2177 291.328 92.9123 290.362L99.4655 268.849C101.006 268.784 102.35 268.053 103.277 266.956L114.23 272.504C114.125 272.922 114.06 273.339 114.06 273.783C114.06 275.728 115.118 277.412 116.671 278.326L113.277 295.793C111.567 296.054 110.131 297.111 109.374 298.599V298.612ZM120 246.278L118.525 268.575C117.232 268.784 116.11 269.449 115.3 270.415L104.348 264.867C104.452 264.45 104.517 264.032 104.517 263.588C104.517 262.766 104.322 262.008 103.982 261.317L119.269 246.004C119.504 246.122 119.739 246.213 119.987 246.291L120 246.278ZM139.189 325.295L114.151 324.969L132.545 316.353C133.485 317.841 135.13 318.846 137.022 318.846C137.049 318.846 137.062 318.846 137.088 318.846L139.189 325.295ZM176.694 262.753C176.694 262.753 176.746 262.753 176.772 262.753C179.697 262.753 182.072 260.377 182.072 257.453C182.072 257.453 182.072 257.426 182.072 257.413L202.071 252.714C202.306 253.184 202.594 253.602 202.933 253.98L191.354 276.081C191.106 276.042 190.871 276.003 190.61 276.003C187.973 276.003 185.806 277.935 185.401 280.454L172.412 281.276C172.112 280.271 171.525 279.397 170.741 278.731L176.694 262.74V262.753ZM216.092 331.378L203.808 338.101C203.194 337.853 202.528 337.71 201.823 337.71C200.962 337.71 200.166 337.932 199.461 338.297L186.707 326.065C187.033 325.478 187.242 324.825 187.333 324.12L198.586 323.037C199.291 325.139 201.249 326.666 203.599 326.666C205.048 326.666 206.366 326.078 207.332 325.125L216.053 329.342C216.013 329.616 215.961 329.903 215.961 330.19C215.961 330.595 216.013 330.987 216.105 331.378H216.092ZM172.569 283.626L185.558 282.804C185.989 284.266 187.02 285.454 188.378 286.093L181.446 318.037L170.65 286.903C171.655 286.106 172.347 284.958 172.569 283.639V283.626ZM198.338 320.674L187.059 321.757C186.524 320.204 185.31 319.003 183.756 318.481L190.584 286.968L200.348 317.162C199.265 317.998 198.508 319.238 198.325 320.674H198.338ZM206.784 341.234C206.575 340.647 206.262 340.112 205.883 339.642L217.136 333.493C218.102 334.707 219.577 335.49 221.248 335.49C221.431 335.49 221.614 335.451 221.796 335.438L224.407 341.234H206.784ZM217.358 219.125C217.371 218.943 217.41 218.76 217.41 218.577C217.41 217.689 217.175 216.867 216.784 216.123L252.709 185.341C253.596 185.994 254.667 186.399 255.855 186.399C255.972 186.399 256.077 186.372 256.181 186.359L265.423 217.663C264.301 218.629 263.583 220.052 263.583 221.658C263.583 222.559 263.831 223.407 264.236 224.151L254.641 232.989C253.805 232.441 252.8 232.114 251.73 232.114C250.241 232.114 248.897 232.728 247.944 233.72L217.371 219.112L217.358 219.125ZM251.247 243.38L255.946 275.976C255.045 276.42 254.288 277.112 253.766 277.961L243.532 273.875C243.571 273.601 243.61 273.339 243.61 273.052C243.61 271.421 242.853 269.985 241.704 269.005L251.234 243.38H251.247ZM255.541 341.234C255.541 341.234 255.541 341.208 255.541 341.195L273.439 331.339C274.405 332.423 275.802 333.128 277.381 333.128C277.707 333.128 278.021 333.089 278.321 333.036L283.007 341.234H255.554H255.541ZM299.73 275.911L328.984 307.75C328.436 308.586 328.11 309.578 328.11 310.648C328.11 310.74 328.136 310.831 328.136 310.923L317.405 313.559C316.505 311.902 314.781 310.766 312.758 310.766C312.758 310.766 312.732 310.766 312.719 310.766L299.717 275.924L299.73 275.911ZM338.827 336.378C338.723 335.974 338.579 335.608 338.383 335.242L351.307 324.094C352.116 324.59 353.056 324.89 354.061 324.89C354.714 324.89 355.341 324.76 355.915 324.538L364.231 336.378H338.814H338.827ZM348.801 319.147C348.801 319.303 348.761 319.447 348.761 319.59C348.761 320.648 349.075 321.627 349.61 322.449L336.856 333.454C336.164 332.945 335.342 332.605 334.441 332.475L334.558 315.818C335.59 315.596 336.517 315.061 337.221 314.33L348.801 319.147ZM345.955 258.849C345.981 258.667 346.007 258.484 346.007 258.288C346.007 255.364 343.631 252.988 340.707 252.988C340.015 252.988 339.362 253.132 338.762 253.367L322.039 228.825C322.849 227.898 323.358 226.684 323.358 225.352C323.358 224.608 323.201 223.903 322.927 223.277L338.984 211.619C339.911 212.429 341.125 212.938 342.456 212.938C343.318 212.938 344.114 212.716 344.832 212.35L360.458 231.188C359.779 232.075 359.348 233.185 359.348 234.399C359.348 236.618 360.719 238.524 362.664 239.307L359.022 261.8C357.651 261.878 356.424 262.465 355.537 263.392L345.942 258.836L345.955 258.849ZM359.1 272.347C359.192 272.347 359.27 272.373 359.361 272.373C359.374 272.373 359.401 272.373 359.414 272.373L369.309 313.076L353.853 293.808C354.349 292.999 354.662 292.046 354.662 291.028C354.662 289.474 353.983 288.091 352.913 287.125L359.113 272.36L359.1 272.347Z" fill="white"/>
<path d="M62.0259 402.707V371.155H75.1845C78.4611 371.155 81.0067 371.886 82.8212 373.322C84.6227 374.771 85.5234 376.794 85.5234 379.392C85.5234 381.089 85.0796 382.551 84.1788 383.778C83.2781 385.005 82.0641 385.893 80.5106 386.467C82.3252 386.95 83.7481 387.825 84.7663 389.104C85.7845 390.384 86.2936 392.015 86.2936 393.987C86.2936 396.793 85.3668 398.947 83.5 400.448C81.6333 401.963 79.0485 402.707 75.7328 402.707H62.0389H62.0259ZM66.5035 384.927H74.4665C78.8266 384.927 81.0067 383.23 81.0067 379.823C81.0067 376.416 78.8266 374.719 74.4665 374.719H66.5035V384.927ZM66.5035 399.117H75.1845C79.5707 399.117 81.7638 397.341 81.7638 393.791C81.7638 390.24 79.5707 388.504 75.1845 388.504H66.5035V399.117Z" fill="white"/>
<path d="M98.9565 402.707V371.155H103.617V398.725H119.243V402.707H98.9696H98.9565Z" fill="white"/>
<path d="M142.453 403.098C139.438 403.098 136.827 402.432 134.621 401.101C132.414 399.769 130.704 397.889 129.49 395.461C128.276 393.033 127.676 390.174 127.676 386.885C127.676 383.595 128.276 380.71 129.49 378.295C130.704 375.88 132.401 374.013 134.621 372.695C136.827 371.376 139.438 370.724 142.453 370.724C145.469 370.724 148.04 371.376 150.26 372.695C152.479 374.013 154.202 375.867 155.403 378.295C156.617 380.71 157.217 383.556 157.217 386.846C157.217 390.135 156.617 393.033 155.403 395.461C154.189 397.889 152.479 399.769 150.26 401.101C148.04 402.432 145.429 403.098 142.453 403.098ZM142.453 399.077C145.586 399.077 148.027 398.007 149.777 395.879C151.526 393.751 152.4 390.749 152.4 386.911C152.4 383.073 151.539 380.07 149.803 377.956C148.066 375.841 145.625 374.783 142.466 374.783C139.307 374.783 136.892 375.841 135.143 377.956C133.394 380.07 132.519 383.06 132.519 386.911C132.519 390.762 133.394 393.751 135.143 395.879C136.892 398.007 139.333 399.077 142.466 399.077H142.453Z" fill="white"/>
<path d="M183.182 403.098C180.167 403.098 177.556 402.432 175.35 401.101C173.143 399.769 171.433 397.889 170.219 395.461C169.005 393.033 168.405 390.174 168.405 386.885C168.405 383.595 169.005 380.71 170.219 378.295C171.433 375.88 173.13 374.013 175.35 372.695C177.556 371.376 180.167 370.724 183.182 370.724C186.198 370.724 188.769 371.376 190.989 372.695C193.208 374.013 194.931 375.867 196.132 378.295C197.346 380.71 197.946 383.556 197.946 386.846C197.946 390.135 197.346 393.033 196.132 395.461C194.918 397.889 193.208 399.769 190.989 401.101C188.769 402.432 186.158 403.098 183.182 403.098ZM183.182 399.077C186.315 399.077 188.756 398.007 190.506 395.879C192.255 393.751 193.129 390.749 193.129 386.911C193.129 383.073 192.268 380.07 190.532 377.956C188.795 375.841 186.354 374.783 183.195 374.783C180.036 374.783 177.621 375.841 175.872 377.956C174.123 380.07 173.248 383.06 173.248 386.911C173.248 390.762 174.123 393.751 175.872 395.879C177.621 398.007 180.062 399.077 183.195 399.077H183.182Z" fill="white"/>
<path d="M210.387 402.707V371.155H221.535C226.731 371.155 230.739 372.512 233.558 375.228C236.378 377.943 237.788 381.833 237.788 386.911C237.788 391.989 236.378 395.879 233.558 398.621C230.739 401.349 226.731 402.72 221.535 402.72H210.387V402.707ZM215.035 398.804H221.261C229.055 398.804 232.945 394.835 232.945 386.898C232.945 378.961 229.055 375.032 221.261 375.032H215.035V398.804Z" fill="white"/>
<path d="M250.268 402.707V371.155H254.928V384.757H272.604V371.155H277.212V402.707H272.604V388.647H254.928V402.707H250.268Z" fill="white"/>
<path d="M304.521 403.098C301.505 403.098 298.894 402.432 296.688 401.101C294.482 399.769 292.772 397.889 291.558 395.461C290.344 393.033 289.743 390.174 289.743 386.885C289.743 383.595 290.344 380.71 291.558 378.295C292.772 375.88 294.469 374.013 296.688 372.695C298.894 371.376 301.505 370.724 304.521 370.724C307.536 370.724 310.108 371.376 312.327 372.695C314.546 374.013 316.269 375.867 317.47 378.295C318.684 380.71 319.285 383.556 319.285 386.846C319.285 390.135 318.684 393.033 317.47 395.461C316.256 397.889 314.546 399.769 312.327 401.101C310.108 402.432 307.497 403.098 304.521 403.098ZM304.521 399.077C307.654 399.077 310.095 398.007 311.844 395.879C313.593 393.751 314.468 390.749 314.468 386.911C314.468 383.073 313.606 380.07 311.87 377.956C310.134 375.841 307.693 374.783 304.534 374.783C301.374 374.783 298.959 375.841 297.21 377.956C295.461 380.07 294.586 383.06 294.586 386.911C294.586 390.762 295.461 393.751 297.21 395.879C298.959 398.007 301.401 399.077 304.534 399.077H304.521Z" fill="white"/>
<path d="M344.402 403.098C340.198 403.098 336.974 401.989 334.755 399.756C332.535 397.537 331.426 394.274 331.426 389.979V371.128H336.086V389.887C336.086 396.01 338.867 399.064 344.415 399.064C349.963 399.064 352.743 396.01 352.743 389.887V371.128H357.312V389.979C357.312 394.274 356.229 397.537 354.049 399.756C351.869 401.975 348.657 403.098 344.428 403.098H344.402Z" fill="white"/>
<path d="M370.888 402.707V371.155H374.426L392.506 395.018V371.155H396.801V402.707H393.354L375.183 378.765V402.707H370.888Z" fill="white"/>
<path d="M410.6 402.707V371.155H421.748C426.943 371.155 430.951 372.512 433.771 375.228C436.591 377.943 438 381.833 438 386.911C438 391.989 436.591 395.879 433.771 398.621C430.951 401.349 426.943 402.72 421.748 402.72H410.6V402.707ZM415.247 398.804H421.474C429.267 398.804 433.157 394.835 433.157 386.898C433.157 378.961 429.267 375.032 421.474 375.032H415.247V398.804Z" fill="white"/>
</svg>
