<?xml version="1.0" encoding="UTF-8"?>
<svg id="Layer_1" xmlns="http://www.w3.org/2000/svg" version="1.1" viewBox="0 0 432 432">
  <!-- Generator: Adobe Illustrator 29.5.0, SVG Export Plug-In . SVG Version: 2.1.0 Build 137)  -->
  <defs>
    <style>
      .st0 {
        fill: #010101;
      }

      .st1 {
        fill: #e41e26;
      }
    </style>
  </defs>
  <g>
    <path class="st0" d="M79.89,360c-1.65,0-3.06-.33-4.24-1-1.18-.67-2.08-1.61-2.71-2.83-.63-1.22-.94-2.66-.94-4.33s.31-3.1.94-4.32c.63-1.21,1.53-2.15,2.71-2.82,1.18-.67,2.59-1,4.24-1,1.06,0,2.07.16,3.02.49.95.33,1.74.8,2.35,1.42l-.94,2.29c-.67-.57-1.36-.99-2.07-1.25-.71-.26-1.46-.39-2.27-.39-1.6,0-2.83.48-3.66,1.45-.84.97-1.26,2.34-1.26,4.13s.42,3.16,1.26,4.14,2.06,1.46,3.66,1.46c.81,0,1.57-.13,2.27-.39.7-.26,1.39-.68,2.07-1.25l.94,2.29c-.61.6-1.4,1.07-2.35,1.41-.95.34-1.96.51-3.02.51Z"/>
    <path class="st0" d="M97.74,360c-1.53,0-2.87-.34-4.01-1.01-1.15-.67-2.04-1.62-2.66-2.84-.63-1.22-.94-2.66-.94-4.31s.31-3.1.94-4.32c.63-1.21,1.51-2.15,2.65-2.82,1.14-.67,2.48-1,4.02-1s2.89.33,4.02,1c1.14.67,2.02,1.61,2.65,2.82.63,1.21.94,2.65.94,4.29s-.31,3.11-.94,4.33c-.63,1.22-1.51,2.17-2.65,2.84-1.14.67-2.48,1.01-4.02,1.01ZM97.74,357.53c1.45,0,2.59-.5,3.39-1.51.81-1,1.21-2.4,1.21-4.18s-.4-3.19-1.2-4.18c-.8-.99-1.94-1.48-3.41-1.48s-2.59.49-3.39,1.48c-.81.99-1.21,2.38-1.21,4.18s.4,3.18,1.21,4.18c.81,1,1.94,1.51,3.39,1.51Z"/>
    <path class="st0" d="M111.7,359.78v-15.85h2.41l5.62,10.36,5.6-10.36h2.36v15.85h-2.61v-10.68l-4.54,8.27h-1.69l-4.54-8.23v10.63h-2.61Z"/>
    <path class="st0" d="M134.59,359.78v-15.85h2.41l5.62,10.36,5.6-10.36h2.36v15.85h-2.61v-10.68l-4.54,8.27h-1.69l-4.54-8.23v10.63h-2.61Z"/>
    <path class="st0" d="M164.02,360c-2.17,0-3.83-.57-4.98-1.7s-1.72-2.81-1.72-5.02v-9.35h2.88v9.33c0,1.42.33,2.49.98,3.2.65.71,1.6,1.07,2.84,1.07,2.53,0,3.8-1.42,3.8-4.27v-9.33h2.86v9.35c0,2.22-.56,3.89-1.69,5.02s-2.78,1.7-4.97,1.7Z"/>
    <path class="st0" d="M177.4,359.78v-15.85h2.16l8.52,11.06v-11.06h2.68v15.85h-2.14l-8.54-11.11v11.11h-2.68Z"/>
    <path class="st0" d="M197.59,359.78v-15.85h2.88v15.85h-2.88Z"/>
    <path class="st0" d="M211.1,359.78v-13.44h-5.44v-2.41h13.76v2.41h-5.44v13.44h-2.88Z"/>
    <path class="st0" d="M228.68,359.78v-7.28l-6.09-8.57h3.35l4.23,6,4.25-6h3.21l-6.07,8.59v7.26h-2.88Z"/>
    <path class="st0" d="M251.61,359.78v-15.85h10.54v2.29h-7.78v4.36h7.28v2.29h-7.28v4.61h7.78v2.29h-10.54Z"/>
    <path class="st0" d="M268.41,359.78v-15.85h5.89c2.65,0,4.7.68,6.15,2.05,1.45,1.36,2.17,3.32,2.17,5.87s-.72,4.49-2.17,5.87c-1.45,1.38-3.5,2.07-6.15,2.07h-5.89ZM271.28,357.39h2.83c3.66,0,5.49-1.85,5.49-5.55s-1.83-5.53-5.49-5.53h-2.83v11.08Z"/>
    <path class="st0" d="M288.91,359.78v-15.85h2.88v15.85h-2.88Z"/>
    <path class="st0" d="M302.42,359.78v-13.44h-5.44v-2.41h13.76v2.41h-5.44v13.44h-2.88Z"/>
    <path class="st0" d="M315.93,359.78v-15.85h2.88v15.85h-2.88Z"/>
    <path class="st0" d="M332.73,360c-1.53,0-2.87-.34-4.01-1.01-1.15-.67-2.04-1.62-2.66-2.84-.63-1.22-.94-2.66-.94-4.31s.31-3.1.94-4.32c.63-1.21,1.51-2.15,2.65-2.82,1.14-.67,2.48-1,4.02-1s2.89.33,4.02,1c1.14.67,2.02,1.61,2.65,2.82.63,1.21.94,2.65.94,4.29s-.31,3.11-.94,4.33c-.63,1.22-1.51,2.17-2.65,2.84-1.14.67-2.48,1.01-4.02,1.01ZM332.73,357.53c1.45,0,2.59-.5,3.39-1.51.81-1,1.21-2.4,1.21-4.18s-.4-3.19-1.2-4.18c-.8-.99-1.94-1.48-3.41-1.48s-2.59.49-3.39,1.48c-.81.99-1.21,2.38-1.21,4.18s.41,3.18,1.21,4.18c.81,1,1.94,1.51,3.39,1.51Z"/>
    <path class="st0" d="M346.64,359.78v-15.85h2.16l8.52,11.06v-11.06h2.68v15.85h-2.14l-8.54-11.11v11.11h-2.68Z"/>
  </g>
  <path class="st1" d="M355.94,261.1s-.03,0-.05,0l-5.49-14.94c.9-.74,1.48-1.85,1.48-3.11,0-1.48-.8-2.76-1.99-3.47l.67-3.34c2.01-.24,3.57-1.94,3.57-4.01,0-2.24-1.82-4.06-4.06-4.06-.25,0-.5.03-.74.07l-16.79-25.05c.49-.67.8-1.5.8-2.39,0-2.24-1.82-4.06-4.06-4.06-.6,0-1.16.14-1.67.37l-15.81-16.45c.28-.55.44-1.16.44-1.81,0-2.24-1.82-4.06-4.06-4.06-.67,0-1.3.18-1.86.47l-13.07-12.23c.22-.5.34-1.05.34-1.62,0-2.24-1.82-4.06-4.06-4.06-.67,0-1.3.18-1.86.47l-10.37-9.7c.22-.5.34-1.05.34-1.62,0-2.24-1.82-4.06-4.06-4.06-1.19,0-2.24.52-2.99,1.33l-34.46-14.58c0-2.24-1.82-4.05-4.06-4.05-1.45,0-2.71.76-3.43,1.9l-31.81-4.86c-.35-1.89-2-3.33-3.99-3.33-1.77,0-3.26,1.14-3.82,2.72h-19.13c-.56-1.59-2.05-2.72-3.81-2.72-2.09,0-3.79,1.58-4.01,3.61l-17.12,3.99c-.72-1.13-1.98-1.88-3.41-1.88-1.89,0-3.47,1.3-3.92,3.06l-12.25,1.11c-.64-1.39-2.04-2.37-3.68-2.37-1.2,0-2.27.53-3.02,1.37l-14.17-5.79c.01-.13.04-.26.04-.39,0-2.24-1.82-4.06-4.06-4.06-.7,0-1.36.2-1.94.51l-10.62-10.62-4.51-10.08c.9-.74,1.49-1.86,1.49-3.12,0-1.94-1.37-3.56-3.19-3.96l-.49-17.28-2.31-.92-3.91,3.91-.37.72-2.56,14.14v.46s1.92,11.63,1.92,11.63c-1.2.71-2.01,2-2.01,3.49,0,2.24,1.82,4.06,4.06,4.06.22,0,.43-.03.63-.06l4.3,7.25c-.59.7-.95,1.6-.95,2.58,0,2.24,1.82,4.06,4.06,4.06.79,0,1.52-.24,2.15-.63l19.75,15.67c-.15.42-.25.87-.25,1.35,0,2.24,1.82,4.06,4.06,4.06,1.33,0,2.49-.65,3.24-1.63l11.89,3.79c.05,1.51.92,2.8,2.18,3.46l-2.56,18.38c-1.85.38-3.25,2.01-3.25,3.98s1.32,3.5,3.1,3.93l1.04,10.23c-1.37.65-2.33,2.04-2.33,3.66,0,1.11.44,2.11,1.16,2.84l-6.26,12.77c-.13-.01-.26-.04-.39-.04-2.24,0-4.06,1.82-4.06,4.06,0,.61.14,1.18.38,1.7l-11.73,11.75c-.53-.25-1.11-.4-1.74-.4-2.24,0-4.06,1.82-4.06,4.06,0,1.34.66,2.52,1.66,3.26l-5.02,16.48c-2.15.1-3.88,1.86-3.88,4.04s1.82,4.06,4.06,4.06c.24,0,.46-.03.69-.07l10.01,17.83c-.65.72-1.06,1.67-1.06,2.71,0,2.24,1.82,4.06,4.06,4.06,1.75,0,3.22-1.11,3.8-2.66l22.2.29,1.3-1.77-2.24-6.85c.89-.74,1.48-1.85,1.48-3.11,0-2.24-1.82-4.06-4.06-4.06-.91,0-1.75.31-2.43.82l-11.16-5.8c.03-.18.06-.36.06-.55,0-1.49-.81-2.78-2-3.48l2.6-13.38c1.96-.29,3.46-1.96,3.46-4,0-.5-.1-.98-.27-1.43l13.56-11.44c.6.35,1.29.57,2.04.57,2.24,0,4.06-1.82,4.06-4.06,0-.76-.22-1.46-.58-2.07l9.09-10.83c.44.17.92.27,1.41.27.19,0,.37-.03.55-.05l7.1,13.75c-.68.73-1.11,1.7-1.11,2.77,0,1.25.58,2.35,1.46,3.1l-4.56,12.25s-.04,0-.06,0c-2.24,0-4.06,1.82-4.06,4.06s1.8,4.04,4.04,4.06l8.42,24.27c-.72.73-1.17,1.74-1.17,2.85,0,2.24,1.82,4.06,4.06,4.06.53,0,1.04-.11,1.5-.3l9.92,9.52c-.23.51-.37,1.07-.37,1.67,0,2.24,1.82,4.06,4.06,4.06,1.77,0,3.25-1.13,3.81-2.71h15.59l1.23-1.91-2.87-6.39c.73-.73,1.19-1.75,1.19-2.87,0-2.24-1.82-4.06-4.06-4.06-1.03,0-1.97.4-2.68,1.03l-6.84-3.3c.02-.15.04-.29.04-.44,0-2.2-1.76-3.99-3.95-4.05l-7.58-23.42c.97-.74,1.6-1.9,1.6-3.21,0-1.07-.42-2.03-1.09-2.75l8.87-16.93c.19.03.37.06.57.06,2.24,0,4.06-1.82,4.06-4.06,0-1.53-.85-2.84-2.1-3.53l2.81-16.84c.84-.15,1.59-.54,2.16-1.12l23.45,11.2c-.01.12-.04.24-.04.37,0,1.21.54,2.28,1.38,3.03l-7.52,20.21s-.04,0-.06,0c-2.24,0-4.06,1.82-4.06,4.06,0,1.58.91,2.93,2.23,3.6l-3.1,23.79c-1.82.4-3.19,2.02-3.19,3.96,0,2.24,1.82,4.06,4.06,4.06.28,0,.55-.03.81-.08l9.22,16.04c-.41.64-.66,1.39-.66,2.21,0,2.24,1.82,4.06,4.06,4.06,1.77,0,3.25-1.13,3.81-2.71h23.36l1.18-2.03-4.75-8.31c.61-.71,1-1.62,1-2.64,0-2.24-1.82-4.06-4.06-4.06-1.12,0-2.14.45-2.87,1.19l-10.09-4.83c.01-.14.04-.28.04-.42,0-1.66-1-3.09-2.43-3.72l1.48-20.27c1.89-.35,3.32-2,3.32-3.99,0-.93-.33-1.78-.86-2.47l10.27-14.18c.36.11.74.18,1.14.18,2.03,0,3.7-1.49,4-3.44l3.21-.61c.63,1.07,1.72,1.82,3.01,1.97l1.57,6.95c-1.19.71-1.99,1.99-1.99,3.48,0,2.24,1.82,4.06,4.06,4.06.08,0,.16-.02.24-.02l10.45,28.03c-.9.74-1.49,1.86-1.49,3.12,0,2.24,1.82,4.06,4.06,4.06.59,0,1.16-.13,1.66-.36l10.57,11.5c-.16.43-.26.9-.26,1.39,0,2.24,1.82,4.06,4.06,4.06,1.64,0,3.04-.97,3.68-2.37h22.31l1.11-2.13-8.01-11.4c.35-.6.56-1.29.56-2.03,0-2.24-1.82-4.06-4.06-4.06-1.15,0-2.18.48-2.92,1.24l-8.87-3.69c.01-.12.04-.23.04-.35,0-2.11-1.62-3.83-3.68-4.02l-6.98-28.63c1.03-.68,1.72-1.81,1.81-3.12l7.08-1.99c.74,1.03,1.94,1.71,3.3,1.71,1.12,0,2.13-.45,2.86-1.18l7.4,3.51c0,.11-.03.22-.03.34,0,1.2.53,2.27,1.36,3.01l-4.74,11.3c-.08,0-.15-.02-.23-.02-2.24,0-4.06,1.82-4.06,4.06s1.82,4.06,4.06,4.06c.47,0,.91-.1,1.33-.24l12.6,15.71c-.38.62-.62,1.35-.62,2.13,0,2.24,1.82,4.06,4.06,4.06s4.06-1.82,4.06-4.06c0-1.01-.38-1.93-1-2.64l5.25-9.21c.2.05.42.07.63.09l2.61,10.84c-1.11.72-1.85,1.97-1.85,3.4,0,2.24,1.82,4.06,4.06,4.06,1.4,0,2.63-.71,3.36-1.78l16.87,4.42c.47,1.73,2.03,3.01,3.9,3.01,2.24,0,4.06-1.82,4.06-4.06,0-.81-.24-1.55-.65-2.18l4.26-6.72c.29.07.59.11.9.11,2.24,0,4.06-1.82,4.06-4.06s-1.82-4.06-4.06-4.06ZM309.47,265.83s-.04,0-.06,0l-7.85-32.32c1.34-.66,2.27-2.03,2.27-3.63,0-.76-.22-1.47-.59-2.08l23.89-23.59c.17.11.34.2.52.28l-5.31,26.49c-2.18.07-3.93,1.85-3.93,4.05,0,1.64.98,3.04,2.38,3.69l-2.27,11.34c-2.15.11-3.86,1.87-3.86,4.04,0,.93.32,1.77.85,2.46l-5.32,9.35c-.23-.04-.47-.07-.71-.07ZM281.45,222.9l-7.07,1.98c-.74-1.04-1.94-1.73-3.31-1.73s-2.6.69-3.33,1.75l-16.08-6.48c.03-.21.06-.42.06-.64,0-.77-.23-1.48-.6-2.1l14.81-14.35c.64.41,1.39.66,2.21.66.57,0,1.11-.12,1.6-.33l12.77,18.75c-.61.66-1,1.53-1.06,2.49ZM268.12,267.24l8.23-2.02c.55.99,1.48,1.73,2.62,2l-.09,12.94c-.28.09-.55.21-.81.36l-10.37-11.28c.28-.55.45-1.16.45-1.82,0-.06-.02-.12-.02-.18ZM254.32,234.25c.35-.6.56-1.28.56-2.02,0-2.04-1.51-3.72-3.47-4l-1.58-7.01c.46-.29.86-.67,1.17-1.11l16.08,6.48c-.03.21-.06.42-.06.64,0,2.1,1.6,3.81,3.65,4.02l6.9,28.29-23.24-25.28ZM233.07,277.55l-13.81,7.6c-.73-.71-1.73-1.16-2.83-1.16-.43,0-.84.09-1.23.21l-9.09-15.8c.3-.36.53-.77.69-1.21l9.14,1.42c.15,2.11,1.89,3.77,4.03,3.77,1.12,0,2.14-.45,2.87-1.19l10.09,4.83c-.01.14-.04.28-.04.42,0,.39.07.75.17,1.11ZM210.39,236.78l7.93,3.17c-.01.13-.04.25-.04.39,0,.92.32,1.76.84,2.44l-14.24,18.9,3.02-23.24c1.03-.22,1.91-.83,2.49-1.66ZM216.21,266.82l-9.2-1.43c-.09-.85-.44-1.62-.98-2.23l14.36-19.05-1.48,20.31c-1.23.34-2.23,1.23-2.69,2.4ZM222.34,236.28s-.02,0-.03,0l-3.65-25.29c1.58-.56,2.71-2.05,2.71-3.81,0-.76-.22-1.47-.59-2.08l7.3-6.72c.53.38,1.15.63,1.82.73l5.07,17.17c-1.24.7-2.08,2-2.08,3.52,0,.86.27,1.65.72,2.3l-10.34,14.28c-.3-.07-.61-.12-.93-.12ZM159.9,218.46c-.19,0-.37.03-.55.06l-7.1-13.75c.1-.1.19-.22.27-.33l26.41,11.87c-.05.26-.08.53-.08.8,0,0,0,.02,0,.03l-15.32,3.6c-.66-1.34-2.03-2.28-3.63-2.28ZM135.31,214.63c-.08,0-.15.02-.22.02l-5.94-20.62c1.25-.69,2.1-2.01,2.1-3.54,0-1.91-1.32-3.5-3.1-3.93l-1.04-10.23s.04-.02.06-.03l18.93,23.22c-.54.69-.87,1.54-.87,2.48,0,.75.22,1.45.58,2.05l-9.09,10.85c-.44-.16-.91-.27-1.41-.27ZM87.95,121.44l8.56.79c.33,1.91,1.99,3.36,3.99,3.36.26,0,.52-.03.77-.08l5.49,10.91-18.83-14.93s0-.03.01-.05ZM113.41,138.78l5.9-5.1c.67.49,1.5.8,2.39.8.27,0,.53-.03.79-.08l4.07,9.1c-.3.22-.56.49-.79.79l-11.91-3.8c-.02-.61-.19-1.19-.45-1.7ZM272.01,150.21c.49.2,1.02.32,1.58.32.67,0,1.3-.18,1.86-.47l10.37,9.7c-.22.5-.34,1.05-.34,1.62,0,1.76,1.13,3.25,2.7,3.81l-1.79,15.15c-1.29.14-2.4.87-3.03,1.93l-25.67-8.39c0-.09.03-.18.03-.27,0-.9-.3-1.73-.8-2.4l15.1-21ZM250.16,171.59l-25.63-7.34c0-.07.02-.14.02-.22,0-1.47-.79-2.75-1.97-3.46l9.05-27.39c.15.02.3.05.46.05.36,0,.7-.06,1.04-.15l18.2,37.22c-.48.34-.87.78-1.17,1.29ZM196.79,146.24c.2-.48.31-1,.31-1.54,0-.22-.03-.43-.06-.64l31.6-12.78c.32.53.76.98,1.29,1.32l-9.06,27.43c-.13-.01-.25-.04-.38-.04-1.04,0-1.98.4-2.7,1.05l-20.99-14.79ZM196.37,142.37c-.58-.83-1.46-1.44-2.49-1.65l-.22-13.85c1.2-.24,2.19-1.01,2.76-2.04l31.47,4.81-31.52,12.75ZM191.85,126.8l.23,13.96c-1.77.44-3.09,2.02-3.09,3.93,0,.22.03.43.06.64l-11.27,4.56c-.68-1.08-1.86-1.81-3.22-1.88l-6.45-21.6c.84-.48,1.49-1.24,1.82-2.16h19.13c.45,1.26,1.49,2.22,2.8,2.56ZM150.23,198.05l.18-31.8c.41-.09.8-.26,1.15-.46l31.76,25.21c-.25.53-.41,1.12-.41,1.75,0,.02,0,.04,0,.07l-30.01,7.37c-.53-1.06-1.51-1.85-2.69-2.13ZM184.45,189.59l-31.55-25.04c.43-.65.69-1.42.69-2.26,0-.22-.03-.43-.06-.64l17.62-7.12c.74.96,1.89,1.59,3.2,1.59.25,0,.49-.03.73-.07l9.91,33.19c-.19.11-.36.23-.53.36ZM166.11,126.95c.09,0,.17-.02.26-.03l6.39,21.39c-1.46.62-2.48,2.06-2.48,3.74,0,.29.03.57.09.84l-17.52,7.08c-.73-1.05-1.95-1.74-3.33-1.74-1.17,0-2.22.5-2.96,1.29l-13.92-11.05c.25-.53.41-1.12.41-1.75,0-1.05-.41-2.01-1.07-2.73l8.06-11.63c.47.19.98.3,1.51.3,2.09,0,3.79-1.59,4.02-3.62l17.12-3.98c.72,1.13,1.98,1.88,3.41,1.88ZM138.57,131.33l-8.06,11.63c-.47-.19-.98-.3-1.51-.3-.27,0-.53.03-.79.08l-4.07-9.1c.72-.55,1.26-1.32,1.49-2.23l12.25-1.11c.18.38.41.73.69,1.04ZM131.52,149.88l14.14,11.22c-.12.38-.2.77-.2,1.19,0,1.92,1.34,3.53,3.14,3.95l-.18,31.8c-.32.07-.62.19-.91.33l-18.93-23.22c.54-.69.87-1.54.87-2.48,0-1.57-.9-2.91-2.19-3.59l2.56-18.38c.64-.13,1.22-.43,1.71-.82ZM179.69,214.67l-26.41-11.87c.05-.26.08-.53.08-.8,0-.02,0-.04,0-.07l30.01-7.37c.37.73.94,1.32,1.65,1.72l-2.81,16.84c-1.03.18-1.91.75-2.52,1.55ZM189.38,189.49c-.68-.5-1.5-.81-2.41-.81-.09,0-.17.02-.26.03l-9.98-33.4c1.01-.74,1.67-1.92,1.67-3.27,0-.15-.03-.3-.04-.44l11.36-4.59c.73,1.05,1.95,1.74,3.33,1.74,1.04,0,1.98-.4,2.7-1.05l20.99,14.79c-.2.48-.31,1-.31,1.54,0,.68.18,1.31.48,1.88l-27.52,23.58ZM224.03,165.99l25.6,7.33c0,.1-.03.2-.03.3,0,.73.21,1.41.55,2.01l-17.47,16.09c-.64-.41-1.39-.66-2.21-.66-.35,0-.69.06-1.02.14l-6.98-23.64c.66-.37,1.19-.91,1.56-1.57ZM236.96,215.75c-.09,0-.17.02-.25.03l-4.97-16.83c1.62-.54,2.79-2.04,2.79-3.84,0-.77-.23-1.49-.6-2.1l17.43-16.05c.65.45,1.44.72,2.3.72.52,0,1.02-.11,1.48-.29l10.32,17.52c-.84.74-1.38,1.82-1.38,3.03,0,.77.23,1.49.6,2.1l-14.81,14.35c-.64-.42-1.39-.66-2.21-.66-2.03,0-3.7,1.49-4,3.44l-3.21.61c-.7-1.2-2-2.02-3.49-2.02ZM270.8,194.89c-.71-.62-1.64-1.02-2.66-1.02-.38,0-.75.07-1.1.17l-10.42-17.67c.21-.23.39-.48.55-.75l25.63,8.38c-.01.12-.04.24-.04.37,0,.57.12,1.11.33,1.6l-12.3,8.92ZM288.19,180.56l1.79-15.15c.51-.05.99-.2,1.42-.43l13.07,12.23c-.22.5-.34,1.05-.34,1.63,0,1.7,1.04,3.15,2.52,3.75l-3.06,18.25c-.57.03-1.1.18-1.58.43l-11.97-14.43c.52-.68.85-1.53.85-2.46,0-1.76-1.13-3.25-2.7-3.81ZM304.09,208.9c2.12-.14,3.8-1.88,3.8-4.03,0-1.7-1.04-3.15-2.52-3.75l3.06-18.25c.51-.03.99-.14,1.43-.35l15.81,16.44c-.28.55-.45,1.17-.45,1.83,0,.79.24,1.53.63,2.15l-23.86,23.56c-.22-.14-.45-.27-.69-.36l2.79-17.23ZM343.76,243.05c0,.1.02.2.03.29l-4.95,1.52c-.7-1.21-2-2.04-3.5-2.04-.77,0-1.48.23-2.1.6l-7.19-6.5c.25-.48.41-1,.45-1.57l19.62-2.23c.24,1.06.9,1.96,1.79,2.52l-.68,3.4c-1.97.28-3.48,1.96-3.48,4ZM346.12,231.31l-19.87,2.26c-.39-1-1.16-1.81-2.14-2.24l5.31-26.5c.31-.01.6-.06.88-.13l16.69,24.9c-.41.49-.72,1.06-.87,1.71ZM320.3,250.36l2.26-11.27c.87-.02,1.67-.31,2.32-.79l7.06,6.38c-.41.64-.66,1.39-.66,2.21,0,1.29.61,2.43,1.56,3.17l-8.72,18.36c-.15-.03-.3-.04-.46-.06l-2.63-10.92c1.06-.73,1.76-1.95,1.76-3.34,0-1.68-1.02-3.13-2.48-3.74ZM325.73,269.2l8.72-18.36c.28.06.58.1.88.1.19,0,.37-.03.55-.06l9.04,23.9c-.53.4-.96.93-1.24,1.54l-16.43-4.3c-.1-1.15-.67-2.15-1.52-2.83ZM347.37,273.96c-.27,0-.54.03-.8.08l-8.99-23.77c.1-.07.19-.15.29-.23l14.55,13.15c-.33.59-.53,1.25-.53,1.97,0,.95.34,1.8.88,2.49l-4.13,6.52c-.4-.13-.82-.22-1.26-.22ZM353.11,261.39l-14.12-12.76c.25-.53.4-1.11.4-1.74,0-.1-.02-.2-.03-.29l4.95-1.52c.7,1.21,2,2.04,3.5,2.04.02,0,.03,0,.05,0l5.25,14.28ZM270.56,149.14l-15.02,20.89c-.56-.3-1.2-.48-1.88-.48-.22,0-.44.03-.65.07l-18.28-37.39c.19-.16.36-.34.51-.53l34.32,14.53c0,.08-.02.16-.02.24,0,1.03.4,1.96,1.03,2.67ZM117.66,130.22c0,.06-.02.12-.02.19,0,.69.19,1.33.49,1.9l-5.88,5.09c-.68-.51-1.51-.82-2.43-.82-.31,0-.62.04-.91.11l-6-11.91c.16-.12.32-.25.47-.39l14.28,5.83ZM96.74,119.99c-.06.14-.09.29-.14.44l-8.5-.79c-.26-1.99-1.95-3.53-4.01-3.53-.27,0-.53.03-.79.08l-4.25-7.15c.28-.31.52-.67.7-1.06l5.94.91.15.21,10.89,10.89ZM78.34,97.32l-1.72,4.75-1.55-9.38,1.81.77c-.04.23-.07.46-.07.71,0,1.28.6,2.41,1.53,3.15ZM84.78,106.93l-4.68-.71c-.05-1.38-.78-2.59-1.87-3.29l1.74-4.81c.29.07.59.11.9.11,0,0,.01,0,.02,0l3.89,8.71ZM77.24,77.53l1.39-1.39.41,14.42c-.58.29-1.08.72-1.46,1.24l-2.72-1.16,2.37-13.11ZM126.73,194.5c.15.02.3.05.46.05.08,0,.15-.02.22-.02l5.94,20.62c-1.25.69-2.1,2.01-2.1,3.54,0,.5.1.98.27,1.43l-13.56,11.44c-.27-.16-.57-.29-.88-.38l1.13-17.05c1.97-.28,3.5-1.95,3.5-4,0-1.13-.46-2.15-1.21-2.89l6.24-12.72ZM125.43,265.93l-15.26,7.14c-.36-.46-.81-.84-1.33-1.11l2.95-11.99s.04,0,.07,0c1.07,0,2.04-.42,2.76-1.1l10.89,5.66c-.08.31-.13.63-.13.97,0,.15.03.29.04.43ZM96.84,252.89c5.34,1.42,8.77,2.33,10.97,2.91,0,.04-.01.07-.01.11,0,1.59.92,2.95,2.24,3.61l-2.94,11.97s-.09-.01-.14-.01c-.21,0-.42.03-.62.06l-10.04-17.88c.21-.24.38-.49.53-.77ZM108.27,254.05c-2.92-.77-7.1-1.88-10.96-2.91,0-.05.01-.1.01-.15,0-1.34-.66-2.52-1.66-3.26l5.02-16.48c1.18-.05,2.21-.61,2.92-1.45l8.39,4.25c-.08.32-.13.64-.13.98,0,1.49.81,2.78,2,3.48l-2.6,13.38c-1.31.2-2.41,1.01-2.99,2.15ZM116.41,213.96l-1.13,17.08c-.99.16-1.85.67-2.47,1.41l-8.39-4.25c.08-.32.13-.64.13-.98,0-.63-.15-1.21-.41-1.74l11.71-11.73c.18.09.36.16.55.22ZM131.11,274.49l-19.18-.25,14.09-6.6c.72,1.14,1.98,1.91,3.43,1.91.02,0,.03,0,.05,0l1.61,4.94ZM159.84,226.58s.04,0,.06,0c2.24,0,4.06-1.82,4.06-4.06,0,0,0-.02,0-.03l15.32-3.6c.18.36.4.68.66.97l-8.87,16.93c-.19-.03-.37-.06-.57-.06-2.02,0-3.68,1.48-3.99,3.41l-9.95.63c-.23-.77-.68-1.44-1.28-1.95l4.56-12.25ZM190.02,279.15l-9.41,5.15c-.47-.19-.98-.3-1.52-.3-.66,0-1.27.17-1.81.45l-9.77-9.37c.25-.45.41-.95.48-1.49l8.62-.83c.54,1.61,2.04,2.78,3.84,2.78,1.11,0,2.12-.45,2.86-1.18l6.68,3.23c-.03.21-.07.43-.07.65,0,.31.04.61.11.91ZM156.68,242.57l9.95-.63c.33,1.12,1.12,2.03,2.16,2.52l-5.31,24.47-8.27-23.85c.77-.61,1.3-1.49,1.47-2.5ZM176.42,270.95l-8.64.83c-.41-1.19-1.34-2.11-2.53-2.51l5.23-24.14,7.48,23.13c-.83.64-1.41,1.59-1.55,2.69ZM182.89,286.7c-.16-.45-.4-.86-.69-1.22l8.62-4.71c.74.93,1.87,1.53,3.15,1.53.14,0,.28-.03.42-.04l2,4.44h-13.5ZM190.99,193.16c.01-.14.04-.28.04-.42,0-.68-.18-1.31-.48-1.88l27.52-23.58c.68.5,1.5.81,2.41.81.09,0,.17-.02.25-.03l7.08,23.98c-.86.74-1.41,1.83-1.41,3.06,0,.69.19,1.34.5,1.91l-7.35,6.77c-.64-.42-1.41-.67-2.23-.67-1.14,0-2.17.47-2.9,1.23l-23.42-11.19ZM216.95,211.74l3.6,24.97c-.69.34-1.27.87-1.67,1.52l-7.84-3.13c.03-.21.06-.41.06-.63,0-1.25-.58-2.35-1.46-3.1l7.3-19.63ZM220.24,286.7s0-.02,0-.03l13.71-7.55c.74.83,1.81,1.37,3.02,1.37.25,0,.49-.03.72-.07l3.59,6.28h-21.03ZM254.09,236.66l22.41,24.39c-.42.64-.67,1.4-.67,2.22,0,.07.02.14.02.21l-8.22,2.02c-.69-1.27-2.01-2.14-3.56-2.14,0,0-.02,0-.03,0l-9.96-26.69ZM284.04,282.98c-.08-.31-.19-.59-.34-.87l9.9-8.54c.62.38,1.34.61,2.11.61.5,0,.98-.1,1.42-.27l6.37,9.07h-19.47ZM291.68,269.78c0,.12-.03.23-.03.34,0,.81.24,1.56.65,2.19l-9.77,8.43c-.53-.39-1.16-.65-1.85-.75l.09-12.76c.79-.17,1.5-.58,2.04-1.14l8.87,3.69ZM289.5,223.59c.02-.14.04-.28.04-.43,0-2.24-1.82-4.06-4.06-4.06-.53,0-1.03.11-1.49.29l-12.81-18.8c.62-.71,1.01-1.64,1.01-2.66,0-.57-.12-1.11-.33-1.59l12.3-8.93c.71.62,1.64,1.01,2.66,1.01.66,0,1.27-.17,1.82-.45l11.97,14.43c-.52.68-.85,1.53-.85,2.46,0,1.7,1.05,3.16,2.54,3.76l-2.79,17.23c-1.05.06-1.99.51-2.67,1.22l-7.35-3.49ZM299.57,233.93c.07,0,.13.02.2.02.01,0,.03,0,.04,0l7.58,31.18-11.84-14.76c.38-.62.62-1.35.62-2.13,0-1.19-.52-2.25-1.34-2.99l4.75-11.31Z"/>
  <g>
    <path class="st0" d="M72,332.79v-24.17h10.08c2.51,0,4.46.56,5.85,1.66,1.38,1.11,2.07,2.66,2.07,4.65,0,1.3-.34,2.42-1.03,3.36s-1.62,1.62-2.81,2.06c1.39.37,2.48,1.04,3.26,2.02.78.98,1.17,2.23,1.17,3.74,0,2.15-.71,3.8-2.14,4.95-1.43,1.16-3.41,1.73-5.95,1.73h-10.49ZM75.43,319.17h6.1c3.34,0,5.01-1.3,5.01-3.91s-1.67-3.91-5.01-3.91h-6.1v7.82ZM75.43,330.04h6.65c3.36,0,5.04-1.36,5.04-4.08s-1.68-4.05-5.04-4.05h-6.65v8.13Z"/>
    <path class="st0" d="M100.29,332.79v-24.17h3.57v21.12h11.97v3.05h-15.53Z"/>
    <path class="st0" d="M133.61,333.09c-2.31,0-4.31-.51-6-1.53-1.69-1.02-3-2.46-3.93-4.32-.93-1.86-1.39-4.05-1.39-6.57s.46-4.73,1.39-6.58,2.23-3.28,3.93-4.29c1.69-1.01,3.69-1.51,6-1.51s4.28.5,5.98,1.51c1.7,1.01,3.02,2.43,3.94,4.29.93,1.85,1.39,4.03,1.39,6.55s-.46,4.74-1.39,6.6c-.93,1.86-2.24,3.3-3.94,4.32-1.7,1.02-3.7,1.53-5.98,1.53ZM133.61,330.01c2.4,0,4.27-.82,5.61-2.45,1.34-1.63,2.01-3.93,2.01-6.87s-.66-5.24-1.99-6.86c-1.33-1.62-3.2-2.43-5.62-2.43s-4.27.81-5.61,2.43c-1.34,1.62-2.01,3.91-2.01,6.86s.67,5.24,2.01,6.87c1.34,1.63,3.21,2.45,5.61,2.45Z"/>
    <path class="st0" d="M164.81,333.09c-2.31,0-4.31-.51-6-1.53-1.69-1.02-3-2.46-3.93-4.32-.93-1.86-1.39-4.05-1.39-6.57s.46-4.73,1.39-6.58,2.23-3.28,3.93-4.29c1.69-1.01,3.69-1.51,6-1.51s4.28.5,5.98,1.51c1.7,1.01,3.02,2.43,3.94,4.29.93,1.85,1.39,4.03,1.39,6.55s-.46,4.74-1.39,6.6c-.93,1.86-2.24,3.3-3.94,4.32-1.7,1.02-3.7,1.53-5.98,1.53ZM164.81,330.01c2.4,0,4.27-.82,5.61-2.45,1.34-1.63,2.01-3.93,2.01-6.87s-.66-5.24-1.99-6.86c-1.33-1.62-3.2-2.43-5.62-2.43s-4.27.81-5.61,2.43c-1.34,1.62-2.01,3.91-2.01,6.86s.67,5.24,2.01,6.87c1.34,1.63,3.21,2.45,5.61,2.45Z"/>
    <path class="st0" d="M185.65,332.79v-24.17h8.54c3.98,0,7.05,1.04,9.21,3.12,2.16,2.08,3.24,5.06,3.24,8.95s-1.08,6.87-3.24,8.97c-2.16,2.09-5.23,3.14-9.21,3.14h-8.54ZM189.21,329.8h4.77c5.97,0,8.95-3.04,8.95-9.12s-2.98-9.09-8.95-9.09h-4.77v18.21Z"/>
    <path class="st0" d="M216.2,332.79v-24.17h3.57v10.42h13.54v-10.42h3.53v24.17h-3.53v-10.77h-13.54v10.77h-3.57Z"/>
    <path class="st0" d="M257.76,333.09c-2.31,0-4.31-.51-6-1.53-1.69-1.02-3-2.46-3.93-4.32-.93-1.86-1.39-4.05-1.39-6.57s.46-4.73,1.39-6.58,2.23-3.28,3.93-4.29c1.69-1.01,3.69-1.51,6-1.51s4.28.5,5.98,1.51c1.7,1.01,3.02,2.43,3.94,4.29.93,1.85,1.39,4.03,1.39,6.55s-.46,4.74-1.39,6.6c-.93,1.86-2.24,3.3-3.94,4.32-1.7,1.02-3.7,1.53-5.98,1.53ZM257.76,330.01c2.4,0,4.27-.82,5.61-2.45,1.34-1.63,2.01-3.93,2.01-6.87s-.66-5.24-1.99-6.86c-1.33-1.62-3.2-2.43-5.62-2.43s-4.27.81-5.61,2.43c-1.34,1.62-2.01,3.91-2.01,6.86s.67,5.24,2.01,6.87c1.34,1.63,3.21,2.45,5.61,2.45Z"/>
    <path class="st0" d="M288.31,333.09c-3.22,0-5.69-.85-7.39-2.56-1.7-1.7-2.55-4.2-2.55-7.49v-14.44h3.57v14.37c0,4.69,2.13,7.03,6.38,7.03s6.38-2.34,6.38-7.03v-14.37h3.5v14.44c0,3.29-.83,5.79-2.5,7.49-1.67,1.7-4.13,2.56-7.37,2.56Z"/>
    <path class="st0" d="M308.6,332.79v-24.17h2.71l13.85,18.28v-18.28h3.29v24.17h-2.64l-13.92-18.34v18.34h-3.29Z"/>
    <path class="st0" d="M339.02,332.79v-24.17h8.54c3.98,0,7.05,1.04,9.21,3.12s3.24,5.06,3.24,8.95-1.08,6.87-3.24,8.97c-2.16,2.09-5.23,3.14-9.21,3.14h-8.54ZM342.58,329.8h4.77c5.97,0,8.95-3.04,8.95-9.12s-2.98-9.09-8.95-9.09h-4.77v18.21Z"/>
  </g>
</svg>