<?xml version="1.0" encoding="UTF-8"?>

<!--
Copyright 2024 Specter Ops, Inc.

Licensed under the Apache License, Version 2.0
you may not use this file except in compliance with the License.
You may obtain a copy of the License at

    http://www.apache.org/licenses/LICENSE-2.0

Unless required by applicable law or agreed to in writing, software
distributed under the License is distributed on an "AS IS" BASIS,
WITHOUT WARRANTIES OR CONDITIONS OF ANY KIND, either express or implied.
See the License for the specific language governing permissions and
limitations under the License.

SPDX-License-Identifier: Apache-2.0
-->
<svg id="Layer_1" data-name="Layer 1" xmlns="http://www.w3.org/2000/svg" viewBox="0 0 700.36 125">
  <defs>
    <style>
      .cls-1 {
        fill: #e61616;
      }

      .cls-1, .cls-2 {
        stroke-width: 0px;
      }

      .cls-2 {
        fill: #fff;
      }
    </style>
  </defs>
  <path class="cls-1" d="M161.24,107.39s-.02,0-.03,0l-3.12-8.49c.51-.42.84-1.05.84-1.77,0-.84-.46-1.57-1.13-1.97l.38-1.9c1.14-.14,2.03-1.1,2.03-2.28,0-1.27-1.03-2.31-2.31-2.31-.14,0-.28.02-.42.04l-9.53-14.23c.28-.38.45-.85.45-1.36,0-1.27-1.03-2.31-2.31-2.31-.34,0-.66.08-.95.21l-8.98-9.34c.16-.31.25-.66.25-1.03,0-1.27-1.03-2.31-2.31-2.31-.38,0-.74.1-1.05.27l-7.42-6.94c.12-.28.19-.59.19-.92,0-1.27-1.03-2.31-2.31-2.31-.38,0-.74.1-1.06.27l-5.89-5.51c.12-.28.19-.59.19-.92,0-1.27-1.03-2.31-2.31-2.31-.67,0-1.27.29-1.7.75l-19.57-8.28c0-1.27-1.03-2.3-2.31-2.3-.82,0-1.54.43-1.95,1.08l-18.07-2.76c-.2-1.07-1.13-1.89-2.26-1.89-1.01,0-1.85.65-2.17,1.54h-10.86c-.32-.9-1.16-1.54-2.17-1.54-1.19,0-2.15.9-2.28,2.05l-9.72,2.26c-.41-.64-1.12-1.07-1.94-1.07-1.08,0-1.97.74-2.23,1.74l-6.96.63c-.37-.79-1.16-1.34-2.09-1.34-.68,0-1.29.3-1.71.78l-8.05-3.29c0-.07.02-.15.02-.22,0-1.27-1.03-2.31-2.31-2.31-.4,0-.77.11-1.1.29l-6.03-6.03-2.56-5.73c.51-.42.85-1.06.85-1.77,0-1.1-.78-2.02-1.81-2.25l-.28-9.81-1.31-.52L1.72,2.22l-.21.41L.05,10.66v.26s1.09,6.61,1.09,6.61c-.68.4-1.14,1.13-1.14,1.98,0,1.27,1.03,2.31,2.31,2.31.12,0,.24-.02.36-.04l2.44,4.12c-.33.4-.54.91-.54,1.47,0,1.27,1.03,2.31,2.31,2.31.45,0,.87-.13,1.22-.36l11.22,8.9c-.09.24-.14.5-.14.77,0,1.27,1.03,2.31,2.31,2.31.75,0,1.42-.37,1.84-.93l6.75,2.15c.03.86.52,1.59,1.24,1.96l-1.45,10.44c-1.05.21-1.84,1.14-1.84,2.26s.75,1.99,1.76,2.23l.59,5.81c-.78.37-1.32,1.16-1.32,2.08,0,.63.25,1.2.66,1.61l-3.56,7.25c-.07,0-.15-.02-.22-.02-1.27,0-2.31,1.03-2.31,2.31,0,.34.08.67.22.96l-6.66,6.68c-.3-.14-.63-.23-.99-.23-1.27,0-2.31,1.03-2.31,2.31,0,.76.37,1.43.94,1.85l-2.85,9.36c-1.22.06-2.2,1.06-2.2,2.3s1.03,2.31,2.31,2.31c.13,0,.26-.02.39-.04l5.69,10.12c-.37.41-.6.95-.6,1.54,0,1.27,1.03,2.31,2.31,2.31.99,0,1.83-.63,2.16-1.51l12.61.16.74-1.01-1.27-3.89c.51-.42.84-1.05.84-1.76,0-1.27-1.03-2.31-2.31-2.31-.52,0-.99.18-1.38.47l-6.34-3.29c.01-.1.03-.21.03-.32,0-.85-.46-1.58-1.14-1.98l1.48-7.6c1.11-.17,1.96-1.11,1.96-2.27,0-.29-.06-.56-.15-.81l7.7-6.5c.34.2.73.32,1.16.32,1.27,0,2.31-1.03,2.31-2.31,0-.43-.13-.83-.33-1.17l5.16-6.15c.25.09.52.15.8.15.11,0,.21-.02.31-.03l4.03,7.81c-.39.41-.63.96-.63,1.57,0,.71.33,1.34.83,1.76l-2.59,6.96s-.02,0-.04,0c-1.27,0-2.31,1.03-2.31,2.31s1.02,2.3,2.29,2.3l4.78,13.78c-.41.42-.67.99-.67,1.62,0,1.27,1.03,2.31,2.31,2.31.3,0,.59-.06.85-.17l5.63,5.4c-.13.29-.21.61-.21.95,0,1.27,1.03,2.31,2.31,2.31,1,0,1.85-.64,2.16-1.54h8.85l.7-1.08-1.63-3.63c.42-.42.67-.99.67-1.63,0-1.27-1.03-2.31-2.31-2.31-.59,0-1.12.23-1.52.59l-3.88-1.88c0-.08.03-.16.03-.25,0-1.25-1-2.26-2.24-2.3l-4.3-13.3c.55-.42.91-1.08.91-1.82,0-.61-.24-1.15-.62-1.56l5.04-9.62c.11.02.21.03.32.03,1.27,0,2.31-1.03,2.31-2.31,0-.87-.48-1.61-1.19-2.01l1.59-9.56c.48-.08.9-.31,1.23-.63l13.32,6.36c0,.07-.02.14-.02.21,0,.69.31,1.3.78,1.72l-4.27,11.48s-.02,0-.04,0c-1.27,0-2.31,1.03-2.31,2.31,0,.9.52,1.67,1.26,2.05l-1.76,13.51c-1.04.23-1.81,1.15-1.81,2.25,0,1.27,1.03,2.31,2.31,2.31.16,0,.31-.02.46-.05l5.24,9.11c-.23.36-.37.79-.37,1.25,0,1.27,1.03,2.31,2.31,2.31,1,0,1.85-.64,2.16-1.54h13.27l.67-1.15-2.7-4.72c.35-.4.57-.92.57-1.5,0-1.27-1.03-2.31-2.31-2.31-.64,0-1.21.26-1.63.67l-5.73-2.74c0-.08.02-.16.02-.24,0-.94-.57-1.75-1.38-2.11l.84-11.51c1.07-.2,1.89-1.13,1.89-2.26,0-.53-.19-1.01-.49-1.4l5.83-8.05c.21.06.42.1.65.1,1.15,0,2.1-.85,2.27-1.95l1.82-.35c.36.61.98,1.03,1.71,1.12l.89,3.95c-.67.4-1.13,1.13-1.13,1.97,0,1.27,1.03,2.31,2.31,2.31.05,0,.09-.01.14-.01l5.94,15.92c-.51.42-.85,1.06-.85,1.77,0,1.27,1.03,2.31,2.31,2.31.34,0,.66-.08.95-.21l6.01,6.53c-.09.25-.15.51-.15.79,0,1.27,1.03,2.31,2.31,2.31.93,0,1.73-.55,2.09-1.35h12.67l.63-1.21-4.55-6.48c.2-.34.32-.73.32-1.15,0-1.27-1.03-2.31-2.31-2.31-.65,0-1.24.27-1.66.71l-5.04-2.09c0-.07.02-.13.02-.2,0-1.2-.92-2.17-2.09-2.28l-3.97-16.26c.59-.38.98-1.03,1.03-1.77l4.02-1.13c.42.59,1.1.97,1.87.97.63,0,1.21-.26,1.63-.67l4.2,2c0,.06-.02.13-.02.19,0,.68.3,1.29.77,1.71l-2.69,6.42s-.08-.01-.13-.01c-1.27,0-2.31,1.03-2.31,2.31s1.03,2.31,2.31,2.31c.27,0,.52-.05.75-.14l7.15,8.92c-.22.35-.35.76-.35,1.21,0,1.27,1.03,2.31,2.31,2.31s2.31-1.03,2.31-2.31c0-.58-.22-1.1-.57-1.5l2.98-5.23c.12.03.24.04.36.05l1.48,6.16c-.63.41-1.05,1.12-1.05,1.93,0,1.27,1.03,2.31,2.31,2.31.79,0,1.49-.4,1.91-1.01l9.58,2.51c.26.98,1.15,1.71,2.22,1.71,1.27,0,2.31-1.03,2.31-2.31,0-.46-.14-.88-.37-1.24l2.42-3.82c.17.04.34.06.51.06,1.27,0,2.31-1.03,2.31-2.31s-1.03-2.31-2.31-2.31ZM134.85,110.08s-.02,0-.03,0l-4.46-18.36c.76-.38,1.29-1.15,1.29-2.06,0-.43-.13-.84-.34-1.18l13.57-13.4c.1.06.19.12.3.16l-3.02,15.04c-1.24.04-2.23,1.05-2.23,2.3,0,.93.55,1.73,1.35,2.09l-1.29,6.44c-1.22.06-2.19,1.06-2.19,2.29,0,.53.18,1.01.48,1.4l-3.02,5.31c-.13-.02-.27-.04-.41-.04ZM118.94,85.7l-4.01,1.13c-.42-.59-1.1-.98-1.88-.98s-1.47.39-1.89.99l-9.13-3.68c.02-.12.04-.24.04-.36,0-.44-.13-.84-.34-1.19l8.41-8.15c.36.24.79.38,1.26.38.32,0,.63-.07.91-.19l7.25,10.65c-.35.38-.57.87-.6,1.41ZM111.37,110.87l4.67-1.15c.31.56.84.98,1.49,1.14l-.05,7.35c-.16.05-.31.12-.46.2l-5.89-6.41c.16-.31.25-.66.25-1.03,0-.03,0-.07-.01-.1ZM103.53,92.14c.2-.34.32-.73.32-1.15,0-1.16-.86-2.11-1.97-2.27l-.9-3.98c.26-.17.49-.38.66-.63l9.13,3.68c-.02.12-.04.24-.04.36,0,1.19.91,2.16,2.07,2.28l3.92,16.07-13.2-14.36ZM91.47,116.73l-7.84,4.32c-.42-.41-.98-.66-1.61-.66-.24,0-.48.05-.7.12l-5.16-8.97c.17-.2.3-.43.39-.69l5.19.8c.09,1.2,1.07,2.14,2.29,2.14.64,0,1.21-.26,1.63-.67l5.73,2.74c0,.08-.02.16-.02.24,0,.22.04.43.1.63ZM78.59,93.58l4.51,1.8c0,.07-.02.14-.02.22,0,.52.18,1,.47,1.39l-8.09,10.73,1.72-13.2c.58-.12,1.08-.47,1.41-.94ZM81.89,110.63l-5.22-.81c-.05-.48-.25-.92-.56-1.27l8.15-10.82-.84,11.53c-.7.19-1.27.7-1.53,1.36ZM85.38,93.29s-.01,0-.02,0l-2.07-14.36c.89-.32,1.54-1.16,1.54-2.17,0-.43-.13-.83-.33-1.18l4.14-3.81c.3.22.65.36,1.03.41l2.88,9.75c-.7.4-1.18,1.14-1.18,2,0,.49.15.94.41,1.31l-5.87,8.11c-.17-.04-.35-.07-.53-.07ZM49.92,83.17c-.11,0-.21.02-.31.03l-4.03-7.81c.06-.06.11-.12.15-.19l15,6.74c-.03.15-.05.3-.05.45,0,0,0,.01,0,.02l-8.7,2.05c-.38-.76-1.15-1.29-2.06-1.29ZM35.96,81s-.08.01-.13.01l-3.37-11.71c.71-.39,1.19-1.14,1.19-2.01,0-1.08-.75-1.99-1.76-2.23l-.59-5.81s.02-.01.03-.02l10.75,13.18c-.31.39-.49.88-.49,1.41,0,.43.12.82.33,1.17l-5.16,6.16c-.25-.09-.52-.15-.8-.15ZM9.06,28.08l4.86.45c.19,1.08,1.13,1.91,2.27,1.91.15,0,.3-.02.44-.04l3.12,6.19-10.69-8.48s0-.02,0-.03ZM23.52,37.92l3.35-2.9c.38.28.85.45,1.36.45.15,0,.3-.02.45-.05l2.31,5.17c-.17.13-.32.28-.45.45l-6.76-2.16c-.01-.35-.11-.68-.26-.97ZM113.58,44.42c.28.12.58.18.9.18.38,0,.74-.1,1.06-.27l5.89,5.51c-.12.28-.19.59-.19.92,0,1,.64,1.85,1.53,2.16l-1.02,8.6c-.73.08-1.36.5-1.72,1.1l-14.58-4.77c0-.05.02-.1.02-.15,0-.51-.17-.98-.46-1.36l8.57-11.93ZM101.17,56.56l-14.56-4.17s.01-.08.01-.12c0-.84-.45-1.56-1.12-1.97l5.14-15.56c.09.01.17.03.26.03.2,0,.4-.04.59-.09l10.34,21.14c-.27.19-.5.44-.66.73ZM70.87,42.16c.11-.27.17-.57.17-.88,0-.12-.02-.25-.04-.36l17.94-7.26c.18.3.43.56.73.75l-5.15,15.57c-.07,0-.14-.02-.21-.02-.59,0-1.13.23-1.54.6l-11.92-8.4ZM70.63,39.96c-.33-.47-.83-.82-1.41-.94l-.13-7.87c.68-.13,1.24-.57,1.57-1.16l17.87,2.73-17.9,7.24ZM68.06,31.12l.13,7.93c-1.01.25-1.76,1.15-1.76,2.23,0,.12.02.25.04.36l-6.4,2.59c-.39-.62-1.06-1.03-1.83-1.07l-3.66-12.27c.48-.27.85-.7,1.03-1.23h10.87c.25.72.85,1.26,1.59,1.46ZM44.42,71.58l.1-18.06c.24-.05.45-.15.66-.26l18.04,14.32c-.14.3-.23.64-.23.99,0,.01,0,.02,0,.04l-17.04,4.18c-.3-.6-.86-1.05-1.53-1.21ZM63.86,66.78l-17.92-14.22c.25-.37.39-.81.39-1.28,0-.12-.02-.25-.04-.36l10.01-4.05c.42.54,1.07.9,1.82.9.14,0,.28-.02.41-.04l5.63,18.85c-.11.06-.21.13-.3.21ZM53.44,31.2c.05,0,.1-.01.15-.02l3.63,12.15c-.83.35-1.41,1.17-1.41,2.12,0,.16.02.32.05.48l-9.95,4.02c-.42-.6-1.11-.99-1.89-.99-.66,0-1.26.28-1.68.73l-7.91-6.28c.14-.3.23-.64.23-.99,0-.6-.23-1.14-.61-1.55l4.58-6.6c.27.11.55.17.86.17,1.19,0,2.15-.9,2.28-2.05l9.72-2.26c.41.64,1.12,1.07,1.94,1.07ZM37.8,33.69l-4.58,6.6c-.27-.11-.55-.17-.86-.17-.15,0-.3.02-.45.05l-2.31-5.17c.41-.31.71-.75.84-1.27l6.96-.63c.1.22.23.41.39.59ZM33.8,44.23l8.03,6.37c-.07.21-.11.44-.11.67,0,1.09.76,2,1.78,2.24l-.1,18.06c-.18.04-.35.11-.52.19l-10.75-13.18c.31-.39.49-.88.49-1.41,0-.89-.51-1.65-1.25-2.04l1.45-10.44c.37-.07.69-.24.97-.47ZM61.15,81.02l-15-6.74c.03-.15.05-.3.05-.45,0-.01,0-.02,0-.04l17.04-4.18c.21.41.53.75.94.98l-1.59,9.56c-.58.1-1.09.43-1.43.88ZM66.66,66.72c-.38-.28-.85-.46-1.37-.46-.05,0-.1.01-.15.02l-5.66-18.96c.57-.42.95-1.09.95-1.85,0-.09-.02-.17-.03-.25l6.45-2.61c.42.6,1.11.99,1.89.99.59,0,1.13-.23,1.54-.6l11.92,8.4c-.11.27-.17.57-.17.88,0,.39.1.75.27,1.07l-15.63,13.39ZM86.33,53.37l14.54,4.16c0,.06-.02.11-.02.17,0,.42.12.8.31,1.14l-9.92,9.14c-.36-.23-.79-.37-1.25-.37-.2,0-.39.03-.58.08l-3.96-13.42c.37-.21.68-.52.89-.89ZM93.68,81.63s-.09.01-.14.01l-2.82-9.56c.92-.3,1.58-1.16,1.58-2.18,0-.44-.13-.84-.34-1.19l9.9-9.12c.37.26.82.41,1.31.41.3,0,.58-.06.84-.16l5.86,9.95c-.48.42-.78,1.03-.78,1.72,0,.44.13.85.34,1.2l-8.41,8.15c-.36-.24-.79-.38-1.26-.38-1.15,0-2.1.85-2.27,1.95l-1.82.35c-.4-.68-1.13-1.15-1.98-1.15ZM112.89,69.79c-.41-.35-.93-.58-1.51-.58-.22,0-.42.04-.62.1l-5.91-10.04c.12-.13.22-.27.31-.43l14.56,4.76c0,.07-.02.14-.02.21,0,.32.07.63.19.91l-6.98,5.07ZM122.77,61.65l1.02-8.6c.29-.03.56-.11.81-.24l7.42,6.94c-.12.28-.2.59-.2.92,0,.96.59,1.79,1.43,2.13l-1.74,10.36c-.32.02-.63.1-.9.24l-6.8-8.2c.3-.39.48-.87.48-1.4,0-1-.64-1.85-1.53-2.16ZM131.8,77.75c1.2-.08,2.16-1.07,2.16-2.29,0-.96-.59-1.79-1.43-2.13l1.74-10.36c.29-.02.56-.08.81-.2l8.98,9.33c-.16.31-.26.66-.26,1.04,0,.45.13.87.36,1.22l-13.55,13.38c-.12-.08-.25-.15-.39-.21l1.58-9.79ZM154.33,97.14c0,.06.01.11.02.17l-2.81.86c-.4-.69-1.14-1.16-1.99-1.16-.44,0-.84.13-1.19.34l-4.08-3.69c.14-.27.23-.57.26-.89l11.14-1.27c.14.6.51,1.11,1.02,1.43l-.39,1.93c-1.12.16-1.98,1.11-1.98,2.27ZM155.67,90.47l-11.29,1.28c-.22-.57-.66-1.03-1.21-1.27l3.02-15.05c.17,0,.34-.03.5-.08l9.48,14.14c-.24.28-.41.6-.49.97ZM141,101.29l1.28-6.4c.49-.01.95-.18,1.32-.45l4.01,3.62c-.23.36-.37.79-.37,1.25,0,.73.35,1.38.88,1.8l-4.95,10.43c-.08-.02-.17-.02-.26-.03l-1.49-6.2c.6-.42,1-1.11,1-1.9,0-.96-.58-1.77-1.41-2.12ZM144.09,111.99l4.95-10.43c.16.04.33.06.5.06.11,0,.21-.02.31-.03l5.13,13.57c-.3.23-.55.53-.71.87l-9.33-2.44c-.06-.65-.38-1.22-.86-1.61ZM156.38,114.69c-.16,0-.31.02-.45.05l-5.11-13.5c.06-.04.11-.09.16-.13l8.26,7.47c-.19.33-.3.71-.3,1.12,0,.54.19,1.02.5,1.42l-2.35,3.7c-.23-.07-.46-.12-.72-.12ZM159.64,107.55l-8.02-7.25c.14-.3.23-.63.23-.99,0-.06-.01-.11-.02-.17l2.81-.86c.4.69,1.14,1.16,1.99,1.16,0,0,.02,0,.03,0l2.98,8.11ZM112.76,43.81l-8.53,11.87c-.32-.17-.68-.27-1.07-.27-.13,0-.25.02-.37.04l-10.38-21.23c.11-.09.2-.19.29-.3l19.49,8.25s-.01.09-.01.14c0,.58.22,1.11.58,1.52ZM25.93,33.06s-.01.07-.01.11c0,.39.11.75.28,1.08l-3.34,2.89c-.39-.29-.86-.47-1.38-.47-.18,0-.35.02-.52.06l-3.4-6.76c.09-.07.18-.14.27-.22l8.11,3.31ZM14.05,27.26c-.03.08-.05.16-.08.25l-4.82-.45c-.15-1.13-1.11-2-2.28-2-.15,0-.3.02-.45.05l-2.41-4.06c.16-.18.3-.38.4-.6l3.37.52.08.12,6.18,6.18ZM3.6,14.38l-.98,2.7-.88-5.33,1.03.44c-.02.13-.04.26-.04.4,0,.73.34,1.37.87,1.79ZM7.26,19.83l-2.66-.41c-.03-.79-.44-1.47-1.06-1.87l.99-2.73c.16.04.33.06.51.06,0,0,0,0,.01,0l2.21,4.94ZM2.98,3.14l.79-.79.23,8.19c-.33.17-.61.41-.83.7l-1.54-.66,1.35-7.45ZM31.08,69.57c.09,0,.17.03.26.03.04,0,.08-.01.13-.01l3.37,11.71c-.71.39-1.19,1.14-1.19,2.01,0,.29.06.56.15.81l-7.7,6.5c-.16-.09-.32-.16-.5-.22l.64-9.68c1.12-.16,1.99-1.11,1.99-2.27,0-.64-.26-1.22-.69-1.64l3.54-7.23ZM30.34,110.13l-8.67,4.06c-.2-.26-.46-.48-.75-.63l1.67-6.81s.02,0,.04,0c.61,0,1.16-.24,1.57-.62l6.19,3.21c-.04.18-.07.36-.07.55,0,.08.02.16.02.25ZM14.11,102.72c3.03.81,4.98,1.32,6.23,1.65,0,.02,0,.04,0,.06,0,.9.52,1.67,1.27,2.05l-1.67,6.8s-.05,0-.08,0c-.12,0-.24.02-.35.04l-5.7-10.15c.12-.13.22-.28.3-.44ZM20.6,103.39c-1.66-.44-4.03-1.07-6.22-1.65,0-.03,0-.05,0-.08,0-.76-.37-1.43-.94-1.85l2.85-9.36c.67-.03,1.26-.34,1.66-.83l4.76,2.42c-.04.18-.08.36-.08.56,0,.85.46,1.58,1.14,1.98l-1.48,7.6c-.74.11-1.37.57-1.7,1.22ZM25.22,80.62l-.64,9.7c-.56.09-1.05.38-1.4.8l-4.76-2.42c.04-.18.08-.36.08-.56,0-.36-.09-.69-.23-.99l6.65-6.66c.1.05.2.09.31.12ZM33.57,114.99l-10.89-.14,8-3.75c.41.65,1.13,1.08,1.95,1.08,0,0,.02,0,.03,0l.92,2.81ZM49.88,87.78s.02,0,.04,0c1.27,0,2.31-1.03,2.31-2.31,0,0,0-.01,0-.02l8.7-2.05c.1.2.22.39.38.55l-5.04,9.61c-.11-.02-.21-.03-.32-.03-1.15,0-2.09.84-2.27,1.94l-5.65.36c-.13-.44-.38-.82-.73-1.11l2.59-6.96ZM67.02,117.64l-5.35,2.92c-.27-.11-.56-.17-.87-.17-.37,0-.72.1-1.03.25l-5.55-5.32c.14-.26.24-.54.27-.84l4.89-.47c.31.92,1.16,1.58,2.18,1.58.63,0,1.21-.26,1.62-.67l3.8,1.83c-.02.12-.04.24-.04.37,0,.18.02.35.06.51ZM48.09,96.87l5.65-.36c.19.63.63,1.15,1.22,1.43l-3.01,13.89-4.7-13.54c.44-.35.74-.85.83-1.42ZM59.3,112.98l-4.91.47c-.23-.67-.76-1.2-1.44-1.43l2.97-13.71,4.25,13.13c-.47.36-.8.9-.88,1.53ZM62.97,121.93c-.09-.26-.22-.49-.39-.69l4.89-2.68c.42.53,1.06.87,1.79.87.08,0,.16-.02.24-.02l1.13,2.52h-7.66ZM67.57,68.81c0-.08.02-.16.02-.24,0-.39-.1-.75-.27-1.07l15.63-13.39c.38.28.85.46,1.37.46.05,0,.09-.01.14-.01l4.02,13.62c-.49.42-.8,1.04-.8,1.74,0,.39.11.76.28,1.09l-4.18,3.85c-.36-.24-.8-.38-1.27-.38-.65,0-1.23.27-1.65.7l-13.3-6.35ZM82.31,79.36l2.05,14.18c-.39.19-.72.49-.95.86l-4.45-1.78c.02-.12.04-.23.04-.36,0-.71-.33-1.34-.83-1.76l4.15-11.15ZM84.18,121.93s0,0,0-.01l7.78-4.29c.42.47,1.03.78,1.71.78.14,0,.28-.02.41-.04l2.04,3.56h-11.94ZM103.4,93.51l12.73,13.85c-.24.36-.38.79-.38,1.26,0,.04,0,.08.01.12l-4.67,1.15c-.39-.72-1.14-1.22-2.02-1.22,0,0-.01,0-.02,0l-5.66-15.16ZM120.41,119.81c-.04-.17-.11-.34-.19-.49l5.62-4.85c.35.21.76.34,1.2.34.29,0,.56-.06.81-.15l3.62,5.15h-11.05ZM124.75,112.31c0,.07-.02.13-.02.2,0,.46.14.88.37,1.24l-5.55,4.79c-.3-.22-.66-.37-1.05-.43l.05-7.25c.45-.1.85-.33,1.16-.65l5.04,2.09ZM123.51,86.09c0-.08.02-.16.02-.24,0-1.27-1.03-2.31-2.31-2.31-.3,0-.58.06-.85.16l-7.27-10.68c.35-.41.57-.93.57-1.51,0-.32-.07-.63-.19-.91l6.98-5.07c.41.35.93.58,1.51.58.37,0,.72-.1,1.03-.26l6.8,8.2c-.3.39-.48.87-.48,1.4,0,.97.6,1.79,1.44,2.13l-1.58,9.78c-.6.04-1.13.29-1.52.7l-4.17-1.98ZM129.23,91.96s.07.01.11.01c0,0,.01,0,.02,0l4.3,17.71-6.72-8.38c.22-.35.35-.76.35-1.21,0-.68-.3-1.28-.76-1.7l2.7-6.43Z"/>
  <g>
    <path class="cls-1" d="M220.41,54.26c2.07-.93,3.67-2.35,4.79-4.25,1.12-1.9,1.68-3.97,1.68-6.21,0-1.4-.24-2.78-.73-4.15-.49-1.37-1.17-2.6-2.06-3.68-.89-1.08-1.96-1.95-3.23-2.63-1.27-.68-2.69-1.02-4.25-1.02h-22.38v45.02h21.37c1.82,0,3.52-.27,5.1-.82,1.58-.55,2.98-1.33,4.18-2.35,1.2-1.01,2.16-2.24,2.85-3.68.7-1.44,1.05-3.02,1.05-4.76,0-2.79-.75-5.21-2.25-7.26-1.5-2.05-3.54-3.46-6.12-4.22ZM199.93,37.26h14.71c.93,0,1.81.19,2.63.57s1.52.91,2.09,1.59c.57.68,1.03,1.48,1.36,2.41s.51,1.92.51,2.98-.18,1.98-.54,2.88c-.36.91-.85,1.7-1.46,2.38s-1.34,1.22-2.19,1.62c-.84.4-1.78.6-2.79.6h-14.33v-15.03ZM222.44,67.64c-.38.93-.91,1.74-1.58,2.44-.68.7-1.46,1.26-2.35,1.68s-1.86.63-2.92.63h-15.66v-15.47h16.11c1.01,0,1.94.21,2.79.63.84.42,1.57.99,2.19,1.71s1.1,1.55,1.46,2.5c.36.95.54,1.93.54,2.95s-.19,1.99-.57,2.92Z"/>
    <polygon class="cls-1" points="248.89 32.32 243.18 32.32 243.18 77.34 274 77.34 274 72.27 248.89 72.27 248.89 32.32"/>
    <path class="cls-1" d="M318.19,39.23c-1.86-2.16-4.08-3.9-6.66-5.23-2.58-1.33-5.45-2-8.62-2s-5.87.62-8.47,1.87c-2.6,1.25-4.85,2.93-6.75,5.04-1.9,2.11-3.39,4.54-4.47,7.29-1.08,2.75-1.62,5.62-1.62,8.62s.51,5.69,1.52,8.43c1.01,2.75,2.45,5.19,4.31,7.32,1.86,2.14,4.09,3.85,6.69,5.14,2.6,1.29,5.48,1.93,8.66,1.93s5.86-.62,8.47-1.87c2.6-1.25,4.84-2.92,6.72-5.01,1.88-2.09,3.36-4.51,4.44-7.26,1.08-2.75,1.62-5.62,1.62-8.62,0-2.83-.51-5.61-1.52-8.34-1.01-2.73-2.45-5.17-4.31-7.32ZM317.21,61.23c-.7,2.11-1.71,4.01-3.04,5.68-1.33,1.67-2.95,3.02-4.85,4.06-1.9,1.04-4.06,1.55-6.47,1.55s-4.44-.49-6.34-1.46c-1.9-.97-3.53-2.28-4.88-3.93-1.35-1.65-2.4-3.54-3.14-5.68-.74-2.13-1.11-4.34-1.11-6.63s.36-4.35,1.08-6.47c.72-2.11,1.74-4,3.08-5.64s2.95-2.98,4.85-4c1.9-1.01,4.06-1.52,6.47-1.52,2.28,0,4.36.49,6.25,1.46,1.88.97,3.51,2.27,4.88,3.9,1.37,1.63,2.43,3.51,3.17,5.64.74,2.14,1.11,4.34,1.11,6.63,0,2.16-.35,4.29-1.05,6.4Z"/>
    <path class="cls-1" d="M372.15,39.23c-1.86-2.16-4.08-3.9-6.66-5.23-2.58-1.33-5.45-2-8.62-2s-5.87.62-8.47,1.87c-2.6,1.25-4.85,2.93-6.75,5.04-1.9,2.11-3.39,4.54-4.47,7.29-1.08,2.75-1.62,5.62-1.62,8.62s.51,5.69,1.52,8.43c1.01,2.75,2.45,5.19,4.31,7.32,1.86,2.14,4.09,3.85,6.69,5.14,2.6,1.29,5.48,1.93,8.66,1.93s5.86-.62,8.47-1.87c2.6-1.25,4.84-2.92,6.72-5.01,1.88-2.09,3.36-4.51,4.44-7.26,1.08-2.75,1.62-5.62,1.62-8.62,0-2.83-.51-5.61-1.52-8.34-1.01-2.73-2.45-5.17-4.31-7.32ZM371.17,61.23c-.7,2.11-1.71,4.01-3.04,5.68-1.33,1.67-2.95,3.02-4.85,4.06-1.9,1.04-4.06,1.55-6.47,1.55s-4.44-.49-6.34-1.46c-1.9-.97-3.53-2.28-4.88-3.93-1.35-1.65-2.4-3.54-3.14-5.68-.74-2.13-1.11-4.34-1.11-6.63s.36-4.35,1.08-6.47c.72-2.11,1.74-4,3.08-5.64s2.95-2.98,4.85-4c1.9-1.01,4.06-1.52,6.47-1.52,2.28,0,4.36.49,6.25,1.46,1.88.97,3.51,2.27,4.88,3.9,1.37,1.63,2.43,3.51,3.17,5.64.74,2.14,1.11,4.34,1.11,6.63,0,2.16-.35,4.29-1.05,6.4Z"/>
    <path class="cls-1" d="M424.21,38.91c-1.82-2.03-4.09-3.64-6.82-4.82-2.73-1.18-5.89-1.78-9.48-1.78h-15.6v45.02h15.6c3.3,0,6.29-.54,8.97-1.62,2.68-1.08,4.98-2.6,6.88-4.57,1.9-1.97,3.36-4.33,4.38-7.1,1.01-2.77,1.52-5.87,1.52-9.29,0-3.09-.45-5.99-1.36-8.72-.91-2.73-2.27-5.1-4.09-7.13ZM422.85,61.71c-.7,2.14-1.71,3.99-3.04,5.55-1.33,1.56-3,2.79-5.01,3.68-2.01.89-4.3,1.33-6.88,1.33h-9.89v-34.88h9.89c2.54,0,4.8.43,6.78,1.3,1.99.87,3.67,2.06,5.04,3.58,1.37,1.52,2.41,3.35,3.11,5.49.7,2.14,1.05,4.47,1.05,7.01s-.35,4.81-1.05,6.94Z"/>
    <polygon class="cls-2" points="474.69 51.78 449.89 51.78 449.89 32.32 444.19 32.32 444.19 77.34 449.89 77.34 449.89 56.86 474.69 56.86 474.69 77.34 480.39 77.34 480.39 32.32 474.69 32.32 474.69 51.78"/>
    <path class="cls-2" d="M531.31,39.23c-1.86-2.16-4.08-3.9-6.66-5.23-2.58-1.33-5.45-2-8.62-2s-5.87.62-8.47,1.87c-2.6,1.25-4.85,2.93-6.75,5.04-1.9,2.11-3.39,4.54-4.47,7.29-1.08,2.75-1.62,5.62-1.62,8.62s.51,5.69,1.52,8.43c1.02,2.75,2.45,5.19,4.31,7.32,1.86,2.14,4.09,3.85,6.69,5.14s5.49,1.93,8.66,1.93,5.87-.62,8.47-1.87c2.6-1.25,4.84-2.92,6.72-5.01s3.36-4.51,4.44-7.26c1.08-2.75,1.62-5.62,1.62-8.62,0-2.83-.51-5.61-1.52-8.34-1.02-2.73-2.45-5.17-4.31-7.32ZM530.33,61.23c-.7,2.11-1.71,4.01-3.04,5.68-1.33,1.67-2.95,3.02-4.85,4.06-1.9,1.04-4.06,1.55-6.47,1.55s-4.44-.49-6.34-1.46c-1.9-.97-3.53-2.28-4.88-3.93-1.35-1.65-2.4-3.54-3.14-5.68-.74-2.13-1.11-4.34-1.11-6.63s.36-4.35,1.08-6.47c.72-2.11,1.74-4,3.08-5.64s2.95-2.98,4.85-4c1.9-1.01,4.06-1.52,6.47-1.52,2.28,0,4.36.49,6.25,1.46,1.88.97,3.51,2.27,4.88,3.9,1.37,1.63,2.43,3.51,3.17,5.64.74,2.14,1.11,4.34,1.11,6.63,0,2.16-.35,4.29-1.05,6.4Z"/>
    <path class="cls-2" d="M583.43,55.08c0,2.16-.21,4.28-.63,6.37-.42,2.09-1.15,3.95-2.19,5.58-1.04,1.63-2.42,2.95-4.15,3.96-1.73,1.01-3.91,1.52-6.53,1.52s-4.72-.5-6.44-1.49c-1.71-.99-3.09-2.29-4.12-3.9s-1.78-3.46-2.22-5.55-.67-4.26-.67-6.5v-22.76h-5.71v22.76c0,2.87.33,5.68.98,8.4.66,2.73,1.73,5.14,3.23,7.23,1.5,2.09,3.48,3.77,5.93,5.04,2.45,1.27,5.47,1.9,9.07,1.9s6.41-.6,8.85-1.81c2.43-1.2,4.41-2.84,5.93-4.91,1.52-2.07,2.63-4.47,3.33-7.2.7-2.73,1.05-5.61,1.05-8.66v-22.76h-5.71v22.76Z"/>
    <polygon class="cls-2" points="637.9 67.38 610 32.32 605.56 32.32 605.56 77.34 611.27 77.34 611.27 42.97 638.79 77.34 643.61 77.34 643.61 32.38 637.9 32.38 637.9 67.38"/>
    <path class="cls-2" d="M696.71,46.05c-.91-2.73-2.27-5.1-4.09-7.13s-4.09-3.64-6.82-4.82c-2.73-1.18-5.89-1.78-9.48-1.78h-15.6v45.02h15.6c3.3,0,6.29-.54,8.97-1.62,2.68-1.08,4.98-2.6,6.88-4.57,1.9-1.97,3.36-4.33,4.38-7.1,1.01-2.77,1.52-5.87,1.52-9.29,0-3.09-.45-5.99-1.36-8.72ZM691.26,61.71c-.7,2.14-1.71,3.99-3.04,5.55-1.33,1.56-3,2.79-5.01,3.68-2.01.89-4.3,1.33-6.88,1.33h-9.89v-34.88h9.89c2.54,0,4.8.43,6.79,1.3,1.99.87,3.67,2.06,5.04,3.58s2.41,3.35,3.11,5.49c.7,2.14,1.05,4.47,1.05,7.01s-.35,4.81-1.05,6.94Z"/>
  </g>
  <g>
    <path class="cls-2" d="M205.87,115.11c-2.49,0-4.63-.5-6.41-1.51s-3.15-2.44-4.1-4.28c-.95-1.85-1.43-4.03-1.43-6.54,0-1.88.27-3.58.82-5.08.54-1.51,1.33-2.8,2.35-3.88,1.02-1.08,2.27-1.9,3.76-2.48,1.48-.58,3.16-.87,5.02-.87,1.25,0,2.47.16,3.67.48,1.2.32,2.26.77,3.16,1.36.48.29.79.65.95,1.07.16.42.19.83.1,1.22-.09.4-.28.73-.56,1-.28.27-.64.42-1.05.46-.42.03-.88-.11-1.38-.42-.7-.45-1.46-.78-2.28-.99-.82-.2-1.64-.31-2.48-.31-1.61,0-2.97.33-4.08.99-1.11.66-1.95,1.61-2.52,2.86-.57,1.25-.85,2.78-.85,4.59s.28,3.32.85,4.59c.57,1.27,1.41,2.23,2.52,2.89,1.11.66,2.47.99,4.08.99.86,0,1.71-.11,2.55-.32.84-.21,1.63-.55,2.38-1,.5-.29.95-.42,1.34-.39.4.03.73.18,1,.42.27.25.45.56.54.94.09.37.07.76-.07,1.16-.14.4-.41.74-.82,1.04-.91.66-1.99,1.16-3.25,1.51-1.26.35-2.53.53-3.83.53Z"/>
    <path class="cls-2" d="M237.32,115.11c-2.31,0-4.33-.51-6.07-1.53-1.73-1.02-3.08-2.45-4.03-4.3-.95-1.85-1.43-4.02-1.43-6.51,0-1.88.27-3.58.82-5.08.54-1.51,1.32-2.8,2.33-3.88,1.01-1.08,2.22-1.9,3.64-2.48,1.42-.58,3-.87,4.74-.87,2.33,0,4.36.5,6.09,1.51,1.72,1.01,3.06,2.43,4.01,4.27s1.43,4,1.43,6.49c0,1.88-.27,3.58-.82,5.1-.54,1.52-1.32,2.82-2.33,3.91-1.01,1.09-2.22,1.92-3.64,2.5-1.42.58-3,.87-4.74.87ZM237.32,111.37c1.47,0,2.73-.34,3.76-1.02,1.03-.68,1.82-1.67,2.38-2.96.56-1.29.83-2.83.83-4.62,0-2.72-.61-4.83-1.82-6.32-1.21-1.5-2.93-2.24-5.15-2.24-1.45,0-2.7.33-3.74,1-1.04.67-1.84,1.64-2.4,2.92-.56,1.28-.83,2.83-.83,4.64,0,2.7.61,4.81,1.84,6.32s2.94,2.28,5.13,2.28Z"/>
    <path class="cls-2" d="M264.83,115.05c-.64,0-1.12-.18-1.46-.54-.34-.36-.51-.86-.51-1.5v-20.43c0-.66.18-1.16.54-1.51.36-.35.86-.53,1.5-.53.57,0,1.01.11,1.34.32.33.22.63.58.9,1.1l8.4,15.54h-1.09l8.4-15.54c.27-.52.57-.89.88-1.1.32-.21.76-.32,1.33-.32.63,0,1.12.18,1.46.53.34.35.51.86.51,1.51v20.43c0,.63-.16,1.13-.49,1.5-.33.36-.82.54-1.48.54s-1.12-.18-1.46-.54c-.34-.36-.51-.86-.51-1.5v-15.74h.75l-7.14,13.02c-.23.39-.46.67-.71.85-.25.18-.59.27-1.02.27s-.78-.1-1.05-.29c-.27-.19-.51-.47-.71-.83l-7.21-13.06h.82v15.78c0,.63-.16,1.13-.49,1.5-.33.36-.82.54-1.48.54Z"/>
    <path class="cls-2" d="M303.86,115.05c-.64,0-1.12-.18-1.46-.54-.34-.36-.51-.86-.51-1.5v-20.43c0-.66.18-1.16.54-1.51.36-.35.86-.53,1.5-.53.57,0,1.01.11,1.34.32.33.22.63.58.9,1.1l8.4,15.54h-1.09l8.4-15.54c.27-.52.57-.89.88-1.1.32-.21.76-.32,1.33-.32.63,0,1.12.18,1.46.53.34.35.51.86.51,1.51v20.43c0,.63-.16,1.13-.49,1.5-.33.36-.82.54-1.48.54s-1.12-.18-1.46-.54c-.34-.36-.51-.86-.51-1.5v-15.74h.75l-7.14,13.02c-.23.39-.46.67-.71.85-.25.18-.59.27-1.02.27s-.78-.1-1.05-.29c-.27-.19-.51-.47-.71-.83l-7.21-13.06h.82v15.78c0,.63-.16,1.13-.49,1.5-.33.36-.82.54-1.48.54Z"/>
    <path class="cls-2" d="M350.81,115.11c-1.66,0-3.11-.22-4.37-.65-1.26-.43-2.32-1.07-3.18-1.92-.86-.85-1.51-1.91-1.94-3.18-.43-1.27-.65-2.74-.65-4.42v-12.21c0-.75.19-1.3.56-1.67.37-.36.91-.54,1.62-.54s1.24.18,1.62.54c.37.36.56.92.56,1.67v12.17c0,2.15.49,3.77,1.48,4.85.99,1.08,2.42,1.61,4.3,1.61s3.31-.54,4.28-1.61c.97-1.08,1.46-2.69,1.46-4.85v-12.17c0-.75.19-1.3.56-1.67.37-.36.91-.54,1.62-.54s1.21.18,1.58.54c.37.36.56.92.56,1.67v12.21c0,2.22-.38,4.09-1.14,5.61-.76,1.52-1.89,2.66-3.38,3.42s-3.34,1.14-5.54,1.14Z"/>
    <path class="cls-2" d="M377.5,115.05c-.66,0-1.16-.18-1.51-.54s-.53-.88-.53-1.56v-20.23c0-.7.17-1.24.53-1.61s.81-.56,1.38-.56c.52,0,.91.1,1.17.29.26.19.57.52.93.97l13.02,16.9h-.88v-16.08c0-.66.18-1.17.53-1.53.35-.36.86-.54,1.51-.54s1.16.18,1.5.54c.34.36.51.87.51,1.53v20.4c0,.63-.16,1.13-.48,1.5s-.75.54-1.29.54-.93-.1-1.24-.31c-.31-.2-.64-.53-1-.99l-12.99-16.9h.85v16.08c0,.68-.17,1.2-.51,1.56s-.84.54-1.5.54Z"/>
    <path class="cls-2" d="M412.59,115.05c-.7,0-1.24-.2-1.62-.6s-.56-.95-.56-1.65v-20.03c0-.73.19-1.28.56-1.67.37-.38.91-.58,1.62-.58s1.24.19,1.62.58c.37.39.56.94.56,1.67v20.03c0,.7-.18,1.25-.54,1.65s-.91.6-1.63.6Z"/>
    <path class="cls-2" d="M437.48,115.05c-.7,0-1.24-.2-1.62-.6s-.56-.95-.56-1.65v-18.36h-6.63c-.59,0-1.05-.16-1.38-.49s-.49-.78-.49-1.34.16-1.04.49-1.34c.33-.31.79-.46,1.38-.46h17.61c.59,0,1.05.15,1.38.46.33.31.49.75.49,1.34s-.17,1.01-.49,1.34-.79.49-1.38.49h-6.63v18.36c0,.7-.18,1.25-.54,1.65-.36.4-.91.6-1.63.6Z"/>
    <path class="cls-2" d="M468.48,115.05c-.7,0-1.24-.2-1.62-.6s-.56-.96-.56-1.68v-10.34l.92,2.62-8.19-11.53c-.29-.41-.42-.84-.39-1.31s.22-.86.56-1.19c.34-.33.82-.49,1.43-.49.45,0,.87.11,1.24.34.37.23.73.58,1.07,1.05l6.09,8.64h-.95l6.12-8.64c.36-.5.71-.86,1.05-1.07.34-.21.76-.32,1.26-.32.59,0,1.05.15,1.38.46.33.31.5.69.51,1.14.01.45-.15.93-.49,1.43l-8.13,11.49.88-2.62v10.34c0,1.52-.73,2.28-2.18,2.28Z"/>
    <path class="cls-2" d="M512.17,114.77c-.75,0-1.32-.2-1.72-.59s-.59-.97-.59-1.72v-19.35c0-.75.2-1.32.59-1.72s.97-.59,1.72-.59h12.14c.57,0,1,.15,1.31.44.31.29.46.71.46,1.26s-.15,1-.46,1.31-.74.46-1.31.46h-10.27v6.6h9.52c.59,0,1.03.15,1.33.44.29.29.44.73.44,1.29s-.15,1-.44,1.29-.74.44-1.33.44h-9.52v6.97h10.27c.57,0,1,.15,1.31.44.31.29.46.73.46,1.29s-.15,1-.46,1.29c-.31.29-.74.44-1.31.44h-12.14Z"/>
    <path class="cls-2" d="M541.99,114.77c-.75,0-1.32-.2-1.72-.59s-.59-.97-.59-1.72v-19.35c0-.75.2-1.32.59-1.72s.97-.59,1.72-.59h6.6c4.01,0,7.11,1.03,9.3,3.09,2.19,2.06,3.28,5.02,3.28,8.87,0,1.93-.28,3.63-.83,5.12-.56,1.48-1.37,2.74-2.45,3.76-1.08,1.02-2.39,1.8-3.94,2.33s-3.34.8-5.35.8h-6.6ZM544.03,111.17h4.28c1.41,0,2.62-.18,3.66-.53,1.03-.35,1.89-.87,2.58-1.56.69-.69,1.21-1.56,1.55-2.62.34-1.05.51-2.28.51-3.69,0-2.81-.69-4.91-2.07-6.29-1.38-1.38-3.46-2.07-6.22-2.07h-4.28v16.76Z"/>
    <path class="cls-2" d="M577.28,115.05c-.7,0-1.24-.2-1.62-.6s-.56-.95-.56-1.65v-20.03c0-.73.19-1.28.56-1.67.37-.38.91-.58,1.62-.58s1.24.19,1.62.58c.37.39.56.94.56,1.67v20.03c0,.7-.18,1.25-.54,1.65s-.91.6-1.63.6Z"/>
    <path class="cls-2" d="M602.17,115.05c-.7,0-1.24-.2-1.62-.6s-.56-.95-.56-1.65v-18.36h-6.63c-.59,0-1.05-.16-1.38-.49s-.49-.78-.49-1.34.16-1.04.49-1.34c.33-.31.79-.46,1.38-.46h17.61c.59,0,1.05.15,1.38.46.33.31.49.75.49,1.34s-.17,1.01-.49,1.34-.79.49-1.38.49h-6.63v18.36c0,.7-.18,1.25-.54,1.65-.36.4-.91.6-1.63.6Z"/>
    <path class="cls-2" d="M627.02,115.05c-.7,0-1.24-.2-1.62-.6s-.56-.95-.56-1.65v-20.03c0-.73.19-1.28.56-1.67.37-.38.91-.58,1.62-.58s1.24.19,1.62.58c.37.39.56.94.56,1.67v20.03c0,.7-.18,1.25-.54,1.65s-.91.6-1.63.6Z"/>
    <path class="cls-2" d="M654.7,115.11c-2.31,0-4.33-.51-6.07-1.53-1.73-1.02-3.08-2.45-4.03-4.3-.95-1.85-1.43-4.02-1.43-6.51,0-1.88.27-3.58.82-5.08.54-1.51,1.32-2.8,2.33-3.88,1.01-1.08,2.22-1.9,3.64-2.48,1.42-.58,3-.87,4.74-.87,2.33,0,4.36.5,6.09,1.51,1.72,1.01,3.06,2.43,4.01,4.27s1.43,4,1.43,6.49c0,1.88-.27,3.58-.82,5.1s-1.32,2.82-2.33,3.91c-1.01,1.09-2.22,1.92-3.64,2.5-1.42.58-3,.87-4.74.87ZM654.7,111.37c1.47,0,2.72-.34,3.76-1.02,1.03-.68,1.82-1.67,2.38-2.96.55-1.29.83-2.83.83-4.62,0-2.72-.61-4.83-1.82-6.32s-2.93-2.24-5.15-2.24c-1.45,0-2.7.33-3.74,1-1.04.67-1.84,1.64-2.4,2.92s-.83,2.83-.83,4.64c0,2.7.61,4.81,1.84,6.32,1.22,1.52,2.94,2.28,5.13,2.28Z"/>
    <path class="cls-2" d="M682.21,115.05c-.66,0-1.16-.18-1.51-.54s-.53-.88-.53-1.56v-20.23c0-.7.17-1.24.53-1.61s.81-.56,1.38-.56c.52,0,.91.1,1.17.29.26.19.57.52.93.97l13.02,16.9h-.88v-16.08c0-.66.18-1.17.53-1.53.35-.36.86-.54,1.51-.54s1.16.18,1.5.54c.34.36.51.87.51,1.53v20.4c0,.63-.16,1.13-.48,1.5s-.75.54-1.29.54-.93-.1-1.24-.31c-.31-.2-.64-.53-1-.99l-12.99-16.9h.85v16.08c0,.68-.17,1.2-.51,1.56s-.84.54-1.5.54Z"/>
  </g>
</svg>
