<svg width="229" height="43" viewBox="0 0 229 43" fill="none" xmlns="http://www.w3.org/2000/svg">
<rect width="228.624" height="42.6661" rx="8" fill="#D63C30"/>
<path d="M32.3489 19.703C31.9699 20.0843 31.6797 20.5445 31.4989 21.0507C31.3181 21.557 31.2512 22.0969 31.3029 22.632L31.2849 22.614C31.3381 23.2439 31.2531 23.8777 31.036 24.4714C30.8189 25.065 30.4749 25.6041 30.028 26.0511C29.581 26.498 29.0419 26.8421 28.4482 27.0591C27.8546 27.2762 27.2207 27.3612 26.5909 27.308L26.6089 27.326C25.8555 27.2559 25.0988 27.4198 24.4419 27.7955C23.7851 28.1712 23.2601 28.7403 22.9386 29.4253C22.6171 30.1103 22.5146 30.8777 22.6452 31.6231C22.7759 32.3684 23.1332 33.0553 23.6685 33.5901C24.2038 34.1249 24.891 34.4816 25.6364 34.6115C26.3819 34.7415 27.1492 34.6383 27.8339 34.3162C28.5186 33.994 29.0872 33.4686 29.4623 32.8114C29.8374 32.1542 30.0007 31.3974 29.9299 30.644L29.9489 30.662C29.8957 30.0322 29.9806 29.3983 30.1977 28.8046C30.4148 28.211 30.7589 27.6719 31.2058 27.2249C31.6528 26.778 32.1919 26.4339 32.7855 26.2169C33.3792 25.9998 34.013 25.9148 34.6429 25.968L34.6239 25.95C35.2393 26.0053 35.8588 25.9044 36.4249 25.6566C36.9909 25.4088 37.4853 25.0221 37.8621 24.5324C38.2389 24.0427 38.4861 23.4657 38.5805 22.8551C38.675 22.2444 38.6138 21.6198 38.4026 21.039C38.1914 20.4583 37.837 19.9403 37.3723 19.533C36.9076 19.1257 36.3476 18.8423 35.7442 18.7091C35.1408 18.5759 34.5135 18.5971 33.9205 18.7708C33.3275 18.9446 32.788 19.2652 32.3519 19.703H32.3489Z" fill="white"/>
<path d="M24.9718 24.968L24.9528 24.95C25.4881 25.0039 26.0287 24.9382 26.5356 24.7576C27.0424 24.577 27.5028 24.2861 27.8834 23.9058C28.2639 23.5255 28.5553 23.0653 28.7362 22.5586C28.9172 22.0519 28.9833 21.5114 28.9298 20.976L28.9488 20.994C28.8956 20.3641 28.9806 19.7303 29.1976 19.1366C29.4147 18.543 29.7588 18.0039 30.2057 17.5569C30.6527 17.11 31.1918 16.7659 31.7854 16.5489C32.3791 16.3317 33.0129 16.2468 33.6428 16.3L33.6238 16.282C34.3773 16.3528 35.1342 16.1893 35.7914 15.8141C36.4487 15.4388 36.9741 14.8699 37.2961 14.1851C37.6181 13.5002 37.721 12.7327 37.5908 11.9872C37.4606 11.2417 37.1036 10.5545 36.5684 10.0193C36.0333 9.48421 35.3461 9.12717 34.6006 8.99695C33.8551 8.86672 33.0876 8.96963 32.4027 9.29165C31.7178 9.61366 31.149 10.1391 30.7737 10.7963C30.3984 11.4535 30.235 12.2105 30.3058 12.964L30.2878 12.945C30.3411 13.5749 30.2563 14.2088 30.0393 14.8025C29.8223 15.3962 29.4782 15.9354 29.0313 16.3825C28.5843 16.8294 28.0451 17.1735 27.4514 17.3905C26.8576 17.6075 26.2237 17.6923 25.5938 17.639L25.6118 17.658C25.0765 17.6041 24.5358 17.6698 24.029 17.8504C23.5222 18.0309 23.0618 18.3219 22.6812 18.7022C22.3006 19.0825 22.0093 19.5427 21.8283 20.0494C21.6474 20.5561 21.5813 21.0966 21.6348 21.632L21.6168 21.614C21.6698 22.2438 21.5847 22.8776 21.3676 23.4712C21.1504 24.0647 20.8064 24.6038 20.3595 25.0507C19.9126 25.4976 19.3736 25.8416 18.78 26.0588C18.1864 26.2759 17.5527 26.361 16.9228 26.308L16.9408 26.326C16.1874 26.2552 15.4304 26.4186 14.7732 26.7939C14.116 27.1692 13.5905 27.738 13.2685 28.4229C12.9465 29.1078 12.8436 29.8753 12.9738 30.6208C13.104 31.3663 13.4611 32.0535 13.9962 32.5886C14.5314 33.1238 15.2185 33.4808 15.964 33.611C16.7096 33.7412 17.4771 33.6383 18.162 33.3163C18.8468 32.9943 19.4157 32.4689 19.7909 31.8117C20.1662 31.1544 20.3296 30.3975 20.2588 29.644L20.2778 29.662C20.2246 29.0321 20.3096 28.3983 20.5267 27.8046C20.7437 27.211 21.0878 26.6719 21.5347 26.2249C21.9817 25.778 22.5208 25.4339 23.1144 25.2169C23.7081 24.9998 24.3419 24.9148 24.9718 24.968Z" fill="white"/>
<path d="M18.2699 22.961C18.6489 22.5798 18.9391 22.1196 19.1197 21.6133C19.3004 21.107 19.367 20.567 19.3149 20.032L19.3339 20.05C19.2807 19.42 19.3656 18.7859 19.5829 18.1921C19.8001 17.5983 20.1443 17.0591 20.5915 16.6121C21.0387 16.1651 21.578 15.8211 22.1719 15.6042C22.7658 15.3872 23.3999 15.3025 24.0299 15.356L24.0109 15.338C24.7641 15.4085 25.5208 15.2451 26.1777 14.8698C26.8346 14.4946 27.3597 13.9259 27.6816 13.2412C28.0034 12.5565 28.1062 11.7893 27.976 11.0441C27.8458 10.2988 27.4888 9.61191 26.9539 9.07697C26.419 8.54203 25.732 8.18511 24.9868 8.05489C24.2416 7.92466 23.4743 8.02748 22.7897 8.3493C22.105 8.67112 21.5363 9.19629 21.1611 9.85319C20.7858 10.5101 20.6223 11.2668 20.6929 12.02L20.6749 12.002C20.7281 12.6318 20.6431 13.2657 20.426 13.8593C20.2089 14.453 19.8649 14.9921 19.418 15.439C18.971 15.886 18.4319 16.23 17.8382 16.4471C17.2446 16.6642 16.6107 16.7492 15.9809 16.696L15.9989 16.714C15.3835 16.6588 14.7641 16.7599 14.1981 17.0078C13.6321 17.2557 13.1378 17.6425 12.7611 18.1323C12.3844 18.622 12.1374 19.199 12.0431 19.8096C11.9487 20.4203 12.01 21.0449 12.2213 21.6255C12.4325 22.2062 12.787 22.7241 13.2517 23.1313C13.7164 23.5386 14.2764 23.8219 14.8798 23.9551C15.4832 24.0882 16.1104 24.0669 16.7034 23.8932C17.2963 23.7194 17.8358 23.3988 18.2719 22.961H18.2699Z" fill="white"/>
<path d="M56.1354 23.6163H59.0553C58.9967 24.5733 58.733 25.4229 58.2643 26.1651C57.802 26.9073 57.1543 27.4867 56.3209 27.9034C55.4941 28.32 54.498 28.5284 53.3326 28.5284C52.4212 28.5284 51.6041 28.3721 50.8815 28.0596C50.1588 27.7406 49.5403 27.2849 49.026 26.6924C48.5182 26.1 48.1308 25.3839 47.8639 24.544C47.597 23.7042 47.4635 22.7634 47.4635 21.7217V20.7354C47.4635 19.6937 47.6002 18.753 47.8737 17.9131C48.1536 17.0668 48.5507 16.3474 49.0651 15.7549C49.5859 15.1625 50.2076 14.7068 50.9303 14.3878C51.653 14.0687 52.4602 13.9092 53.3522 13.9092C54.5371 13.9092 55.5364 14.1241 56.3502 14.5538C57.1705 14.9835 57.8053 15.5759 58.2545 16.3311C58.7102 17.0863 58.9837 17.9457 59.0748 18.9092H56.1451C56.1126 18.3363 55.9987 17.8513 55.8033 17.4542C55.608 17.0505 55.3118 16.7478 54.9147 16.546C54.524 16.3376 54.0032 16.2335 53.3522 16.2335C52.8639 16.2335 52.4375 16.3246 52.0729 16.5069C51.7083 16.6892 51.4023 16.9659 51.1549 17.337C50.9075 17.7081 50.722 18.1768 50.5983 18.7432C50.4811 19.3031 50.4225 19.9607 50.4225 20.7159V21.7217C50.4225 22.4574 50.4778 23.1052 50.5885 23.6651C50.6992 24.2185 50.8684 24.6872 51.0963 25.0714C51.3307 25.449 51.6302 25.7354 51.9948 25.9307C52.3658 26.1195 52.8118 26.2139 53.3326 26.2139C53.9446 26.2139 54.4492 26.1163 54.8463 25.921C55.2434 25.7256 55.5462 25.4359 55.7545 25.0518C55.9694 24.6677 56.0963 24.1892 56.1354 23.6163ZM60.3541 23.1573V22.9522C60.3541 22.1775 60.4648 21.4646 60.6862 20.8135C60.9075 20.156 61.2298 19.5863 61.653 19.1046C62.0761 18.6228 62.597 18.2484 63.2155 17.9815C63.8339 17.7081 64.5436 17.5714 65.3444 17.5714C66.1451 17.5714 66.858 17.7081 67.483 17.9815C68.108 18.2484 68.6321 18.6228 69.0553 19.1046C69.485 19.5863 69.8105 20.156 70.0319 20.8135C70.2532 21.4646 70.3639 22.1775 70.3639 22.9522V23.1573C70.3639 23.9255 70.2532 24.6384 70.0319 25.296C69.8105 25.947 69.485 26.5167 69.0553 27.0049C68.6321 27.4867 68.1113 27.8611 67.4928 28.128C66.8743 28.3949 66.1647 28.5284 65.3639 28.5284C64.5631 28.5284 63.8502 28.3949 63.2252 28.128C62.6067 27.8611 62.0826 27.4867 61.653 27.0049C61.2298 26.5167 60.9075 25.947 60.6862 25.296C60.4648 24.6384 60.3541 23.9255 60.3541 23.1573ZM63.1666 22.9522V23.1573C63.1666 23.6 63.2057 24.0134 63.2838 24.3975C63.3619 24.7816 63.4856 25.1202 63.6549 25.4131C63.8307 25.6996 64.0586 25.9242 64.3385 26.087C64.6184 26.2497 64.9602 26.3311 65.3639 26.3311C65.7545 26.3311 66.0898 26.2497 66.3698 26.087C66.6497 25.9242 66.8743 25.6996 67.0436 25.4131C67.2128 25.1202 67.3365 24.7816 67.4147 24.3975C67.4993 24.0134 67.5416 23.6 67.5416 23.1573V22.9522C67.5416 22.5225 67.4993 22.1189 67.4147 21.7413C67.3365 21.3572 67.2096 21.0186 67.0338 20.7256C66.8645 20.4262 66.6399 20.1918 66.36 20.0225C66.08 19.8533 65.7415 19.7686 65.3444 19.7686C64.9472 19.7686 64.6087 19.8533 64.3287 20.0225C64.0553 20.1918 63.8307 20.4262 63.6549 20.7256C63.4856 21.0186 63.3619 21.3572 63.2838 21.7413C63.2057 22.1189 63.1666 22.5225 63.1666 22.9522ZM74.9049 19.9542V28.3331H72.0826V17.7667H74.7291L74.9049 19.9542ZM74.5143 22.6788H73.733C73.733 21.9431 73.8209 21.266 73.9967 20.6475C74.179 20.0225 74.4427 19.4822 74.7877 19.0264C75.1393 18.5642 75.5722 18.2061 76.0865 17.9522C76.6009 17.6983 77.1966 17.5714 77.8737 17.5714C78.3424 17.5714 78.7721 17.643 79.1627 17.7862C79.5533 17.9229 79.8886 18.141 80.1686 18.4405C80.455 18.7335 80.6764 19.1176 80.8326 19.5928C80.9889 20.0616 81.067 20.6247 81.067 21.2823V28.3331H78.2545V21.5948C78.2545 21.113 78.1894 20.7419 78.0592 20.4815C77.929 20.2211 77.7434 20.0388 77.5026 19.9346C77.2682 19.8305 76.985 19.7784 76.653 19.7784C76.2884 19.7784 75.9694 19.8533 75.6959 20.003C75.429 20.1527 75.2076 20.3611 75.0319 20.628C74.8561 20.8884 74.7259 21.1944 74.6412 21.546C74.5566 21.8975 74.5143 22.2751 74.5143 22.6788ZM80.8033 22.3565L79.7975 22.4835C79.7975 21.7934 79.8821 21.1521 80.0514 20.5596C80.2272 19.9672 80.4843 19.4464 80.8229 18.9971C81.1679 18.5479 81.5944 18.1996 82.1022 17.9522C82.61 17.6983 83.1959 17.5714 83.86 17.5714C84.3678 17.5714 84.83 17.6462 85.2467 17.796C85.6634 17.9392 86.0182 18.1703 86.3112 18.4893C86.6106 18.8018 86.8385 19.212 86.9948 19.7198C87.1575 20.2276 87.2389 20.8493 87.2389 21.585V28.3331H84.4166V21.585C84.4166 21.0967 84.3515 20.7256 84.2213 20.4717C84.0976 20.2113 83.9153 20.0323 83.6744 19.9346C83.4401 19.8305 83.1601 19.7784 82.8346 19.7784C82.4961 19.7784 82.1998 19.8467 81.9459 19.9835C81.692 20.1137 81.4804 20.296 81.3112 20.5303C81.1419 20.7647 81.0149 21.0381 80.9303 21.3506C80.8457 21.6566 80.8033 21.9919 80.8033 22.3565ZM92.2291 19.9542V28.3331H89.4069V17.7667H92.0533L92.2291 19.9542ZM91.8385 22.6788H91.0573C91.0573 21.9431 91.1451 21.266 91.3209 20.6475C91.5032 20.0225 91.7669 19.4822 92.1119 19.0264C92.4635 18.5642 92.8964 18.2061 93.4108 17.9522C93.9251 17.6983 94.5208 17.5714 95.1979 17.5714C95.6666 17.5714 96.0963 17.643 96.4869 17.7862C96.8776 17.9229 97.2128 18.141 97.4928 18.4405C97.7793 18.7335 98.0006 19.1176 98.1569 19.5928C98.3131 20.0616 98.3912 20.6247 98.3912 21.2823V28.3331H95.5787V21.5948C95.5787 21.113 95.5136 20.7419 95.3834 20.4815C95.2532 20.2211 95.0677 20.0388 94.8268 19.9346C94.5924 19.8305 94.3092 19.7784 93.9772 19.7784C93.6126 19.7784 93.2936 19.8533 93.0201 20.003C92.7532 20.1527 92.5319 20.3611 92.3561 20.628C92.1803 20.8884 92.0501 21.1944 91.9655 21.546C91.8808 21.8975 91.8385 22.2751 91.8385 22.6788ZM98.1276 22.3565L97.1217 22.4835C97.1217 21.7934 97.2063 21.1521 97.3756 20.5596C97.5514 19.9672 97.8086 19.4464 98.1471 18.9971C98.4921 18.5479 98.9186 18.1996 99.4264 17.9522C99.9342 17.6983 100.52 17.5714 101.184 17.5714C101.692 17.5714 102.154 17.6462 102.571 17.796C102.988 17.9392 103.342 18.1703 103.635 18.4893C103.935 18.8018 104.163 19.212 104.319 19.7198C104.482 20.2276 104.563 20.8493 104.563 21.585V28.3331H101.741V21.585C101.741 21.0967 101.676 20.7256 101.546 20.4717C101.422 20.2113 101.24 20.0323 100.999 19.9346C100.764 19.8305 100.484 19.7784 100.159 19.7784C99.8203 19.7784 99.524 19.8467 99.2701 19.9835C99.0162 20.1137 98.8046 20.296 98.6354 20.5303C98.4661 20.7647 98.3392 21.0381 98.2545 21.3506C98.1699 21.6566 98.1276 21.9919 98.1276 22.3565ZM112.991 25.8038V17.7667H115.803V28.3331H113.157L112.991 25.8038ZM113.303 23.6358L114.133 23.6163C114.133 24.3194 114.052 24.9737 113.889 25.5792C113.727 26.1781 113.482 26.699 113.157 27.1417C112.831 27.5779 112.421 27.9197 111.926 28.1671C111.432 28.4079 110.849 28.5284 110.178 28.5284C109.664 28.5284 109.189 28.4568 108.753 28.3135C108.323 28.1638 107.952 27.9327 107.639 27.6202C107.333 27.3012 107.092 26.8943 106.917 26.3995C106.747 25.8982 106.663 25.296 106.663 24.5928V17.7667H109.475V24.6124C109.475 24.9249 109.511 25.1885 109.583 25.4034C109.661 25.6182 109.768 25.794 109.905 25.9307C110.042 26.0674 110.201 26.1651 110.383 26.2237C110.572 26.2823 110.781 26.3116 111.008 26.3116C111.588 26.3116 112.044 26.1944 112.376 25.96C112.714 25.7256 112.952 25.4066 113.089 25.003C113.232 24.5928 113.303 24.1371 113.303 23.6358ZM120.706 20.0225V28.3331H117.893V17.7667H120.53L120.706 20.0225ZM120.296 22.6788H119.534C119.534 21.8975 119.635 21.1944 119.837 20.5694C120.038 19.9379 120.322 19.4008 120.686 18.9581C121.051 18.5089 121.484 18.1671 121.985 17.9327C122.493 17.6918 123.059 17.5714 123.684 17.5714C124.179 17.5714 124.631 17.643 125.042 17.7862C125.452 17.9294 125.803 18.1573 126.096 18.4698C126.396 18.7823 126.624 19.1957 126.78 19.71C126.943 20.2243 127.024 20.8526 127.024 21.5948V28.3331H124.192V21.585C124.192 21.1163 124.127 20.7517 123.997 20.4913C123.866 20.2309 123.674 20.0486 123.421 19.9444C123.173 19.8337 122.867 19.7784 122.503 19.7784C122.125 19.7784 121.796 19.8533 121.516 20.003C121.243 20.1527 121.015 20.3611 120.833 20.628C120.657 20.8884 120.523 21.1944 120.432 21.546C120.341 21.8975 120.296 22.2751 120.296 22.6788ZM132.131 17.7667V28.3331H129.309V17.7667H132.131ZM129.133 15.0128C129.133 14.6026 129.277 14.2641 129.563 13.9971C129.85 13.7302 130.234 13.5967 130.715 13.5967C131.191 13.5967 131.572 13.7302 131.858 13.9971C132.151 14.2641 132.297 14.6026 132.297 15.0128C132.297 15.4229 132.151 15.7615 131.858 16.0284C131.572 16.2953 131.191 16.4288 130.715 16.4288C130.234 16.4288 129.85 16.2953 129.563 16.0284C129.277 15.7615 129.133 15.4229 129.133 15.0128ZM139.631 17.7667V19.7589H133.479V17.7667H139.631ZM135.003 15.1592H137.815V25.1495C137.815 25.4555 137.854 25.6898 137.932 25.8526C138.017 26.0154 138.141 26.1293 138.303 26.1944C138.466 26.253 138.671 26.2823 138.919 26.2823C139.094 26.2823 139.251 26.2758 139.387 26.2628C139.531 26.2432 139.651 26.2237 139.749 26.2042L139.758 28.2745C139.518 28.3526 139.257 28.4144 138.977 28.46C138.697 28.5056 138.388 28.5284 138.049 28.5284C137.431 28.5284 136.891 28.4275 136.428 28.2256C135.973 28.0173 135.621 27.6853 135.374 27.2296C135.126 26.7738 135.003 26.1749 135.003 25.4327V15.1592ZM144.368 27.1417L147.171 17.7667H150.188L145.94 29.9249C145.849 30.1918 145.725 30.4783 145.569 30.7842C145.419 31.0902 145.214 31.3799 144.954 31.6534C144.7 31.9333 144.378 32.1612 143.987 32.337C143.603 32.5128 143.131 32.6006 142.571 32.6006C142.304 32.6006 142.086 32.5844 141.917 32.5518C141.747 32.5193 141.546 32.4737 141.311 32.4151V30.3546C141.383 30.3546 141.458 30.3546 141.536 30.3546C141.614 30.3611 141.689 30.3643 141.76 30.3643C142.131 30.3643 142.434 30.322 142.669 30.2374C142.903 30.1527 143.092 30.0225 143.235 29.8467C143.378 29.6775 143.492 29.4561 143.577 29.1827L144.368 27.1417ZM143.196 17.7667L145.491 25.4229L145.891 28.4014L143.977 28.6065L140.178 17.7667H143.196ZM165.881 26.7999V28.3331H158.352V26.7999H165.881ZM158.733 14.1143V28.3331H156.848V14.1143H158.733ZM164.885 20.2276V21.7608H158.352V20.2276H164.885ZM165.784 14.1143V15.6573H158.352V14.1143H165.784ZM174.407 26.2823V13.3331H176.223V28.3331H174.563L174.407 26.2823ZM167.297 23.1671V22.962C167.297 22.1547 167.395 21.4223 167.59 20.7647C167.792 20.1006 168.075 19.531 168.44 19.0557C168.811 18.5805 169.251 18.2159 169.758 17.962C170.273 17.7016 170.846 17.5714 171.477 17.5714C172.141 17.5714 172.721 17.6885 173.215 17.9229C173.717 18.1508 174.14 18.4861 174.485 18.9288C174.837 19.365 175.113 19.8923 175.315 20.5108C175.517 21.1293 175.657 21.8292 175.735 22.6104V23.5089C175.663 24.2836 175.523 24.9802 175.315 25.5987C175.113 26.2172 174.837 26.7445 174.485 27.1807C174.14 27.6169 173.717 27.9522 173.215 28.1866C172.714 28.4144 172.128 28.5284 171.458 28.5284C170.839 28.5284 170.273 28.3949 169.758 28.128C169.251 27.8611 168.811 27.4867 168.44 27.0049C168.075 26.5232 167.792 25.9568 167.59 25.3057C167.395 24.6482 167.297 23.9353 167.297 23.1671ZM169.114 22.962V23.1671C169.114 23.6944 169.166 24.1892 169.27 24.6514C169.381 25.1137 169.55 25.5206 169.778 25.8721C170.006 26.2237 170.296 26.5004 170.647 26.7022C170.999 26.8975 171.419 26.9952 171.907 26.9952C172.506 26.9952 172.997 26.8682 173.381 26.6143C173.772 26.3604 174.085 26.0251 174.319 25.6085C174.553 25.1918 174.736 24.7393 174.866 24.251V21.8975C174.788 21.5394 174.674 21.1944 174.524 20.8624C174.381 20.5238 174.192 20.2243 173.958 19.9639C173.73 19.697 173.447 19.4854 173.108 19.3292C172.776 19.1729 172.382 19.0948 171.926 19.0948C171.432 19.0948 171.005 19.199 170.647 19.4073C170.296 19.6091 170.006 19.8891 169.778 20.2471C169.55 20.5987 169.381 21.0089 169.27 21.4776C169.166 21.9398 169.114 22.4346 169.114 22.962ZM180.999 17.7667V28.3331H179.182V17.7667H180.999ZM179.046 14.9639C179.046 14.671 179.133 14.4236 179.309 14.2217C179.491 14.0199 179.758 13.919 180.11 13.919C180.455 13.919 180.719 14.0199 180.901 14.2217C181.09 14.4236 181.184 14.671 181.184 14.9639C181.184 15.2439 181.09 15.4848 180.901 15.6866C180.719 15.8819 180.455 15.9796 180.11 15.9796C179.758 15.9796 179.491 15.8819 179.309 15.6866C179.133 15.4848 179.046 15.2439 179.046 14.9639ZM188.323 17.7667V19.1534H182.61V17.7667H188.323ZM184.544 15.1983H186.35V25.7159C186.35 26.074 186.406 26.3441 186.516 26.5264C186.627 26.7087 186.77 26.8292 186.946 26.8878C187.122 26.9464 187.311 26.9756 187.512 26.9756C187.662 26.9756 187.818 26.9626 187.981 26.9366C188.15 26.904 188.277 26.878 188.362 26.8585L188.372 28.3331C188.228 28.3786 188.04 28.421 187.805 28.46C187.577 28.5056 187.301 28.5284 186.975 28.5284C186.533 28.5284 186.126 28.4405 185.755 28.2647C185.383 28.0889 185.087 27.796 184.866 27.3858C184.651 26.9691 184.544 26.4092 184.544 25.7061V15.1983ZM192.405 17.7667V28.3331H190.589V17.7667H192.405ZM190.452 14.9639C190.452 14.671 190.54 14.4236 190.715 14.2217C190.898 14.0199 191.165 13.919 191.516 13.919C191.861 13.919 192.125 14.0199 192.307 14.2217C192.496 14.4236 192.59 14.671 192.59 14.9639C192.59 15.2439 192.496 15.4848 192.307 15.6866C192.125 15.8819 191.861 15.9796 191.516 15.9796C191.165 15.9796 190.898 15.8819 190.715 15.6866C190.54 15.4848 190.452 15.2439 190.452 14.9639ZM194.827 23.1671V22.9424C194.827 22.1807 194.937 21.4743 195.159 20.8233C195.38 20.1658 195.699 19.5961 196.116 19.1143C196.533 18.626 197.037 18.2484 197.63 17.9815C198.222 17.7081 198.886 17.5714 199.622 17.5714C200.364 17.5714 201.031 17.7081 201.624 17.9815C202.223 18.2484 202.73 18.626 203.147 19.1143C203.57 19.5961 203.893 20.1658 204.114 20.8233C204.335 21.4743 204.446 22.1807 204.446 22.9424V23.1671C204.446 23.9288 204.335 24.6352 204.114 25.2862C203.893 25.9372 203.57 26.5069 203.147 26.9952C202.73 27.4769 202.226 27.8546 201.633 28.128C201.047 28.3949 200.383 28.5284 199.641 28.5284C198.899 28.5284 198.232 28.3949 197.639 28.128C197.047 27.8546 196.539 27.4769 196.116 26.9952C195.699 26.5069 195.38 25.9372 195.159 25.2862C194.937 24.6352 194.827 23.9288 194.827 23.1671ZM196.633 22.9424V23.1671C196.633 23.6944 196.695 24.1924 196.819 24.6612C196.943 25.1234 197.128 25.5336 197.376 25.8917C197.63 26.2497 197.945 26.5329 198.323 26.7413C198.7 26.9431 199.14 27.044 199.641 27.044C200.136 27.044 200.569 26.9431 200.94 26.7413C201.318 26.5329 201.63 26.2497 201.878 25.8917C202.125 25.5336 202.311 25.1234 202.434 24.6612C202.564 24.1924 202.63 23.6944 202.63 23.1671V22.9424C202.63 22.4216 202.564 21.9301 202.434 21.4678C202.311 20.9991 202.122 20.5857 201.868 20.2276C201.62 19.863 201.308 19.5766 200.93 19.3682C200.559 19.1599 200.123 19.0557 199.622 19.0557C199.127 19.0557 198.691 19.1599 198.313 19.3682C197.942 19.5766 197.63 19.863 197.376 20.2276C197.128 20.5857 196.943 20.9991 196.819 21.4678C196.695 21.9301 196.633 22.4216 196.633 22.9424ZM208.518 20.0225V28.3331H206.712V17.7667H208.421L208.518 20.0225ZM208.089 22.6495L207.337 22.6202C207.343 21.8975 207.45 21.2302 207.659 20.6182C207.867 19.9997 208.16 19.4626 208.538 19.0069C208.915 18.5512 209.365 18.1996 209.885 17.9522C210.413 17.6983 210.995 17.5714 211.633 17.5714C212.154 17.5714 212.623 17.643 213.04 17.7862C213.456 17.9229 213.811 18.1443 214.104 18.4503C214.404 18.7562 214.631 19.1534 214.788 19.6417C214.944 20.1234 215.022 20.7126 215.022 21.4092V28.3331H213.206V21.3897C213.206 20.8363 213.124 20.3936 212.962 20.0616C212.799 19.723 212.561 19.4789 212.249 19.3292C211.936 19.1729 211.552 19.0948 211.096 19.0948C210.647 19.0948 210.237 19.1892 209.866 19.378C209.501 19.5668 209.186 19.8272 208.919 20.1592C208.658 20.4913 208.453 20.8721 208.303 21.3018C208.16 21.725 208.089 22.1742 208.089 22.6495Z" fill="white"/>
</svg>
