<svg width="194" height="36" viewBox="0 0 194 36" fill="none" xmlns="http://www.w3.org/2000/svg">
<rect width="194" height="36" rx="8" fill="#D63C30"/>
<path d="M21.5117 20.2832H24.4316C24.373 21.2402 24.1094 22.0898 23.6406 22.832C23.1784 23.5742 22.5306 24.1536 21.6973 24.5703C20.8704 24.987 19.8743 25.1953 18.709 25.1953C17.7975 25.1953 16.9805 25.0391 16.2578 24.7266C15.5352 24.4076 14.9167 23.9518 14.4023 23.3594C13.8945 22.7669 13.5072 22.0508 13.2402 21.2109C12.9733 20.3711 12.8398 19.4303 12.8398 18.3887V17.4023C12.8398 16.3607 12.9766 15.4199 13.25 14.5801C13.5299 13.7337 13.9271 13.0143 14.4414 12.4219C14.9622 11.8294 15.584 11.3737 16.3066 11.0547C17.0293 10.7357 17.8366 10.5762 18.7285 10.5762C19.9134 10.5762 20.9128 10.791 21.7266 11.2207C22.5469 11.6504 23.1816 12.2428 23.6309 12.998C24.0866 13.7533 24.36 14.6126 24.4512 15.5762H21.5215C21.4889 15.0033 21.375 14.5182 21.1797 14.1211C20.9844 13.7174 20.6882 13.4147 20.291 13.2129C19.9004 13.0046 19.3796 12.9004 18.7285 12.9004C18.2402 12.9004 17.8138 12.9915 17.4492 13.1738C17.0846 13.3561 16.7786 13.6328 16.5312 14.0039C16.2839 14.375 16.0983 14.8438 15.9746 15.4102C15.8574 15.9701 15.7988 16.6276 15.7988 17.3828V18.3887C15.7988 19.1243 15.8542 19.7721 15.9648 20.332C16.0755 20.8854 16.2448 21.3542 16.4727 21.7383C16.707 22.1159 17.0065 22.4023 17.3711 22.5977C17.7422 22.7865 18.1882 22.8809 18.709 22.8809C19.321 22.8809 19.8255 22.7832 20.2227 22.5879C20.6198 22.3926 20.9225 22.1029 21.1309 21.7188C21.3457 21.3346 21.4727 20.8561 21.5117 20.2832ZM25.7305 19.8242V19.6191C25.7305 18.8444 25.8411 18.1315 26.0625 17.4805C26.2839 16.8229 26.6061 16.2533 27.0293 15.7715C27.4525 15.2897 27.9733 14.9154 28.5918 14.6484C29.2103 14.375 29.9199 14.2383 30.7207 14.2383C31.5215 14.2383 32.2344 14.375 32.8594 14.6484C33.4844 14.9154 34.0085 15.2897 34.4316 15.7715C34.8613 16.2533 35.1868 16.8229 35.4082 17.4805C35.6296 18.1315 35.7402 18.8444 35.7402 19.6191V19.8242C35.7402 20.5924 35.6296 21.3053 35.4082 21.9629C35.1868 22.6139 34.8613 23.1836 34.4316 23.6719C34.0085 24.1536 33.4876 24.528 32.8691 24.7949C32.2507 25.0618 31.541 25.1953 30.7402 25.1953C29.9395 25.1953 29.2266 25.0618 28.6016 24.7949C27.9831 24.528 27.459 24.1536 27.0293 23.6719C26.6061 23.1836 26.2839 22.6139 26.0625 21.9629C25.8411 21.3053 25.7305 20.5924 25.7305 19.8242ZM28.543 19.6191V19.8242C28.543 20.2669 28.582 20.6803 28.6602 21.0645C28.7383 21.4486 28.862 21.7871 29.0312 22.0801C29.207 22.3665 29.4349 22.5911 29.7148 22.7539C29.9948 22.9167 30.3366 22.998 30.7402 22.998C31.1309 22.998 31.4661 22.9167 31.7461 22.7539C32.026 22.5911 32.2507 22.3665 32.4199 22.0801C32.5892 21.7871 32.7129 21.4486 32.791 21.0645C32.8757 20.6803 32.918 20.2669 32.918 19.8242V19.6191C32.918 19.1895 32.8757 18.7858 32.791 18.4082C32.7129 18.0241 32.5859 17.6855 32.4102 17.3926C32.2409 17.0931 32.0163 16.8587 31.7363 16.6895C31.4564 16.5202 31.1178 16.4355 30.7207 16.4355C30.3236 16.4355 29.985 16.5202 29.7051 16.6895C29.4316 16.8587 29.207 17.0931 29.0312 17.3926C28.862 17.6855 28.7383 18.0241 28.6602 18.4082C28.582 18.7858 28.543 19.1895 28.543 19.6191ZM40.2812 16.6211V25H37.459V14.4336H40.1055L40.2812 16.6211ZM39.8906 19.3457H39.1094C39.1094 18.61 39.1973 17.9329 39.373 17.3145C39.5553 16.6895 39.819 16.1491 40.1641 15.6934C40.5156 15.2311 40.9486 14.873 41.4629 14.6191C41.9772 14.3652 42.5729 14.2383 43.25 14.2383C43.7188 14.2383 44.1484 14.3099 44.5391 14.4531C44.9297 14.5898 45.265 14.8079 45.5449 15.1074C45.8314 15.4004 46.0527 15.7845 46.209 16.2598C46.3652 16.7285 46.4434 17.2917 46.4434 17.9492V25H43.6309V18.2617C43.6309 17.7799 43.5658 17.4089 43.4355 17.1484C43.3053 16.888 43.1198 16.7057 42.8789 16.6016C42.6445 16.4974 42.3613 16.4453 42.0293 16.4453C41.6647 16.4453 41.3457 16.5202 41.0723 16.6699C40.8053 16.8197 40.584 17.028 40.4082 17.2949C40.2324 17.5553 40.1022 17.8613 40.0176 18.2129C39.9329 18.5645 39.8906 18.9421 39.8906 19.3457ZM46.1797 19.0234L45.1738 19.1504C45.1738 18.4603 45.2585 17.819 45.4277 17.2266C45.6035 16.6341 45.8607 16.1133 46.1992 15.6641C46.5443 15.2148 46.9707 14.8665 47.4785 14.6191C47.9863 14.3652 48.5723 14.2383 49.2363 14.2383C49.7441 14.2383 50.2064 14.3132 50.623 14.4629C51.0397 14.6061 51.3945 14.8372 51.6875 15.1562C51.987 15.4688 52.2148 15.8789 52.3711 16.3867C52.5339 16.8945 52.6152 17.5163 52.6152 18.252V25H49.793V18.252C49.793 17.7637 49.7279 17.3926 49.5977 17.1387C49.474 16.8783 49.2917 16.6992 49.0508 16.6016C48.8164 16.4974 48.5365 16.4453 48.2109 16.4453C47.8724 16.4453 47.5762 16.5137 47.3223 16.6504C47.0684 16.7806 46.8568 16.9629 46.6875 17.1973C46.5182 17.4316 46.3913 17.7051 46.3066 18.0176C46.222 18.3236 46.1797 18.6589 46.1797 19.0234ZM57.6055 16.6211V25H54.7832V14.4336H57.4297L57.6055 16.6211ZM57.2148 19.3457H56.4336C56.4336 18.61 56.5215 17.9329 56.6973 17.3145C56.8796 16.6895 57.1432 16.1491 57.4883 15.6934C57.8398 15.2311 58.2728 14.873 58.7871 14.6191C59.3014 14.3652 59.8971 14.2383 60.5742 14.2383C61.043 14.2383 61.4727 14.3099 61.8633 14.4531C62.2539 14.5898 62.5892 14.8079 62.8691 15.1074C63.1556 15.4004 63.377 15.7845 63.5332 16.2598C63.6895 16.7285 63.7676 17.2917 63.7676 17.9492V25H60.9551V18.2617C60.9551 17.7799 60.89 17.4089 60.7598 17.1484C60.6296 16.888 60.444 16.7057 60.2031 16.6016C59.9688 16.4974 59.6855 16.4453 59.3535 16.4453C58.9889 16.4453 58.6699 16.5202 58.3965 16.6699C58.1296 16.8197 57.9082 17.028 57.7324 17.2949C57.5566 17.5553 57.4264 17.8613 57.3418 18.2129C57.2572 18.5645 57.2148 18.9421 57.2148 19.3457ZM63.5039 19.0234L62.498 19.1504C62.498 18.4603 62.5827 17.819 62.752 17.2266C62.9277 16.6341 63.1849 16.1133 63.5234 15.6641C63.8685 15.2148 64.2949 14.8665 64.8027 14.6191C65.3105 14.3652 65.8965 14.2383 66.5605 14.2383C67.0684 14.2383 67.5306 14.3132 67.9473 14.4629C68.3639 14.6061 68.7188 14.8372 69.0117 15.1562C69.3112 15.4688 69.5391 15.8789 69.6953 16.3867C69.8581 16.8945 69.9395 17.5163 69.9395 18.252V25H67.1172V18.252C67.1172 17.7637 67.0521 17.3926 66.9219 17.1387C66.7982 16.8783 66.6159 16.6992 66.375 16.6016C66.1406 16.4974 65.8607 16.4453 65.5352 16.4453C65.1966 16.4453 64.9004 16.5137 64.6465 16.6504C64.3926 16.7806 64.181 16.9629 64.0117 17.1973C63.8424 17.4316 63.7155 17.7051 63.6309 18.0176C63.5462 18.3236 63.5039 18.6589 63.5039 19.0234ZM78.3672 22.4707V14.4336H81.1797V25H78.5332L78.3672 22.4707ZM78.6797 20.3027L79.5098 20.2832C79.5098 20.9863 79.4284 21.6406 79.2656 22.2461C79.1029 22.8451 78.8587 23.3659 78.5332 23.8086C78.2077 24.2448 77.7975 24.5866 77.3027 24.834C76.8079 25.0749 76.2253 25.1953 75.5547 25.1953C75.0404 25.1953 74.5651 25.1237 74.1289 24.9805C73.6992 24.8307 73.3281 24.5996 73.0156 24.2871C72.7096 23.9681 72.4688 23.5612 72.293 23.0664C72.1237 22.5651 72.0391 21.9629 72.0391 21.2598V14.4336H74.8516V21.2793C74.8516 21.5918 74.8874 21.8555 74.959 22.0703C75.0371 22.2852 75.1445 22.4609 75.2812 22.5977C75.418 22.7344 75.5775 22.832 75.7598 22.8906C75.9486 22.9492 76.1569 22.9785 76.3848 22.9785C76.9642 22.9785 77.4199 22.8613 77.752 22.627C78.0905 22.3926 78.3281 22.0736 78.4648 21.6699C78.6081 21.2598 78.6797 20.804 78.6797 20.3027ZM86.082 16.6895V25H83.2695V14.4336H85.9062L86.082 16.6895ZM85.6719 19.3457H84.9102C84.9102 18.5645 85.0111 17.8613 85.2129 17.2363C85.4147 16.6048 85.6979 16.0677 86.0625 15.625C86.4271 15.1758 86.86 14.834 87.3613 14.5996C87.8691 14.3587 88.4355 14.2383 89.0605 14.2383C89.5553 14.2383 90.0078 14.3099 90.418 14.4531C90.8281 14.5964 91.1797 14.8242 91.4727 15.1367C91.7721 15.4492 92 15.8626 92.1562 16.377C92.319 16.8913 92.4004 17.5195 92.4004 18.2617V25H89.5684V18.252C89.5684 17.7832 89.5033 17.4186 89.373 17.1582C89.2428 16.8978 89.0508 16.7155 88.7969 16.6113C88.5495 16.5007 88.2435 16.4453 87.8789 16.4453C87.5013 16.4453 87.1725 16.5202 86.8926 16.6699C86.6191 16.8197 86.3913 17.028 86.209 17.2949C86.0332 17.5553 85.8997 17.8613 85.8086 18.2129C85.7174 18.5645 85.6719 18.9421 85.6719 19.3457ZM97.5078 14.4336V25H94.6855V14.4336H97.5078ZM94.5098 11.6797C94.5098 11.2695 94.653 10.931 94.9395 10.6641C95.2259 10.3971 95.61 10.2637 96.0918 10.2637C96.5671 10.2637 96.9479 10.3971 97.2344 10.6641C97.5273 10.931 97.6738 11.2695 97.6738 11.6797C97.6738 12.0898 97.5273 12.4284 97.2344 12.6953C96.9479 12.9622 96.5671 13.0957 96.0918 13.0957C95.61 13.0957 95.2259 12.9622 94.9395 12.6953C94.653 12.4284 94.5098 12.0898 94.5098 11.6797ZM105.008 14.4336V16.4258H98.8555V14.4336H105.008ZM100.379 11.8262H103.191V21.8164C103.191 22.1224 103.23 22.3568 103.309 22.5195C103.393 22.6823 103.517 22.7962 103.68 22.8613C103.842 22.9199 104.048 22.9492 104.295 22.9492C104.471 22.9492 104.627 22.9427 104.764 22.9297C104.907 22.9102 105.027 22.8906 105.125 22.8711L105.135 24.9414C104.894 25.0195 104.633 25.0814 104.354 25.127C104.074 25.1725 103.764 25.1953 103.426 25.1953C102.807 25.1953 102.267 25.0944 101.805 24.8926C101.349 24.6842 100.997 24.3522 100.75 23.8965C100.503 23.4408 100.379 22.8418 100.379 22.0996V11.8262ZM109.744 23.8086L112.547 14.4336H115.564L111.316 26.5918C111.225 26.8587 111.102 27.1452 110.945 27.4512C110.796 27.7572 110.59 28.0469 110.33 28.3203C110.076 28.6003 109.754 28.8281 109.363 29.0039C108.979 29.1797 108.507 29.2676 107.947 29.2676C107.68 29.2676 107.462 29.2513 107.293 29.2188C107.124 29.1862 106.922 29.1406 106.688 29.082V27.0215C106.759 27.0215 106.834 27.0215 106.912 27.0215C106.99 27.028 107.065 27.0312 107.137 27.0312C107.508 27.0312 107.811 26.9889 108.045 26.9043C108.279 26.8197 108.468 26.6895 108.611 26.5137C108.755 26.3444 108.868 26.123 108.953 25.8496L109.744 23.8086ZM108.572 14.4336L110.867 22.0898L111.268 25.0684L109.354 25.2734L105.555 14.4336H108.572ZM131.258 23.4668V25H123.729V23.4668H131.258ZM124.109 10.7812V25H122.225V10.7812H124.109ZM130.262 16.8945V18.4277H123.729V16.8945H130.262ZM131.16 10.7812V12.3242H123.729V10.7812H131.16ZM139.783 22.9492V10H141.6V25H139.939L139.783 22.9492ZM132.674 19.834V19.6289C132.674 18.8216 132.771 18.0892 132.967 17.4316C133.169 16.7676 133.452 16.1979 133.816 15.7227C134.188 15.2474 134.627 14.8828 135.135 14.6289C135.649 14.3685 136.222 14.2383 136.854 14.2383C137.518 14.2383 138.097 14.3555 138.592 14.5898C139.093 14.8177 139.516 15.153 139.861 15.5957C140.213 16.0319 140.49 16.5592 140.691 17.1777C140.893 17.7962 141.033 18.4961 141.111 19.2773V20.1758C141.04 20.9505 140.9 21.6471 140.691 22.2656C140.49 22.8841 140.213 23.4115 139.861 23.8477C139.516 24.2839 139.093 24.6191 138.592 24.8535C138.09 25.0814 137.505 25.1953 136.834 25.1953C136.215 25.1953 135.649 25.0618 135.135 24.7949C134.627 24.528 134.188 24.1536 133.816 23.6719C133.452 23.1901 133.169 22.6237 132.967 21.9727C132.771 21.3151 132.674 20.6022 132.674 19.834ZM134.49 19.6289V19.834C134.49 20.3613 134.542 20.8561 134.646 21.3184C134.757 21.7806 134.926 22.1875 135.154 22.5391C135.382 22.8906 135.672 23.1673 136.023 23.3691C136.375 23.5645 136.795 23.6621 137.283 23.6621C137.882 23.6621 138.374 23.5352 138.758 23.2812C139.148 23.0273 139.461 22.6921 139.695 22.2754C139.93 21.8587 140.112 21.4062 140.242 20.918V18.5645C140.164 18.2064 140.05 17.8613 139.9 17.5293C139.757 17.1908 139.568 16.8913 139.334 16.6309C139.106 16.3639 138.823 16.1523 138.484 15.9961C138.152 15.8398 137.758 15.7617 137.303 15.7617C136.808 15.7617 136.382 15.8659 136.023 16.0742C135.672 16.276 135.382 16.556 135.154 16.9141C134.926 17.2656 134.757 17.6758 134.646 18.1445C134.542 18.6068 134.49 19.1016 134.49 19.6289ZM146.375 14.4336V25H144.559V14.4336H146.375ZM144.422 11.6309C144.422 11.3379 144.51 11.0905 144.686 10.8887C144.868 10.6868 145.135 10.5859 145.486 10.5859C145.831 10.5859 146.095 10.6868 146.277 10.8887C146.466 11.0905 146.561 11.3379 146.561 11.6309C146.561 11.9108 146.466 12.1517 146.277 12.3535C146.095 12.5488 145.831 12.6465 145.486 12.6465C145.135 12.6465 144.868 12.5488 144.686 12.3535C144.51 12.1517 144.422 11.9108 144.422 11.6309ZM153.699 14.4336V15.8203H147.986V14.4336H153.699ZM149.92 11.8652H151.727V22.3828C151.727 22.7409 151.782 23.0111 151.893 23.1934C152.003 23.3757 152.146 23.4961 152.322 23.5547C152.498 23.6133 152.687 23.6426 152.889 23.6426C153.038 23.6426 153.195 23.6296 153.357 23.6035C153.527 23.571 153.654 23.5449 153.738 23.5254L153.748 25C153.605 25.0456 153.416 25.0879 153.182 25.127C152.954 25.1725 152.677 25.1953 152.352 25.1953C151.909 25.1953 151.502 25.1074 151.131 24.9316C150.76 24.7559 150.464 24.4629 150.242 24.0527C150.027 23.6361 149.92 23.0762 149.92 22.373V11.8652ZM157.781 14.4336V25H155.965V14.4336H157.781ZM155.828 11.6309C155.828 11.3379 155.916 11.0905 156.092 10.8887C156.274 10.6868 156.541 10.5859 156.893 10.5859C157.238 10.5859 157.501 10.6868 157.684 10.8887C157.872 11.0905 157.967 11.3379 157.967 11.6309C157.967 11.9108 157.872 12.1517 157.684 12.3535C157.501 12.5488 157.238 12.6465 156.893 12.6465C156.541 12.6465 156.274 12.5488 156.092 12.3535C155.916 12.1517 155.828 11.9108 155.828 11.6309ZM160.203 19.834V19.6094C160.203 18.8477 160.314 18.1413 160.535 17.4902C160.757 16.8327 161.076 16.263 161.492 15.7812C161.909 15.293 162.413 14.9154 163.006 14.6484C163.598 14.375 164.262 14.2383 164.998 14.2383C165.74 14.2383 166.408 14.375 167 14.6484C167.599 14.9154 168.107 15.293 168.523 15.7812C168.947 16.263 169.269 16.8327 169.49 17.4902C169.712 18.1413 169.822 18.8477 169.822 19.6094V19.834C169.822 20.5957 169.712 21.3021 169.49 21.9531C169.269 22.6042 168.947 23.1738 168.523 23.6621C168.107 24.1439 167.602 24.5215 167.01 24.7949C166.424 25.0618 165.76 25.1953 165.018 25.1953C164.275 25.1953 163.608 25.0618 163.016 24.7949C162.423 24.5215 161.915 24.1439 161.492 23.6621C161.076 23.1738 160.757 22.6042 160.535 21.9531C160.314 21.3021 160.203 20.5957 160.203 19.834ZM162.01 19.6094V19.834C162.01 20.3613 162.072 20.8594 162.195 21.3281C162.319 21.7904 162.505 22.2005 162.752 22.5586C163.006 22.9167 163.322 23.1999 163.699 23.4082C164.077 23.61 164.516 23.7109 165.018 23.7109C165.512 23.7109 165.945 23.61 166.316 23.4082C166.694 23.1999 167.007 22.9167 167.254 22.5586C167.501 22.2005 167.687 21.7904 167.811 21.3281C167.941 20.8594 168.006 20.3613 168.006 19.834V19.6094C168.006 19.0885 167.941 18.597 167.811 18.1348C167.687 17.666 167.498 17.2526 167.244 16.8945C166.997 16.5299 166.684 16.2435 166.307 16.0352C165.936 15.8268 165.499 15.7227 164.998 15.7227C164.503 15.7227 164.067 15.8268 163.689 16.0352C163.318 16.2435 163.006 16.5299 162.752 16.8945C162.505 17.2526 162.319 17.666 162.195 18.1348C162.072 18.597 162.01 19.0885 162.01 19.6094ZM173.895 16.6895V25H172.088V14.4336H173.797L173.895 16.6895ZM173.465 19.3164L172.713 19.2871C172.719 18.5645 172.827 17.8971 173.035 17.2852C173.243 16.6667 173.536 16.1296 173.914 15.6738C174.292 15.2181 174.741 14.8665 175.262 14.6191C175.789 14.3652 176.372 14.2383 177.01 14.2383C177.531 14.2383 177.999 14.3099 178.416 14.4531C178.833 14.5898 179.188 14.8112 179.48 15.1172C179.78 15.4232 180.008 15.8203 180.164 16.3086C180.32 16.7904 180.398 17.3796 180.398 18.0762V25H178.582V18.0566C178.582 17.5033 178.501 17.0605 178.338 16.7285C178.175 16.39 177.938 16.1458 177.625 15.9961C177.312 15.8398 176.928 15.7617 176.473 15.7617C176.023 15.7617 175.613 15.8561 175.242 16.0449C174.878 16.2337 174.562 16.4941 174.295 16.8262C174.035 17.1582 173.829 17.5391 173.68 17.9688C173.536 18.3919 173.465 18.8411 173.465 19.3164Z" fill="white"/>
</svg>
