<svg width="474" height="46" viewBox="0 0 474 46" fill="none" xmlns="http://www.w3.org/2000/svg">
<rect x="245" width="228.624" height="46" rx="8" fill="#D63C30"/>
<path d="M277.349 21.3699C276.97 21.7512 276.68 22.2114 276.499 22.7176C276.318 23.2239 276.251 23.7638 276.303 24.2989L276.285 24.2809C276.338 24.9108 276.253 25.5446 276.036 26.1383C275.819 26.7319 275.475 27.271 275.028 27.718C274.581 28.1649 274.042 28.509 273.448 28.726C272.855 28.9431 272.221 29.0281 271.591 28.9749L271.609 28.9929C270.855 28.9228 270.099 29.0867 269.442 29.4624C268.785 29.8381 268.26 30.4072 267.939 31.0922C267.617 31.7772 267.515 32.5446 267.645 33.29C267.776 34.0353 268.133 34.7222 268.668 35.257C269.204 35.7918 269.891 36.1485 270.636 36.2784C271.382 36.4084 272.149 36.3052 272.834 35.9831C273.519 35.6609 274.087 35.1355 274.462 34.4783C274.837 33.8211 275.001 33.0643 274.93 32.3109L274.949 32.3289C274.896 31.6991 274.981 31.0652 275.198 30.4715C275.415 29.8779 275.759 29.3388 276.206 28.8918C276.653 28.4449 277.192 28.1008 277.785 27.8838C278.379 27.6667 279.013 27.5817 279.643 27.6349L279.624 27.6169C280.239 27.6722 280.859 27.5713 281.425 27.3235C281.991 27.0757 282.485 26.689 282.862 26.1993C283.239 25.7096 283.486 25.1326 283.58 24.522C283.675 23.9113 283.614 23.2867 283.403 22.7059C283.191 22.1252 282.837 21.6072 282.372 21.1999C281.908 20.7926 281.348 20.5092 280.744 20.376C280.141 20.2428 279.513 20.264 278.92 20.4377C278.327 20.6115 277.788 20.9321 277.352 21.3699H277.349Z" fill="white"/>
<path d="M269.972 26.6349L269.953 26.6169C270.488 26.6708 271.029 26.6051 271.536 26.4245C272.042 26.2439 272.503 25.953 272.883 25.5727C273.264 25.1924 273.555 24.7322 273.736 24.2255C273.917 23.7188 273.983 23.1783 273.93 22.6429L273.949 22.6609C273.896 22.031 273.981 21.3972 274.198 20.8035C274.415 20.2099 274.759 19.6708 275.206 19.2238C275.653 18.7769 276.192 18.4328 276.785 18.2158C277.379 17.9987 278.013 17.9137 278.643 17.9669L278.624 17.9489C279.377 18.0197 280.134 17.8563 280.791 17.481C281.449 17.1057 281.974 16.5369 282.296 15.852C282.618 15.1671 282.721 14.3996 282.591 13.6541C282.461 12.9086 282.104 12.2214 281.568 11.6863C281.033 11.1511 280.346 10.7941 279.601 10.6639C278.855 10.5336 278.088 10.6366 277.403 10.9586C276.718 11.2806 276.149 11.806 275.774 12.4632C275.398 13.1204 275.235 13.8774 275.306 14.6309L275.288 14.6119C275.341 15.2418 275.256 15.8757 275.039 16.4694C274.822 17.0632 274.478 17.6024 274.031 18.0494C273.584 18.4963 273.045 18.8404 272.451 19.0574C271.858 19.2744 271.224 19.3592 270.594 19.3059L270.612 19.3249C270.077 19.271 269.536 19.3367 269.029 19.5173C268.522 19.6978 268.062 19.9888 267.681 20.3691C267.301 20.7494 267.009 21.2096 266.828 21.7163C266.647 22.223 266.581 22.7635 266.635 23.2989L266.617 23.2809C266.67 23.9107 266.585 24.5445 266.368 25.1381C266.15 25.7316 265.806 26.2707 265.36 26.7176C264.913 27.1645 264.374 27.5085 263.78 27.7257C263.186 27.9428 262.553 28.0279 261.923 27.9749L261.941 27.9929C261.187 27.9221 260.43 28.0855 259.773 28.4608C259.116 28.8361 258.591 29.4049 258.269 30.0898C257.947 30.7747 257.844 31.5422 257.974 32.2877C258.104 33.0332 258.461 33.7204 258.996 34.2555C259.531 34.7907 260.219 35.1477 260.964 35.2779C261.71 35.4081 262.477 35.3052 263.162 34.9832C263.847 34.6612 264.416 34.1358 264.791 33.4786C265.166 32.8213 265.33 32.0644 265.259 31.3109L265.278 31.3289C265.225 30.699 265.31 30.0652 265.527 29.4715C265.744 28.8779 266.088 28.3388 266.535 27.8918C266.982 27.4449 267.521 27.1008 268.114 26.8838C268.708 26.6667 269.342 26.5817 269.972 26.6349Z" fill="white"/>
<path d="M263.27 24.6279C263.649 24.2467 263.939 23.7865 264.12 23.2802C264.3 22.7739 264.367 22.2339 264.315 21.6989L264.334 21.7169C264.281 21.0869 264.366 20.4528 264.583 19.859C264.8 19.2652 265.144 18.726 265.591 18.279C266.039 17.832 266.578 17.488 267.172 17.2711C267.766 17.0541 268.4 16.9694 269.03 17.0229L269.011 17.0049C269.764 17.0755 270.521 16.912 271.178 16.5367C271.835 16.1615 272.36 15.5928 272.682 14.9081C273.003 14.2235 273.106 13.4562 272.976 12.711C272.846 11.9658 272.489 11.2788 271.954 10.7439C271.419 10.209 270.732 9.85204 269.987 9.72182C269.242 9.59159 268.474 9.69441 267.79 10.0162C267.105 10.3381 266.536 10.8632 266.161 11.5201C265.786 12.177 265.622 12.9337 265.693 13.6869L265.675 13.6689C265.728 14.2988 265.643 14.9326 265.426 15.5263C265.209 16.1199 264.865 16.659 264.418 17.106C263.971 17.5529 263.432 17.897 262.838 18.114C262.245 18.3311 261.611 18.4161 260.981 18.3629L260.999 18.3809C260.383 18.3257 259.764 18.4268 259.198 18.6747C258.632 18.9226 258.138 19.3094 257.761 19.7992C257.384 20.2889 257.137 20.8659 257.043 21.4765C256.949 22.0872 257.01 22.7118 257.221 23.2924C257.433 23.8731 257.787 24.391 258.252 24.7982C258.716 25.2055 259.276 25.4888 259.88 25.622C260.483 25.7551 261.11 25.7338 261.703 25.5601C262.296 25.3863 262.836 25.0657 263.272 24.6279H263.27Z" fill="white"/>
<path d="M301.135 25.2832H304.055C303.997 26.2402 303.733 27.0898 303.264 27.832C302.802 28.5742 302.154 29.1536 301.321 29.5703C300.494 29.987 299.498 30.1953 298.333 30.1953C297.421 30.1953 296.604 30.0391 295.881 29.7266C295.159 29.4076 294.54 28.9518 294.026 28.3594C293.518 27.7669 293.131 27.0508 292.864 26.2109C292.597 25.3711 292.464 24.4303 292.464 23.3887V22.4023C292.464 21.3607 292.6 20.4199 292.874 19.5801C293.154 18.7337 293.551 18.0143 294.065 17.4219C294.586 16.8294 295.208 16.3737 295.93 16.0547C296.653 15.7357 297.46 15.5762 298.352 15.5762C299.537 15.5762 300.536 15.791 301.35 16.2207C302.171 16.6504 302.805 17.2428 303.255 17.998C303.71 18.7533 303.984 19.6126 304.075 20.5762H301.145C301.113 20.0033 300.999 19.5182 300.803 19.1211C300.608 18.7174 300.312 18.4147 299.915 18.2129C299.524 18.0046 299.003 17.9004 298.352 17.9004C297.864 17.9004 297.437 17.9915 297.073 18.1738C296.708 18.3561 296.402 18.6328 296.155 19.0039C295.908 19.375 295.722 19.8438 295.598 20.4102C295.481 20.9701 295.422 21.6276 295.422 22.3828V23.3887C295.422 24.1243 295.478 24.7721 295.589 25.332C295.699 25.8854 295.868 26.3542 296.096 26.7383C296.331 27.1159 296.63 27.4023 296.995 27.5977C297.366 27.7865 297.812 27.8809 298.333 27.8809C298.945 27.8809 299.449 27.7832 299.846 27.5879C300.243 27.3926 300.546 27.1029 300.755 26.7188C300.969 26.3346 301.096 25.8561 301.135 25.2832ZM305.354 24.8242V24.6191C305.354 23.8444 305.465 23.1315 305.686 22.4805C305.908 21.8229 306.23 21.2533 306.653 20.7715C307.076 20.2897 307.597 19.9154 308.215 19.6484C308.834 19.375 309.544 19.2383 310.344 19.2383C311.145 19.2383 311.858 19.375 312.483 19.6484C313.108 19.9154 313.632 20.2897 314.055 20.7715C314.485 21.2533 314.811 21.8229 315.032 22.4805C315.253 23.1315 315.364 23.8444 315.364 24.6191V24.8242C315.364 25.5924 315.253 26.3053 315.032 26.9629C314.811 27.6139 314.485 28.1836 314.055 28.6719C313.632 29.1536 313.111 29.528 312.493 29.7949C311.874 30.0618 311.165 30.1953 310.364 30.1953C309.563 30.1953 308.85 30.0618 308.225 29.7949C307.607 29.528 307.083 29.1536 306.653 28.6719C306.23 28.1836 305.908 27.6139 305.686 26.9629C305.465 26.3053 305.354 25.5924 305.354 24.8242ZM308.167 24.6191V24.8242C308.167 25.2669 308.206 25.6803 308.284 26.0645C308.362 26.4486 308.486 26.7871 308.655 27.0801C308.831 27.3665 309.059 27.5911 309.339 27.7539C309.618 27.9167 309.96 27.998 310.364 27.998C310.755 27.998 311.09 27.9167 311.37 27.7539C311.65 27.5911 311.874 27.3665 312.044 27.0801C312.213 26.7871 312.337 26.4486 312.415 26.0645C312.499 25.6803 312.542 25.2669 312.542 24.8242V24.6191C312.542 24.1895 312.499 23.7858 312.415 23.4082C312.337 23.0241 312.21 22.6855 312.034 22.3926C311.865 22.0931 311.64 21.8587 311.36 21.6895C311.08 21.5202 310.741 21.4355 310.344 21.4355C309.947 21.4355 309.609 21.5202 309.329 21.6895C309.055 21.8587 308.831 22.0931 308.655 22.3926C308.486 22.6855 308.362 23.0241 308.284 23.4082C308.206 23.7858 308.167 24.1895 308.167 24.6191ZM319.905 21.6211V30H317.083V19.4336H319.729L319.905 21.6211ZM319.514 24.3457H318.733C318.733 23.61 318.821 22.9329 318.997 22.3145C319.179 21.6895 319.443 21.1491 319.788 20.6934C320.139 20.2311 320.572 19.873 321.087 19.6191C321.601 19.3652 322.197 19.2383 322.874 19.2383C323.342 19.2383 323.772 19.3099 324.163 19.4531C324.553 19.5898 324.889 19.8079 325.169 20.1074C325.455 20.4004 325.676 20.7845 325.833 21.2598C325.989 21.7285 326.067 22.2917 326.067 22.9492V30H323.255V23.2617C323.255 22.7799 323.189 22.4089 323.059 22.1484C322.929 21.888 322.743 21.7057 322.503 21.6016C322.268 21.4974 321.985 21.4453 321.653 21.4453C321.288 21.4453 320.969 21.5202 320.696 21.6699C320.429 21.8197 320.208 22.028 320.032 22.2949C319.856 22.5553 319.726 22.8613 319.641 23.2129C319.557 23.5645 319.514 23.9421 319.514 24.3457ZM325.803 24.0234L324.797 24.1504C324.797 23.4603 324.882 22.819 325.051 22.2266C325.227 21.6341 325.484 21.1133 325.823 20.6641C326.168 20.2148 326.594 19.8665 327.102 19.6191C327.61 19.3652 328.196 19.2383 328.86 19.2383C329.368 19.2383 329.83 19.3132 330.247 19.4629C330.663 19.6061 331.018 19.8372 331.311 20.1562C331.611 20.4688 331.839 20.8789 331.995 21.3867C332.158 21.8945 332.239 22.5163 332.239 23.252V30H329.417V23.252C329.417 22.7637 329.352 22.3926 329.221 22.1387C329.098 21.8783 328.915 21.6992 328.674 21.6016C328.44 21.4974 328.16 21.4453 327.835 21.4453C327.496 21.4453 327.2 21.5137 326.946 21.6504C326.692 21.7806 326.48 21.9629 326.311 22.1973C326.142 22.4316 326.015 22.7051 325.93 23.0176C325.846 23.3236 325.803 23.6589 325.803 24.0234ZM337.229 21.6211V30H334.407V19.4336H337.053L337.229 21.6211ZM336.839 24.3457H336.057C336.057 23.61 336.145 22.9329 336.321 22.3145C336.503 21.6895 336.767 21.1491 337.112 20.6934C337.464 20.2311 337.896 19.873 338.411 19.6191C338.925 19.3652 339.521 19.2383 340.198 19.2383C340.667 19.2383 341.096 19.3099 341.487 19.4531C341.878 19.5898 342.213 19.8079 342.493 20.1074C342.779 20.4004 343.001 20.7845 343.157 21.2598C343.313 21.7285 343.391 22.2917 343.391 22.9492V30H340.579V23.2617C340.579 22.7799 340.514 22.4089 340.383 22.1484C340.253 21.888 340.068 21.7057 339.827 21.6016C339.592 21.4974 339.309 21.4453 338.977 21.4453C338.613 21.4453 338.294 21.5202 338.02 21.6699C337.753 21.8197 337.532 22.028 337.356 22.2949C337.18 22.5553 337.05 22.8613 336.965 23.2129C336.881 23.5645 336.839 23.9421 336.839 24.3457ZM343.128 24.0234L342.122 24.1504C342.122 23.4603 342.206 22.819 342.376 22.2266C342.551 21.6341 342.809 21.1133 343.147 20.6641C343.492 20.2148 343.919 19.8665 344.426 19.6191C344.934 19.3652 345.52 19.2383 346.184 19.2383C346.692 19.2383 347.154 19.3132 347.571 19.4629C347.988 19.6061 348.342 19.8372 348.635 20.1562C348.935 20.4688 349.163 20.8789 349.319 21.3867C349.482 21.8945 349.563 22.5163 349.563 23.252V30H346.741V23.252C346.741 22.7637 346.676 22.3926 346.546 22.1387C346.422 21.8783 346.24 21.6992 345.999 21.6016C345.764 21.4974 345.484 21.4453 345.159 21.4453C344.82 21.4453 344.524 21.5137 344.27 21.6504C344.016 21.7806 343.805 21.9629 343.635 22.1973C343.466 22.4316 343.339 22.7051 343.255 23.0176C343.17 23.3236 343.128 23.6589 343.128 24.0234ZM357.991 27.4707V19.4336H360.803V30H358.157L357.991 27.4707ZM358.303 25.3027L359.133 25.2832C359.133 25.9863 359.052 26.6406 358.889 27.2461C358.727 27.8451 358.482 28.3659 358.157 28.8086C357.831 29.2448 357.421 29.5866 356.926 29.834C356.432 30.0749 355.849 30.1953 355.178 30.1953C354.664 30.1953 354.189 30.1237 353.753 29.9805C353.323 29.8307 352.952 29.5996 352.639 29.2871C352.333 28.9681 352.092 28.5612 351.917 28.0664C351.747 27.5651 351.663 26.9629 351.663 26.2598V19.4336H354.475V26.2793C354.475 26.5918 354.511 26.8555 354.583 27.0703C354.661 27.2852 354.768 27.4609 354.905 27.5977C355.042 27.7344 355.201 27.832 355.383 27.8906C355.572 27.9492 355.781 27.9785 356.008 27.9785C356.588 27.9785 357.044 27.8613 357.376 27.627C357.714 27.3926 357.952 27.0736 358.089 26.6699C358.232 26.2598 358.303 25.804 358.303 25.3027ZM365.706 21.6895V30H362.893V19.4336H365.53L365.706 21.6895ZM365.296 24.3457H364.534C364.534 23.5645 364.635 22.8613 364.837 22.2363C365.038 21.6048 365.322 21.0677 365.686 20.625C366.051 20.1758 366.484 19.834 366.985 19.5996C367.493 19.3587 368.059 19.2383 368.684 19.2383C369.179 19.2383 369.631 19.3099 370.042 19.4531C370.452 19.5964 370.803 19.8242 371.096 20.1367C371.396 20.4492 371.624 20.8626 371.78 21.377C371.943 21.8913 372.024 22.5195 372.024 23.2617V30H369.192V23.252C369.192 22.7832 369.127 22.4186 368.997 22.1582C368.866 21.8978 368.674 21.7155 368.421 21.6113C368.173 21.5007 367.867 21.4453 367.503 21.4453C367.125 21.4453 366.796 21.5202 366.516 21.6699C366.243 21.8197 366.015 22.028 365.833 22.2949C365.657 22.5553 365.523 22.8613 365.432 23.2129C365.341 23.5645 365.296 23.9421 365.296 24.3457ZM377.131 19.4336V30H374.309V19.4336H377.131ZM374.133 16.6797C374.133 16.2695 374.277 15.931 374.563 15.6641C374.85 15.3971 375.234 15.2637 375.715 15.2637C376.191 15.2637 376.572 15.3971 376.858 15.6641C377.151 15.931 377.297 16.2695 377.297 16.6797C377.297 17.0898 377.151 17.4284 376.858 17.6953C376.572 17.9622 376.191 18.0957 375.715 18.0957C375.234 18.0957 374.85 17.9622 374.563 17.6953C374.277 17.4284 374.133 17.0898 374.133 16.6797ZM384.631 19.4336V21.4258H378.479V19.4336H384.631ZM380.003 16.8262H382.815V26.8164C382.815 27.1224 382.854 27.3568 382.932 27.5195C383.017 27.6823 383.141 27.7962 383.303 27.8613C383.466 27.9199 383.671 27.9492 383.919 27.9492C384.094 27.9492 384.251 27.9427 384.387 27.9297C384.531 27.9102 384.651 27.8906 384.749 27.8711L384.758 29.9414C384.518 30.0195 384.257 30.0814 383.977 30.127C383.697 30.1725 383.388 30.1953 383.049 30.1953C382.431 30.1953 381.891 30.0944 381.428 29.8926C380.973 29.6842 380.621 29.3522 380.374 28.8965C380.126 28.4408 380.003 27.8418 380.003 27.0996V16.8262ZM389.368 28.8086L392.171 19.4336H395.188L390.94 31.5918C390.849 31.8587 390.725 32.1452 390.569 32.4512C390.419 32.7572 390.214 33.0469 389.954 33.3203C389.7 33.6003 389.378 33.8281 388.987 34.0039C388.603 34.1797 388.131 34.2676 387.571 34.2676C387.304 34.2676 387.086 34.2513 386.917 34.2188C386.747 34.1862 386.546 34.1406 386.311 34.082V32.0215C386.383 32.0215 386.458 32.0215 386.536 32.0215C386.614 32.028 386.689 32.0312 386.76 32.0312C387.131 32.0312 387.434 31.9889 387.669 31.9043C387.903 31.8197 388.092 31.6895 388.235 31.5137C388.378 31.3444 388.492 31.123 388.577 30.8496L389.368 28.8086ZM388.196 19.4336L390.491 27.0898L390.891 30.0684L388.977 30.2734L385.178 19.4336H388.196ZM410.881 28.4668V30H403.352V28.4668H410.881ZM403.733 15.7812V30H401.848V15.7812H403.733ZM409.885 21.8945V23.4277H403.352V21.8945H409.885ZM410.784 15.7812V17.3242H403.352V15.7812H410.784ZM419.407 27.9492V15H421.223V30H419.563L419.407 27.9492ZM412.297 24.834V24.6289C412.297 23.8216 412.395 23.0892 412.59 22.4316C412.792 21.7676 413.075 21.1979 413.44 20.7227C413.811 20.2474 414.251 19.8828 414.758 19.6289C415.273 19.3685 415.846 19.2383 416.477 19.2383C417.141 19.2383 417.721 19.3555 418.215 19.5898C418.717 19.8177 419.14 20.153 419.485 20.5957C419.837 21.0319 420.113 21.5592 420.315 22.1777C420.517 22.7962 420.657 23.4961 420.735 24.2773V25.1758C420.663 25.9505 420.523 26.6471 420.315 27.2656C420.113 27.8841 419.837 28.4115 419.485 28.8477C419.14 29.2839 418.717 29.6191 418.215 29.8535C417.714 30.0814 417.128 30.1953 416.458 30.1953C415.839 30.1953 415.273 30.0618 414.758 29.7949C414.251 29.528 413.811 29.1536 413.44 28.6719C413.075 28.1901 412.792 27.6237 412.59 26.9727C412.395 26.3151 412.297 25.6022 412.297 24.834ZM414.114 24.6289V24.834C414.114 25.3613 414.166 25.8561 414.27 26.3184C414.381 26.7806 414.55 27.1875 414.778 27.5391C415.006 27.8906 415.296 28.1673 415.647 28.3691C415.999 28.5645 416.419 28.6621 416.907 28.6621C417.506 28.6621 417.997 28.5352 418.381 28.2812C418.772 28.0273 419.085 27.6921 419.319 27.2754C419.553 26.8587 419.736 26.4062 419.866 25.918V23.5645C419.788 23.2064 419.674 22.8613 419.524 22.5293C419.381 22.1908 419.192 21.8913 418.958 21.6309C418.73 21.3639 418.447 21.1523 418.108 20.9961C417.776 20.8398 417.382 20.7617 416.926 20.7617C416.432 20.7617 416.005 20.8659 415.647 21.0742C415.296 21.276 415.006 21.556 414.778 21.9141C414.55 22.2656 414.381 22.6758 414.27 23.1445C414.166 23.6068 414.114 24.1016 414.114 24.6289ZM425.999 19.4336V30H424.182V19.4336H425.999ZM424.046 16.6309C424.046 16.3379 424.133 16.0905 424.309 15.8887C424.491 15.6868 424.758 15.5859 425.11 15.5859C425.455 15.5859 425.719 15.6868 425.901 15.8887C426.09 16.0905 426.184 16.3379 426.184 16.6309C426.184 16.9108 426.09 17.1517 425.901 17.3535C425.719 17.5488 425.455 17.6465 425.11 17.6465C424.758 17.6465 424.491 17.5488 424.309 17.3535C424.133 17.1517 424.046 16.9108 424.046 16.6309ZM433.323 19.4336V20.8203H427.61V19.4336H433.323ZM429.544 16.8652H431.35V27.3828C431.35 27.7409 431.406 28.0111 431.516 28.1934C431.627 28.3757 431.77 28.4961 431.946 28.5547C432.122 28.6133 432.311 28.6426 432.512 28.6426C432.662 28.6426 432.818 28.6296 432.981 28.6035C433.15 28.571 433.277 28.5449 433.362 28.5254L433.372 30C433.228 30.0456 433.04 30.0879 432.805 30.127C432.577 30.1725 432.301 30.1953 431.975 30.1953C431.533 30.1953 431.126 30.1074 430.755 29.9316C430.383 29.7559 430.087 29.4629 429.866 29.0527C429.651 28.6361 429.544 28.0762 429.544 27.373V16.8652ZM437.405 19.4336V30H435.589V19.4336H437.405ZM435.452 16.6309C435.452 16.3379 435.54 16.0905 435.715 15.8887C435.898 15.6868 436.165 15.5859 436.516 15.5859C436.861 15.5859 437.125 15.6868 437.307 15.8887C437.496 16.0905 437.59 16.3379 437.59 16.6309C437.59 16.9108 437.496 17.1517 437.307 17.3535C437.125 17.5488 436.861 17.6465 436.516 17.6465C436.165 17.6465 435.898 17.5488 435.715 17.3535C435.54 17.1517 435.452 16.9108 435.452 16.6309ZM439.827 24.834V24.6094C439.827 23.8477 439.937 23.1413 440.159 22.4902C440.38 21.8327 440.699 21.263 441.116 20.7812C441.533 20.293 442.037 19.9154 442.63 19.6484C443.222 19.375 443.886 19.2383 444.622 19.2383C445.364 19.2383 446.031 19.375 446.624 19.6484C447.223 19.9154 447.73 20.293 448.147 20.7812C448.57 21.263 448.893 21.8327 449.114 22.4902C449.335 23.1413 449.446 23.8477 449.446 24.6094V24.834C449.446 25.5957 449.335 26.3021 449.114 26.9531C448.893 27.6042 448.57 28.1738 448.147 28.6621C447.73 29.1439 447.226 29.5215 446.633 29.7949C446.047 30.0618 445.383 30.1953 444.641 30.1953C443.899 30.1953 443.232 30.0618 442.639 29.7949C442.047 29.5215 441.539 29.1439 441.116 28.6621C440.699 28.1738 440.38 27.6042 440.159 26.9531C439.937 26.3021 439.827 25.5957 439.827 24.834ZM441.633 24.6094V24.834C441.633 25.3613 441.695 25.8594 441.819 26.3281C441.943 26.7904 442.128 27.2005 442.376 27.5586C442.63 27.9167 442.945 28.1999 443.323 28.4082C443.7 28.61 444.14 28.7109 444.641 28.7109C445.136 28.7109 445.569 28.61 445.94 28.4082C446.318 28.1999 446.63 27.9167 446.878 27.5586C447.125 27.2005 447.311 26.7904 447.434 26.3281C447.564 25.8594 447.63 25.3613 447.63 24.834V24.6094C447.63 24.0885 447.564 23.597 447.434 23.1348C447.311 22.666 447.122 22.2526 446.868 21.8945C446.62 21.5299 446.308 21.2435 445.93 21.0352C445.559 20.8268 445.123 20.7227 444.622 20.7227C444.127 20.7227 443.691 20.8268 443.313 21.0352C442.942 21.2435 442.63 21.5299 442.376 21.8945C442.128 22.2526 441.943 22.666 441.819 23.1348C441.695 23.597 441.633 24.0885 441.633 24.6094ZM453.518 21.6895V30H451.712V19.4336H453.421L453.518 21.6895ZM453.089 24.3164L452.337 24.2871C452.343 23.5645 452.45 22.8971 452.659 22.2852C452.867 21.6667 453.16 21.1296 453.538 20.6738C453.915 20.2181 454.365 19.8665 454.885 19.6191C455.413 19.3652 455.995 19.2383 456.633 19.2383C457.154 19.2383 457.623 19.3099 458.04 19.4531C458.456 19.5898 458.811 19.8112 459.104 20.1172C459.404 20.4232 459.631 20.8203 459.788 21.3086C459.944 21.7904 460.022 22.3796 460.022 23.0762V30H458.206V23.0566C458.206 22.5033 458.124 22.0605 457.962 21.7285C457.799 21.39 457.561 21.1458 457.249 20.9961C456.936 20.8398 456.552 20.7617 456.096 20.7617C455.647 20.7617 455.237 20.8561 454.866 21.0449C454.501 21.2337 454.186 21.4941 453.919 21.8262C453.658 22.1582 453.453 22.5391 453.303 22.9688C453.16 23.3919 453.089 23.8411 453.089 24.3164Z" fill="white"/>
<rect width="225" height="44.9041" rx="8" fill="#33318F"/>
<g clip-path="url(#clip0_1042_56)">
<path d="M41.5434 17.4401C41.5049 17.4273 41.4686 17.413 41.4309 17.403C40.4705 17.1459 39.5099 16.8893 38.5495 16.6323C37.6363 16.3878 36.7235 16.1431 35.8104 15.898C35.7728 15.8878 35.7357 15.875 35.6937 15.8621C35.6687 15.8229 35.6419 15.7822 35.6165 15.7407C35.1217 14.9373 34.4729 14.2873 33.6693 13.7933C33.0705 13.4254 32.4257 13.1741 31.7351 13.0405C31.3537 12.9666 30.9692 12.9298 30.5808 12.9298C26.129 12.9301 21.6771 12.9299 17.2254 12.9302C17.1813 12.9302 17.1375 12.933 17.0935 12.9349C17.0817 12.9354 17.0699 12.9571 17.0757 12.9688C17.093 13.0037 17.1098 13.039 17.1294 13.0727C17.3496 13.4549 17.5702 13.8369 17.7907 14.2189C17.8202 14.2698 17.849 14.321 17.8781 14.3721C18.6181 15.6651 19.8543 16.6928 21.4182 17.1275C21.6874 17.2022 21.9612 17.2567 22.2391 17.2903C22.5071 17.3226 22.7757 17.34 23.0457 17.3399C24.6636 17.3393 26.2817 17.3396 27.8996 17.3394C27.953 17.3394 28.0072 17.345 28.0555 17.3319C28.0978 17.2953 28.1177 17.2496 28.1444 17.2089C28.3785 16.8506 28.6753 16.5558 29.0363 16.3257C29.3715 16.1123 29.7355 15.9713 30.1273 15.9089C31.6834 15.661 33.0858 16.6441 33.4507 18.0892C33.5171 18.3524 33.5439 18.6201 33.5349 18.891C33.5119 19.5938 33.2694 20.2124 32.8054 20.74C32.3812 21.2226 31.8513 21.5302 31.2228 21.6689C30.913 21.7372 30.6008 21.7413 30.2866 21.7189C29.3844 21.6025 28.6745 21.1714 28.1604 20.42C28.1327 20.3795 28.1071 20.3377 28.0794 20.2972C28.068 20.2804 28.0493 20.2712 28.0294 20.2703C27.9804 20.2682 27.9314 20.2673 27.8824 20.2673C26.8969 20.267 25.9113 20.2666 24.9259 20.2667C24.2836 20.2667 23.6414 20.2698 22.999 20.267C22.7295 20.2659 22.4603 20.2556 22.1914 20.2305C20.6196 20.0838 19.1868 19.5586 17.8962 18.6507C16.854 17.9176 16.0168 16.9943 15.3753 15.8936C15.0595 15.3515 14.7471 14.8075 14.4335 14.2642C13.6447 12.8977 12.8556 11.5309 12.0669 10.1639C12.0425 10.1218 12.007 10.0819 12.0007 10.0337C11.9997 10.0256 12.0007 10.0044 12.0007 10.0044C12.0007 10.0044 12.0309 10.0025 12.0403 10.0022C12.0843 10.0008 12.1285 9.99995 12.1726 9.99995C18.3306 9.99995 24.4886 9.9998 30.6466 10.0007C30.931 10.0007 31.2147 10.0164 31.4982 10.0418C31.9483 10.0819 32.3921 10.1566 32.8299 10.2674C33.6491 10.4748 34.4127 10.8107 35.126 11.2627C35.5576 11.5362 35.9622 11.8456 36.3462 12.1822C36.7115 12.5025 37.0554 12.845 37.3846 13.2021C37.4045 13.2237 37.4251 13.2449 37.4438 13.2676C37.4699 13.2992 37.503 13.3182 37.5418 13.3286C37.6269 13.3516 37.712 13.3749 37.7971 13.3978C38.9229 13.6996 40.0488 14.0016 41.1748 14.303C42.4049 14.6323 43.6351 14.961 44.8653 15.29C45.1965 15.3786 45.5276 15.4672 45.8587 15.5562C45.9064 15.569 45.953 15.5862 46.0003 15.6005C45.9745 15.6484 45.9507 15.6974 45.9234 15.7445C45.593 16.3176 45.2623 16.8908 44.9314 17.4638C43.3482 20.2058 41.765 22.9477 40.1814 25.6895C40.1546 25.7359 40.1378 25.7921 40.0912 25.8215C40.0505 25.8472 40.002 25.8607 39.9562 25.8779C38.247 26.5233 36.5377 27.1685 34.8285 27.8138C34.8056 27.8224 34.7834 27.8336 34.7598 27.8395C34.6978 27.8553 34.6621 27.8969 34.6312 27.9505C34.3259 28.4817 34.019 29.0119 33.7127 29.5425C32.708 31.2827 31.7033 33.0231 30.6985 34.7633C30.6765 34.8016 30.6547 34.84 30.6307 34.877C30.6233 34.8884 30.6089 34.8954 30.5982 34.9041C30.5569 34.8774 30.5431 34.8334 30.5213 34.796C30.3073 34.4272 30.0942 34.0579 29.881 33.6886C28.4008 31.1248 26.9205 28.5612 25.4403 25.9974C24.9355 25.123 24.4309 24.2485 23.9263 23.3739C23.9043 23.3357 23.8826 23.2972 23.8617 23.2585L23.8327 23.2104C23.8719 23.2092 23.9686 23.2052 24.0079 23.2052C25.0227 23.2052 26.1997 23.2029 27.2146 23.2035L27.2914 23.3435C28.3575 25.1898 29.4236 27.0362 30.49 28.8824C30.5216 28.9373 30.5569 28.9901 30.592 29.0431C30.5949 29.0475 30.6135 29.0485 30.6176 29.0443C30.6341 29.0268 30.65 29.0079 30.662 28.9872C30.7412 28.8517 30.8194 28.7157 30.8978 28.58C31.4198 27.6758 31.9414 26.7717 32.4638 25.8678C32.5556 25.7088 32.5118 25.745 32.6885 25.6783C34.1275 25.1352 35.567 24.5937 37.0064 24.0516C37.2722 23.9515 37.5382 23.8517 37.8041 23.7518C37.8271 23.7431 37.8495 23.7328 37.8727 23.7257C37.9272 23.7091 37.9638 23.6749 37.9922 23.6249C38.1352 23.3735 38.2807 23.1236 38.4253 22.8732C39.4422 21.1116 40.459 19.35 41.4759 17.5883C41.4955 17.5543 41.5154 17.5205 41.5332 17.4856C41.5395 17.4732 41.5398 17.4579 41.5436 17.4403L41.5434 17.4401Z" fill="white"/>
</g>
<path d="M64.8105 27.1669V29.452H57.2422V27.1669H64.8105ZM58.1992 15.2333V29.452H55.2695V15.2333H58.1992ZM63.8242 21.0243V23.2509H57.2422V21.0243H63.8242ZM64.8008 15.2333V17.5282H57.2422V15.2333H64.8008ZM69.0977 21.1415V29.452H66.2852V18.8856H68.9219L69.0977 21.1415ZM68.6875 23.7977H67.9258C67.9258 23.0165 68.0267 22.3134 68.2285 21.6884C68.4303 21.0568 68.7135 20.5197 69.0781 20.077C69.4427 19.6278 69.8757 19.286 70.377 19.0516C70.8848 18.8108 71.4512 18.6903 72.0762 18.6903C72.571 18.6903 73.0234 18.7619 73.4336 18.9052C73.8438 19.0484 74.1953 19.2762 74.4883 19.5887C74.7878 19.9012 75.0156 20.3147 75.1719 20.829C75.3346 21.3433 75.416 21.9716 75.416 22.7137V29.452H72.584V22.704C72.584 22.2352 72.5189 21.8706 72.3887 21.6102C72.2585 21.3498 72.0664 21.1675 71.8125 21.0634C71.5651 20.9527 71.2591 20.8973 70.8945 20.8973C70.5169 20.8973 70.1882 20.9722 69.9082 21.1219C69.6348 21.2717 69.4069 21.48 69.2246 21.7469C69.0488 22.0074 68.9154 22.3134 68.8242 22.6649C68.7331 23.0165 68.6875 23.3941 68.6875 23.7977ZM82.7305 18.8856V20.8778H76.5781V18.8856H82.7305ZM78.1016 16.2782H80.9141V26.2684C80.9141 26.5744 80.9531 26.8088 81.0312 26.9716C81.1159 27.1343 81.2396 27.2483 81.4023 27.3134C81.5651 27.3719 81.7702 27.4012 82.0176 27.4012C82.1934 27.4012 82.3496 27.3947 82.4863 27.3817C82.6296 27.3622 82.75 27.3427 82.8477 27.3231L82.8574 29.3934C82.6165 29.4716 82.3561 29.5334 82.0762 29.579C81.7962 29.6246 81.487 29.6473 81.1484 29.6473C80.5299 29.6473 79.9896 29.5464 79.5273 29.3446C79.0716 29.1363 78.7201 28.8042 78.4727 28.3485C78.2253 27.8928 78.1016 27.2938 78.1016 26.5516V16.2782ZM89.1953 29.6473C88.375 29.6473 87.6393 29.5171 86.9883 29.2567C86.3372 28.9898 85.7839 28.6219 85.3281 28.1532C84.8789 27.6844 84.5339 27.1408 84.293 26.5223C84.0521 25.8973 83.9316 25.2333 83.9316 24.5302V24.1395C83.9316 23.3387 84.0456 22.6063 84.2734 21.9423C84.5013 21.2782 84.8268 20.702 85.25 20.2137C85.6797 19.7255 86.2005 19.3511 86.8125 19.0907C87.4245 18.8238 88.1146 18.6903 88.8828 18.6903C89.6315 18.6903 90.2956 18.814 90.875 19.0614C91.4544 19.3088 91.9395 19.6604 92.3301 20.1161C92.7272 20.5718 93.0267 21.1187 93.2285 21.7567C93.4303 22.3882 93.5312 23.0913 93.5312 23.8661V25.038H85.1328V23.163H90.7676V22.9481C90.7676 22.5575 90.696 22.2092 90.5527 21.9032C90.416 21.5907 90.2077 21.3433 89.9277 21.161C89.6478 20.9787 89.2897 20.8876 88.8535 20.8876C88.4824 20.8876 88.1634 20.969 87.8965 21.1317C87.6296 21.2945 87.4115 21.5223 87.2422 21.8153C87.0794 22.1083 86.9557 22.4533 86.8711 22.8505C86.793 23.2411 86.7539 23.6708 86.7539 24.1395V24.5302C86.7539 24.9533 86.8125 25.344 86.9297 25.702C87.0534 26.0601 87.2259 26.3693 87.4473 26.6298C87.6751 26.8902 87.9486 27.092 88.2676 27.2352C88.5931 27.3785 88.9609 27.4501 89.3711 27.4501C89.8789 27.4501 90.3509 27.3524 90.7871 27.1571C91.2298 26.9553 91.6107 26.6525 91.9297 26.2489L93.2969 27.7333C93.0755 28.0523 92.7728 28.3583 92.3887 28.6512C92.0111 28.9442 91.5553 29.1851 91.0215 29.3739C90.4876 29.5562 89.8789 29.6473 89.1953 29.6473ZM97.9453 21.1903V29.452H95.1328V18.8856H97.7793L97.9453 21.1903ZM101.129 18.8173L101.08 21.4247C100.943 21.4052 100.777 21.3889 100.582 21.3759C100.393 21.3563 100.221 21.3466 100.064 21.3466C99.6673 21.3466 99.3223 21.3986 99.0293 21.5028C98.7428 21.6005 98.502 21.7469 98.3066 21.9423C98.1178 22.1376 97.9746 22.3752 97.877 22.6552C97.7858 22.9351 97.7337 23.2541 97.7207 23.6122L97.1543 23.4364C97.1543 22.7528 97.2227 22.1246 97.3594 21.5516C97.4961 20.9722 97.6947 20.4677 97.9551 20.038C98.222 19.6083 98.5475 19.2762 98.9316 19.0419C99.3158 18.8075 99.7552 18.6903 100.25 18.6903C100.406 18.6903 100.566 18.7033 100.729 18.7294C100.891 18.7489 101.025 18.7782 101.129 18.8173ZM105.27 20.9169V33.5145H102.457V18.8856H105.064L105.27 20.9169ZM111.959 24.0516V24.2567C111.959 25.0249 111.868 25.7378 111.686 26.3954C111.51 27.0529 111.249 27.6259 110.904 28.1141C110.559 28.5959 110.13 28.9735 109.615 29.2469C109.107 29.5139 108.521 29.6473 107.857 29.6473C107.213 29.6473 106.653 29.5171 106.178 29.2567C105.702 28.9963 105.302 28.6317 104.977 28.163C104.658 27.6877 104.4 27.1376 104.205 26.5126C104.01 25.8876 103.86 25.217 103.756 24.5009V23.9637C103.86 23.1955 104.01 22.4924 104.205 21.8544C104.4 21.2098 104.658 20.6532 104.977 20.1844C105.302 19.7092 105.699 19.3413 106.168 19.0809C106.643 18.8205 107.2 18.6903 107.838 18.6903C108.508 18.6903 109.098 18.8173 109.605 19.0712C110.12 19.3251 110.549 19.6897 110.895 20.1649C111.246 20.6402 111.51 21.2066 111.686 21.8641C111.868 22.5217 111.959 23.2509 111.959 24.0516ZM109.137 24.2567V24.0516C109.137 23.6024 109.098 23.189 109.02 22.8114C108.948 22.4273 108.831 22.092 108.668 21.8055C108.512 21.5191 108.303 21.2977 108.043 21.1415C107.789 20.9787 107.48 20.8973 107.115 20.8973C106.731 20.8973 106.402 20.9592 106.129 21.0829C105.862 21.2066 105.644 21.3856 105.475 21.62C105.305 21.8544 105.178 22.1343 105.094 22.4598C105.009 22.7854 104.957 23.1532 104.938 23.5634V24.9208C104.97 25.4025 105.061 25.8355 105.211 26.2196C105.361 26.5972 105.592 26.8967 105.904 27.118C106.217 27.3394 106.627 27.4501 107.135 27.4501C107.506 27.4501 107.818 27.3687 108.072 27.2059C108.326 27.0367 108.531 26.8055 108.688 26.5126C108.85 26.2196 108.964 25.8811 109.029 25.4969C109.101 25.1128 109.137 24.6994 109.137 24.2567ZM116.52 21.1903V29.452H113.707V18.8856H116.354L116.52 21.1903ZM119.703 18.8173L119.654 21.4247C119.518 21.4052 119.352 21.3889 119.156 21.3759C118.967 21.3563 118.795 21.3466 118.639 21.3466C118.242 21.3466 117.896 21.3986 117.604 21.5028C117.317 21.6005 117.076 21.7469 116.881 21.9423C116.692 22.1376 116.549 22.3752 116.451 22.6552C116.36 22.9351 116.308 23.2541 116.295 23.6122L115.729 23.4364C115.729 22.7528 115.797 22.1246 115.934 21.5516C116.07 20.9722 116.269 20.4677 116.529 20.038C116.796 19.6083 117.122 19.2762 117.506 19.0419C117.89 18.8075 118.329 18.6903 118.824 18.6903C118.98 18.6903 119.14 18.7033 119.303 18.7294C119.465 18.7489 119.599 18.7782 119.703 18.8173ZM124 18.8856V29.452H121.178V18.8856H124ZM121.002 16.1317C121.002 15.7216 121.145 15.383 121.432 15.1161C121.718 14.8492 122.102 14.7157 122.584 14.7157C123.059 14.7157 123.44 14.8492 123.727 15.1161C124.02 15.383 124.166 15.7216 124.166 16.1317C124.166 16.5419 124.02 16.8804 123.727 17.1473C123.44 17.4143 123.059 17.5477 122.584 17.5477C122.102 17.5477 121.718 17.4143 121.432 17.1473C121.145 16.8804 121.002 16.5419 121.002 16.1317ZM132.037 26.5321C132.037 26.3303 131.979 26.148 131.861 25.9852C131.744 25.8225 131.526 25.6727 131.207 25.536C130.895 25.3928 130.442 25.2626 129.85 25.1454C129.316 25.0282 128.818 24.8817 128.355 24.7059C127.9 24.5236 127.503 24.3055 127.164 24.0516C126.832 23.7977 126.572 23.4983 126.383 23.1532C126.194 22.8016 126.1 22.4012 126.1 21.952C126.1 21.5093 126.194 21.0927 126.383 20.702C126.578 20.3114 126.855 19.9663 127.213 19.6669C127.577 19.3609 128.02 19.1233 128.541 18.954C129.068 18.7782 129.661 18.6903 130.318 18.6903C131.236 18.6903 132.024 18.8368 132.682 19.1298C133.346 19.4227 133.854 19.8264 134.205 20.3407C134.563 20.8485 134.742 21.4279 134.742 22.079H131.93C131.93 21.8055 131.871 21.5614 131.754 21.3466C131.643 21.1252 131.467 20.9527 131.227 20.829C130.992 20.6988 130.686 20.6337 130.309 20.6337C129.996 20.6337 129.726 20.689 129.498 20.7997C129.27 20.9038 129.094 21.0471 128.971 21.2294C128.854 21.4052 128.795 21.6005 128.795 21.8153C128.795 21.9781 128.827 22.1246 128.893 22.2548C128.964 22.3785 129.078 22.4924 129.234 22.5966C129.391 22.7007 129.592 22.7984 129.84 22.8895C130.094 22.9742 130.406 23.0523 130.777 23.1239C131.539 23.2802 132.219 23.4852 132.818 23.7391C133.417 23.9865 133.893 24.3251 134.244 24.7548C134.596 25.1779 134.771 25.7346 134.771 26.4247C134.771 26.8934 134.667 27.3231 134.459 27.7137C134.251 28.1044 133.951 28.4462 133.561 28.7391C133.17 29.0256 132.701 29.2502 132.154 29.413C131.614 29.5692 131.005 29.6473 130.328 29.6473C129.345 29.6473 128.512 29.4716 127.828 29.12C127.151 28.7684 126.637 28.3225 126.285 27.7821C125.94 27.2352 125.768 26.6753 125.768 26.1024H128.434C128.447 26.4865 128.544 26.7958 128.727 27.0302C128.915 27.2645 129.153 27.4338 129.439 27.538C129.732 27.6421 130.048 27.6942 130.387 27.6942C130.751 27.6942 131.054 27.6454 131.295 27.5477C131.536 27.4436 131.718 27.3068 131.842 27.1376C131.972 26.9618 132.037 26.76 132.037 26.5321ZM141.461 29.6473C140.641 29.6473 139.905 29.5171 139.254 29.2567C138.603 28.9898 138.049 28.6219 137.594 28.1532C137.145 27.6844 136.799 27.1408 136.559 26.5223C136.318 25.8973 136.197 25.2333 136.197 24.5302V24.1395C136.197 23.3387 136.311 22.6063 136.539 21.9423C136.767 21.2782 137.092 20.702 137.516 20.2137C137.945 19.7255 138.466 19.3511 139.078 19.0907C139.69 18.8238 140.38 18.6903 141.148 18.6903C141.897 18.6903 142.561 18.814 143.141 19.0614C143.72 19.3088 144.205 19.6604 144.596 20.1161C144.993 20.5718 145.292 21.1187 145.494 21.7567C145.696 22.3882 145.797 23.0913 145.797 23.8661V25.038H137.398V23.163H143.033V22.9481C143.033 22.5575 142.962 22.2092 142.818 21.9032C142.682 21.5907 142.473 21.3433 142.193 21.161C141.913 20.9787 141.555 20.8876 141.119 20.8876C140.748 20.8876 140.429 20.969 140.162 21.1317C139.895 21.2945 139.677 21.5223 139.508 21.8153C139.345 22.1083 139.221 22.4533 139.137 22.8505C139.059 23.2411 139.02 23.6708 139.02 24.1395V24.5302C139.02 24.9533 139.078 25.344 139.195 25.702C139.319 26.0601 139.492 26.3693 139.713 26.6298C139.941 26.8902 140.214 27.092 140.533 27.2352C140.859 27.3785 141.227 27.4501 141.637 27.4501C142.145 27.4501 142.617 27.3524 143.053 27.1571C143.495 26.9553 143.876 26.6525 144.195 26.2489L145.562 27.7333C145.341 28.0523 145.038 28.3583 144.654 28.6512C144.277 28.9442 143.821 29.1851 143.287 29.3739C142.753 29.5562 142.145 29.6473 141.461 29.6473ZM161.969 27.9188V29.452H154.439V27.9188H161.969ZM154.82 15.2333V29.452H152.936V15.2333H154.82ZM160.973 21.3466V22.8798H154.439V21.3466H160.973ZM161.871 15.2333V16.7762H154.439V15.2333H161.871ZM170.494 27.4012V14.452H172.311V29.452H170.65L170.494 27.4012ZM163.385 24.286V24.0809C163.385 23.2736 163.482 22.5412 163.678 21.8837C163.88 21.2196 164.163 20.6499 164.527 20.1747C164.898 19.6994 165.338 19.3348 165.846 19.0809C166.36 18.8205 166.933 18.6903 167.564 18.6903C168.229 18.6903 168.808 18.8075 169.303 19.0419C169.804 19.2697 170.227 19.605 170.572 20.0477C170.924 20.4839 171.201 21.0113 171.402 21.6298C171.604 22.2483 171.744 22.9481 171.822 23.7294V24.6278C171.751 25.4025 171.611 26.0992 171.402 26.7177C171.201 27.3361 170.924 27.8635 170.572 28.2997C170.227 28.7359 169.804 29.0712 169.303 29.3055C168.801 29.5334 168.215 29.6473 167.545 29.6473C166.926 29.6473 166.36 29.5139 165.846 29.2469C165.338 28.98 164.898 28.6057 164.527 28.1239C164.163 27.6421 163.88 27.0757 163.678 26.4247C163.482 25.7671 163.385 25.0542 163.385 24.286ZM165.201 24.0809V24.286C165.201 24.8134 165.253 25.3081 165.357 25.7704C165.468 26.2326 165.637 26.6395 165.865 26.9911C166.093 27.3427 166.383 27.6193 166.734 27.8212C167.086 28.0165 167.506 28.1141 167.994 28.1141C168.593 28.1141 169.085 27.9872 169.469 27.7333C169.859 27.4794 170.172 27.1441 170.406 26.7274C170.641 26.3108 170.823 25.8583 170.953 25.37V23.0165C170.875 22.6584 170.761 22.3134 170.611 21.9813C170.468 21.6428 170.279 21.3433 170.045 21.0829C169.817 20.816 169.534 20.6044 169.195 20.4481C168.863 20.2919 168.469 20.2137 168.014 20.2137C167.519 20.2137 167.092 20.3179 166.734 20.5262C166.383 20.7281 166.093 21.008 165.865 21.3661C165.637 21.7177 165.468 22.1278 165.357 22.5966C165.253 23.0588 165.201 23.5536 165.201 24.0809ZM177.086 18.8856V29.452H175.27V18.8856H177.086ZM175.133 16.0829C175.133 15.7899 175.221 15.5425 175.396 15.3407C175.579 15.1389 175.846 15.038 176.197 15.038C176.542 15.038 176.806 15.1389 176.988 15.3407C177.177 15.5425 177.271 15.7899 177.271 16.0829C177.271 16.3628 177.177 16.6037 176.988 16.8055C176.806 17.0009 176.542 17.0985 176.197 17.0985C175.846 17.0985 175.579 17.0009 175.396 16.8055C175.221 16.6037 175.133 16.3628 175.133 16.0829ZM184.41 18.8856V20.2723H178.697V18.8856H184.41ZM180.631 16.3173H182.438V26.8348C182.438 27.1929 182.493 27.4631 182.604 27.6454C182.714 27.8277 182.857 27.9481 183.033 28.0067C183.209 28.0653 183.398 28.0946 183.6 28.0946C183.749 28.0946 183.906 28.0816 184.068 28.0555C184.238 28.023 184.365 27.9969 184.449 27.9774L184.459 29.452C184.316 29.4976 184.127 29.5399 183.893 29.579C183.665 29.6246 183.388 29.6473 183.062 29.6473C182.62 29.6473 182.213 29.5594 181.842 29.3837C181.471 29.2079 181.174 28.9149 180.953 28.5048C180.738 28.0881 180.631 27.5282 180.631 26.8251V16.3173ZM188.492 18.8856V29.452H186.676V18.8856H188.492ZM186.539 16.0829C186.539 15.7899 186.627 15.5425 186.803 15.3407C186.985 15.1389 187.252 15.038 187.604 15.038C187.949 15.038 188.212 15.1389 188.395 15.3407C188.583 15.5425 188.678 15.7899 188.678 16.0829C188.678 16.3628 188.583 16.6037 188.395 16.8055C188.212 17.0009 187.949 17.0985 187.604 17.0985C187.252 17.0985 186.985 17.0009 186.803 16.8055C186.627 16.6037 186.539 16.3628 186.539 16.0829ZM190.914 24.286V24.0614C190.914 23.2997 191.025 22.5933 191.246 21.9423C191.467 21.2847 191.786 20.715 192.203 20.2333C192.62 19.745 193.124 19.3674 193.717 19.1005C194.309 18.827 194.973 18.6903 195.709 18.6903C196.451 18.6903 197.118 18.827 197.711 19.1005C198.31 19.3674 198.818 19.745 199.234 20.2333C199.658 20.715 199.98 21.2847 200.201 21.9423C200.423 22.5933 200.533 23.2997 200.533 24.0614V24.286C200.533 25.0477 200.423 25.7541 200.201 26.4052C199.98 27.0562 199.658 27.6259 199.234 28.1141C198.818 28.5959 198.313 28.9735 197.721 29.2469C197.135 29.5139 196.471 29.6473 195.729 29.6473C194.986 29.6473 194.319 29.5139 193.727 29.2469C193.134 28.9735 192.626 28.5959 192.203 28.1141C191.786 27.6259 191.467 27.0562 191.246 26.4052C191.025 25.7541 190.914 25.0477 190.914 24.286ZM192.721 24.0614V24.286C192.721 24.8134 192.783 25.3114 192.906 25.7802C193.03 26.2424 193.215 26.6525 193.463 27.0106C193.717 27.3687 194.033 27.6519 194.41 27.8602C194.788 28.0621 195.227 28.163 195.729 28.163C196.223 28.163 196.656 28.0621 197.027 27.8602C197.405 27.6519 197.717 27.3687 197.965 27.0106C198.212 26.6525 198.398 26.2424 198.521 25.7802C198.652 25.3114 198.717 24.8134 198.717 24.286V24.0614C198.717 23.5406 198.652 23.049 198.521 22.5868C198.398 22.118 198.209 21.7046 197.955 21.3466C197.708 20.982 197.395 20.6955 197.018 20.4872C196.646 20.2788 196.21 20.1747 195.709 20.1747C195.214 20.1747 194.778 20.2788 194.4 20.4872C194.029 20.6955 193.717 20.982 193.463 21.3466C193.215 21.7046 193.03 22.118 192.906 22.5868C192.783 23.049 192.721 23.5406 192.721 24.0614ZM204.605 21.1415V29.452H202.799V18.8856H204.508L204.605 21.1415ZM204.176 23.7684L203.424 23.7391C203.43 23.0165 203.538 22.3492 203.746 21.7372C203.954 21.1187 204.247 20.5816 204.625 20.1259C205.003 19.6701 205.452 19.3186 205.973 19.0712C206.5 18.8173 207.083 18.6903 207.721 18.6903C208.242 18.6903 208.71 18.7619 209.127 18.9052C209.544 19.0419 209.898 19.2632 210.191 19.5692C210.491 19.8752 210.719 20.2723 210.875 20.7606C211.031 21.2424 211.109 21.8316 211.109 22.5282V29.452H209.293V22.5087C209.293 21.9553 209.212 21.5126 209.049 21.1805C208.886 20.842 208.648 20.5979 208.336 20.4481C208.023 20.2919 207.639 20.2137 207.184 20.2137C206.734 20.2137 206.324 20.3081 205.953 20.4969C205.589 20.6858 205.273 20.9462 205.006 21.2782C204.745 21.6102 204.54 21.9911 204.391 22.4208C204.247 22.844 204.176 23.2932 204.176 23.7684Z" fill="white"/>
<defs>
<clipPath id="clip0_1042_56">
<rect width="34" height="24.9041" fill="white" transform="translate(12 10)"/>
</clipPath>
</defs>
</svg>
