<svg width="183" height="36" viewBox="0 0 183 36" fill="none" xmlns="http://www.w3.org/2000/svg">
<rect width="183" height="36" rx="8" fill="#33318F"/>
<path d="M22.8105 22.7148V25H15.2422V22.7148H22.8105ZM16.1992 10.7812V25H13.2695V10.7812H16.1992ZM21.8242 16.5723V18.7988H15.2422V16.5723H21.8242ZM22.8008 10.7812V13.0762H15.2422V10.7812H22.8008ZM27.0977 16.6895V25H24.2852V14.4336H26.9219L27.0977 16.6895ZM26.6875 19.3457H25.9258C25.9258 18.5645 26.0267 17.8613 26.2285 17.2363C26.4303 16.6048 26.7135 16.0677 27.0781 15.625C27.4427 15.1758 27.8757 14.834 28.377 14.5996C28.8848 14.3587 29.4512 14.2383 30.0762 14.2383C30.571 14.2383 31.0234 14.3099 31.4336 14.4531C31.8438 14.5964 32.1953 14.8242 32.4883 15.1367C32.7878 15.4492 33.0156 15.8626 33.1719 16.377C33.3346 16.8913 33.416 17.5195 33.416 18.2617V25H30.584V18.252C30.584 17.7832 30.5189 17.4186 30.3887 17.1582C30.2585 16.8978 30.0664 16.7155 29.8125 16.6113C29.5651 16.5007 29.2591 16.4453 28.8945 16.4453C28.5169 16.4453 28.1882 16.5202 27.9082 16.6699C27.6348 16.8197 27.4069 17.028 27.2246 17.2949C27.0488 17.5553 26.9154 17.8613 26.8242 18.2129C26.7331 18.5645 26.6875 18.9421 26.6875 19.3457ZM40.7305 14.4336V16.4258H34.5781V14.4336H40.7305ZM36.1016 11.8262H38.9141V21.8164C38.9141 22.1224 38.9531 22.3568 39.0312 22.5195C39.1159 22.6823 39.2396 22.7962 39.4023 22.8613C39.5651 22.9199 39.7702 22.9492 40.0176 22.9492C40.1934 22.9492 40.3496 22.9427 40.4863 22.9297C40.6296 22.9102 40.75 22.8906 40.8477 22.8711L40.8574 24.9414C40.6165 25.0195 40.3561 25.0814 40.0762 25.127C39.7962 25.1725 39.487 25.1953 39.1484 25.1953C38.5299 25.1953 37.9896 25.0944 37.5273 24.8926C37.0716 24.6842 36.7201 24.3522 36.4727 23.8965C36.2253 23.4408 36.1016 22.8418 36.1016 22.0996V11.8262ZM47.1953 25.1953C46.375 25.1953 45.6393 25.0651 44.9883 24.8047C44.3372 24.5378 43.7839 24.1699 43.3281 23.7012C42.8789 23.2324 42.5339 22.6888 42.293 22.0703C42.0521 21.4453 41.9316 20.7812 41.9316 20.0781V19.6875C41.9316 18.8867 42.0456 18.1543 42.2734 17.4902C42.5013 16.8262 42.8268 16.25 43.25 15.7617C43.6797 15.2734 44.2005 14.8991 44.8125 14.6387C45.4245 14.3717 46.1146 14.2383 46.8828 14.2383C47.6315 14.2383 48.2956 14.362 48.875 14.6094C49.4544 14.8568 49.9395 15.2083 50.3301 15.6641C50.7272 16.1198 51.0267 16.6667 51.2285 17.3047C51.4303 17.9362 51.5312 18.6393 51.5312 19.4141V20.5859H43.1328V18.7109H48.7676V18.4961C48.7676 18.1055 48.696 17.7572 48.5527 17.4512C48.416 17.1387 48.2077 16.8913 47.9277 16.709C47.6478 16.5267 47.2897 16.4355 46.8535 16.4355C46.4824 16.4355 46.1634 16.5169 45.8965 16.6797C45.6296 16.8424 45.4115 17.0703 45.2422 17.3633C45.0794 17.6562 44.9557 18.0013 44.8711 18.3984C44.793 18.7891 44.7539 19.2188 44.7539 19.6875V20.0781C44.7539 20.5013 44.8125 20.8919 44.9297 21.25C45.0534 21.6081 45.2259 21.9173 45.4473 22.1777C45.6751 22.4382 45.9486 22.64 46.2676 22.7832C46.5931 22.9264 46.9609 22.998 47.3711 22.998C47.8789 22.998 48.3509 22.9004 48.7871 22.7051C49.2298 22.5033 49.6107 22.2005 49.9297 21.7969L51.2969 23.2812C51.0755 23.6003 50.7728 23.9062 50.3887 24.1992C50.0111 24.4922 49.5553 24.7331 49.0215 24.9219C48.4876 25.1042 47.8789 25.1953 47.1953 25.1953ZM55.9453 16.7383V25H53.1328V14.4336H55.7793L55.9453 16.7383ZM59.1289 14.3652L59.0801 16.9727C58.9434 16.9531 58.7773 16.9368 58.582 16.9238C58.3932 16.9043 58.2207 16.8945 58.0645 16.8945C57.6673 16.8945 57.3223 16.9466 57.0293 17.0508C56.7428 17.1484 56.502 17.2949 56.3066 17.4902C56.1178 17.6855 55.9746 17.9232 55.877 18.2031C55.7858 18.4831 55.7337 18.8021 55.7207 19.1602L55.1543 18.9844C55.1543 18.3008 55.2227 17.6725 55.3594 17.0996C55.4961 16.5202 55.6947 16.0156 55.9551 15.5859C56.222 15.1562 56.5475 14.8242 56.9316 14.5898C57.3158 14.3555 57.7552 14.2383 58.25 14.2383C58.4062 14.2383 58.5658 14.2513 58.7285 14.2773C58.8913 14.2969 59.0247 14.3262 59.1289 14.3652ZM63.2695 16.4648V29.0625H60.457V14.4336H63.0645L63.2695 16.4648ZM69.959 19.5996V19.8047C69.959 20.5729 69.8678 21.2858 69.6855 21.9434C69.5098 22.6009 69.2493 23.1738 68.9043 23.6621C68.5592 24.1439 68.1296 24.5215 67.6152 24.7949C67.1074 25.0618 66.5215 25.1953 65.8574 25.1953C65.2129 25.1953 64.653 25.0651 64.1777 24.8047C63.7025 24.5443 63.3021 24.1797 62.9766 23.7109C62.6576 23.2357 62.4004 22.6855 62.2051 22.0605C62.0098 21.4355 61.86 20.765 61.7559 20.0488V19.5117C61.86 18.7435 62.0098 18.0404 62.2051 17.4023C62.4004 16.7578 62.6576 16.2012 62.9766 15.7324C63.3021 15.2572 63.6992 14.8893 64.168 14.6289C64.6432 14.3685 65.1999 14.2383 65.8379 14.2383C66.5085 14.2383 67.0977 14.3652 67.6055 14.6191C68.1198 14.873 68.5495 15.2376 68.8945 15.7129C69.2461 16.1882 69.5098 16.7546 69.6855 17.4121C69.8678 18.0697 69.959 18.7988 69.959 19.5996ZM67.1367 19.8047V19.5996C67.1367 19.1504 67.0977 18.737 67.0195 18.3594C66.9479 17.9753 66.8307 17.64 66.668 17.3535C66.5117 17.0671 66.3034 16.8457 66.043 16.6895C65.7891 16.5267 65.4798 16.4453 65.1152 16.4453C64.7311 16.4453 64.4023 16.5072 64.1289 16.6309C63.862 16.7546 63.6439 16.9336 63.4746 17.168C63.3053 17.4023 63.1784 17.6823 63.0938 18.0078C63.0091 18.3333 62.957 18.7012 62.9375 19.1113V20.4688C62.9701 20.9505 63.0612 21.3835 63.2109 21.7676C63.3607 22.1452 63.5918 22.4447 63.9043 22.666C64.2168 22.8874 64.627 22.998 65.1348 22.998C65.5059 22.998 65.8184 22.9167 66.0723 22.7539C66.3262 22.5846 66.5312 22.3535 66.6875 22.0605C66.8503 21.7676 66.9642 21.429 67.0293 21.0449C67.1009 20.6608 67.1367 20.2474 67.1367 19.8047ZM74.5195 16.7383V25H71.707V14.4336H74.3535L74.5195 16.7383ZM77.7031 14.3652L77.6543 16.9727C77.5176 16.9531 77.3516 16.9368 77.1562 16.9238C76.9674 16.9043 76.7949 16.8945 76.6387 16.8945C76.2415 16.8945 75.8965 16.9466 75.6035 17.0508C75.3171 17.1484 75.0762 17.2949 74.8809 17.4902C74.6921 17.6855 74.5488 17.9232 74.4512 18.2031C74.36 18.4831 74.3079 18.8021 74.2949 19.1602L73.7285 18.9844C73.7285 18.3008 73.7969 17.6725 73.9336 17.0996C74.0703 16.5202 74.2689 16.0156 74.5293 15.5859C74.7962 15.1562 75.1217 14.8242 75.5059 14.5898C75.89 14.3555 76.3294 14.2383 76.8242 14.2383C76.9805 14.2383 77.14 14.2513 77.3027 14.2773C77.4655 14.2969 77.599 14.3262 77.7031 14.3652ZM82 14.4336V25H79.1777V14.4336H82ZM79.002 11.6797C79.002 11.2695 79.1452 10.931 79.4316 10.6641C79.7181 10.3971 80.1022 10.2637 80.584 10.2637C81.0592 10.2637 81.4401 10.3971 81.7266 10.6641C82.0195 10.931 82.166 11.2695 82.166 11.6797C82.166 12.0898 82.0195 12.4284 81.7266 12.6953C81.4401 12.9622 81.0592 13.0957 80.584 13.0957C80.1022 13.0957 79.7181 12.9622 79.4316 12.6953C79.1452 12.4284 79.002 12.0898 79.002 11.6797ZM90.0371 22.0801C90.0371 21.8783 89.9785 21.696 89.8613 21.5332C89.7441 21.3704 89.526 21.2207 89.207 21.084C88.8945 20.9408 88.4421 20.8105 87.8496 20.6934C87.3158 20.5762 86.8177 20.4297 86.3555 20.2539C85.8997 20.0716 85.5026 19.8535 85.1641 19.5996C84.832 19.3457 84.5716 19.0462 84.3828 18.7012C84.194 18.3496 84.0996 17.9492 84.0996 17.5C84.0996 17.0573 84.194 16.6406 84.3828 16.25C84.5781 15.8594 84.8548 15.5143 85.2129 15.2148C85.5775 14.9089 86.0202 14.6712 86.541 14.502C87.0684 14.3262 87.6608 14.2383 88.3184 14.2383C89.2363 14.2383 90.0241 14.3848 90.6816 14.6777C91.3457 14.9707 91.8535 15.3743 92.2051 15.8887C92.5632 16.3965 92.7422 16.9759 92.7422 17.627H89.9297C89.9297 17.3535 89.8711 17.1094 89.7539 16.8945C89.6432 16.6732 89.4674 16.5007 89.2266 16.377C88.9922 16.2467 88.6862 16.1816 88.3086 16.1816C87.9961 16.1816 87.7259 16.237 87.498 16.3477C87.2702 16.4518 87.0944 16.5951 86.9707 16.7773C86.8535 16.9531 86.7949 17.1484 86.7949 17.3633C86.7949 17.526 86.8275 17.6725 86.8926 17.8027C86.9642 17.9264 87.0781 18.0404 87.2344 18.1445C87.3906 18.2487 87.5924 18.3464 87.8398 18.4375C88.0938 18.5221 88.4062 18.6003 88.7773 18.6719C89.5391 18.8281 90.2194 19.0332 90.8184 19.2871C91.4173 19.5345 91.8926 19.873 92.2441 20.3027C92.5957 20.7259 92.7715 21.2826 92.7715 21.9727C92.7715 22.4414 92.6673 22.8711 92.459 23.2617C92.2507 23.6523 91.9512 23.9941 91.5605 24.2871C91.1699 24.5736 90.7012 24.7982 90.1543 24.9609C89.6139 25.1172 89.0052 25.1953 88.3281 25.1953C87.3451 25.1953 86.5117 25.0195 85.8281 24.668C85.151 24.3164 84.6367 23.8704 84.2852 23.3301C83.9401 22.7832 83.7676 22.2233 83.7676 21.6504H86.4336C86.4466 22.0345 86.5443 22.3438 86.7266 22.5781C86.9154 22.8125 87.153 22.9818 87.4395 23.0859C87.7324 23.1901 88.0482 23.2422 88.3867 23.2422C88.7513 23.2422 89.054 23.1934 89.2949 23.0957C89.5358 22.9915 89.7181 22.8548 89.8418 22.6855C89.972 22.5098 90.0371 22.3079 90.0371 22.0801ZM99.4609 25.1953C98.6406 25.1953 97.9049 25.0651 97.2539 24.8047C96.6029 24.5378 96.0495 24.1699 95.5938 23.7012C95.1445 23.2324 94.7995 22.6888 94.5586 22.0703C94.3177 21.4453 94.1973 20.7812 94.1973 20.0781V19.6875C94.1973 18.8867 94.3112 18.1543 94.5391 17.4902C94.7669 16.8262 95.0924 16.25 95.5156 15.7617C95.9453 15.2734 96.4661 14.8991 97.0781 14.6387C97.6901 14.3717 98.3802 14.2383 99.1484 14.2383C99.8971 14.2383 100.561 14.362 101.141 14.6094C101.72 14.8568 102.205 15.2083 102.596 15.6641C102.993 16.1198 103.292 16.6667 103.494 17.3047C103.696 17.9362 103.797 18.6393 103.797 19.4141V20.5859H95.3984V18.7109H101.033V18.4961C101.033 18.1055 100.962 17.7572 100.818 17.4512C100.682 17.1387 100.473 16.8913 100.193 16.709C99.9134 16.5267 99.5553 16.4355 99.1191 16.4355C98.748 16.4355 98.429 16.5169 98.1621 16.6797C97.8952 16.8424 97.6771 17.0703 97.5078 17.3633C97.3451 17.6562 97.2214 18.0013 97.1367 18.3984C97.0586 18.7891 97.0195 19.2188 97.0195 19.6875V20.0781C97.0195 20.5013 97.0781 20.8919 97.1953 21.25C97.319 21.6081 97.4915 21.9173 97.7129 22.1777C97.9408 22.4382 98.2142 22.64 98.5332 22.7832C98.8587 22.9264 99.2266 22.998 99.6367 22.998C100.145 22.998 100.617 22.9004 101.053 22.7051C101.495 22.5033 101.876 22.2005 102.195 21.7969L103.562 23.2812C103.341 23.6003 103.038 23.9062 102.654 24.1992C102.277 24.4922 101.821 24.7331 101.287 24.9219C100.753 25.1042 100.145 25.1953 99.4609 25.1953ZM119.969 23.4668V25H112.439V23.4668H119.969ZM112.82 10.7812V25H110.936V10.7812H112.82ZM118.973 16.8945V18.4277H112.439V16.8945H118.973ZM119.871 10.7812V12.3242H112.439V10.7812H119.871ZM128.494 22.9492V10H130.311V25H128.65L128.494 22.9492ZM121.385 19.834V19.6289C121.385 18.8216 121.482 18.0892 121.678 17.4316C121.88 16.7676 122.163 16.1979 122.527 15.7227C122.898 15.2474 123.338 14.8828 123.846 14.6289C124.36 14.3685 124.933 14.2383 125.564 14.2383C126.229 14.2383 126.808 14.3555 127.303 14.5898C127.804 14.8177 128.227 15.153 128.572 15.5957C128.924 16.0319 129.201 16.5592 129.402 17.1777C129.604 17.7962 129.744 18.4961 129.822 19.2773V20.1758C129.751 20.9505 129.611 21.6471 129.402 22.2656C129.201 22.8841 128.924 23.4115 128.572 23.8477C128.227 24.2839 127.804 24.6191 127.303 24.8535C126.801 25.0814 126.215 25.1953 125.545 25.1953C124.926 25.1953 124.36 25.0618 123.846 24.7949C123.338 24.528 122.898 24.1536 122.527 23.6719C122.163 23.1901 121.88 22.6237 121.678 21.9727C121.482 21.3151 121.385 20.6022 121.385 19.834ZM123.201 19.6289V19.834C123.201 20.3613 123.253 20.8561 123.357 21.3184C123.468 21.7806 123.637 22.1875 123.865 22.5391C124.093 22.8906 124.383 23.1673 124.734 23.3691C125.086 23.5645 125.506 23.6621 125.994 23.6621C126.593 23.6621 127.085 23.5352 127.469 23.2812C127.859 23.0273 128.172 22.6921 128.406 22.2754C128.641 21.8587 128.823 21.4062 128.953 20.918V18.5645C128.875 18.2064 128.761 17.8613 128.611 17.5293C128.468 17.1908 128.279 16.8913 128.045 16.6309C127.817 16.3639 127.534 16.1523 127.195 15.9961C126.863 15.8398 126.469 15.7617 126.014 15.7617C125.519 15.7617 125.092 15.8659 124.734 16.0742C124.383 16.276 124.093 16.556 123.865 16.9141C123.637 17.2656 123.468 17.6758 123.357 18.1445C123.253 18.6068 123.201 19.1016 123.201 19.6289ZM135.086 14.4336V25H133.27V14.4336H135.086ZM133.133 11.6309C133.133 11.3379 133.221 11.0905 133.396 10.8887C133.579 10.6868 133.846 10.5859 134.197 10.5859C134.542 10.5859 134.806 10.6868 134.988 10.8887C135.177 11.0905 135.271 11.3379 135.271 11.6309C135.271 11.9108 135.177 12.1517 134.988 12.3535C134.806 12.5488 134.542 12.6465 134.197 12.6465C133.846 12.6465 133.579 12.5488 133.396 12.3535C133.221 12.1517 133.133 11.9108 133.133 11.6309ZM142.41 14.4336V15.8203H136.697V14.4336H142.41ZM138.631 11.8652H140.438V22.3828C140.438 22.7409 140.493 23.0111 140.604 23.1934C140.714 23.3757 140.857 23.4961 141.033 23.5547C141.209 23.6133 141.398 23.6426 141.6 23.6426C141.749 23.6426 141.906 23.6296 142.068 23.6035C142.238 23.571 142.365 23.5449 142.449 23.5254L142.459 25C142.316 25.0456 142.127 25.0879 141.893 25.127C141.665 25.1725 141.388 25.1953 141.062 25.1953C140.62 25.1953 140.213 25.1074 139.842 24.9316C139.471 24.7559 139.174 24.4629 138.953 24.0527C138.738 23.6361 138.631 23.0762 138.631 22.373V11.8652ZM146.492 14.4336V25H144.676V14.4336H146.492ZM144.539 11.6309C144.539 11.3379 144.627 11.0905 144.803 10.8887C144.985 10.6868 145.252 10.5859 145.604 10.5859C145.949 10.5859 146.212 10.6868 146.395 10.8887C146.583 11.0905 146.678 11.3379 146.678 11.6309C146.678 11.9108 146.583 12.1517 146.395 12.3535C146.212 12.5488 145.949 12.6465 145.604 12.6465C145.252 12.6465 144.985 12.5488 144.803 12.3535C144.627 12.1517 144.539 11.9108 144.539 11.6309ZM148.914 19.834V19.6094C148.914 18.8477 149.025 18.1413 149.246 17.4902C149.467 16.8327 149.786 16.263 150.203 15.7812C150.62 15.293 151.124 14.9154 151.717 14.6484C152.309 14.375 152.973 14.2383 153.709 14.2383C154.451 14.2383 155.118 14.375 155.711 14.6484C156.31 14.9154 156.818 15.293 157.234 15.7812C157.658 16.263 157.98 16.8327 158.201 17.4902C158.423 18.1413 158.533 18.8477 158.533 19.6094V19.834C158.533 20.5957 158.423 21.3021 158.201 21.9531C157.98 22.6042 157.658 23.1738 157.234 23.6621C156.818 24.1439 156.313 24.5215 155.721 24.7949C155.135 25.0618 154.471 25.1953 153.729 25.1953C152.986 25.1953 152.319 25.0618 151.727 24.7949C151.134 24.5215 150.626 24.1439 150.203 23.6621C149.786 23.1738 149.467 22.6042 149.246 21.9531C149.025 21.3021 148.914 20.5957 148.914 19.834ZM150.721 19.6094V19.834C150.721 20.3613 150.783 20.8594 150.906 21.3281C151.03 21.7904 151.215 22.2005 151.463 22.5586C151.717 22.9167 152.033 23.1999 152.41 23.4082C152.788 23.61 153.227 23.7109 153.729 23.7109C154.223 23.7109 154.656 23.61 155.027 23.4082C155.405 23.1999 155.717 22.9167 155.965 22.5586C156.212 22.2005 156.398 21.7904 156.521 21.3281C156.652 20.8594 156.717 20.3613 156.717 19.834V19.6094C156.717 19.0885 156.652 18.597 156.521 18.1348C156.398 17.666 156.209 17.2526 155.955 16.8945C155.708 16.5299 155.395 16.2435 155.018 16.0352C154.646 15.8268 154.21 15.7227 153.709 15.7227C153.214 15.7227 152.778 15.8268 152.4 16.0352C152.029 16.2435 151.717 16.5299 151.463 16.8945C151.215 17.2526 151.03 17.666 150.906 18.1348C150.783 18.597 150.721 19.0885 150.721 19.6094ZM162.605 16.6895V25H160.799V14.4336H162.508L162.605 16.6895ZM162.176 19.3164L161.424 19.2871C161.43 18.5645 161.538 17.8971 161.746 17.2852C161.954 16.6667 162.247 16.1296 162.625 15.6738C163.003 15.2181 163.452 14.8665 163.973 14.6191C164.5 14.3652 165.083 14.2383 165.721 14.2383C166.242 14.2383 166.71 14.3099 167.127 14.4531C167.544 14.5898 167.898 14.8112 168.191 15.1172C168.491 15.4232 168.719 15.8203 168.875 16.3086C169.031 16.7904 169.109 17.3796 169.109 18.0762V25H167.293V18.0566C167.293 17.5033 167.212 17.0605 167.049 16.7285C166.886 16.39 166.648 16.1458 166.336 15.9961C166.023 15.8398 165.639 15.7617 165.184 15.7617C164.734 15.7617 164.324 15.8561 163.953 16.0449C163.589 16.2337 163.273 16.4941 163.006 16.8262C162.745 17.1582 162.54 17.5391 162.391 17.9688C162.247 18.3919 162.176 18.8411 162.176 19.3164Z" fill="white"/>
</svg>
