<!--
Copyright 2025 Specter Ops, Inc.

Licensed under the Apache License, Version 2.0
you may not use this file except in compliance with the License.
You may obtain a copy of the License at

    http://www.apache.org/licenses/LICENSE-2.0

Unless required by applicable law or agreed to in writing, software
distributed under the License is distributed on an "AS IS" BASIS,
WITHOUT WARRANTIES OR CONDITIONS OF ANY KIND, either express or implied.
See the License for the specific language governing permissions and
limitations under the License.

SPDX-License-Identifier: Apache-2.0
-->
<svg width="225" height="45" viewBox="0 0 225 45" fill="none" xmlns="http://www.w3.org/2000/svg">
<rect width="225" height="44.9041" rx="8" fill="#33318F"/>
<g clip-path="url(#clip0_1008_722)">
<path d="M41.5432 17.4401C41.5048 17.4273 41.4685 17.4131 41.4308 17.403C40.4704 17.1459 39.5098 16.8894 38.5494 16.6324C37.6362 16.3879 36.7233 16.1431 35.8103 15.898C35.7726 15.8879 35.7356 15.8751 35.6936 15.8621C35.6686 15.823 35.6418 15.7822 35.6163 15.7407C35.1216 14.9373 34.4728 14.2873 33.6692 13.7934C33.0704 13.4254 32.4255 13.1741 31.7349 13.0405C31.3536 12.9666 30.9691 12.9298 30.5807 12.9298C26.1289 12.9301 21.677 12.9299 17.2252 12.9302C17.1812 12.9302 17.1374 12.933 17.0934 12.9349C17.0816 12.9354 17.0698 12.9572 17.0755 12.9688C17.0929 13.0037 17.1097 13.039 17.1293 13.0727C17.3495 13.455 17.5701 13.8369 17.7906 14.2189C17.82 14.2698 17.8489 14.321 17.878 14.3721C18.6179 15.6652 19.8542 16.6929 21.4181 17.1275C21.6873 17.2023 21.9611 17.2567 22.239 17.2903C22.507 17.3227 22.7756 17.34 23.0456 17.3399C24.6635 17.3393 26.2815 17.3396 27.8995 17.3395C27.9529 17.3395 28.007 17.3451 28.0553 17.332C28.0977 17.2953 28.1176 17.2497 28.1442 17.2089C28.3784 16.8506 28.6751 16.5558 29.0362 16.3258C29.3714 16.1123 29.7354 15.9713 30.1272 15.9089C31.6833 15.6611 33.0857 16.6441 33.4506 18.0892C33.517 18.3524 33.5437 18.6202 33.5348 18.891C33.5118 19.5938 33.2692 20.2125 32.8053 20.74C32.3811 21.2226 31.8512 21.5303 31.2227 21.6689C30.9129 21.7372 30.6007 21.7413 30.2864 21.719C29.3843 21.6025 28.6744 21.1714 28.1603 20.42C28.1326 20.3795 28.107 20.3377 28.0793 20.2972C28.0678 20.2805 28.0491 20.2712 28.0293 20.2703C27.9803 20.2682 27.9312 20.2674 27.8822 20.2674C26.8968 20.2671 25.9112 20.2666 24.9258 20.2668C24.2834 20.2668 23.6412 20.2699 22.9989 20.2671C22.7294 20.2659 22.4602 20.2556 22.1913 20.2306C20.6194 20.0838 19.1867 19.5586 17.8961 18.6508C16.8539 17.9176 16.0167 16.9943 15.3752 15.8936C15.0593 15.3515 14.747 14.8075 14.4333 14.2642C13.6445 12.8977 12.8555 11.5309 12.0668 10.1639C12.0424 10.1219 12.0069 10.082 12.0006 10.0337C11.9995 10.0256 12.0006 10.0044 12.0006 10.0044C12.0006 10.0044 12.0308 10.0025 12.0402 10.0022C12.0842 10.0009 12.1283 9.99998 12.1725 9.99998C18.3305 9.99998 24.4885 9.99983 30.6465 10.0007C30.9308 10.0007 31.2146 10.0165 31.4981 10.0418C31.9482 10.082 32.392 10.1566 32.8297 10.2674C33.649 10.4748 34.4126 10.8107 35.1259 11.2627C35.5575 11.5362 35.9621 11.8456 36.3461 12.1822C36.7114 12.5025 37.0553 12.845 37.3845 13.2021C37.4044 13.2237 37.425 13.2449 37.4437 13.2676C37.4697 13.2992 37.5029 13.3182 37.5417 13.3287C37.6268 13.3516 37.7119 13.3749 37.7969 13.3979C38.9228 13.6996 40.0487 14.0016 41.1747 14.3031C42.4047 14.6323 43.6349 14.961 44.8652 15.29C45.1963 15.3786 45.5275 15.4672 45.8585 15.5563C45.9062 15.5691 45.9529 15.5863 46.0001 15.6006C45.9744 15.6484 45.9505 15.6974 45.9233 15.7445C45.5929 16.3177 45.2621 16.8908 44.9313 17.4638C43.3481 20.2058 41.7649 22.9477 40.1813 25.6895C40.1545 25.7359 40.1377 25.7921 40.0911 25.8216C40.0504 25.8472 40.0019 25.8607 39.9561 25.878C38.2469 26.5234 36.5376 27.1685 34.8284 27.8138C34.8055 27.8225 34.7832 27.8337 34.7597 27.8396C34.6977 27.8553 34.6619 27.897 34.631 27.9505C34.3258 28.4817 34.0189 29.0119 33.7126 29.5425C32.7079 31.2828 31.7031 33.0231 30.6984 34.7634C30.6763 34.8016 30.6546 34.8401 30.6306 34.877C30.6232 34.8885 30.6088 34.8954 30.598 34.9041C30.5568 34.8774 30.543 34.8334 30.5212 34.796C30.3072 34.4272 30.0941 34.0579 29.8809 33.6886C28.4006 31.1248 26.9203 28.5612 25.4402 25.9975C24.9353 25.123 24.4308 24.2486 23.9262 23.374C23.9041 23.3357 23.8825 23.2973 23.8616 23.2586L23.8326 23.2104C23.8717 23.2092 23.9684 23.2053 24.0077 23.2053C25.0226 23.2053 26.1996 23.2029 27.2144 23.2035L27.2913 23.3435C28.3574 25.1898 29.4235 27.0362 30.4899 28.8824C30.5215 28.9373 30.5568 28.9901 30.5919 29.0431C30.5948 29.0475 30.6133 29.0486 30.6175 29.0443C30.6339 29.0268 30.6498 29.0079 30.6619 28.9872C30.7411 28.8518 30.8193 28.7158 30.8977 28.5801C31.4196 27.6759 31.9413 26.7717 32.4637 25.8678C32.5555 25.7088 32.5117 25.745 32.6884 25.6784C34.1274 25.1352 35.5669 24.5937 37.0062 24.0516C37.2721 23.9515 37.538 23.8517 37.804 23.7518C37.827 23.7431 37.8493 23.7328 37.8726 23.7257C37.9271 23.7091 37.9637 23.675 37.9921 23.6249C38.135 23.3735 38.2806 23.1236 38.4252 22.8732C39.4421 21.1116 40.4589 19.3501 41.4758 17.5884C41.4954 17.5544 41.5153 17.5205 41.5331 17.4856C41.5394 17.4733 41.5397 17.4579 41.5435 17.4403L41.5432 17.4401Z" fill="white"/>
</g>
<path d="M64.8105 27.1669V29.4521H57.2422V27.1669H64.8105ZM58.1992 15.2333V29.4521H55.2695V15.2333H58.1992ZM63.8242 21.0243V23.2509H57.2422V21.0243H63.8242ZM64.8008 15.2333V17.5282H57.2422V15.2333H64.8008ZM69.0977 21.1415V29.4521H66.2852V18.8857H68.9219L69.0977 21.1415ZM68.6875 23.7978H67.9258C67.9258 23.0165 68.0267 22.3134 68.2285 21.6884C68.4303 21.0569 68.7135 20.5198 69.0781 20.0771C69.4427 19.6278 69.8757 19.286 70.377 19.0517C70.8848 18.8108 71.4512 18.6903 72.0762 18.6903C72.571 18.6903 73.0234 18.762 73.4336 18.9052C73.8438 19.0484 74.1953 19.2763 74.4883 19.5888C74.7878 19.9013 75.0156 20.3147 75.1719 20.829C75.3346 21.3433 75.416 21.9716 75.416 22.7138V29.4521H72.584V22.704C72.584 22.2353 72.5189 21.8707 72.3887 21.6103C72.2585 21.3498 72.0664 21.1676 71.8125 21.0634C71.5651 20.9527 71.2591 20.8974 70.8945 20.8974C70.5169 20.8974 70.1882 20.9722 69.9082 21.122C69.6348 21.2717 69.4069 21.4801 69.2246 21.747C69.0488 22.0074 68.9154 22.3134 68.8242 22.6649C68.7331 23.0165 68.6875 23.3941 68.6875 23.7978ZM82.7305 18.8857V20.8778H76.5781V18.8857H82.7305ZM78.1016 16.2782H80.9141V26.2685C80.9141 26.5745 80.9531 26.8088 81.0312 26.9716C81.1159 27.1343 81.2396 27.2483 81.4023 27.3134C81.5651 27.372 81.7702 27.4013 82.0176 27.4013C82.1934 27.4013 82.3496 27.3948 82.4863 27.3817C82.6296 27.3622 82.75 27.3427 82.8477 27.3232L82.8574 29.3935C82.6165 29.4716 82.3561 29.5334 82.0762 29.579C81.7962 29.6246 81.487 29.6474 81.1484 29.6474C80.5299 29.6474 79.9896 29.5465 79.5273 29.3446C79.0716 29.1363 78.7201 28.8043 78.4727 28.3485C78.2253 27.8928 78.1016 27.2939 78.1016 26.5517V16.2782ZM89.1953 29.6474C88.375 29.6474 87.6393 29.5172 86.9883 29.2567C86.3372 28.9898 85.7839 28.622 85.3281 28.1532C84.8789 27.6845 84.5339 27.1409 84.293 26.5224C84.0521 25.8974 83.9316 25.2333 83.9316 24.5302V24.1396C83.9316 23.3388 84.0456 22.6064 84.2734 21.9423C84.5013 21.2782 84.8268 20.7021 85.25 20.2138C85.6797 19.7255 86.2005 19.3511 86.8125 19.0907C87.4245 18.8238 88.1146 18.6903 88.8828 18.6903C89.6315 18.6903 90.2956 18.814 90.875 19.0614C91.4544 19.3088 91.9395 19.6604 92.3301 20.1161C92.7272 20.5718 93.0267 21.1187 93.2285 21.7567C93.4303 22.3883 93.5312 23.0914 93.5312 23.8661V25.038H85.1328V23.163H90.7676V22.9482C90.7676 22.5575 90.696 22.2092 90.5527 21.9032C90.416 21.5907 90.2077 21.3433 89.9277 21.161C89.6478 20.9787 89.2897 20.8876 88.8535 20.8876C88.4824 20.8876 88.1634 20.969 87.8965 21.1317C87.6296 21.2945 87.4115 21.5224 87.2422 21.8153C87.0794 22.1083 86.9557 22.4534 86.8711 22.8505C86.793 23.2411 86.7539 23.6708 86.7539 24.1396V24.5302C86.7539 24.9534 86.8125 25.344 86.9297 25.7021C87.0534 26.0601 87.2259 26.3694 87.4473 26.6298C87.6751 26.8902 87.9486 27.092 88.2676 27.2353C88.5931 27.3785 88.9609 27.4501 89.3711 27.4501C89.8789 27.4501 90.3509 27.3524 90.7871 27.1571C91.2298 26.9553 91.6107 26.6526 91.9297 26.2489L93.2969 27.7333C93.0755 28.0523 92.7728 28.3583 92.3887 28.6513C92.0111 28.9442 91.5553 29.1851 91.0215 29.3739C90.4876 29.5562 89.8789 29.6474 89.1953 29.6474ZM97.9453 21.1903V29.4521H95.1328V18.8857H97.7793L97.9453 21.1903ZM101.129 18.8173L101.08 21.4247C100.943 21.4052 100.777 21.3889 100.582 21.3759C100.393 21.3564 100.221 21.3466 100.064 21.3466C99.6673 21.3466 99.3223 21.3987 99.0293 21.5028C98.7428 21.6005 98.502 21.747 98.3066 21.9423C98.1178 22.1376 97.9746 22.3752 97.877 22.6552C97.7858 22.9351 97.7337 23.2541 97.7207 23.6122L97.1543 23.4364C97.1543 22.7528 97.2227 22.1246 97.3594 21.5517C97.4961 20.9722 97.6947 20.4677 97.9551 20.038C98.222 19.6083 98.5475 19.2763 98.9316 19.0419C99.3158 18.8075 99.7552 18.6903 100.25 18.6903C100.406 18.6903 100.566 18.7034 100.729 18.7294C100.891 18.7489 101.025 18.7782 101.129 18.8173ZM105.27 20.9169V33.5146H102.457V18.8857H105.064L105.27 20.9169ZM111.959 24.0517V24.2567C111.959 25.025 111.868 25.7379 111.686 26.3954C111.51 27.053 111.249 27.6259 110.904 28.1142C110.559 28.5959 110.13 28.9735 109.615 29.247C109.107 29.5139 108.521 29.6474 107.857 29.6474C107.213 29.6474 106.653 29.5172 106.178 29.2567C105.702 28.9963 105.302 28.6317 104.977 28.163C104.658 27.6877 104.4 27.1376 104.205 26.5126C104.01 25.8876 103.86 25.217 103.756 24.5009V23.9638C103.86 23.1955 104.01 22.4924 104.205 21.8544C104.4 21.2099 104.658 20.6532 104.977 20.1845C105.302 19.7092 105.699 19.3414 106.168 19.081C106.643 18.8205 107.2 18.6903 107.838 18.6903C108.508 18.6903 109.098 18.8173 109.605 19.0712C110.12 19.3251 110.549 19.6897 110.895 20.1649C111.246 20.6402 111.51 21.2066 111.686 21.8642C111.868 22.5217 111.959 23.2509 111.959 24.0517ZM109.137 24.2567V24.0517C109.137 23.6024 109.098 23.189 109.02 22.8114C108.948 22.4273 108.831 22.092 108.668 21.8056C108.512 21.5191 108.303 21.2978 108.043 21.1415C107.789 20.9787 107.48 20.8974 107.115 20.8974C106.731 20.8974 106.402 20.9592 106.129 21.0829C105.862 21.2066 105.644 21.3857 105.475 21.62C105.305 21.8544 105.178 22.1343 105.094 22.4599C105.009 22.7854 104.957 23.1532 104.938 23.5634V24.9208C104.97 25.4026 105.061 25.8355 105.211 26.2196C105.361 26.5972 105.592 26.8967 105.904 27.1181C106.217 27.3394 106.627 27.4501 107.135 27.4501C107.506 27.4501 107.818 27.3687 108.072 27.206C108.326 27.0367 108.531 26.8056 108.688 26.5126C108.85 26.2196 108.964 25.8811 109.029 25.497C109.101 25.1129 109.137 24.6995 109.137 24.2567ZM116.52 21.1903V29.4521H113.707V18.8857H116.354L116.52 21.1903ZM119.703 18.8173L119.654 21.4247C119.518 21.4052 119.352 21.3889 119.156 21.3759C118.967 21.3564 118.795 21.3466 118.639 21.3466C118.242 21.3466 117.896 21.3987 117.604 21.5028C117.317 21.6005 117.076 21.747 116.881 21.9423C116.692 22.1376 116.549 22.3752 116.451 22.6552C116.36 22.9351 116.308 23.2541 116.295 23.6122L115.729 23.4364C115.729 22.7528 115.797 22.1246 115.934 21.5517C116.07 20.9722 116.269 20.4677 116.529 20.038C116.796 19.6083 117.122 19.2763 117.506 19.0419C117.89 18.8075 118.329 18.6903 118.824 18.6903C118.98 18.6903 119.14 18.7034 119.303 18.7294C119.465 18.7489 119.599 18.7782 119.703 18.8173ZM124 18.8857V29.4521H121.178V18.8857H124ZM121.002 16.1317C121.002 15.7216 121.145 15.383 121.432 15.1161C121.718 14.8492 122.102 14.7157 122.584 14.7157C123.059 14.7157 123.44 14.8492 123.727 15.1161C124.02 15.383 124.166 15.7216 124.166 16.1317C124.166 16.5419 124.02 16.8804 123.727 17.1474C123.44 17.4143 123.059 17.5478 122.584 17.5478C122.102 17.5478 121.718 17.4143 121.432 17.1474C121.145 16.8804 121.002 16.5419 121.002 16.1317ZM132.037 26.5321C132.037 26.3303 131.979 26.148 131.861 25.9853C131.744 25.8225 131.526 25.6728 131.207 25.536C130.895 25.3928 130.442 25.2626 129.85 25.1454C129.316 25.0282 128.818 24.8817 128.355 24.706C127.9 24.5237 127.503 24.3056 127.164 24.0517C126.832 23.7978 126.572 23.4983 126.383 23.1532C126.194 22.8017 126.1 22.4013 126.1 21.9521C126.1 21.5093 126.194 21.0927 126.383 20.7021C126.578 20.3114 126.855 19.9664 127.213 19.6669C127.577 19.3609 128.02 19.1233 128.541 18.954C129.068 18.7782 129.661 18.6903 130.318 18.6903C131.236 18.6903 132.024 18.8368 132.682 19.1298C133.346 19.4228 133.854 19.8264 134.205 20.3407C134.563 20.8485 134.742 21.428 134.742 22.079H131.93C131.93 21.8056 131.871 21.5614 131.754 21.3466C131.643 21.1252 131.467 20.9527 131.227 20.829C130.992 20.6988 130.686 20.6337 130.309 20.6337C129.996 20.6337 129.726 20.689 129.498 20.7997C129.27 20.9039 129.094 21.0471 128.971 21.2294C128.854 21.4052 128.795 21.6005 128.795 21.8153C128.795 21.9781 128.827 22.1246 128.893 22.2548C128.964 22.3785 129.078 22.4924 129.234 22.5966C129.391 22.7008 129.592 22.7984 129.84 22.8896C130.094 22.9742 130.406 23.0523 130.777 23.1239C131.539 23.2802 132.219 23.4853 132.818 23.7392C133.417 23.9866 133.893 24.3251 134.244 24.7548C134.596 25.178 134.771 25.7346 134.771 26.4247C134.771 26.8935 134.667 27.3232 134.459 27.7138C134.251 28.1044 133.951 28.4462 133.561 28.7392C133.17 29.0256 132.701 29.2502 132.154 29.413C131.614 29.5692 131.005 29.6474 130.328 29.6474C129.345 29.6474 128.512 29.4716 127.828 29.12C127.151 28.7685 126.637 28.3225 126.285 27.7821C125.94 27.2353 125.768 26.6754 125.768 26.1024H128.434C128.447 26.4866 128.544 26.7958 128.727 27.0302C128.915 27.2646 129.153 27.4338 129.439 27.538C129.732 27.6422 130.048 27.6942 130.387 27.6942C130.751 27.6942 131.054 27.6454 131.295 27.5478C131.536 27.4436 131.718 27.3069 131.842 27.1376C131.972 26.9618 132.037 26.76 132.037 26.5321ZM141.461 29.6474C140.641 29.6474 139.905 29.5172 139.254 29.2567C138.603 28.9898 138.049 28.622 137.594 28.1532C137.145 27.6845 136.799 27.1409 136.559 26.5224C136.318 25.8974 136.197 25.2333 136.197 24.5302V24.1396C136.197 23.3388 136.311 22.6064 136.539 21.9423C136.767 21.2782 137.092 20.7021 137.516 20.2138C137.945 19.7255 138.466 19.3511 139.078 19.0907C139.69 18.8238 140.38 18.6903 141.148 18.6903C141.897 18.6903 142.561 18.814 143.141 19.0614C143.72 19.3088 144.205 19.6604 144.596 20.1161C144.993 20.5718 145.292 21.1187 145.494 21.7567C145.696 22.3883 145.797 23.0914 145.797 23.8661V25.038H137.398V23.163H143.033V22.9482C143.033 22.5575 142.962 22.2092 142.818 21.9032C142.682 21.5907 142.473 21.3433 142.193 21.161C141.913 20.9787 141.555 20.8876 141.119 20.8876C140.748 20.8876 140.429 20.969 140.162 21.1317C139.895 21.2945 139.677 21.5224 139.508 21.8153C139.345 22.1083 139.221 22.4534 139.137 22.8505C139.059 23.2411 139.02 23.6708 139.02 24.1396V24.5302C139.02 24.9534 139.078 25.344 139.195 25.7021C139.319 26.0601 139.492 26.3694 139.713 26.6298C139.941 26.8902 140.214 27.092 140.533 27.2353C140.859 27.3785 141.227 27.4501 141.637 27.4501C142.145 27.4501 142.617 27.3524 143.053 27.1571C143.495 26.9553 143.876 26.6526 144.195 26.2489L145.562 27.7333C145.341 28.0523 145.038 28.3583 144.654 28.6513C144.277 28.9442 143.821 29.1851 143.287 29.3739C142.753 29.5562 142.145 29.6474 141.461 29.6474ZM161.969 27.9189V29.4521H154.439V27.9189H161.969ZM154.82 15.2333V29.4521H152.936V15.2333H154.82ZM160.973 21.3466V22.8798H154.439V21.3466H160.973ZM161.871 15.2333V16.7763H154.439V15.2333H161.871ZM170.494 27.4013V14.4521H172.311V29.4521H170.65L170.494 27.4013ZM163.385 24.286V24.081C163.385 23.2737 163.482 22.5412 163.678 21.8837C163.88 21.2196 164.163 20.65 164.527 20.1747C164.898 19.6995 165.338 19.3349 165.846 19.081C166.36 18.8205 166.933 18.6903 167.564 18.6903C168.229 18.6903 168.808 18.8075 169.303 19.0419C169.804 19.2698 170.227 19.6051 170.572 20.0478C170.924 20.484 171.201 21.0113 171.402 21.6298C171.604 22.2483 171.744 22.9482 171.822 23.7294V24.6278C171.751 25.4026 171.611 26.0992 171.402 26.7177C171.201 27.3362 170.924 27.8635 170.572 28.2997C170.227 28.7359 169.804 29.0712 169.303 29.3056C168.801 29.5334 168.215 29.6474 167.545 29.6474C166.926 29.6474 166.36 29.5139 165.846 29.247C165.338 28.9801 164.898 28.6057 164.527 28.1239C164.163 27.6422 163.88 27.0758 163.678 26.4247C163.482 25.7672 163.385 25.0543 163.385 24.286ZM165.201 24.081V24.286C165.201 24.8134 165.253 25.3082 165.357 25.7704C165.468 26.2327 165.637 26.6396 165.865 26.9911C166.093 27.3427 166.383 27.6194 166.734 27.8212C167.086 28.0165 167.506 28.1142 167.994 28.1142C168.593 28.1142 169.085 27.9872 169.469 27.7333C169.859 27.4794 170.172 27.1441 170.406 26.7274C170.641 26.3108 170.823 25.8583 170.953 25.37V23.0165C170.875 22.6584 170.761 22.3134 170.611 21.9814C170.468 21.6428 170.279 21.3433 170.045 21.0829C169.817 20.816 169.534 20.6044 169.195 20.4482C168.863 20.2919 168.469 20.2138 168.014 20.2138C167.519 20.2138 167.092 20.3179 166.734 20.5263C166.383 20.7281 166.093 21.008 165.865 21.3661C165.637 21.7177 165.468 22.1278 165.357 22.5966C165.253 23.0588 165.201 23.5536 165.201 24.081ZM177.086 18.8857V29.4521H175.27V18.8857H177.086ZM175.133 16.0829C175.133 15.7899 175.221 15.5426 175.396 15.3407C175.579 15.1389 175.846 15.038 176.197 15.038C176.542 15.038 176.806 15.1389 176.988 15.3407C177.177 15.5426 177.271 15.7899 177.271 16.0829C177.271 16.3629 177.177 16.6037 176.988 16.8056C176.806 17.0009 176.542 17.0985 176.197 17.0985C175.846 17.0985 175.579 17.0009 175.396 16.8056C175.221 16.6037 175.133 16.3629 175.133 16.0829ZM184.41 18.8857V20.2724H178.697V18.8857H184.41ZM180.631 16.3173H182.438V26.8349C182.438 27.1929 182.493 27.4631 182.604 27.6454C182.714 27.8277 182.857 27.9482 183.033 28.0067C183.209 28.0653 183.398 28.0946 183.6 28.0946C183.749 28.0946 183.906 28.0816 184.068 28.0556C184.238 28.023 184.365 27.997 184.449 27.9774L184.459 29.4521C184.316 29.4976 184.127 29.5399 183.893 29.579C183.665 29.6246 183.388 29.6474 183.062 29.6474C182.62 29.6474 182.213 29.5595 181.842 29.3837C181.471 29.2079 181.174 28.9149 180.953 28.5048C180.738 28.0881 180.631 27.5282 180.631 26.8251V16.3173ZM188.492 18.8857V29.4521H186.676V18.8857H188.492ZM186.539 16.0829C186.539 15.7899 186.627 15.5426 186.803 15.3407C186.985 15.1389 187.252 15.038 187.604 15.038C187.949 15.038 188.212 15.1389 188.395 15.3407C188.583 15.5426 188.678 15.7899 188.678 16.0829C188.678 16.3629 188.583 16.6037 188.395 16.8056C188.212 17.0009 187.949 17.0985 187.604 17.0985C187.252 17.0985 186.985 17.0009 186.803 16.8056C186.627 16.6037 186.539 16.3629 186.539 16.0829ZM190.914 24.286V24.0614C190.914 23.2997 191.025 22.5933 191.246 21.9423C191.467 21.2847 191.786 20.7151 192.203 20.2333C192.62 19.745 193.124 19.3674 193.717 19.1005C194.309 18.8271 194.973 18.6903 195.709 18.6903C196.451 18.6903 197.118 18.8271 197.711 19.1005C198.31 19.3674 198.818 19.745 199.234 20.2333C199.658 20.7151 199.98 21.2847 200.201 21.9423C200.423 22.5933 200.533 23.2997 200.533 24.0614V24.286C200.533 25.0478 200.423 25.7541 200.201 26.4052C199.98 27.0562 199.658 27.6259 199.234 28.1142C198.818 28.5959 198.313 28.9735 197.721 29.247C197.135 29.5139 196.471 29.6474 195.729 29.6474C194.986 29.6474 194.319 29.5139 193.727 29.247C193.134 28.9735 192.626 28.5959 192.203 28.1142C191.786 27.6259 191.467 27.0562 191.246 26.4052C191.025 25.7541 190.914 25.0478 190.914 24.286ZM192.721 24.0614V24.286C192.721 24.8134 192.783 25.3114 192.906 25.7802C193.03 26.2424 193.215 26.6526 193.463 27.0107C193.717 27.3687 194.033 27.6519 194.41 27.8603C194.788 28.0621 195.227 28.163 195.729 28.163C196.223 28.163 196.656 28.0621 197.027 27.8603C197.405 27.6519 197.717 27.3687 197.965 27.0107C198.212 26.6526 198.398 26.2424 198.521 25.7802C198.652 25.3114 198.717 24.8134 198.717 24.286V24.0614C198.717 23.5406 198.652 23.0491 198.521 22.5868C198.398 22.1181 198.209 21.7047 197.955 21.3466C197.708 20.982 197.395 20.6955 197.018 20.4872C196.646 20.2789 196.21 20.1747 195.709 20.1747C195.214 20.1747 194.778 20.2789 194.4 20.4872C194.029 20.6955 193.717 20.982 193.463 21.3466C193.215 21.7047 193.03 22.1181 192.906 22.5868C192.783 23.0491 192.721 23.5406 192.721 24.0614ZM204.605 21.1415V29.4521H202.799V18.8857H204.508L204.605 21.1415ZM204.176 23.7685L203.424 23.7392C203.43 23.0165 203.538 22.3492 203.746 21.7372C203.954 21.1187 204.247 20.5816 204.625 20.1259C205.003 19.6702 205.452 19.3186 205.973 19.0712C206.5 18.8173 207.083 18.6903 207.721 18.6903C208.242 18.6903 208.71 18.762 209.127 18.9052C209.544 19.0419 209.898 19.2633 210.191 19.5692C210.491 19.8752 210.719 20.2724 210.875 20.7607C211.031 21.2424 211.109 21.8316 211.109 22.5282V29.4521H209.293V22.5087C209.293 21.9553 209.212 21.5126 209.049 21.1806C208.886 20.842 208.648 20.5979 208.336 20.4482C208.023 20.2919 207.639 20.2138 207.184 20.2138C206.734 20.2138 206.324 20.3082 205.953 20.497C205.589 20.6858 205.273 20.9462 205.006 21.2782C204.745 21.6103 204.54 21.9911 204.391 22.4208C204.247 22.844 204.176 23.2932 204.176 23.7685Z" fill="white"/>
<defs>
<clipPath id="clip0_1008_722">
<rect width="34" height="24.9041" fill="white" transform="translate(12 10)"/>
</clipPath>
</defs>
</svg>
