<svg width="398" height="36" viewBox="0 0 398 36" fill="none" xmlns="http://www.w3.org/2000/svg">
<rect width="183" height="36" rx="8" fill="#33318F"/>
<path d="M22.8105 22.7148V25H15.2422V22.7148H22.8105ZM16.1992 10.7812V25H13.2695V10.7812H16.1992ZM21.8242 16.5723V18.7988H15.2422V16.5723H21.8242ZM22.8008 10.7812V13.0762H15.2422V10.7812H22.8008ZM27.0977 16.6895V25H24.2852V14.4336H26.9219L27.0977 16.6895ZM26.6875 19.3457H25.9258C25.9258 18.5645 26.0267 17.8613 26.2285 17.2363C26.4303 16.6048 26.7135 16.0677 27.0781 15.625C27.4427 15.1758 27.8757 14.834 28.377 14.5996C28.8848 14.3587 29.4512 14.2383 30.0762 14.2383C30.571 14.2383 31.0234 14.3099 31.4336 14.4531C31.8438 14.5964 32.1953 14.8242 32.4883 15.1367C32.7878 15.4492 33.0156 15.8626 33.1719 16.377C33.3346 16.8913 33.416 17.5195 33.416 18.2617V25H30.584V18.252C30.584 17.7832 30.5189 17.4186 30.3887 17.1582C30.2585 16.8978 30.0664 16.7155 29.8125 16.6113C29.5651 16.5007 29.2591 16.4453 28.8945 16.4453C28.5169 16.4453 28.1882 16.5202 27.9082 16.6699C27.6348 16.8197 27.4069 17.028 27.2246 17.2949C27.0488 17.5553 26.9154 17.8613 26.8242 18.2129C26.7331 18.5645 26.6875 18.9421 26.6875 19.3457ZM40.7305 14.4336V16.4258H34.5781V14.4336H40.7305ZM36.1016 11.8262H38.9141V21.8164C38.9141 22.1224 38.9531 22.3568 39.0312 22.5195C39.1159 22.6823 39.2396 22.7962 39.4023 22.8613C39.5651 22.9199 39.7702 22.9492 40.0176 22.9492C40.1934 22.9492 40.3496 22.9427 40.4863 22.9297C40.6296 22.9102 40.75 22.8906 40.8477 22.8711L40.8574 24.9414C40.6165 25.0195 40.3561 25.0814 40.0762 25.127C39.7962 25.1725 39.487 25.1953 39.1484 25.1953C38.5299 25.1953 37.9896 25.0944 37.5273 24.8926C37.0716 24.6842 36.7201 24.3522 36.4727 23.8965C36.2253 23.4408 36.1016 22.8418 36.1016 22.0996V11.8262ZM47.1953 25.1953C46.375 25.1953 45.6393 25.0651 44.9883 24.8047C44.3372 24.5378 43.7839 24.1699 43.3281 23.7012C42.8789 23.2324 42.5339 22.6888 42.293 22.0703C42.0521 21.4453 41.9316 20.7812 41.9316 20.0781V19.6875C41.9316 18.8867 42.0456 18.1543 42.2734 17.4902C42.5013 16.8262 42.8268 16.25 43.25 15.7617C43.6797 15.2734 44.2005 14.8991 44.8125 14.6387C45.4245 14.3717 46.1146 14.2383 46.8828 14.2383C47.6315 14.2383 48.2956 14.362 48.875 14.6094C49.4544 14.8568 49.9395 15.2083 50.3301 15.6641C50.7272 16.1198 51.0267 16.6667 51.2285 17.3047C51.4303 17.9362 51.5312 18.6393 51.5312 19.4141V20.5859H43.1328V18.7109H48.7676V18.4961C48.7676 18.1055 48.696 17.7572 48.5527 17.4512C48.416 17.1387 48.2077 16.8913 47.9277 16.709C47.6478 16.5267 47.2897 16.4355 46.8535 16.4355C46.4824 16.4355 46.1634 16.5169 45.8965 16.6797C45.6296 16.8424 45.4115 17.0703 45.2422 17.3633C45.0794 17.6562 44.9557 18.0013 44.8711 18.3984C44.793 18.7891 44.7539 19.2188 44.7539 19.6875V20.0781C44.7539 20.5013 44.8125 20.8919 44.9297 21.25C45.0534 21.6081 45.2259 21.9173 45.4473 22.1777C45.6751 22.4382 45.9486 22.64 46.2676 22.7832C46.5931 22.9264 46.9609 22.998 47.3711 22.998C47.8789 22.998 48.3509 22.9004 48.7871 22.7051C49.2298 22.5033 49.6107 22.2005 49.9297 21.7969L51.2969 23.2812C51.0755 23.6003 50.7728 23.9062 50.3887 24.1992C50.0111 24.4922 49.5553 24.7331 49.0215 24.9219C48.4876 25.1042 47.8789 25.1953 47.1953 25.1953ZM55.9453 16.7383V25H53.1328V14.4336H55.7793L55.9453 16.7383ZM59.1289 14.3652L59.0801 16.9727C58.9434 16.9531 58.7773 16.9368 58.582 16.9238C58.3932 16.9043 58.2207 16.8945 58.0645 16.8945C57.6673 16.8945 57.3223 16.9466 57.0293 17.0508C56.7428 17.1484 56.502 17.2949 56.3066 17.4902C56.1178 17.6855 55.9746 17.9232 55.877 18.2031C55.7858 18.4831 55.7337 18.8021 55.7207 19.1602L55.1543 18.9844C55.1543 18.3008 55.2227 17.6725 55.3594 17.0996C55.4961 16.5202 55.6947 16.0156 55.9551 15.5859C56.222 15.1562 56.5475 14.8242 56.9316 14.5898C57.3158 14.3555 57.7552 14.2383 58.25 14.2383C58.4062 14.2383 58.5658 14.2513 58.7285 14.2773C58.8913 14.2969 59.0247 14.3262 59.1289 14.3652ZM63.2695 16.4648V29.0625H60.457V14.4336H63.0645L63.2695 16.4648ZM69.959 19.5996V19.8047C69.959 20.5729 69.8678 21.2858 69.6855 21.9434C69.5098 22.6009 69.2493 23.1738 68.9043 23.6621C68.5592 24.1439 68.1296 24.5215 67.6152 24.7949C67.1074 25.0618 66.5215 25.1953 65.8574 25.1953C65.2129 25.1953 64.653 25.0651 64.1777 24.8047C63.7025 24.5443 63.3021 24.1797 62.9766 23.7109C62.6576 23.2357 62.4004 22.6855 62.2051 22.0605C62.0098 21.4355 61.86 20.765 61.7559 20.0488V19.5117C61.86 18.7435 62.0098 18.0404 62.2051 17.4023C62.4004 16.7578 62.6576 16.2012 62.9766 15.7324C63.3021 15.2572 63.6992 14.8893 64.168 14.6289C64.6432 14.3685 65.1999 14.2383 65.8379 14.2383C66.5085 14.2383 67.0977 14.3652 67.6055 14.6191C68.1198 14.873 68.5495 15.2376 68.8945 15.7129C69.2461 16.1882 69.5098 16.7546 69.6855 17.4121C69.8678 18.0697 69.959 18.7988 69.959 19.5996ZM67.1367 19.8047V19.5996C67.1367 19.1504 67.0977 18.737 67.0195 18.3594C66.9479 17.9753 66.8307 17.64 66.668 17.3535C66.5117 17.0671 66.3034 16.8457 66.043 16.6895C65.7891 16.5267 65.4798 16.4453 65.1152 16.4453C64.7311 16.4453 64.4023 16.5072 64.1289 16.6309C63.862 16.7546 63.6439 16.9336 63.4746 17.168C63.3053 17.4023 63.1784 17.6823 63.0938 18.0078C63.0091 18.3333 62.957 18.7012 62.9375 19.1113V20.4688C62.9701 20.9505 63.0612 21.3835 63.2109 21.7676C63.3607 22.1452 63.5918 22.4447 63.9043 22.666C64.2168 22.8874 64.627 22.998 65.1348 22.998C65.5059 22.998 65.8184 22.9167 66.0723 22.7539C66.3262 22.5846 66.5312 22.3535 66.6875 22.0605C66.8503 21.7676 66.9642 21.429 67.0293 21.0449C67.1009 20.6608 67.1367 20.2474 67.1367 19.8047ZM74.5195 16.7383V25H71.707V14.4336H74.3535L74.5195 16.7383ZM77.7031 14.3652L77.6543 16.9727C77.5176 16.9531 77.3516 16.9368 77.1562 16.9238C76.9674 16.9043 76.7949 16.8945 76.6387 16.8945C76.2415 16.8945 75.8965 16.9466 75.6035 17.0508C75.3171 17.1484 75.0762 17.2949 74.8809 17.4902C74.6921 17.6855 74.5488 17.9232 74.4512 18.2031C74.36 18.4831 74.3079 18.8021 74.2949 19.1602L73.7285 18.9844C73.7285 18.3008 73.7969 17.6725 73.9336 17.0996C74.0703 16.5202 74.2689 16.0156 74.5293 15.5859C74.7962 15.1562 75.1217 14.8242 75.5059 14.5898C75.89 14.3555 76.3294 14.2383 76.8242 14.2383C76.9805 14.2383 77.14 14.2513 77.3027 14.2773C77.4655 14.2969 77.599 14.3262 77.7031 14.3652ZM82 14.4336V25H79.1777V14.4336H82ZM79.002 11.6797C79.002 11.2695 79.1452 10.931 79.4316 10.6641C79.7181 10.3971 80.1022 10.2637 80.584 10.2637C81.0592 10.2637 81.4401 10.3971 81.7266 10.6641C82.0195 10.931 82.166 11.2695 82.166 11.6797C82.166 12.0898 82.0195 12.4284 81.7266 12.6953C81.4401 12.9622 81.0592 13.0957 80.584 13.0957C80.1022 13.0957 79.7181 12.9622 79.4316 12.6953C79.1452 12.4284 79.002 12.0898 79.002 11.6797ZM90.0371 22.0801C90.0371 21.8783 89.9785 21.696 89.8613 21.5332C89.7441 21.3704 89.526 21.2207 89.207 21.084C88.8945 20.9408 88.4421 20.8105 87.8496 20.6934C87.3158 20.5762 86.8177 20.4297 86.3555 20.2539C85.8997 20.0716 85.5026 19.8535 85.1641 19.5996C84.832 19.3457 84.5716 19.0462 84.3828 18.7012C84.194 18.3496 84.0996 17.9492 84.0996 17.5C84.0996 17.0573 84.194 16.6406 84.3828 16.25C84.5781 15.8594 84.8548 15.5143 85.2129 15.2148C85.5775 14.9089 86.0202 14.6712 86.541 14.502C87.0684 14.3262 87.6608 14.2383 88.3184 14.2383C89.2363 14.2383 90.0241 14.3848 90.6816 14.6777C91.3457 14.9707 91.8535 15.3743 92.2051 15.8887C92.5632 16.3965 92.7422 16.9759 92.7422 17.627H89.9297C89.9297 17.3535 89.8711 17.1094 89.7539 16.8945C89.6432 16.6732 89.4674 16.5007 89.2266 16.377C88.9922 16.2467 88.6862 16.1816 88.3086 16.1816C87.9961 16.1816 87.7259 16.237 87.498 16.3477C87.2702 16.4518 87.0944 16.5951 86.9707 16.7773C86.8535 16.9531 86.7949 17.1484 86.7949 17.3633C86.7949 17.526 86.8275 17.6725 86.8926 17.8027C86.9642 17.9264 87.0781 18.0404 87.2344 18.1445C87.3906 18.2487 87.5924 18.3464 87.8398 18.4375C88.0938 18.5221 88.4062 18.6003 88.7773 18.6719C89.5391 18.8281 90.2194 19.0332 90.8184 19.2871C91.4173 19.5345 91.8926 19.873 92.2441 20.3027C92.5957 20.7259 92.7715 21.2826 92.7715 21.9727C92.7715 22.4414 92.6673 22.8711 92.459 23.2617C92.2507 23.6523 91.9512 23.9941 91.5605 24.2871C91.1699 24.5736 90.7012 24.7982 90.1543 24.9609C89.6139 25.1172 89.0052 25.1953 88.3281 25.1953C87.3451 25.1953 86.5117 25.0195 85.8281 24.668C85.151 24.3164 84.6367 23.8704 84.2852 23.3301C83.9401 22.7832 83.7676 22.2233 83.7676 21.6504H86.4336C86.4466 22.0345 86.5443 22.3438 86.7266 22.5781C86.9154 22.8125 87.153 22.9818 87.4395 23.0859C87.7324 23.1901 88.0482 23.2422 88.3867 23.2422C88.7513 23.2422 89.054 23.1934 89.2949 23.0957C89.5358 22.9915 89.7181 22.8548 89.8418 22.6855C89.972 22.5098 90.0371 22.3079 90.0371 22.0801ZM99.4609 25.1953C98.6406 25.1953 97.9049 25.0651 97.2539 24.8047C96.6029 24.5378 96.0495 24.1699 95.5938 23.7012C95.1445 23.2324 94.7995 22.6888 94.5586 22.0703C94.3177 21.4453 94.1973 20.7812 94.1973 20.0781V19.6875C94.1973 18.8867 94.3112 18.1543 94.5391 17.4902C94.7669 16.8262 95.0924 16.25 95.5156 15.7617C95.9453 15.2734 96.4661 14.8991 97.0781 14.6387C97.6901 14.3717 98.3802 14.2383 99.1484 14.2383C99.8971 14.2383 100.561 14.362 101.141 14.6094C101.72 14.8568 102.205 15.2083 102.596 15.6641C102.993 16.1198 103.292 16.6667 103.494 17.3047C103.696 17.9362 103.797 18.6393 103.797 19.4141V20.5859H95.3984V18.7109H101.033V18.4961C101.033 18.1055 100.962 17.7572 100.818 17.4512C100.682 17.1387 100.473 16.8913 100.193 16.709C99.9134 16.5267 99.5553 16.4355 99.1191 16.4355C98.748 16.4355 98.429 16.5169 98.1621 16.6797C97.8952 16.8424 97.6771 17.0703 97.5078 17.3633C97.3451 17.6562 97.2214 18.0013 97.1367 18.3984C97.0586 18.7891 97.0195 19.2188 97.0195 19.6875V20.0781C97.0195 20.5013 97.0781 20.8919 97.1953 21.25C97.319 21.6081 97.4915 21.9173 97.7129 22.1777C97.9408 22.4382 98.2142 22.64 98.5332 22.7832C98.8587 22.9264 99.2266 22.998 99.6367 22.998C100.145 22.998 100.617 22.9004 101.053 22.7051C101.495 22.5033 101.876 22.2005 102.195 21.7969L103.562 23.2812C103.341 23.6003 103.038 23.9062 102.654 24.1992C102.277 24.4922 101.821 24.7331 101.287 24.9219C100.753 25.1042 100.145 25.1953 99.4609 25.1953ZM119.969 23.4668V25H112.439V23.4668H119.969ZM112.82 10.7812V25H110.936V10.7812H112.82ZM118.973 16.8945V18.4277H112.439V16.8945H118.973ZM119.871 10.7812V12.3242H112.439V10.7812H119.871ZM128.494 22.9492V10H130.311V25H128.65L128.494 22.9492ZM121.385 19.834V19.6289C121.385 18.8216 121.482 18.0892 121.678 17.4316C121.88 16.7676 122.163 16.1979 122.527 15.7227C122.898 15.2474 123.338 14.8828 123.846 14.6289C124.36 14.3685 124.933 14.2383 125.564 14.2383C126.229 14.2383 126.808 14.3555 127.303 14.5898C127.804 14.8177 128.227 15.153 128.572 15.5957C128.924 16.0319 129.201 16.5592 129.402 17.1777C129.604 17.7962 129.744 18.4961 129.822 19.2773V20.1758C129.751 20.9505 129.611 21.6471 129.402 22.2656C129.201 22.8841 128.924 23.4115 128.572 23.8477C128.227 24.2839 127.804 24.6191 127.303 24.8535C126.801 25.0814 126.215 25.1953 125.545 25.1953C124.926 25.1953 124.36 25.0618 123.846 24.7949C123.338 24.528 122.898 24.1536 122.527 23.6719C122.163 23.1901 121.88 22.6237 121.678 21.9727C121.482 21.3151 121.385 20.6022 121.385 19.834ZM123.201 19.6289V19.834C123.201 20.3613 123.253 20.8561 123.357 21.3184C123.468 21.7806 123.637 22.1875 123.865 22.5391C124.093 22.8906 124.383 23.1673 124.734 23.3691C125.086 23.5645 125.506 23.6621 125.994 23.6621C126.593 23.6621 127.085 23.5352 127.469 23.2812C127.859 23.0273 128.172 22.6921 128.406 22.2754C128.641 21.8587 128.823 21.4062 128.953 20.918V18.5645C128.875 18.2064 128.761 17.8613 128.611 17.5293C128.468 17.1908 128.279 16.8913 128.045 16.6309C127.817 16.3639 127.534 16.1523 127.195 15.9961C126.863 15.8398 126.469 15.7617 126.014 15.7617C125.519 15.7617 125.092 15.8659 124.734 16.0742C124.383 16.276 124.093 16.556 123.865 16.9141C123.637 17.2656 123.468 17.6758 123.357 18.1445C123.253 18.6068 123.201 19.1016 123.201 19.6289ZM135.086 14.4336V25H133.27V14.4336H135.086ZM133.133 11.6309C133.133 11.3379 133.221 11.0905 133.396 10.8887C133.579 10.6868 133.846 10.5859 134.197 10.5859C134.542 10.5859 134.806 10.6868 134.988 10.8887C135.177 11.0905 135.271 11.3379 135.271 11.6309C135.271 11.9108 135.177 12.1517 134.988 12.3535C134.806 12.5488 134.542 12.6465 134.197 12.6465C133.846 12.6465 133.579 12.5488 133.396 12.3535C133.221 12.1517 133.133 11.9108 133.133 11.6309ZM142.41 14.4336V15.8203H136.697V14.4336H142.41ZM138.631 11.8652H140.438V22.3828C140.438 22.7409 140.493 23.0111 140.604 23.1934C140.714 23.3757 140.857 23.4961 141.033 23.5547C141.209 23.6133 141.398 23.6426 141.6 23.6426C141.749 23.6426 141.906 23.6296 142.068 23.6035C142.238 23.571 142.365 23.5449 142.449 23.5254L142.459 25C142.316 25.0456 142.127 25.0879 141.893 25.127C141.665 25.1725 141.388 25.1953 141.062 25.1953C140.62 25.1953 140.213 25.1074 139.842 24.9316C139.471 24.7559 139.174 24.4629 138.953 24.0527C138.738 23.6361 138.631 23.0762 138.631 22.373V11.8652ZM146.492 14.4336V25H144.676V14.4336H146.492ZM144.539 11.6309C144.539 11.3379 144.627 11.0905 144.803 10.8887C144.985 10.6868 145.252 10.5859 145.604 10.5859C145.949 10.5859 146.212 10.6868 146.395 10.8887C146.583 11.0905 146.678 11.3379 146.678 11.6309C146.678 11.9108 146.583 12.1517 146.395 12.3535C146.212 12.5488 145.949 12.6465 145.604 12.6465C145.252 12.6465 144.985 12.5488 144.803 12.3535C144.627 12.1517 144.539 11.9108 144.539 11.6309ZM148.914 19.834V19.6094C148.914 18.8477 149.025 18.1413 149.246 17.4902C149.467 16.8327 149.786 16.263 150.203 15.7812C150.62 15.293 151.124 14.9154 151.717 14.6484C152.309 14.375 152.973 14.2383 153.709 14.2383C154.451 14.2383 155.118 14.375 155.711 14.6484C156.31 14.9154 156.818 15.293 157.234 15.7812C157.658 16.263 157.98 16.8327 158.201 17.4902C158.423 18.1413 158.533 18.8477 158.533 19.6094V19.834C158.533 20.5957 158.423 21.3021 158.201 21.9531C157.98 22.6042 157.658 23.1738 157.234 23.6621C156.818 24.1439 156.313 24.5215 155.721 24.7949C155.135 25.0618 154.471 25.1953 153.729 25.1953C152.986 25.1953 152.319 25.0618 151.727 24.7949C151.134 24.5215 150.626 24.1439 150.203 23.6621C149.786 23.1738 149.467 22.6042 149.246 21.9531C149.025 21.3021 148.914 20.5957 148.914 19.834ZM150.721 19.6094V19.834C150.721 20.3613 150.783 20.8594 150.906 21.3281C151.03 21.7904 151.215 22.2005 151.463 22.5586C151.717 22.9167 152.033 23.1999 152.41 23.4082C152.788 23.61 153.227 23.7109 153.729 23.7109C154.223 23.7109 154.656 23.61 155.027 23.4082C155.405 23.1999 155.717 22.9167 155.965 22.5586C156.212 22.2005 156.398 21.7904 156.521 21.3281C156.652 20.8594 156.717 20.3613 156.717 19.834V19.6094C156.717 19.0885 156.652 18.597 156.521 18.1348C156.398 17.666 156.209 17.2526 155.955 16.8945C155.708 16.5299 155.395 16.2435 155.018 16.0352C154.646 15.8268 154.21 15.7227 153.709 15.7227C153.214 15.7227 152.778 15.8268 152.4 16.0352C152.029 16.2435 151.717 16.5299 151.463 16.8945C151.215 17.2526 151.03 17.666 150.906 18.1348C150.783 18.597 150.721 19.0885 150.721 19.6094ZM162.605 16.6895V25H160.799V14.4336H162.508L162.605 16.6895ZM162.176 19.3164L161.424 19.2871C161.43 18.5645 161.538 17.8971 161.746 17.2852C161.954 16.6667 162.247 16.1296 162.625 15.6738C163.003 15.2181 163.452 14.8665 163.973 14.6191C164.5 14.3652 165.083 14.2383 165.721 14.2383C166.242 14.2383 166.71 14.3099 167.127 14.4531C167.544 14.5898 167.898 14.8112 168.191 15.1172C168.491 15.4232 168.719 15.8203 168.875 16.3086C169.031 16.7904 169.109 17.3796 169.109 18.0762V25H167.293V18.0566C167.293 17.5033 167.212 17.0605 167.049 16.7285C166.886 16.39 166.648 16.1458 166.336 15.9961C166.023 15.8398 165.639 15.7617 165.184 15.7617C164.734 15.7617 164.324 15.8561 163.953 16.0449C163.589 16.2337 163.273 16.4941 163.006 16.8262C162.745 17.1582 162.54 17.5391 162.391 17.9688C162.247 18.3919 162.176 18.8411 162.176 19.3164Z" fill="white"/>
<rect x="204" width="194" height="36" rx="8" fill="#D63C30"/>
<path d="M225.512 20.2832H228.432C228.373 21.2402 228.109 22.0898 227.641 22.832C227.178 23.5742 226.531 24.1536 225.697 24.5703C224.87 24.987 223.874 25.1953 222.709 25.1953C221.798 25.1953 220.98 25.0391 220.258 24.7266C219.535 24.4076 218.917 23.9518 218.402 23.3594C217.895 22.7669 217.507 22.0508 217.24 21.2109C216.973 20.3711 216.84 19.4303 216.84 18.3887V17.4023C216.84 16.3607 216.977 15.4199 217.25 14.5801C217.53 13.7337 217.927 13.0143 218.441 12.4219C218.962 11.8294 219.584 11.3737 220.307 11.0547C221.029 10.7357 221.837 10.5762 222.729 10.5762C223.913 10.5762 224.913 10.791 225.727 11.2207C226.547 11.6504 227.182 12.2428 227.631 12.998C228.087 13.7533 228.36 14.6126 228.451 15.5762H225.521C225.489 15.0033 225.375 14.5182 225.18 14.1211C224.984 13.7174 224.688 13.4147 224.291 13.2129C223.9 13.0046 223.38 12.9004 222.729 12.9004C222.24 12.9004 221.814 12.9915 221.449 13.1738C221.085 13.3561 220.779 13.6328 220.531 14.0039C220.284 14.375 220.098 14.8438 219.975 15.4102C219.857 15.9701 219.799 16.6276 219.799 17.3828V18.3887C219.799 19.1243 219.854 19.7721 219.965 20.332C220.076 20.8854 220.245 21.3542 220.473 21.7383C220.707 22.1159 221.007 22.4023 221.371 22.5977C221.742 22.7865 222.188 22.8809 222.709 22.8809C223.321 22.8809 223.826 22.7832 224.223 22.5879C224.62 22.3926 224.923 22.1029 225.131 21.7188C225.346 21.3346 225.473 20.8561 225.512 20.2832ZM229.73 19.8242V19.6191C229.73 18.8444 229.841 18.1315 230.062 17.4805C230.284 16.8229 230.606 16.2533 231.029 15.7715C231.452 15.2897 231.973 14.9154 232.592 14.6484C233.21 14.375 233.92 14.2383 234.721 14.2383C235.521 14.2383 236.234 14.375 236.859 14.6484C237.484 14.9154 238.008 15.2897 238.432 15.7715C238.861 16.2533 239.187 16.8229 239.408 17.4805C239.63 18.1315 239.74 18.8444 239.74 19.6191V19.8242C239.74 20.5924 239.63 21.3053 239.408 21.9629C239.187 22.6139 238.861 23.1836 238.432 23.6719C238.008 24.1536 237.488 24.528 236.869 24.7949C236.251 25.0618 235.541 25.1953 234.74 25.1953C233.939 25.1953 233.227 25.0618 232.602 24.7949C231.983 24.528 231.459 24.1536 231.029 23.6719C230.606 23.1836 230.284 22.6139 230.062 21.9629C229.841 21.3053 229.73 20.5924 229.73 19.8242ZM232.543 19.6191V19.8242C232.543 20.2669 232.582 20.6803 232.66 21.0645C232.738 21.4486 232.862 21.7871 233.031 22.0801C233.207 22.3665 233.435 22.5911 233.715 22.7539C233.995 22.9167 234.337 22.998 234.74 22.998C235.131 22.998 235.466 22.9167 235.746 22.7539C236.026 22.5911 236.251 22.3665 236.42 22.0801C236.589 21.7871 236.713 21.4486 236.791 21.0645C236.876 20.6803 236.918 20.2669 236.918 19.8242V19.6191C236.918 19.1895 236.876 18.7858 236.791 18.4082C236.713 18.0241 236.586 17.6855 236.41 17.3926C236.241 17.0931 236.016 16.8587 235.736 16.6895C235.456 16.5202 235.118 16.4355 234.721 16.4355C234.324 16.4355 233.985 16.5202 233.705 16.6895C233.432 16.8587 233.207 17.0931 233.031 17.3926C232.862 17.6855 232.738 18.0241 232.66 18.4082C232.582 18.7858 232.543 19.1895 232.543 19.6191ZM244.281 16.6211V25H241.459V14.4336H244.105L244.281 16.6211ZM243.891 19.3457H243.109C243.109 18.61 243.197 17.9329 243.373 17.3145C243.555 16.6895 243.819 16.1491 244.164 15.6934C244.516 15.2311 244.949 14.873 245.463 14.6191C245.977 14.3652 246.573 14.2383 247.25 14.2383C247.719 14.2383 248.148 14.3099 248.539 14.4531C248.93 14.5898 249.265 14.8079 249.545 15.1074C249.831 15.4004 250.053 15.7845 250.209 16.2598C250.365 16.7285 250.443 17.2917 250.443 17.9492V25H247.631V18.2617C247.631 17.7799 247.566 17.4089 247.436 17.1484C247.305 16.888 247.12 16.7057 246.879 16.6016C246.645 16.4974 246.361 16.4453 246.029 16.4453C245.665 16.4453 245.346 16.5202 245.072 16.6699C244.805 16.8197 244.584 17.028 244.408 17.2949C244.232 17.5553 244.102 17.8613 244.018 18.2129C243.933 18.5645 243.891 18.9421 243.891 19.3457ZM250.18 19.0234L249.174 19.1504C249.174 18.4603 249.258 17.819 249.428 17.2266C249.604 16.6341 249.861 16.1133 250.199 15.6641C250.544 15.2148 250.971 14.8665 251.479 14.6191C251.986 14.3652 252.572 14.2383 253.236 14.2383C253.744 14.2383 254.206 14.3132 254.623 14.4629C255.04 14.6061 255.395 14.8372 255.688 15.1562C255.987 15.4688 256.215 15.8789 256.371 16.3867C256.534 16.8945 256.615 17.5163 256.615 18.252V25H253.793V18.252C253.793 17.7637 253.728 17.3926 253.598 17.1387C253.474 16.8783 253.292 16.6992 253.051 16.6016C252.816 16.4974 252.536 16.4453 252.211 16.4453C251.872 16.4453 251.576 16.5137 251.322 16.6504C251.068 16.7806 250.857 16.9629 250.688 17.1973C250.518 17.4316 250.391 17.7051 250.307 18.0176C250.222 18.3236 250.18 18.6589 250.18 19.0234ZM261.605 16.6211V25H258.783V14.4336H261.43L261.605 16.6211ZM261.215 19.3457H260.434C260.434 18.61 260.521 17.9329 260.697 17.3145C260.88 16.6895 261.143 16.1491 261.488 15.6934C261.84 15.2311 262.273 14.873 262.787 14.6191C263.301 14.3652 263.897 14.2383 264.574 14.2383C265.043 14.2383 265.473 14.3099 265.863 14.4531C266.254 14.5898 266.589 14.8079 266.869 15.1074C267.156 15.4004 267.377 15.7845 267.533 16.2598C267.689 16.7285 267.768 17.2917 267.768 17.9492V25H264.955V18.2617C264.955 17.7799 264.89 17.4089 264.76 17.1484C264.63 16.888 264.444 16.7057 264.203 16.6016C263.969 16.4974 263.686 16.4453 263.354 16.4453C262.989 16.4453 262.67 16.5202 262.396 16.6699C262.13 16.8197 261.908 17.028 261.732 17.2949C261.557 17.5553 261.426 17.8613 261.342 18.2129C261.257 18.5645 261.215 18.9421 261.215 19.3457ZM267.504 19.0234L266.498 19.1504C266.498 18.4603 266.583 17.819 266.752 17.2266C266.928 16.6341 267.185 16.1133 267.523 15.6641C267.868 15.2148 268.295 14.8665 268.803 14.6191C269.311 14.3652 269.896 14.2383 270.561 14.2383C271.068 14.2383 271.531 14.3132 271.947 14.4629C272.364 14.6061 272.719 14.8372 273.012 15.1562C273.311 15.4688 273.539 15.8789 273.695 16.3867C273.858 16.8945 273.939 17.5163 273.939 18.252V25H271.117V18.252C271.117 17.7637 271.052 17.3926 270.922 17.1387C270.798 16.8783 270.616 16.6992 270.375 16.6016C270.141 16.4974 269.861 16.4453 269.535 16.4453C269.197 16.4453 268.9 16.5137 268.646 16.6504C268.393 16.7806 268.181 16.9629 268.012 17.1973C267.842 17.4316 267.715 17.7051 267.631 18.0176C267.546 18.3236 267.504 18.6589 267.504 19.0234ZM282.367 22.4707V14.4336H285.18V25H282.533L282.367 22.4707ZM282.68 20.3027L283.51 20.2832C283.51 20.9863 283.428 21.6406 283.266 22.2461C283.103 22.8451 282.859 23.3659 282.533 23.8086C282.208 24.2448 281.798 24.5866 281.303 24.834C280.808 25.0749 280.225 25.1953 279.555 25.1953C279.04 25.1953 278.565 25.1237 278.129 24.9805C277.699 24.8307 277.328 24.5996 277.016 24.2871C276.71 23.9681 276.469 23.5612 276.293 23.0664C276.124 22.5651 276.039 21.9629 276.039 21.2598V14.4336H278.852V21.2793C278.852 21.5918 278.887 21.8555 278.959 22.0703C279.037 22.2852 279.145 22.4609 279.281 22.5977C279.418 22.7344 279.577 22.832 279.76 22.8906C279.949 22.9492 280.157 22.9785 280.385 22.9785C280.964 22.9785 281.42 22.8613 281.752 22.627C282.09 22.3926 282.328 22.0736 282.465 21.6699C282.608 21.2598 282.68 20.804 282.68 20.3027ZM290.082 16.6895V25H287.27V14.4336H289.906L290.082 16.6895ZM289.672 19.3457H288.91C288.91 18.5645 289.011 17.8613 289.213 17.2363C289.415 16.6048 289.698 16.0677 290.062 15.625C290.427 15.1758 290.86 14.834 291.361 14.5996C291.869 14.3587 292.436 14.2383 293.061 14.2383C293.555 14.2383 294.008 14.3099 294.418 14.4531C294.828 14.5964 295.18 14.8242 295.473 15.1367C295.772 15.4492 296 15.8626 296.156 16.377C296.319 16.8913 296.4 17.5195 296.4 18.2617V25H293.568V18.252C293.568 17.7832 293.503 17.4186 293.373 17.1582C293.243 16.8978 293.051 16.7155 292.797 16.6113C292.549 16.5007 292.243 16.4453 291.879 16.4453C291.501 16.4453 291.173 16.5202 290.893 16.6699C290.619 16.8197 290.391 17.028 290.209 17.2949C290.033 17.5553 289.9 17.8613 289.809 18.2129C289.717 18.5645 289.672 18.9421 289.672 19.3457ZM301.508 14.4336V25H298.686V14.4336H301.508ZM298.51 11.6797C298.51 11.2695 298.653 10.931 298.939 10.6641C299.226 10.3971 299.61 10.2637 300.092 10.2637C300.567 10.2637 300.948 10.3971 301.234 10.6641C301.527 10.931 301.674 11.2695 301.674 11.6797C301.674 12.0898 301.527 12.4284 301.234 12.6953C300.948 12.9622 300.567 13.0957 300.092 13.0957C299.61 13.0957 299.226 12.9622 298.939 12.6953C298.653 12.4284 298.51 12.0898 298.51 11.6797ZM309.008 14.4336V16.4258H302.855V14.4336H309.008ZM304.379 11.8262H307.191V21.8164C307.191 22.1224 307.23 22.3568 307.309 22.5195C307.393 22.6823 307.517 22.7962 307.68 22.8613C307.842 22.9199 308.048 22.9492 308.295 22.9492C308.471 22.9492 308.627 22.9427 308.764 22.9297C308.907 22.9102 309.027 22.8906 309.125 22.8711L309.135 24.9414C308.894 25.0195 308.633 25.0814 308.354 25.127C308.074 25.1725 307.764 25.1953 307.426 25.1953C306.807 25.1953 306.267 25.0944 305.805 24.8926C305.349 24.6842 304.997 24.3522 304.75 23.8965C304.503 23.4408 304.379 22.8418 304.379 22.0996V11.8262ZM313.744 23.8086L316.547 14.4336H319.564L315.316 26.5918C315.225 26.8587 315.102 27.1452 314.945 27.4512C314.796 27.7572 314.59 28.0469 314.33 28.3203C314.076 28.6003 313.754 28.8281 313.363 29.0039C312.979 29.1797 312.507 29.2676 311.947 29.2676C311.68 29.2676 311.462 29.2513 311.293 29.2188C311.124 29.1862 310.922 29.1406 310.688 29.082V27.0215C310.759 27.0215 310.834 27.0215 310.912 27.0215C310.99 27.028 311.065 27.0312 311.137 27.0312C311.508 27.0312 311.811 26.9889 312.045 26.9043C312.279 26.8197 312.468 26.6895 312.611 26.5137C312.755 26.3444 312.868 26.123 312.953 25.8496L313.744 23.8086ZM312.572 14.4336L314.867 22.0898L315.268 25.0684L313.354 25.2734L309.555 14.4336H312.572ZM335.258 23.4668V25H327.729V23.4668H335.258ZM328.109 10.7812V25H326.225V10.7812H328.109ZM334.262 16.8945V18.4277H327.729V16.8945H334.262ZM335.16 10.7812V12.3242H327.729V10.7812H335.16ZM343.783 22.9492V10H345.6V25H343.939L343.783 22.9492ZM336.674 19.834V19.6289C336.674 18.8216 336.771 18.0892 336.967 17.4316C337.169 16.7676 337.452 16.1979 337.816 15.7227C338.188 15.2474 338.627 14.8828 339.135 14.6289C339.649 14.3685 340.222 14.2383 340.854 14.2383C341.518 14.2383 342.097 14.3555 342.592 14.5898C343.093 14.8177 343.516 15.153 343.861 15.5957C344.213 16.0319 344.49 16.5592 344.691 17.1777C344.893 17.7962 345.033 18.4961 345.111 19.2773V20.1758C345.04 20.9505 344.9 21.6471 344.691 22.2656C344.49 22.8841 344.213 23.4115 343.861 23.8477C343.516 24.2839 343.093 24.6191 342.592 24.8535C342.09 25.0814 341.505 25.1953 340.834 25.1953C340.215 25.1953 339.649 25.0618 339.135 24.7949C338.627 24.528 338.188 24.1536 337.816 23.6719C337.452 23.1901 337.169 22.6237 336.967 21.9727C336.771 21.3151 336.674 20.6022 336.674 19.834ZM338.49 19.6289V19.834C338.49 20.3613 338.542 20.8561 338.646 21.3184C338.757 21.7806 338.926 22.1875 339.154 22.5391C339.382 22.8906 339.672 23.1673 340.023 23.3691C340.375 23.5645 340.795 23.6621 341.283 23.6621C341.882 23.6621 342.374 23.5352 342.758 23.2812C343.148 23.0273 343.461 22.6921 343.695 22.2754C343.93 21.8587 344.112 21.4062 344.242 20.918V18.5645C344.164 18.2064 344.05 17.8613 343.9 17.5293C343.757 17.1908 343.568 16.8913 343.334 16.6309C343.106 16.3639 342.823 16.1523 342.484 15.9961C342.152 15.8398 341.758 15.7617 341.303 15.7617C340.808 15.7617 340.382 15.8659 340.023 16.0742C339.672 16.276 339.382 16.556 339.154 16.9141C338.926 17.2656 338.757 17.6758 338.646 18.1445C338.542 18.6068 338.49 19.1016 338.49 19.6289ZM350.375 14.4336V25H348.559V14.4336H350.375ZM348.422 11.6309C348.422 11.3379 348.51 11.0905 348.686 10.8887C348.868 10.6868 349.135 10.5859 349.486 10.5859C349.831 10.5859 350.095 10.6868 350.277 10.8887C350.466 11.0905 350.561 11.3379 350.561 11.6309C350.561 11.9108 350.466 12.1517 350.277 12.3535C350.095 12.5488 349.831 12.6465 349.486 12.6465C349.135 12.6465 348.868 12.5488 348.686 12.3535C348.51 12.1517 348.422 11.9108 348.422 11.6309ZM357.699 14.4336V15.8203H351.986V14.4336H357.699ZM353.92 11.8652H355.727V22.3828C355.727 22.7409 355.782 23.0111 355.893 23.1934C356.003 23.3757 356.146 23.4961 356.322 23.5547C356.498 23.6133 356.687 23.6426 356.889 23.6426C357.038 23.6426 357.195 23.6296 357.357 23.6035C357.527 23.571 357.654 23.5449 357.738 23.5254L357.748 25C357.605 25.0456 357.416 25.0879 357.182 25.127C356.954 25.1725 356.677 25.1953 356.352 25.1953C355.909 25.1953 355.502 25.1074 355.131 24.9316C354.76 24.7559 354.464 24.4629 354.242 24.0527C354.027 23.6361 353.92 23.0762 353.92 22.373V11.8652ZM361.781 14.4336V25H359.965V14.4336H361.781ZM359.828 11.6309C359.828 11.3379 359.916 11.0905 360.092 10.8887C360.274 10.6868 360.541 10.5859 360.893 10.5859C361.238 10.5859 361.501 10.6868 361.684 10.8887C361.872 11.0905 361.967 11.3379 361.967 11.6309C361.967 11.9108 361.872 12.1517 361.684 12.3535C361.501 12.5488 361.238 12.6465 360.893 12.6465C360.541 12.6465 360.274 12.5488 360.092 12.3535C359.916 12.1517 359.828 11.9108 359.828 11.6309ZM364.203 19.834V19.6094C364.203 18.8477 364.314 18.1413 364.535 17.4902C364.757 16.8327 365.076 16.263 365.492 15.7812C365.909 15.293 366.413 14.9154 367.006 14.6484C367.598 14.375 368.262 14.2383 368.998 14.2383C369.74 14.2383 370.408 14.375 371 14.6484C371.599 14.9154 372.107 15.293 372.523 15.7812C372.947 16.263 373.269 16.8327 373.49 17.4902C373.712 18.1413 373.822 18.8477 373.822 19.6094V19.834C373.822 20.5957 373.712 21.3021 373.49 21.9531C373.269 22.6042 372.947 23.1738 372.523 23.6621C372.107 24.1439 371.602 24.5215 371.01 24.7949C370.424 25.0618 369.76 25.1953 369.018 25.1953C368.275 25.1953 367.608 25.0618 367.016 24.7949C366.423 24.5215 365.915 24.1439 365.492 23.6621C365.076 23.1738 364.757 22.6042 364.535 21.9531C364.314 21.3021 364.203 20.5957 364.203 19.834ZM366.01 19.6094V19.834C366.01 20.3613 366.072 20.8594 366.195 21.3281C366.319 21.7904 366.505 22.2005 366.752 22.5586C367.006 22.9167 367.322 23.1999 367.699 23.4082C368.077 23.61 368.516 23.7109 369.018 23.7109C369.512 23.7109 369.945 23.61 370.316 23.4082C370.694 23.1999 371.007 22.9167 371.254 22.5586C371.501 22.2005 371.687 21.7904 371.811 21.3281C371.941 20.8594 372.006 20.3613 372.006 19.834V19.6094C372.006 19.0885 371.941 18.597 371.811 18.1348C371.687 17.666 371.498 17.2526 371.244 16.8945C370.997 16.5299 370.684 16.2435 370.307 16.0352C369.936 15.8268 369.499 15.7227 368.998 15.7227C368.503 15.7227 368.067 15.8268 367.689 16.0352C367.318 16.2435 367.006 16.5299 366.752 16.8945C366.505 17.2526 366.319 17.666 366.195 18.1348C366.072 18.597 366.01 19.0885 366.01 19.6094ZM377.895 16.6895V25H376.088V14.4336H377.797L377.895 16.6895ZM377.465 19.3164L376.713 19.2871C376.719 18.5645 376.827 17.8971 377.035 17.2852C377.243 16.6667 377.536 16.1296 377.914 15.6738C378.292 15.2181 378.741 14.8665 379.262 14.6191C379.789 14.3652 380.372 14.2383 381.01 14.2383C381.531 14.2383 381.999 14.3099 382.416 14.4531C382.833 14.5898 383.188 14.8112 383.48 15.1172C383.78 15.4232 384.008 15.8203 384.164 16.3086C384.32 16.7904 384.398 17.3796 384.398 18.0762V25H382.582V18.0566C382.582 17.5033 382.501 17.0605 382.338 16.7285C382.175 16.39 381.938 16.1458 381.625 15.9961C381.312 15.8398 380.928 15.7617 380.473 15.7617C380.023 15.7617 379.613 15.8561 379.242 16.0449C378.878 16.2337 378.562 16.4941 378.295 16.8262C378.035 17.1582 377.829 17.5391 377.68 17.9688C377.536 18.3919 377.465 18.8411 377.465 19.3164Z" fill="white"/>
</svg>
