<!--
Copyright 2025 Specter Ops, Inc.

Licensed under the Apache License, Version 2.0
you may not use this file except in compliance with the License.
You may obtain a copy of the License at

    http://www.apache.org/licenses/LICENSE-2.0

Unless required by applicable law or agreed to in writing, software
distributed under the License is distributed on an "AS IS" BASIS,
WITHOUT WARRANTIES OR CONDITIONS OF ANY KIND, either express or implied.
See the License for the specific language governing permissions and
limitations under the License.

SPDX-License-Identifier: Apache-2.0
-->
<svg width="32" height="32" viewBox="0 0 32 32" fill="none" xmlns="http://www.w3.org/2000/svg">
<circle cx="16" cy="16" r="16" fill="#1E1E1E"/>
<circle cx="16" cy="16" r="15" fill="#03FC84"/>
<path d="M25.5 8.15625V18.8438C25.5 19.8457 24.6836 20.625 23.7188 20.625H21.9375V12.9062C21.9375 11.2734 20.6016 9.9375 18.9688 9.9375H11.25V8.15625C11.25 7.19141 12.0293 6.375 13.0312 6.375H23.7188C24.6836 6.375 25.5 7.19141 25.5 8.15625ZM20.75 12.9062V23.5938C20.75 24.5957 19.9336 25.375 18.9688 25.375H8.28125C7.2793 25.375 6.5 24.5957 6.5 23.5938V12.9062C6.5 11.9414 7.2793 11.125 8.28125 11.125H18.9688C19.9336 11.125 20.75 11.9414 20.75 12.9062ZM18.2266 13.9453C18.2266 13.7227 18.0039 13.5 17.7812 13.5H9.32031C9.06055 13.5 8.875 13.7227 8.875 13.9453V15.875H18.2266V13.9453Z" fill="black" fill-opacity="0.870588"/>
</svg>
